<svg width="70" height="55" viewBox="0 0 70 55" fill="none" xmlns="http://www.w3.org/2000/svg">
<path d="M59.2967 5.3311C54.7654 3.21106 49.9204 1.67029 44.8551 0.792969C44.233 1.91767 43.5063 3.43041 43.0052 4.63379C37.6206 3.82402 32.2856 3.82402 27 4.63379C26.4991 3.43041 25.7558 1.91767 25.1281 0.792969C20.0574 1.67029 15.2068 3.21672 10.6756 5.34233C1.53604 19.1533 -0.941533 32.6213 0.297257 45.898C6.35907 50.4249 12.2337 53.1748 18.0092 54.9742C19.4352 53.0116 20.707 50.9254 21.8026 48.7266C19.7159 47.9338 17.7174 46.9553 15.829 45.8194C16.33 45.4482 16.82 45.0602 17.2934 44.6609C28.8114 50.0481 41.326 50.0481 52.7063 44.6609C53.1853 45.0602 53.6753 45.4482 54.1708 45.8194C52.2768 46.9609 50.2728 47.9393 48.1861 48.7323C49.2817 50.9254 50.5481 53.0173 51.9795 54.9798C57.7606 53.1803 63.6407 50.4305 69.7025 45.898C71.156 30.5069 67.2194 17.1626 59.2967 5.3311ZM23.3718 37.733C19.9142 37.733 17.0787 34.5051 17.0787 30.5744C17.0787 26.6437 19.8536 23.4102 23.3718 23.4102C26.89 23.4102 29.7254 26.638 29.6648 30.5744C29.6703 34.5051 26.89 37.733 23.3718 37.733ZM46.628 37.733C43.1704 37.733 40.3349 34.5051 40.3349 30.5744C40.3349 26.6437 43.1098 23.4102 46.628 23.4102C50.1461 23.4102 52.9816 26.638 52.9211 30.5744C52.9211 34.5051 50.1461 37.733 46.628 37.733Z" fill="white"/>
</svg>
