
<svg width="166" height="362" viewBox="0 0 166 362" fill="none" xmlns="http://www.w3.org/2000/svg">
<g opacity="0.56">
<path d="M36.8166 300.499C29.4148 300.635 22.4776 304.133 17.9687 310.005C13.4599 315.877 11.8702 323.482 13.6496 330.668C15.429 337.854 20.3838 343.839 27.1115 346.928C33.8392 350.017 41.6075 349.875 48.2174 346.541C54.8273 343.207 59.5594 337.045 61.0741 329.798C62.5888 322.552 60.7213 315.01 56.0003 309.308C51.2792 303.605 44.2184 300.363 36.8166 300.499Z" fill="#C4C4C4"/>
<path d="M36.8166 300.499C29.4148 300.635 22.4776 304.133 17.9687 310.005C13.4599 315.877 11.8702 323.482 13.6496 330.668C15.429 337.854 20.3838 343.839 27.1115 346.928C33.8392 350.017 41.6075 349.875 48.2174 346.541C54.8273 343.207 59.5594 337.045 61.0741 329.798C62.5888 322.552 60.7213 315.01 56.0003 309.308C51.2792 303.605 44.2184 300.363 36.8166 300.499Z" fill="#617086"/>
</g>
<g opacity="0.5">
<path d="M142.851 7.37847C138.279 7.46232 133.993 9.62376 131.208 13.2509C128.423 16.8781 127.441 21.5762 128.54 26.0154C129.639 30.4545 132.7 34.1516 136.856 36.0599C141.012 37.9683 145.811 37.8803 149.894 35.8208C153.977 33.7613 156.901 29.9546 157.836 25.4781C158.772 21.0016 157.618 16.3427 154.702 12.8201C151.785 9.29747 147.424 7.29461 142.851 7.37847Z" fill="#C4C4C4"/>
<path d="M142.851 7.37847C138.279 7.46232 133.993 9.62376 131.208 13.2509C128.423 16.8781 127.441 21.5762 128.54 26.0154C129.639 30.4545 132.7 34.1516 136.856 36.0599C141.012 37.9683 145.811 37.8803 149.894 35.8208C153.977 33.7613 156.901 29.9546 157.836 25.4781C158.772 21.0016 157.618 16.3427 154.702 12.8201C151.785 9.29747 147.424 7.29461 142.851 7.37847Z" fill="white"/>
</g>
<path d="M25.9374 100.749C23.6139 100.792 21.4363 101.89 20.021 103.733C18.6056 105.577 18.1066 107.964 18.6651 110.22C19.2237 112.475 20.7791 114.354 22.8909 115.324C25.0028 116.294 27.4414 116.249 29.5163 115.202C31.5912 114.156 33.0766 112.221 33.5521 109.947C34.0276 107.672 33.4413 105.305 31.9593 103.515C30.4774 101.724 28.2609 100.707 25.9374 100.749Z" fill="#C4C4C4"/>
<path d="M25.9374 100.749C23.6139 100.792 21.4363 101.89 20.021 103.733C18.6056 105.577 18.1066 107.964 18.6651 110.22C19.2237 112.475 20.7791 114.354 22.8909 115.324C25.0028 116.294 27.4414 116.249 29.5163 115.202C31.5912 114.156 33.0766 112.221 33.5521 109.947C34.0276 107.672 33.4413 105.305 31.9593 103.515C30.4774 101.724 28.2609 100.707 25.9374 100.749Z" fill="#27ABB0"/>
</svg>
