<svg width="85" height="73" viewBox="0 0 85 73" fill="none" xmlns="http://www.w3.org/2000/svg">
<path d="M30.3566 69.6478C30.1396 69.6478 29.9227 69.6478 29.6747 69.6788C29.6128 69.6788 29.5508 69.7098 29.4888 69.7098C29.4268 69.7098 29.3648 69.7408 29.3028 69.7408C29.1788 69.7718 29.0549 69.8027 28.8999 69.8337C28.373 69.9886 27.7842 70.2055 27.1953 70.4843C26.6374 70.7322 26.0485 71.011 25.5217 71.2899C24.9948 71.5687 24.5609 71.8166 24.2199 71.9715C23.91 72.1264 23.6931 72.2503 23.6931 72.2503C23.6931 72.2503 23.755 72.2813 23.848 72.3123C23.941 72.3432 24.096 72.4052 24.2509 72.4362C24.6229 72.5291 25.1187 72.684 25.7076 72.777C25.8626 72.808 25.9866 72.839 26.1415 72.8699C26.2965 72.9009 26.4514 72.9009 26.6064 72.9319C26.9163 72.9629 27.2573 72.9939 27.5672 72.9939C28.2181 73.0248 28.8689 72.9319 29.4268 72.777C30.5425 72.4672 31.2864 71.7856 31.7513 71.2279C32.2162 70.6702 32.4331 70.1745 32.4331 70.1745C32.4331 70.1745 32.0612 69.9267 31.4104 69.7718C31.1624 69.7408 30.7595 69.6478 30.3566 69.6478Z" fill="#5D69BE"/>
<path d="M32.0614 65.2484C31.8134 64.8456 31.4725 64.4738 31.1006 64.133C30.9146 63.9471 30.7287 63.7922 30.5427 63.6373C30.4497 63.5444 30.3568 63.4824 30.2638 63.4205C30.1708 63.3585 30.0778 63.2655 30.0158 63.2036C29.6749 62.9247 29.365 62.7389 29.117 62.5839C28.9001 62.429 28.7451 62.3361 28.7451 62.3361C28.7451 62.3361 28.7451 62.522 28.7451 62.8628C28.7451 63.2036 28.7761 63.6373 28.8691 64.164C28.9311 64.6907 29.055 65.2484 29.21 65.806C29.365 66.3327 29.6129 66.8594 29.8609 67.2932C29.9229 67.4171 29.9848 67.51 30.0778 67.603C30.1088 67.665 30.1398 67.6959 30.2018 67.7269C30.2328 67.7579 30.2638 67.8199 30.3258 67.8508C30.4807 68.0058 30.6667 68.1607 30.8217 68.2536C30.9766 68.3775 31.1626 68.4705 31.3176 68.5324C31.4725 68.6254 31.6275 68.6874 31.7824 68.7183C32.3713 68.9042 32.8362 68.8732 32.8362 68.8732C32.8362 68.8732 32.8982 68.3466 32.8362 67.634C32.8052 67.2622 32.7432 66.8594 32.6193 66.4567C32.5883 66.3637 32.5573 66.2398 32.5263 66.1468C32.4953 66.0539 32.4333 65.93 32.4023 65.837C32.2783 65.6511 32.1854 65.4343 32.0614 65.2484Z" fill="#5D69BE"/>
<path d="M23.4453 66.4567C23.4143 66.4257 23.3523 66.3638 23.2904 66.3018C23.1354 66.1779 22.9184 66.023 22.6395 65.8681C22.4845 65.7751 22.3296 65.7132 22.1746 65.6512C21.9886 65.5892 21.8027 65.5273 21.6167 65.4653C21.2138 65.3414 20.7179 65.2794 20.16 65.2794C19.8811 65.2794 19.5712 65.3104 19.2922 65.3414C18.9823 65.3724 18.6724 65.4033 18.3624 65.4653C18.0525 65.5273 17.7426 65.5892 17.4326 65.6202C17.1227 65.6822 16.8128 65.7441 16.5338 65.8061C15.976 65.93 15.4801 66.054 15.1082 66.1159C14.7362 66.2089 14.5193 66.2708 14.5193 66.2708C14.5193 66.2708 14.7052 66.3948 15.0152 66.6116C15.1701 66.7046 15.3561 66.8285 15.5731 66.9524C15.666 67.0144 15.79 67.0764 15.914 67.1383C16.038 67.2003 16.1619 67.2622 16.2859 67.3242C16.5338 67.4481 16.8438 67.5721 17.1227 67.696C17.2777 67.758 17.4326 67.8199 17.5566 67.8509C17.6186 67.8819 17.7116 67.9129 17.7736 67.9438C17.8666 67.9748 17.9285 67.9748 17.9905 68.0058C18.6104 68.1917 19.2612 68.2847 19.8191 68.2847C20.9969 68.2537 21.8957 67.8199 22.5155 67.3862C22.8255 67.1693 23.0424 66.9524 23.2284 66.7975C23.3833 66.6426 23.4763 66.5497 23.4763 66.5497C23.4763 66.5497 23.4763 66.4877 23.4453 66.4567Z" fill="#5D69BE"/>
<path d="M21.8336 63.0487C21.9885 63.5135 22.2055 63.9162 22.4534 64.226C22.5774 64.3809 22.7014 64.5358 22.8564 64.6288C22.9803 64.7527 23.1353 64.8457 23.2593 64.9386C23.5072 65.0935 23.7552 65.2175 23.9411 65.2794C24.0341 65.3104 24.0961 65.3414 24.1581 65.3414C24.2201 65.3414 24.2201 65.3724 24.2201 65.3724C24.2201 65.3724 24.282 65.2484 24.344 65.0316C24.406 64.8147 24.499 64.5358 24.561 64.1641C24.685 63.4515 24.7469 62.522 24.468 61.5926C24.344 61.1279 24.1271 60.6631 23.8481 60.2604C23.6002 59.8266 23.3213 59.4239 23.0423 59.114C22.9183 58.9591 22.7944 58.7732 22.6704 58.6493C22.5774 58.4944 22.4534 58.4015 22.3605 58.2775C22.1745 58.0916 22.0815 57.9677 22.0815 57.9677C22.0815 57.9677 22.0195 58.1536 21.9576 58.4634C21.8646 58.7732 21.7716 59.238 21.7096 59.7337C21.6786 59.9815 21.6476 60.2604 21.6166 60.5392C21.5856 60.818 21.5856 61.0969 21.5856 61.3757C21.5856 61.6545 21.6166 61.9334 21.6476 62.2122C21.7096 62.553 21.7406 62.8009 21.8336 63.0487Z" fill="#5D69BE"/>
<path d="M15.4182 60.0745C15.3252 59.9196 15.1703 59.7028 14.9223 59.4859C14.7054 59.269 14.3954 59.0211 14.0545 58.8043C13.6826 58.5874 13.2487 58.3705 12.7218 58.2466C12.5358 58.1846 12.3499 58.1537 12.1639 58.1227C11.978 58.0917 11.761 58.0607 11.575 58.0297C10.5523 57.8748 9.40552 57.8129 8.53771 57.7509C7.6699 57.6889 7.01904 57.6889 7.01904 57.6889C7.01904 57.6889 7.236 57.9678 7.60791 58.3705C7.94884 58.7733 8.50672 59.269 9.12658 59.7337C9.21956 59.7957 9.31254 59.8886 9.40552 59.9506C9.4675 59.9816 9.4985 60.0126 9.56048 60.0435C9.59148 60.0745 9.65346 60.1055 9.71545 60.1365C9.9324 60.2604 10.1184 60.3843 10.3353 60.5083C10.5523 60.6322 10.7692 60.7251 10.9862 60.8181C11.2031 60.911 11.3891 61.004 11.637 61.035C12.7838 61.3138 13.7446 61.1279 14.4574 60.911C15.1703 60.6632 15.6042 60.3534 15.6042 60.3534C15.6042 60.3534 15.5112 60.2294 15.4182 60.0745Z" fill="#5D69BE"/>
<path d="M15.7895 58.7424C16.0064 58.9593 16.1924 59.1452 16.3473 59.2381C16.5023 59.3311 16.5953 59.393 16.5953 59.393C16.5953 59.393 16.9362 58.9903 17.2461 58.3706C17.5871 57.72 17.897 56.8525 17.897 55.8921C17.897 55.5513 17.866 55.1795 17.804 54.8387C17.773 54.6528 17.711 54.4979 17.68 54.312C17.6181 54.1571 17.5871 53.9712 17.5251 53.8163C17.4321 53.5375 17.3391 53.2586 17.2461 53.0108C17.2152 52.9488 17.1842 52.8869 17.1842 52.8249C17.1532 52.7629 17.1532 52.701 17.1222 52.67C17.0912 52.5461 17.0292 52.4531 16.9982 52.3602C16.8432 51.9884 16.7193 51.7715 16.7193 51.7715C16.7193 51.7715 16.4093 52.2362 16.0374 52.9488C15.9444 53.1347 15.8515 53.3206 15.7585 53.5375C15.6965 53.6304 15.6655 53.7543 15.6345 53.8473C15.6035 53.9402 15.5415 54.0642 15.5105 54.1571C15.3556 54.5909 15.2006 55.0556 15.1076 55.5203C15.0766 55.7062 15.0456 55.8921 15.0146 56.047C14.9836 56.2329 14.9836 56.3878 14.9836 56.5427C14.9836 57.0384 15.0766 57.4722 15.2316 57.8439C15.3556 58.2157 15.5725 58.5255 15.7895 58.7424Z" fill="#5D69BE"/>
<path d="M7.85597 52.4841C8.07293 52.4841 8.28988 52.4841 8.47584 52.4841C9.21967 52.4222 9.74656 52.2673 9.74656 52.2673C9.74656 52.2673 9.71556 52.1433 9.68457 51.9884C9.65358 51.8955 9.62258 51.8025 9.5606 51.6786C9.5296 51.5547 9.46762 51.4308 9.37464 51.2759C9.21967 50.997 9.03371 50.6872 8.72378 50.3774C8.6618 50.3154 8.56882 50.2225 8.50683 50.1295C8.41385 50.0366 8.35186 49.9746 8.25888 49.9127C8.07292 49.7577 7.85597 49.6028 7.63902 49.4789C7.39107 49.324 7.14313 49.2001 6.86419 49.0762C6.58525 48.9522 6.30631 48.8283 6.02737 48.7044C5.4385 48.4565 4.84963 48.2396 4.29176 48.0538C3.76487 47.8679 3.26898 47.713 2.92806 47.589C2.58713 47.4651 2.37018 47.4031 2.37018 47.4031C2.37018 47.4031 2.46316 47.62 2.61812 47.9298C2.68011 48.0847 2.77309 48.3016 2.89706 48.5185C3.02104 48.7354 3.14501 48.9522 3.29997 49.2001C3.45494 49.4479 3.60991 49.6958 3.79586 49.9436C3.82686 50.0056 3.88884 50.0676 3.91984 50.1295C3.98182 50.1915 4.01282 50.2535 4.0748 50.3154C4.16778 50.4393 4.29176 50.5633 4.38474 50.6872C4.60169 50.9351 4.81864 51.1519 5.06659 51.3378C5.19056 51.4308 5.28354 51.5237 5.40751 51.6167C5.53148 51.7096 5.65546 51.7716 5.77943 51.8645C6.27532 52.1433 6.77121 52.3292 7.23611 52.4222C7.42207 52.4532 7.63902 52.4841 7.85597 52.4841Z" fill="#5D69BE"/>
<path d="M10.118 49.7886C10.18 50.1913 10.273 50.5321 10.3969 50.811C10.4589 50.9349 10.5209 51.0588 10.5829 51.1827C10.6449 51.2757 10.7069 51.3686 10.7688 51.4306C10.8928 51.5855 10.9548 51.6475 10.9548 51.6475C10.9548 51.6475 11.3887 51.3686 11.8846 50.811C12.0086 50.687 12.1325 50.5321 12.2565 50.3772C12.3805 50.2223 12.5045 50.0364 12.6284 49.8505C12.8764 49.4787 13.0933 49.076 13.2173 48.6113C13.2483 48.4873 13.2793 48.3944 13.3103 48.2705C13.3413 48.1465 13.3723 48.0226 13.3723 47.8987C13.4033 47.6508 13.4343 47.403 13.4343 47.1551C13.4343 46.6594 13.4653 46.1947 13.4033 45.7609C13.4033 45.5441 13.3723 45.3582 13.3413 45.1723C13.3413 44.9864 13.3103 44.8315 13.3103 44.7075C13.2793 44.4287 13.2483 44.2738 13.2483 44.2738C13.2483 44.2738 13.0933 44.3977 12.8454 44.6456C12.5974 44.8625 12.2565 45.2033 11.9156 45.606C11.5747 46.0088 11.2028 46.4425 10.8928 46.9382C10.7379 47.1861 10.5829 47.4339 10.4589 47.6818C10.3349 47.9297 10.242 48.1775 10.18 48.4254C10.118 48.6732 10.056 48.8901 10.025 49.107C10.025 49.2309 9.99402 49.3238 9.99402 49.4478C9.99402 49.5097 9.99402 49.5407 9.99402 49.6027C10.087 49.6956 10.087 49.7266 10.118 49.7886Z" fill="#5D69BE"/>
<path d="M3.42348 42.477C3.64044 42.6319 3.85739 42.7558 4.07434 42.8487C4.50824 43.0656 4.94215 43.1895 5.28307 43.2515C6.02691 43.4064 6.5538 43.3444 6.5538 43.3444C6.5538 43.3444 6.61578 42.9107 6.49181 42.2911C6.46082 42.1362 6.39883 41.9813 6.33684 41.7954C6.27486 41.6095 6.21287 41.4546 6.11989 41.2377C6.02691 41.0518 5.90294 40.8659 5.77897 40.68C5.71698 40.5871 5.624 40.4941 5.56201 40.4012C5.53102 40.3392 5.46903 40.3082 5.43804 40.2463C5.40705 40.1843 5.34506 40.1533 5.31407 40.0914C4.60122 39.3168 3.42348 38.5113 2.49369 37.8607C2.02879 37.5509 1.59489 37.272 1.28495 37.0551C0.975022 36.8693 0.789062 36.7453 0.789062 36.7453C0.789062 36.7453 0.820056 36.9622 0.882042 37.334C0.944028 37.7058 1.03701 38.1705 1.19197 38.7282C1.34694 39.2858 1.56389 39.8745 1.84283 40.4322C1.90482 40.5871 1.9668 40.711 2.05978 40.8349C2.15276 40.9589 2.21475 41.1138 2.30773 41.2377C2.46269 41.4855 2.64865 41.7334 2.86561 41.9193C3.02057 42.1362 3.20653 42.3221 3.42348 42.477Z" fill="#5D69BE"/>
<path d="M7.94849 43.0965C7.94849 43.0965 8.47538 42.9416 9.09524 42.5389C9.40517 42.353 9.7461 42.1051 10.087 41.8263C10.242 41.6714 10.4279 41.5165 10.5519 41.3306C10.7069 41.1447 10.8619 40.9588 10.9858 40.7729C11.1098 40.556 11.2338 40.3391 11.3267 40.1223C11.4197 39.9054 11.5127 39.6576 11.6057 39.4407C11.7916 38.976 11.8846 38.5112 11.9776 38.1085C12.0706 37.7057 12.1326 37.3339 12.1636 37.0551C12.1946 36.8072 12.1946 36.6213 12.1946 36.6213C12.1946 36.6213 12.0086 36.7143 11.7297 36.8692C11.4197 37.0241 11.0168 37.272 10.5829 37.5508C10.149 37.8296 9.65312 38.2014 9.21921 38.5732C8.78531 38.945 8.3824 39.3787 8.10346 39.8125C7.94849 40.0293 7.85551 40.2462 7.76253 40.4321C7.70055 40.649 7.63856 40.8349 7.57657 41.0517C7.54558 41.2376 7.51459 41.4235 7.51459 41.6094C7.51459 41.7953 7.54558 41.9502 7.54558 42.1051C7.73154 42.7247 7.94849 43.0965 7.94849 43.0965Z" fill="#5D69BE"/>
<path d="M2.24576 29.2167C2.27676 29.4645 2.30775 29.6814 2.36974 29.8983C2.46272 30.363 2.61768 30.7967 2.80364 31.1685C3.08258 31.6642 3.39251 32.067 3.76443 32.3768C4.10535 32.6866 4.47727 32.9345 4.8182 33.0894C5.50005 33.4302 6.02693 33.5231 6.02693 33.5231C6.02693 33.5231 6.08892 33.4302 6.11991 33.2443C6.1509 33.0584 6.24389 32.8105 6.24389 32.5007C6.27488 32.1909 6.27488 31.8191 6.1819 31.4164C6.11991 31.0136 5.96495 30.5489 5.717 30.0841C5.62402 29.9292 5.53104 29.7743 5.43806 29.5884C5.37608 29.4955 5.34508 29.4335 5.2831 29.3406C5.22111 29.2476 5.19012 29.1857 5.12813 29.0927C4.84919 28.69 4.53926 28.2562 4.19833 27.8535C3.8884 27.4507 3.54748 27.0789 3.29953 26.7381C2.74165 26.0875 2.33874 25.6228 2.33874 25.6228C2.33874 25.6228 2.30775 25.9636 2.24576 26.4903C2.21477 26.7381 2.18378 27.0789 2.18378 27.4197C2.18378 27.7605 2.18378 28.1323 2.18378 28.5041C2.18378 28.7209 2.21477 28.9688 2.24576 29.2167Z" fill="#5D69BE"/>
<path d="M11.0478 32.2532C11.1098 32.1912 11.1718 32.1293 11.2337 32.0673C11.2957 32.0053 11.3577 31.9434 11.4197 31.8814C11.5437 31.7575 11.6676 31.6026 11.7916 31.4786C11.9156 31.3237 12.0086 31.1998 12.1015 31.0449C12.1945 30.89 12.2875 30.7351 12.3805 30.6112C12.5355 30.3633 12.6904 30.1154 12.8144 29.8676C12.8764 29.7437 12.9384 29.6507 12.9694 29.5268C13.0004 29.4338 13.0623 29.3099 13.1243 29.248C13.3103 28.8762 13.4033 28.6593 13.4033 28.6593C13.4033 28.6593 12.8454 28.7522 12.0396 28.9691C11.8536 29.0311 11.6367 29.093 11.4197 29.155C11.2027 29.217 10.9858 29.3099 10.7688 29.4029C10.3039 29.5888 9.87004 29.7746 9.43614 30.0225C9.09521 30.2084 8.81627 30.4253 8.56833 30.6421C8.19641 30.9829 7.91747 31.3547 7.73151 31.6955C7.54555 32.0673 7.48356 32.4081 7.42158 32.6869C7.39058 32.9968 7.35959 33.2446 7.39058 33.4305C7.42158 33.6164 7.45257 33.7093 7.45257 33.7093C7.45257 33.7093 7.97946 33.6783 8.6923 33.4925C9.40514 33.2446 10.3039 32.8728 11.0478 32.2532Z" fill="#5D69BE"/>
<path d="M6.55376 22.2459C6.80171 22.6487 7.08065 22.9585 7.35959 23.2373C7.91746 23.733 8.38236 23.9809 8.38236 23.9809C8.38236 23.9809 8.44435 23.8879 8.53733 23.733C8.63031 23.5781 8.75428 23.3303 8.87825 23.0514C9.00222 22.7726 9.0952 22.4008 9.15719 21.998C9.18818 21.7812 9.18818 21.5643 9.18818 21.3474C9.18818 21.1306 9.15719 20.8827 9.1262 20.6039C9.06421 20.356 9.00222 20.0772 8.90924 19.7674C8.87825 19.6124 8.81627 19.4885 8.78527 19.3336C8.72329 19.1787 8.69229 19.0548 8.63031 18.8999C8.44435 18.3112 8.1964 17.7535 7.97945 17.2269C7.85548 16.979 7.7625 16.7311 7.66952 16.5143C7.57654 16.2974 7.48356 16.1115 7.42157 15.9256C7.26661 15.5848 7.17363 15.3989 7.17363 15.3989C7.17363 15.3989 7.08065 15.5848 6.92568 15.9256C6.8327 16.0805 6.77071 16.2974 6.67774 16.5143C6.58476 16.7311 6.49178 17.01 6.3988 17.2578C6.3678 17.3818 6.30582 17.5367 6.27482 17.6606C6.24383 17.8155 6.18184 17.9394 6.15085 18.0943C6.08886 18.4042 6.02688 18.714 5.99588 19.0238C5.96489 19.3336 5.9339 19.6434 5.9339 19.9532C5.9339 20.2631 5.96489 20.5419 6.02688 20.8207C6.11986 21.3784 6.30582 21.8431 6.55376 22.2459Z" fill="#5D69BE"/>
<path d="M14.2094 23.7329C14.4264 23.609 14.6433 23.4541 14.8293 23.2991C15.0153 23.1442 15.2012 22.9893 15.3872 22.8344C15.5731 22.6795 15.7281 22.5246 15.8831 22.3697C16.038 22.2148 16.162 22.0599 16.286 21.9359C16.348 21.874 16.4099 21.812 16.4409 21.7501C16.5029 21.6881 16.5339 21.6261 16.5959 21.5951C16.7819 21.4093 16.8748 21.2853 16.8748 21.2853C16.8748 21.2853 16.6579 21.2543 16.317 21.2234C15.976 21.1924 15.4801 21.1924 14.9533 21.1924C14.4264 21.2234 13.8065 21.2543 13.2176 21.3473C13.0627 21.3783 12.9077 21.4093 12.7837 21.4402C12.6598 21.4712 12.5048 21.5022 12.3808 21.5642C12.1019 21.6571 11.8539 21.7501 11.606 21.843C11.3581 21.9359 11.1721 22.0599 10.9551 22.2148C10.7692 22.3387 10.6142 22.4936 10.4593 22.6485C10.1803 22.9583 9.99435 23.2372 9.87038 23.516C9.74641 23.7949 9.68442 24.0427 9.65343 24.2286C9.62244 24.4145 9.62244 24.5074 9.62244 24.5074C9.62244 24.5074 10.1493 24.6314 10.8932 24.6314C11.2651 24.6314 11.699 24.6004 12.1329 24.5384C12.5978 24.4765 13.0627 24.3525 13.4966 24.1357C13.7755 23.9807 13.9925 23.8568 14.2094 23.7329Z" fill="#5D69BE"/>
<path d="M11.8536 13.6329C11.9776 14.0667 12.1636 14.4694 12.3495 14.7793C12.7214 15.3989 13.1244 15.7707 13.1244 15.7707C13.1244 15.7707 13.4963 15.5228 13.8992 15.0271C13.9922 14.9032 14.0851 14.7483 14.1781 14.5934C14.2711 14.4385 14.3641 14.2526 14.4571 14.0667C14.612 13.6949 14.736 13.2302 14.798 12.7035C14.86 12.1768 14.829 11.5881 14.798 10.9685C14.736 10.3489 14.705 9.72922 14.612 9.17155C14.55 8.61388 14.4881 8.11817 14.4261 7.77737C14.3641 7.43657 14.3331 7.2197 14.3331 7.2197C14.3331 7.2197 14.3021 7.25068 14.2091 7.34362C14.1471 7.40559 14.0542 7.52951 13.9302 7.68442C13.6822 7.96326 13.3723 8.36602 13.0624 8.83075C12.7524 9.32646 12.4425 9.85315 12.1946 10.4418C11.9466 11.0305 11.7607 11.6191 11.7297 12.1768C11.7297 12.3007 11.6987 12.4556 11.6987 12.5795C11.6987 12.7035 11.6987 12.8584 11.7297 12.9823C11.7607 13.1682 11.7916 13.4161 11.8536 13.6329Z" fill="#5D69BE"/>
<path d="M18.8273 17.0407C18.9513 17.0097 19.0752 16.9478 19.1992 16.9168C19.2612 16.8858 19.3232 16.8548 19.3852 16.8548C19.4472 16.8238 19.5092 16.7929 19.5711 16.7929C20.036 16.607 20.4699 16.3591 20.8419 16.1423C21.2448 15.9254 21.5547 15.7395 21.7717 15.5846C21.8956 15.5226 21.9576 15.4297 22.0196 15.3987C22.0816 15.3677 22.1126 15.3367 22.1126 15.3367C22.1126 15.3367 22.0506 15.3057 21.9886 15.2748C21.8956 15.2438 21.7717 15.1818 21.6167 15.1508C21.3068 15.0579 20.8419 14.903 20.315 14.7791C20.067 14.7171 19.7881 14.6551 19.4782 14.5932C19.3232 14.5622 19.1992 14.5312 19.0443 14.5312C18.8893 14.5002 18.7343 14.5002 18.6103 14.5002C18.0215 14.4383 17.4326 14.4383 16.9057 14.5312C16.3788 14.6241 15.9759 14.81 15.604 14.9959C15.4181 15.0889 15.2631 15.2128 15.1391 15.3367C15.0151 15.4607 14.8912 15.5846 14.7982 15.7085C14.3953 16.1732 14.2713 16.576 14.2713 16.576C14.2713 16.576 14.7362 16.8238 15.48 17.0407C15.821 17.1337 16.2549 17.2266 16.7198 17.2576C17.1847 17.2886 17.6496 17.2886 18.1455 17.1956C18.3314 17.1646 18.5794 17.1027 18.8273 17.0407Z" fill="#5D69BE"/>
<path d="M20.1909 8.49004C20.2838 8.67593 20.3458 8.79986 20.3458 8.79986C20.3458 8.79986 20.3768 8.79986 20.4078 8.76888C20.4698 8.7379 20.5318 8.70691 20.6248 8.67593C20.8107 8.58299 21.0277 8.45906 21.3066 8.27317C21.8025 7.87041 22.4224 7.28175 22.8253 6.29033C22.9493 5.94953 23.0732 5.60874 23.1972 5.20597C23.3212 4.71026 23.4451 4.21456 23.5381 3.71885C23.6311 3.22314 23.7241 2.75841 23.7861 2.32467C23.941 1.48816 24.003 0.899506 24.003 0.899506C24.003 0.899506 23.6931 1.0854 23.2592 1.39521C23.0422 1.55012 22.7943 1.73601 22.5154 1.95289C22.2364 2.16976 21.9575 2.41761 21.6785 2.69645C21.4926 2.85136 21.3376 3.03725 21.1826 3.22314C21.1517 3.25412 21.0897 3.31608 21.0587 3.34707C21.0277 3.37805 20.9967 3.44001 20.9347 3.50197C20.8727 3.59492 20.7797 3.68787 20.7177 3.78081C20.4388 4.15259 20.1909 4.55536 20.0359 4.95812C19.9119 5.20597 19.8499 5.48481 19.8189 5.73266C19.788 5.98052 19.757 6.22837 19.757 6.44524C19.757 6.90997 19.8189 7.31273 19.9119 7.68451C20.0049 8.02531 20.0979 8.30415 20.1909 8.49004Z" fill="#5D69BE"/>
<path d="M26.9164 11.3709C27.2263 11.309 27.5052 11.247 27.7532 11.1851C28.0011 11.1231 28.2491 11.0611 28.466 10.9992C28.8689 10.8752 29.1169 10.7823 29.1169 10.7823C29.1169 10.7823 28.652 10.4415 27.9701 10.0078C27.6292 9.79088 27.2263 9.57401 26.7614 9.35713C26.3275 9.14026 25.8626 8.95437 25.3977 8.83044C25.0258 8.7375 24.6849 8.64455 24.3439 8.61357C23.3212 8.52063 22.4843 8.83044 21.9885 9.17124C21.7405 9.35713 21.5545 9.51204 21.3996 9.66695C21.3376 9.72892 21.2756 9.79088 21.2446 9.82186C21.2136 9.85284 21.2136 9.88382 21.2136 9.88382C21.2136 9.88382 21.3066 9.97677 21.4926 10.1007C21.6785 10.2246 21.9265 10.4415 22.2364 10.6274C22.5463 10.8133 22.9182 11.0302 23.3522 11.1851C23.5691 11.278 23.7861 11.34 24.003 11.4019C24.22 11.4639 24.4679 11.4949 24.7159 11.5259C25.4287 11.6188 26.2035 11.4949 26.9164 11.3709Z" fill="#5D69BE"/>
<path d="M37.7327 70.4227C37.5468 70.3917 37.2988 70.3607 37.0199 70.3297C36.8959 70.2988 36.741 70.2987 36.586 70.2678C36.431 70.2368 36.2761 70.2058 36.0901 70.1748C35.7492 70.1129 35.3773 70.0509 34.9744 69.9889C34.5714 69.896 34.1685 69.803 33.7656 69.7101C33.5487 69.6481 33.3317 69.6171 33.1148 69.5552C32.8978 69.4932 32.6809 69.4313 32.4639 69.3693C32.03 69.2454 31.5651 69.1524 31.1312 68.9975C29.3646 68.4708 27.66 67.7273 26.4202 67.1386C26.1103 66.9837 25.8314 66.8598 25.5834 66.7358C25.4594 66.6739 25.3355 66.6119 25.2425 66.55C25.1495 66.488 25.0255 66.426 24.9636 66.395C24.6226 66.2092 24.4057 66.0852 24.4057 66.0852C24.4057 66.0852 24.2197 65.9613 23.8478 65.7754C23.5069 65.5895 23.011 65.2487 22.4221 64.9079C21.2754 64.1644 19.7877 63.111 18.393 61.9027C17.0293 60.6944 15.7586 59.3932 14.8598 58.3708C14.7358 58.2468 14.6428 58.1229 14.5498 57.999C14.4569 57.8751 14.3639 57.7821 14.2709 57.6582C14.0849 57.4413 13.93 57.2554 13.806 57.1005C13.682 56.9456 13.5891 56.8217 13.5271 56.7287C13.4651 56.6358 13.4341 56.6048 13.4341 56.6048C13.4341 56.6048 13.3101 56.4189 13.0622 56.1091C12.9382 55.9542 12.8142 55.7683 12.6593 55.5204C12.5043 55.3036 12.3493 55.0247 12.1324 54.7459C12.0394 54.622 11.9464 54.4671 11.8534 54.3121C11.7605 54.1572 11.6675 54.0023 11.5745 53.8164C11.3885 53.4756 11.1716 53.1348 10.9546 52.7631C10.7687 52.3913 10.5517 52.0195 10.3348 51.6167C10.2728 51.5238 10.2418 51.4308 10.1798 51.3069C10.1488 51.214 10.0868 51.09 10.0248 50.9971C9.93185 50.7802 9.83888 50.5943 9.7459 50.3775C9.00206 48.7354 8.38219 47.0624 8.01028 45.7612C7.97928 45.6063 7.9173 45.4514 7.8863 45.2965C7.85531 45.1415 7.79332 45.0176 7.76233 44.8937C7.70035 44.6149 7.63836 44.398 7.60737 44.2121C7.51439 43.8403 7.4524 43.6234 7.4524 43.6234C7.4524 43.6234 7.4524 43.5615 7.42141 43.4685C7.39041 43.3756 7.35942 43.2207 7.32843 43.0348C7.29743 42.8489 7.26644 42.601 7.20445 42.3532C7.17346 42.0744 7.08048 41.7955 7.04949 41.4547C7.01849 41.1139 6.95651 40.7731 6.89452 40.4013C6.89452 40.3084 6.86353 40.2154 6.86353 40.1225C6.86353 40.0296 6.83254 39.9366 6.83254 39.8127C6.83254 39.6268 6.80154 39.4099 6.77055 39.193C6.67757 38.3565 6.67757 37.4581 6.64658 36.5906C6.67757 35.6921 6.67757 34.7936 6.77055 33.9881C6.80154 33.7712 6.80154 33.5853 6.83254 33.3685C6.83254 33.2755 6.83254 33.1826 6.86353 33.0587C6.86353 32.9657 6.89452 32.8728 6.89452 32.7798C6.95651 32.408 6.9875 32.0363 7.04949 31.7264C7.08048 31.3856 7.14247 31.1068 7.20445 30.828C7.26644 30.5491 7.29743 30.3323 7.32843 30.1464C7.35942 29.9605 7.39041 29.8056 7.42141 29.7126C7.4524 29.6197 7.4524 29.5577 7.4524 29.5577C7.4524 29.5577 7.51439 29.3408 7.60737 28.9691C7.63836 28.7832 7.70035 28.5353 7.76233 28.2875C7.79332 28.1635 7.82432 28.0086 7.8863 27.8537C7.94829 27.6988 7.97928 27.5439 8.01028 27.389C8.3512 26.0878 9.00206 24.4147 9.7459 22.7727C9.83888 22.5868 9.93185 22.3699 10.0248 22.1531C10.0868 22.0601 10.1178 21.9672 10.1798 21.8433C10.2418 21.7503 10.2728 21.6574 10.3348 21.5334C10.5517 21.1307 10.7377 20.7589 10.9546 20.3871C11.1716 20.0153 11.3885 19.6745 11.5745 19.3337C11.6675 19.1788 11.7605 18.9929 11.8534 18.838C11.9464 18.6831 12.0394 18.5282 12.1324 18.4043C12.3183 18.1254 12.5043 17.8776 12.6593 17.6297C12.8142 17.4129 12.9692 17.227 13.0622 17.0411C13.3101 16.7313 13.4341 16.5454 13.4341 16.5454C13.4341 16.5454 13.4651 16.5144 13.5271 16.4214C13.5891 16.3285 13.682 16.2046 13.806 16.0497C13.93 15.8948 14.0849 15.7089 14.2709 15.492C14.3639 15.399 14.4569 15.2751 14.5498 15.1512C14.6428 15.0273 14.7358 14.9033 14.8598 14.7794C15.7586 13.757 17.0293 12.4558 18.393 11.2475C19.7567 10.0392 21.2754 8.98582 22.4221 8.24225C23.011 7.87047 23.4759 7.56065 23.8478 7.37476C24.1887 7.18887 24.4057 7.06495 24.4057 7.06495C24.4057 7.06495 24.5916 6.94102 24.9636 6.75513C25.0565 6.69316 25.1495 6.66218 25.2425 6.60022C25.3355 6.53826 25.4594 6.47629 25.5834 6.41433C25.6764 6.38335 25.7694 6.32138 25.8314 6.2904C25.8314 6.2904 25.8314 6.2904 25.8624 6.2904C26.0793 6.32138 26.3892 6.32138 26.7612 6.2904C27.505 6.25942 28.4658 6.10451 29.3336 5.63978C29.7675 5.42291 30.2014 5.11309 30.5423 4.77229C30.7283 4.61739 30.9142 4.43149 31.0692 4.27659C31.2242 4.12168 31.3791 3.93579 31.5341 3.78088C31.813 3.44008 32.061 3.16124 32.216 2.97535C32.3709 2.75848 32.4639 2.63455 32.4639 2.63455C32.4639 2.63455 32.2469 2.63455 31.906 2.63455C31.5651 2.63455 31.1002 2.63455 30.5423 2.69652C30.4184 2.69652 30.2634 2.7275 30.1394 2.7275C30.0154 2.75848 29.8605 2.75848 29.7055 2.78946C29.4266 2.82044 29.1166 2.88241 28.8377 2.94437C28.2798 3.0683 27.691 3.25419 27.2261 3.50204C26.7612 3.7499 26.4202 4.05971 26.1413 4.36953C25.8933 4.67935 25.7384 4.98917 25.6144 5.29898C25.5214 5.57782 25.4594 5.82567 25.4284 6.01157C25.4284 6.04255 25.4284 6.07353 25.4284 6.10451C25.3975 6.13549 25.3665 6.13549 25.3355 6.16647C25.2115 6.22844 25.0875 6.2904 24.9945 6.35237C24.9016 6.41433 24.7776 6.47629 24.6846 6.50727C24.3437 6.69316 24.1267 6.81709 24.1267 6.81709C24.1267 6.81709 23.9098 6.94102 23.5689 7.12691C23.2279 7.3128 22.732 7.6536 22.1432 7.9944C20.9964 8.76894 19.4778 9.82232 18.0831 11.0306C16.6884 12.2389 15.4176 13.5711 14.5188 14.5935C14.3949 14.7174 14.3019 14.8414 14.2089 14.9653C14.1159 15.0892 14.023 15.2132 13.93 15.3061C13.744 15.523 13.5891 15.7089 13.4651 15.8638C13.3411 16.0187 13.2481 16.1426 13.1861 16.2356C13.1861 16.3905 13.1551 16.4214 13.1551 16.4214C13.1551 16.4214 13.0312 16.6073 12.7832 16.9172C12.6593 17.0721 12.5043 17.258 12.3493 17.5058C12.1944 17.7227 12.0084 18.0015 11.8224 18.2803C11.7295 18.4353 11.6365 18.5592 11.5125 18.7141C11.4195 18.869 11.3265 19.0239 11.2026 19.2098C11.0166 19.5506 10.7997 19.8914 10.5827 20.2632C10.3968 20.635 10.1798 21.0377 9.96285 21.4095C9.90086 21.5025 9.86987 21.5954 9.80788 21.7193C9.77689 21.8123 9.7149 21.9362 9.65292 22.0291C9.55994 22.246 9.46696 22.4319 9.37398 22.6488C8.59915 24.2908 7.97928 25.9948 7.63836 27.296C7.57637 27.451 7.54538 27.6059 7.51439 27.7608C7.4524 27.9157 7.42141 28.0396 7.39041 28.1945C7.32843 28.4734 7.26644 28.6902 7.23545 28.8761C7.14247 29.2479 7.08048 29.4648 7.08048 29.4648C7.08048 29.4648 7.08048 29.5267 7.04949 29.6197C7.01849 29.7126 6.9875 29.8675 6.95651 30.0844C6.92552 30.2703 6.86353 30.5182 6.83254 30.797C6.80154 31.0758 6.70856 31.3856 6.67757 31.6955C6.64658 32.0363 6.58459 32.408 6.5226 32.7798C6.5226 32.8728 6.49161 32.9657 6.49161 33.0587C6.49161 33.1516 6.46062 33.2445 6.46062 33.3685C6.42962 33.5544 6.42962 33.7712 6.39863 33.9881C6.30565 34.8246 6.30565 35.7231 6.27466 36.6216C6.30565 37.52 6.30565 38.4185 6.39863 39.255C6.42962 39.4719 6.42962 39.6578 6.46062 39.8746C6.46062 39.9676 6.49161 40.0915 6.49161 40.1845C6.49161 40.2774 6.5226 40.3704 6.5226 40.4633C6.58459 40.8351 6.61558 41.2069 6.67757 41.5477C6.70856 41.8885 6.77055 42.1983 6.83254 42.4461C6.89452 42.725 6.92552 42.9418 6.95651 43.1587C6.9875 43.3446 7.01849 43.4995 7.04949 43.6234C7.08048 43.7164 7.08048 43.7783 7.08048 43.7783C7.08048 43.7783 7.14247 43.9952 7.23545 44.367C7.29743 44.5529 7.32843 44.8007 7.39041 45.0486C7.42141 45.1725 7.4524 45.3274 7.51439 45.4823C7.54538 45.6373 7.60737 45.7922 7.63836 45.9471C7.97928 47.2483 8.63014 48.9523 9.37398 50.5943C9.46696 50.8112 9.55994 50.9971 9.65292 51.214C9.7149 51.3069 9.7459 51.4308 9.80788 51.5238C9.86987 51.6167 9.90086 51.7097 9.96285 51.8336C10.1798 52.2364 10.3658 52.6082 10.5827 52.9799C10.7997 53.3517 11.0166 53.6925 11.2026 54.0333C11.2956 54.1882 11.3885 54.3741 11.5125 54.529C11.6055 54.6839 11.6985 54.8388 11.8224 54.9628C12.0084 55.2416 12.1944 55.5204 12.3493 55.7373C12.5043 55.9542 12.6593 56.1711 12.7832 56.326C13.0312 56.6358 13.1551 56.8217 13.1551 56.8217C13.1551 56.8217 13.1861 56.8836 13.2481 56.9456C13.3101 57.0385 13.4031 57.1625 13.5271 57.3174C13.651 57.4723 13.806 57.6582 13.992 57.8751C14.0849 57.968 14.1779 58.0919 14.2709 58.2159C14.3639 58.3398 14.4569 58.4637 14.5808 58.5876C15.4796 59.61 16.7504 60.9423 18.145 62.1505C19.5397 63.3588 21.0584 64.4432 22.2052 65.1868C22.794 65.5585 23.2899 65.8684 23.6308 66.0542C23.9718 66.2401 24.1887 66.3641 24.1887 66.3641C24.1887 66.3641 24.4057 66.488 24.7466 66.6739C24.8396 66.7358 24.9326 66.7668 25.0565 66.8288C25.1805 66.8908 25.2735 66.9527 25.3975 67.0147C25.6454 67.1386 25.9243 67.2935 26.2653 67.4484C27.536 68.0371 29.2406 68.7806 31.0382 69.3073C31.4721 69.4622 31.937 69.5552 32.3709 69.6791C32.5879 69.7411 32.8048 69.803 33.0218 69.865C33.2387 69.927 33.4557 69.958 33.6726 70.0199C34.1065 70.1129 34.5095 70.2058 34.9124 70.2988C35.3153 70.3607 35.6872 70.4227 36.0281 70.4846C36.2141 70.5156 36.369 70.5466 36.524 70.5776C36.679 70.6086 36.8339 70.6086 36.9889 70.6395C37.2678 70.6705 37.5158 70.7015 37.7327 70.7325C38.1357 70.7945 38.3836 70.8254 38.3836 70.8254L38.4146 70.4846C38.3526 70.5156 38.1357 70.4846 37.7327 70.4227Z" fill="#5D69BE"/>
<path d="M55.3068 69.6482C55.5237 69.6482 55.7407 69.6482 55.9886 69.6791C56.0506 69.6791 56.1126 69.7101 56.1746 69.7101C56.2366 69.7101 56.2985 69.7411 56.3605 69.7411C56.4845 69.7721 56.6085 69.8031 56.7324 69.8341C57.2593 69.989 57.8482 70.2058 58.4371 70.4847C58.9949 70.7325 59.5838 71.0114 60.1107 71.2902C60.6376 71.569 61.0715 71.8169 61.4124 71.9718C61.7223 72.1267 61.9393 72.2506 61.9393 72.2506C61.9393 72.2506 61.8773 72.2816 61.7843 72.3126C61.6914 72.3436 61.5364 72.4055 61.3814 72.4365C61.0095 72.5295 60.5136 72.6844 59.9247 72.7773C59.7698 72.8083 59.6458 72.8393 59.4908 72.8703C59.3359 72.9013 59.1809 72.9013 59.0259 72.9322C58.716 72.9632 58.3751 72.9942 58.0651 72.9942C57.4143 73.0252 56.7634 72.9322 56.2056 72.7773C55.0898 72.4675 54.346 71.7859 53.8811 71.2282C53.4162 70.6706 53.1992 70.1749 53.1992 70.1749C53.1992 70.1749 53.5711 69.927 54.222 69.7721C54.5009 69.7411 54.9038 69.6482 55.3068 69.6482Z" fill="#5D69BE"/>
<path d="M53.6023 65.2487C53.8503 64.846 54.2222 64.4742 54.5631 64.1334C54.7491 63.9475 54.935 63.7926 55.121 63.6377C55.2139 63.5447 55.3069 63.4828 55.3999 63.4208C55.4929 63.3589 55.5859 63.2659 55.6479 63.2039C55.9888 62.9251 56.2987 62.7392 56.5467 62.5843C56.7636 62.4294 56.9186 62.3365 56.9186 62.3365C56.9186 62.3365 56.9186 62.5223 56.9186 62.8631C56.9186 63.2039 56.8876 63.6377 56.7946 64.1644C56.7326 64.6911 56.6086 65.2487 56.4537 65.8064C56.2987 66.3331 56.0508 66.8598 55.8028 67.2935C55.7408 67.4175 55.6788 67.5104 55.5859 67.6034C55.5549 67.6653 55.5239 67.6963 55.4619 67.7273C55.4309 67.7583 55.3999 67.8202 55.3379 67.8512C55.183 68.0061 55.028 68.161 54.842 68.254C54.6871 68.3779 54.5011 68.4708 54.3461 68.5328C54.1912 68.6258 54.0362 68.6877 53.8812 68.7187C53.2614 68.9046 52.8275 68.8736 52.8275 68.8736C52.8275 68.8736 52.7655 68.3469 52.8275 67.6343C52.8585 67.2626 52.9205 66.8598 53.0754 66.457C53.1064 66.3641 53.1374 66.2402 53.1684 66.1472C53.1994 66.0543 53.2614 65.9303 53.2924 65.8374C53.3854 65.6515 53.4783 65.4346 53.6023 65.2487Z" fill="#5D69BE"/>
<path d="M62.2183 66.4571C62.2493 66.4261 62.3113 66.3641 62.4043 66.3022C62.5592 66.1783 62.7452 66.0233 63.0551 65.8684C63.1791 65.7755 63.3651 65.7135 63.52 65.6516C63.675 65.5896 63.8919 65.5276 64.0779 65.4657C64.4808 65.3417 64.9767 65.2798 65.5346 65.2798C65.8135 65.2798 66.0925 65.3108 66.4024 65.3417C66.7123 65.3727 67.0222 65.4037 67.3322 65.4657C67.6421 65.5276 67.952 65.5896 68.262 65.6206C68.5719 65.6825 68.8508 65.7445 69.1608 65.8065C69.7187 65.9304 70.2145 66.0543 70.5865 66.1163C70.9584 66.2092 71.1753 66.2712 71.1753 66.2712C71.1753 66.2712 70.9894 66.3951 70.6794 66.612C70.5245 66.7049 70.3385 66.8289 70.1216 66.9528C69.9976 67.0148 69.9046 67.0767 69.7806 67.1387C69.6567 67.2007 69.5327 67.2626 69.4087 67.3246C69.1298 67.4485 68.8508 67.5724 68.5719 67.6964C68.4169 67.7583 68.262 67.8203 68.138 67.8513C68.076 67.8823 67.983 67.9132 67.921 67.9442C67.8591 67.9752 67.7661 67.9752 67.6731 68.0062C67.0532 68.1921 66.4024 68.285 65.8445 68.285C64.6668 68.254 63.768 67.8203 63.1481 67.3865C62.8382 67.1697 62.6212 66.9528 62.4663 66.7979C62.3113 66.643 62.2183 66.55 62.2183 66.55C62.2183 66.55 62.1873 66.4881 62.2183 66.4571Z" fill="#5D69BE"/>
<path d="M63.83 63.0491C63.675 63.5138 63.458 63.9166 63.2101 64.2264C63.0861 64.3813 62.9621 64.5362 62.8072 64.6292C62.6832 64.7531 62.5282 64.846 62.4043 64.939C62.1563 65.0939 61.9084 65.2178 61.7224 65.2798C61.6294 65.3108 61.5675 65.3417 61.5055 65.3417C61.4435 65.3417 61.4125 65.3727 61.4125 65.3727C61.4125 65.3727 61.3505 65.2488 61.2885 65.0319C61.2265 64.8151 61.1336 64.5362 61.0716 64.1644C60.9476 63.4519 60.8856 62.5224 61.1645 61.5929C61.2885 61.1282 61.5055 60.6635 61.7844 60.2607C62.0324 59.827 62.3113 59.4242 62.5902 59.1144C62.7142 58.9595 62.8382 58.7736 62.9621 58.6497C63.0861 58.4948 63.1791 58.4018 63.2721 58.2779C63.458 58.092 63.551 57.9681 63.551 57.9681C63.551 57.9681 63.613 58.154 63.675 58.4638C63.737 58.7736 63.83 59.2383 63.9229 59.734C63.9539 59.9819 63.9849 60.2607 64.0159 60.5396C64.0469 60.8184 64.0469 61.0972 64.0469 61.3761C64.0469 61.6549 64.0159 61.9337 63.9849 62.2126C63.9539 62.5534 63.9229 62.8012 63.83 63.0491Z" fill="#5D69BE"/>
<path d="M70.2762 60.0745C70.3692 59.9196 70.5242 59.7027 70.7721 59.4858C70.9891 59.2689 71.299 59.0211 71.6399 58.8042C71.9808 58.5873 72.4457 58.3705 72.9726 58.2465C73.1586 58.1846 73.3445 58.1536 73.5305 58.1226C73.7165 58.0916 73.9334 58.0607 74.1194 58.0297C75.1421 57.8748 76.2889 57.8128 77.1567 57.7508C78.0245 57.6889 78.6754 57.6889 78.6754 57.6889C78.6754 57.6889 78.4584 57.9677 78.0865 58.3705C77.7456 58.7732 77.1877 59.2689 76.5678 59.7337C76.4749 59.7956 76.3819 59.8886 76.2889 59.9505C76.2269 59.9815 76.1959 60.0125 76.1339 60.0435C76.0719 60.0745 76.0409 60.1054 75.979 60.1364C75.762 60.2604 75.5761 60.3843 75.3591 60.5082C75.1421 60.6321 74.9252 60.7251 74.7082 60.818C74.4913 60.911 74.2743 61.0039 74.0574 61.0349C72.9106 61.3137 71.9189 61.1278 71.206 60.911C70.4932 60.6631 70.0593 60.3533 70.0593 60.3533C70.0593 60.3533 70.1522 60.2294 70.2762 60.0745Z" fill="#5D69BE"/>
<path d="M69.8736 58.7428C69.6566 58.9596 69.4707 59.1455 69.3157 59.2385C69.1608 59.3314 69.0678 59.3934 69.0678 59.3934C69.0678 59.3934 68.7269 58.9906 68.4169 58.371C68.076 57.7204 67.7351 56.8529 67.7661 55.8924C67.7661 55.5516 67.7971 55.1798 67.859 54.839C67.89 54.6532 67.952 54.4982 67.983 54.3124C68.045 54.1574 68.076 53.9716 68.138 53.8166C68.231 53.5378 68.3239 53.259 68.4169 53.0111C68.4479 52.9492 68.4789 52.8872 68.4789 52.8252C68.5099 52.7633 68.5099 52.7013 68.5409 52.6703C68.5719 52.5464 68.6339 52.4535 68.6649 52.3605C68.8198 51.9887 68.9438 51.7719 68.9438 51.7719C68.9438 51.7719 69.2537 52.2366 69.6257 52.9492C69.7186 53.135 69.8116 53.3209 69.9046 53.5378C69.9356 53.6308 69.9976 53.7547 70.0286 53.8476C70.0596 53.9406 70.1215 54.0645 70.1525 54.1574C70.3075 54.5912 70.4625 55.0559 70.5555 55.5206C70.5864 55.7065 70.6174 55.8924 70.6484 56.0473C70.6794 56.2332 70.6794 56.3881 70.6794 56.543C70.6794 57.0388 70.5864 57.4725 70.4315 57.8443C70.3075 58.2161 70.0906 58.5259 69.8736 58.7428Z" fill="#5D69BE"/>
<path d="M77.8078 52.4841C77.5909 52.4841 77.3739 52.4841 77.188 52.4841C76.4131 52.4221 75.9172 52.2672 75.9172 52.2672C75.9172 52.2672 75.9172 52.1433 75.9792 51.9883C76.0102 51.8954 76.0412 51.8025 76.1032 51.6785C76.1652 51.5546 76.1962 51.4307 76.2892 51.2758C76.4441 50.9969 76.6301 50.6871 76.94 50.3773C77.002 50.3153 77.095 50.2224 77.157 50.1294C77.2499 50.0365 77.3119 49.9745 77.4049 49.9126C77.5909 49.7577 77.8078 49.6028 78.0248 49.4788C78.2727 49.3239 78.5207 49.2 78.7996 49.0761C79.0785 48.9521 79.3575 48.8282 79.6364 48.7043C80.2253 48.4564 80.8142 48.2396 81.372 48.0537C81.9299 47.8678 82.3948 47.7129 82.7667 47.5889C83.1077 47.465 83.3246 47.403 83.3246 47.403C83.3246 47.403 83.2316 47.6199 83.0767 47.9297C83.0147 48.0846 82.9217 48.3015 82.7977 48.5184C82.6738 48.7353 82.5498 48.9521 82.3948 49.2C82.2398 49.4478 82.0849 49.6957 81.8989 49.9436C81.8679 50.0055 81.8059 50.0675 81.7749 50.1294C81.744 50.1914 81.682 50.2534 81.62 50.3153C81.527 50.4393 81.403 50.5632 81.31 50.6871C81.0931 50.935 80.8762 51.1518 80.6282 51.3377C80.5042 51.4307 80.4113 51.5236 80.2873 51.6166C80.1633 51.7095 80.0393 51.7715 79.9154 51.8644C79.4195 52.1433 78.9236 52.3291 78.4587 52.4221C78.2417 52.4531 78.0248 52.4841 77.8078 52.4841Z" fill="#5D69BE"/>
<path d="M75.545 49.7885C75.483 50.1913 75.39 50.5321 75.266 50.8109C75.204 50.9348 75.1421 51.0588 75.0801 51.1827C75.0181 51.2756 74.9561 51.3686 74.8941 51.4305C74.7701 51.5854 74.7082 51.6474 74.7082 51.6474C74.7082 51.6474 74.2742 51.3686 73.7784 50.8109C73.6544 50.687 73.5304 50.5321 73.4064 50.3772C73.2825 50.2222 73.1585 50.0364 73.0345 49.8505C72.7866 49.4787 72.5696 49.0759 72.4457 48.6112C72.4147 48.4873 72.3837 48.3943 72.3527 48.2704C72.3217 48.1465 72.2907 48.0225 72.2907 47.8986C72.2597 47.6508 72.2287 47.4029 72.2287 47.155C72.2287 46.6593 72.2287 46.1946 72.2597 45.7609C72.2907 45.544 72.2907 45.3581 72.3217 45.1722C72.3217 44.9863 72.3527 44.8314 72.3837 44.7075C72.4147 44.4286 72.4457 44.2737 72.4457 44.2737C72.4457 44.2737 72.6006 44.3977 72.8486 44.6455C73.0965 44.8624 73.4374 45.2032 73.7784 45.606C74.1193 46.0087 74.4912 46.4425 74.8011 46.9382C74.9561 47.186 75.1111 47.4339 75.235 47.6817C75.359 47.9296 75.452 48.1774 75.514 48.4253C75.576 48.6732 75.6379 48.89 75.6689 49.1069C75.6689 49.2308 75.6999 49.3238 75.6999 49.4477C75.6999 49.5097 75.6999 49.5406 75.6999 49.6026C75.576 49.6956 75.576 49.7265 75.545 49.7885Z" fill="#5D69BE"/>
<path d="M82.24 42.4773C82.0231 42.6322 81.8061 42.7561 81.5892 42.8491C81.1553 43.0659 80.7214 43.1899 80.3494 43.2518C79.6056 43.4067 79.0787 43.3448 79.0787 43.3448C79.0787 43.3448 79.0167 42.911 79.1407 42.2914C79.1717 42.1365 79.2337 41.9816 79.2647 41.7957C79.3267 41.6098 79.3887 41.4549 79.4816 41.238C79.5746 41.0521 79.6986 40.8662 79.8226 40.6804C79.8846 40.5874 79.9775 40.4945 80.0395 40.4015C80.0705 40.3396 80.1325 40.3086 80.1635 40.2466C80.1945 40.1846 80.2565 40.1537 80.2875 40.0917C81.0003 39.3172 82.1781 38.5116 83.1078 37.861C83.5727 37.5512 84.0066 37.2724 84.3166 37.0555C84.6265 36.8696 84.8125 36.7457 84.8125 36.7457C84.8125 36.7457 84.7815 36.9625 84.7195 37.3343C84.6575 37.7061 84.5645 38.1708 84.4096 38.7285C84.2546 39.2862 84.0376 39.8748 83.7587 40.4325C83.6967 40.5874 83.6347 40.7113 83.5418 40.8353C83.4488 40.9592 83.3868 41.1141 83.2938 41.238C83.1078 41.4859 82.9529 41.7337 82.7359 41.9196C82.6739 42.1365 82.457 42.3224 82.24 42.4773Z" fill="#5D69BE"/>
<path d="M77.7143 43.0969C77.7143 43.0969 77.1874 42.942 76.5675 42.5392C76.2576 42.3533 75.9167 42.1054 75.5757 41.8266C75.4208 41.6717 75.2348 41.5168 75.1108 41.3309C74.9559 41.145 74.8009 40.9591 74.6769 40.7732C74.553 40.5564 74.429 40.3395 74.336 40.1226C74.243 39.9057 74.15 39.6579 74.0571 39.441C73.9021 38.9763 73.7781 38.5116 73.6852 38.1088C73.5922 37.706 73.5302 37.3343 73.4992 37.0554C73.4682 36.8076 73.4682 36.6217 73.4682 36.6217C73.4682 36.6217 73.6542 36.7146 73.9331 36.8695C74.243 37.0244 74.6459 37.2723 75.0798 37.5511C75.5138 37.83 76.0096 38.2017 76.4435 38.5735C76.8774 38.9453 77.2804 39.3791 77.5593 39.8128C77.7143 40.0297 77.8072 40.2465 77.9002 40.4324C77.9932 40.6493 78.0242 40.8352 78.0552 41.0521C78.0862 41.238 78.1172 41.4238 78.1172 41.6097C78.1172 41.7956 78.0862 41.9505 78.0862 42.1054C77.9312 42.7251 77.7143 43.0969 77.7143 43.0969Z" fill="#5D69BE"/>
<path d="M83.4179 29.217C83.3869 29.4648 83.3559 29.6817 83.2939 29.8986C83.2009 30.3633 83.046 30.7971 82.86 31.1688C82.5811 31.6646 82.2401 32.0673 81.8992 32.3771C81.5583 32.687 81.1864 32.9348 80.8455 33.0897C80.1636 33.4305 79.6367 33.5235 79.6367 33.5235C79.6367 33.5235 79.6057 33.4305 79.5437 33.2446C79.5127 33.0587 79.4198 32.8109 79.3888 32.5011C79.3578 32.1912 79.3578 31.8195 79.4508 31.4167C79.5127 31.0139 79.6367 30.5492 79.9157 30.0845C80.0086 29.9296 80.1016 29.7747 80.1946 29.5888C80.2566 29.4958 80.2876 29.4339 80.3496 29.3409C80.4115 29.248 80.4735 29.186 80.5045 29.0931C80.7835 28.6903 81.0934 28.2566 81.4343 27.8538C81.7443 27.451 82.0852 27.0793 82.3331 26.7385C82.891 26.0878 83.2939 25.6231 83.2939 25.6231C83.2939 25.6231 83.3559 25.9639 83.4179 26.4906C83.4489 26.7385 83.4799 27.0792 83.4799 27.42C83.4799 27.7608 83.4799 28.1326 83.4799 28.5044C83.4799 28.7213 83.4489 28.9691 83.4179 29.217Z" fill="#5D69BE"/>
<path d="M74.6154 32.2536C74.5534 32.1916 74.4914 32.1296 74.4294 32.0677C74.3674 32.0057 74.3054 31.9437 74.2435 31.8818C74.1195 31.7578 73.9955 31.6029 73.8715 31.479C73.7476 31.3241 73.6546 31.2002 73.5616 31.0453C73.4686 30.8904 73.3756 30.7354 73.2827 30.6115C73.1277 30.3637 72.9727 30.1158 72.8488 29.868C72.7868 29.744 72.7248 29.6511 72.6938 29.5272C72.6318 29.4342 72.6008 29.3103 72.5388 29.2483C72.3529 28.8765 72.2599 28.6597 72.2599 28.6597C72.2599 28.6597 72.8178 28.7526 73.6236 28.9695C73.8096 29.0314 74.0265 29.0934 74.2435 29.1554C74.4604 29.2173 74.6774 29.3103 74.8943 29.4032C75.3592 29.5891 75.7931 29.775 76.227 30.0229C76.5679 30.2088 76.8469 30.4256 77.0948 30.6425C77.4667 30.9833 77.7767 31.3551 77.9316 31.6959C78.0866 32.0677 78.1796 32.4085 78.2416 32.6873C78.2726 32.9971 78.2726 33.245 78.2416 33.4309C78.2106 33.6168 78.1796 33.7097 78.1796 33.7097C78.1796 33.7097 77.6527 33.6787 76.9399 33.4928C76.258 33.245 75.3592 32.8732 74.6154 32.2536Z" fill="#5D69BE"/>
<path d="M79.1094 22.2458C78.8615 22.6486 78.5826 22.9584 78.3036 23.2373C77.7457 23.733 77.2808 23.9808 77.2808 23.9808C77.2808 23.9808 77.2189 23.8879 77.0949 23.733C77.0019 23.5781 76.8779 23.3302 76.754 23.0514C76.63 22.7725 76.537 22.4007 76.475 21.998C76.444 21.7811 76.444 21.5642 76.444 21.3474C76.444 21.1305 76.475 20.8826 76.506 20.6038C76.537 20.3559 76.63 20.0771 76.723 19.7673C76.754 19.6124 76.816 19.4885 76.8469 19.3336C76.9089 19.1786 76.9399 19.0547 77.0019 18.8998C77.1879 18.3112 77.4358 17.7535 77.6528 17.2268C77.7767 16.9789 77.8697 16.7311 77.9627 16.5142C78.0557 16.2973 78.1487 16.1114 78.2106 15.9256C78.3656 15.5848 78.4586 15.3989 78.4586 15.3989C78.4586 15.3989 78.5516 15.5848 78.7065 15.9256C78.7995 16.0805 78.8615 16.2973 78.9545 16.5142C79.0475 16.7311 79.1404 17.0099 79.2334 17.2578C79.2644 17.3817 79.3264 17.5366 79.3574 17.6605C79.3884 17.8154 79.4504 17.9394 79.4814 18.0943C79.5434 18.4041 79.6053 18.7139 79.6363 19.0237C79.6673 19.3336 79.6983 19.6434 79.6983 19.9532C79.6983 20.263 79.6673 20.5418 79.6053 20.8207C79.5743 21.3783 79.3574 21.8431 79.1094 22.2458Z" fill="#5D69BE"/>
<path d="M71.4544 23.7333C71.2374 23.6093 71.0205 23.4544 70.8345 23.2995C70.6485 23.1446 70.4626 22.9897 70.2766 22.8348C70.0907 22.6799 69.9357 22.525 69.7807 22.3701C69.6258 22.2151 69.5018 22.0602 69.3778 21.9363C69.3158 21.8743 69.2538 21.8124 69.2228 21.7504C69.1609 21.6885 69.1299 21.6265 69.0679 21.5955C68.8819 21.4096 68.7889 21.2857 68.7889 21.2857C68.7889 21.2857 69.0059 21.2547 69.3468 21.2237C69.6877 21.1927 70.1836 21.1927 70.7105 21.1927C71.2374 21.2237 71.8263 21.2547 72.4461 21.3477C72.6011 21.3786 72.7561 21.4096 72.88 21.4406C73.004 21.4716 73.159 21.5026 73.283 21.5645C73.5619 21.6575 73.8098 21.7504 74.0578 21.8434C74.3057 21.9363 74.4917 22.0602 74.7086 22.2151C74.8946 22.3391 75.0496 22.494 75.1735 22.6489C75.4525 22.9587 75.6384 23.2375 75.7624 23.5164C75.8864 23.7952 75.9484 24.0431 75.9794 24.229C76.0104 24.4149 76.0104 24.5078 76.0104 24.5078C76.0104 24.5078 75.4835 24.6317 74.7396 24.6317C74.3677 24.6317 73.9338 24.6007 73.4999 24.5388C73.035 24.4768 72.5701 24.3529 72.1362 24.136C71.8883 23.9811 71.6713 23.8572 71.4544 23.7333Z" fill="#5D69BE"/>
<path d="M73.8094 13.6333C73.6855 14.067 73.4995 14.4698 73.3135 14.7796C72.9416 15.3993 72.5387 15.771 72.5387 15.771C72.5387 15.771 72.1668 15.5232 71.7639 15.0275C71.6709 14.9035 71.5779 14.7486 71.4849 14.5937C71.392 14.4388 71.299 14.2529 71.206 14.067C71.051 13.6953 70.9271 13.2305 70.8651 12.7038C70.8031 12.1771 70.8341 11.5885 70.8651 10.9689C70.8961 10.3492 70.9581 9.72959 71.02 9.17191C71.082 8.61424 71.144 8.11853 71.206 7.77773C71.268 7.43694 71.299 7.22006 71.299 7.22006C71.299 7.22006 71.33 7.25104 71.423 7.34399C71.4849 7.40595 71.5779 7.52988 71.7019 7.68479C71.9498 7.96362 72.2598 8.36639 72.5697 8.83112C72.8796 9.32682 73.1896 9.85351 73.4685 10.4422C73.7164 11.0308 73.8714 11.6195 73.9334 12.1771C73.9644 12.3011 73.9644 12.456 73.9644 12.5799C73.9644 12.7038 73.9644 12.8587 73.9334 12.9827C73.9024 13.1686 73.8714 13.4164 73.8094 13.6333Z" fill="#5D69BE"/>
<path d="M66.836 17.0411C66.712 17.0101 66.5881 16.9481 66.4951 16.9171C66.4331 16.8861 66.3711 16.8552 66.3091 16.8552C66.2471 16.8242 66.1852 16.7932 66.1232 16.7932C65.6583 16.6073 65.2244 16.3595 64.8524 16.1426C64.4495 15.9257 64.1396 15.7398 63.9227 15.5849C63.7987 15.523 63.7367 15.43 63.6747 15.399C63.6127 15.368 63.5817 15.3371 63.5817 15.3371C63.5817 15.3371 63.6437 15.3061 63.7057 15.2751C63.7987 15.2441 63.9227 15.1822 64.0776 15.1512C64.3876 15.0582 64.8524 14.9033 65.3793 14.7794C65.6273 14.7174 65.9062 14.6555 66.2161 14.5935C66.3711 14.5625 66.4951 14.5315 66.6501 14.5315C66.805 14.5006 66.929 14.5006 67.084 14.5006C67.6728 14.4386 68.2617 14.4386 68.7886 14.5315C69.3155 14.6245 69.7184 14.8104 70.0903 14.9963C70.2763 15.0892 70.4312 15.2131 70.5552 15.3371C70.6792 15.461 70.8031 15.5849 70.8961 15.7088C71.299 16.1736 71.423 16.5763 71.423 16.5763C71.423 16.5763 70.9581 16.8242 70.2453 17.0411C69.8733 17.134 69.4704 17.2269 69.0055 17.2579C68.5406 17.2889 68.0757 17.2889 67.5799 17.196C67.3319 17.165 67.084 17.103 66.836 17.0411Z" fill="#5D69BE"/>
<path d="M65.4724 8.49017C65.3794 8.67606 65.3174 8.79999 65.3174 8.79999C65.3174 8.79999 65.2864 8.79999 65.2554 8.76901C65.1934 8.73802 65.1315 8.70704 65.0385 8.67606C64.8525 8.58311 64.6356 8.45919 64.3566 8.2733C63.8607 7.87053 63.2099 7.28188 62.838 6.29046C62.714 5.94966 62.59 5.60886 62.466 5.2061C62.3421 4.71039 62.2181 4.21468 62.1251 3.71898C62.0321 3.22327 61.9392 2.75854 61.8772 2.3248C61.7532 1.48829 61.6602 0.899634 61.6602 0.868652C61.6602 0.868652 61.9701 1.05454 62.4041 1.36436C62.621 1.51927 62.869 1.70516 63.1479 1.92203C63.4268 2.13891 63.7058 2.38676 63.9847 2.6656C64.1397 2.8205 64.3256 3.00639 64.4806 3.19229C64.5116 3.22327 64.5736 3.28523 64.6046 3.31621C64.6356 3.34719 64.6666 3.40916 64.7285 3.47112C64.7905 3.56407 64.8835 3.65701 64.9455 3.74996C65.2244 4.12174 65.4724 4.5245 65.6273 4.92727C65.7513 5.17512 65.8133 5.45396 65.8443 5.70181C65.9063 5.94966 65.9063 6.19752 65.9063 6.41439C65.9063 6.87912 65.8443 7.28188 65.7513 7.65366C65.6583 8.02544 65.5654 8.30428 65.4724 8.49017Z" fill="#5D69BE"/>
<path d="M58.7463 11.3713C58.4364 11.3094 58.1574 11.2474 57.9095 11.1854C57.6305 11.1235 57.4136 11.0615 57.1966 10.9995C56.7937 10.8756 56.5458 10.7827 56.5458 10.7827C56.5458 10.7827 57.0107 10.4419 57.6925 10.0081C58.0334 9.79125 58.4364 9.57437 58.9013 9.3575C59.3352 9.14063 59.8001 8.95474 60.265 8.83081C60.6369 8.73787 60.9778 8.64492 61.3187 8.61394C62.3415 8.52099 63.1783 8.83081 63.6742 9.17161C63.9222 9.3575 64.1081 9.51241 64.2631 9.66732C64.3251 9.72928 64.3871 9.79125 64.418 9.82223C64.449 9.85321 64.449 9.88419 64.449 9.88419C64.449 9.88419 64.3561 9.97714 64.1701 10.1011C63.9841 10.225 63.7362 10.4419 63.4263 10.6278C63.1163 10.8136 62.7134 11.0305 62.3105 11.1854C62.0936 11.2784 61.8766 11.3403 61.6597 11.4023C61.4427 11.4643 61.1948 11.4952 60.9468 11.5262C60.234 11.6192 59.4591 11.4952 58.7463 11.3713Z" fill="#5D69BE"/>
<path d="M47.9299 70.423C48.1159 70.392 48.3638 70.3611 48.6427 70.3301C48.7667 70.2991 48.9217 70.2991 49.0766 70.2681C49.2316 70.2371 49.3866 70.2061 49.5725 70.1752C49.9135 70.1132 50.2854 70.0512 50.6883 69.9893C51.0602 69.8963 51.4941 69.8034 51.897 69.7104C52.114 69.6485 52.3309 69.6175 52.5479 69.5555C52.7648 69.4936 52.9818 69.4316 53.1987 69.3696C53.6326 69.2457 54.0975 69.1528 54.5314 68.9978C56.2981 68.4712 58.0027 67.7276 59.2424 67.1389C59.5523 66.984 59.8313 66.8601 60.0792 66.7362C60.2032 66.6742 60.3272 66.6123 60.4202 66.5503C60.5131 66.4883 60.6371 66.4264 60.6991 66.3954C61.04 66.2095 61.257 66.0856 61.257 66.0856C61.257 66.0856 61.4739 65.9616 61.8148 65.7757C62.1558 65.5899 62.6517 65.2491 63.2405 64.9083C64.3873 64.1647 65.875 63.1113 67.2696 61.903C68.6333 60.6947 69.9041 59.3935 70.8029 58.3711C70.9268 58.2472 71.0198 58.1232 71.1128 57.9993C71.2058 57.8754 71.2988 57.7824 71.3917 57.6585C71.5777 57.4416 71.7327 57.2558 71.8566 57.1008C71.9806 56.9459 72.0736 56.822 72.1356 56.7291C72.1976 56.6361 72.2286 56.6051 72.2286 56.6051C72.2286 56.6051 72.3525 56.4192 72.6005 56.1094C72.7244 55.9545 72.8794 55.7686 73.0344 55.5208C73.1893 55.3039 73.3753 55.0251 73.5303 54.7462C73.6233 54.6223 73.7162 54.4674 73.8402 54.3125C73.9332 54.1576 74.0262 54.0027 74.1191 53.8168C74.3051 53.476 74.5221 53.1352 74.739 52.7634C74.925 52.3916 75.1419 52.0198 75.3589 51.6171C75.4209 51.5241 75.4518 51.4312 75.5138 51.3073C75.5448 51.2143 75.6068 51.0904 75.6688 50.9974C75.7618 50.7806 75.8548 50.5947 75.9477 50.3778C76.6916 48.7358 77.3114 47.0628 77.6834 45.7615C77.7453 45.6066 77.7763 45.4517 77.8073 45.2968C77.8383 45.1419 77.9003 45.018 77.9313 44.894C77.9933 44.6152 78.0553 44.3983 78.0863 44.2124C78.1792 43.8406 78.2412 43.6238 78.2412 43.6238C78.2412 43.6238 78.2412 43.5618 78.2722 43.4689C78.3032 43.3759 78.3342 43.221 78.3652 43.0351C78.3962 42.8492 78.4582 42.6014 78.4892 42.3535C78.5512 42.0747 78.6132 41.7959 78.6441 41.4551C78.6751 41.1143 78.7371 40.7735 78.7991 40.4017C78.7991 40.3087 78.8301 40.2158 78.8301 40.1228C78.8301 40.0299 78.8611 39.9369 78.8611 39.813C78.8611 39.6271 78.8921 39.4103 78.8921 39.1934C78.9851 38.3569 78.9851 37.4584 79.0161 36.5909C78.9851 35.6924 78.9851 34.794 78.8921 33.9884C78.8611 33.7716 78.8611 33.5857 78.8611 33.3688C78.8611 33.2759 78.8301 33.1829 78.8301 33.059C78.8301 32.966 78.7991 32.8731 78.7991 32.7802C78.7371 32.4084 78.7061 32.0366 78.6441 31.7268C78.6132 31.386 78.5512 31.1071 78.4892 30.8283C78.4272 30.5495 78.3962 30.3326 78.3652 30.1467C78.3342 29.9608 78.3032 29.8059 78.2722 29.713C78.2412 29.62 78.2412 29.5581 78.2412 29.5581C78.2412 29.5581 78.1792 29.3412 78.0863 28.9694C78.0553 28.7835 77.9933 28.5357 77.9313 28.2878C77.9003 28.1639 77.8693 28.009 77.8073 27.8541C77.7763 27.6991 77.7143 27.5442 77.6834 27.3893C77.3424 26.0881 76.6916 24.4151 75.9477 22.773C75.8548 22.5872 75.7618 22.3703 75.6688 22.1534C75.6068 22.0605 75.5758 21.9675 75.5138 21.8436C75.4518 21.7506 75.4209 21.6577 75.3589 21.5338C75.1419 21.131 74.956 20.7592 74.739 20.3874C74.5221 20.0157 74.3051 19.6749 74.1191 19.3341C74.0262 19.1792 73.9332 18.9933 73.8402 18.8384C73.7472 18.6834 73.6542 18.5285 73.5303 18.4046C73.3443 18.1258 73.1583 17.8779 73.0344 17.6301C72.8794 17.4132 72.7244 17.2273 72.6005 17.0414C72.3525 16.7316 72.2286 16.5457 72.2286 16.5457C72.2286 16.5457 72.1976 16.5147 72.1356 16.4218C72.0736 16.3288 71.9806 16.2049 71.8566 16.05C71.7327 15.8951 71.5777 15.7092 71.3917 15.4923C71.2988 15.3994 71.2058 15.2755 71.1128 15.1515C71.0198 15.0276 70.9268 14.9037 70.8029 14.7797C69.9041 13.7573 68.6333 12.4561 67.2696 11.2478C65.9059 10.0395 64.3873 8.98615 63.2405 8.24259C62.6517 7.87081 62.1868 7.56099 61.8148 7.3751C61.4739 7.18921 61.257 7.06528 61.257 7.06528C61.257 7.06528 61.04 6.94135 60.6991 6.75546C60.6061 6.6935 60.5131 6.66252 60.4202 6.60055C60.2962 6.53859 60.2032 6.47663 60.0792 6.41466C59.9862 6.38368 59.8933 6.32172 59.8003 6.29074C59.8003 6.29074 59.8003 6.29074 59.7693 6.29074C59.5523 6.32172 59.2424 6.32172 58.8705 6.29074C58.1267 6.25976 57.1659 6.10485 56.2981 5.64012C55.8642 5.42325 55.4302 5.11343 55.0893 4.77263C54.9034 4.61772 54.7174 4.43183 54.5624 4.27692C54.4075 4.12201 54.2215 3.93612 54.0975 3.78121C53.8186 3.44041 53.5707 3.16158 53.4157 2.97569C53.2607 2.75881 53.1677 2.63489 53.1677 2.63489C53.1677 2.63489 53.3847 2.63489 53.7256 2.63489C54.0665 2.63489 54.5314 2.63489 55.0893 2.69685C55.2133 2.69685 55.3683 2.72783 55.4922 2.72783C55.6162 2.75881 55.7712 2.75881 55.9261 2.7898C56.2051 2.82078 56.515 2.88274 56.7939 2.94471C57.3828 3.06863 57.9407 3.25452 58.4056 3.50238C58.8705 3.75023 59.2114 4.06005 59.4594 4.36987C59.7073 4.67968 59.8623 4.9895 59.9862 5.29932C60.1102 5.57816 60.1412 5.82601 60.1722 6.0119C60.1722 6.04288 60.1722 6.07386 60.1722 6.10485C60.2032 6.13583 60.2342 6.13583 60.2652 6.16681C60.3892 6.22877 60.5131 6.29074 60.6061 6.3527C60.7301 6.41466 60.8231 6.47663 60.916 6.50761C61.257 6.6935 61.4739 6.81743 61.4739 6.81743C61.4739 6.81743 61.6909 6.94135 62.0318 7.12725C62.3727 7.31314 62.8686 7.65393 63.4575 7.99473C64.6042 8.76928 66.1229 9.82266 67.5176 11.0309C68.9123 12.2392 70.183 13.5715 71.0818 14.5939C71.2058 14.7178 71.2988 14.8417 71.3917 14.9656C71.4847 15.0896 71.5777 15.2135 71.6707 15.3064C71.8566 15.5233 72.0116 15.7092 72.1356 15.8641C72.2596 16.019 72.3525 16.1429 72.4145 16.2359C72.4765 16.3288 72.5075 16.3598 72.5075 16.3598C72.5075 16.3598 72.6315 16.5457 72.8794 16.8555C73.0034 17.0104 73.1584 17.1963 73.3133 17.4442C73.4683 17.661 73.6233 17.9399 73.8402 18.2187C73.9332 18.3736 74.0262 18.4976 74.1501 18.6525C74.2431 18.8074 74.3361 18.9623 74.4601 19.1482C74.677 19.489 74.863 19.8298 75.0799 20.2016C75.2969 20.5733 75.4828 20.9761 75.6998 21.3479C75.7618 21.4408 75.7928 21.5338 75.8548 21.6577C75.8858 21.7506 75.9477 21.8746 76.0097 21.9675C76.1027 22.1844 76.1957 22.3703 76.2887 22.5872C77.0635 24.2292 77.6834 25.9332 78.0243 27.2344C78.0553 27.3893 78.1173 27.5442 78.1483 27.6991C78.1792 27.8541 78.2412 27.978 78.2722 28.1329C78.3342 28.4117 78.3962 28.6286 78.4272 28.8145C78.5202 29.1863 78.5822 29.4031 78.5822 29.4031C78.5822 29.4031 78.6132 29.4651 78.6132 29.5581C78.6441 29.651 78.6751 29.8059 78.7061 30.0228C78.7371 30.2087 78.7991 30.4565 78.8301 30.7354C78.8611 31.0142 78.9541 31.324 78.9851 31.6338C79.0161 31.9746 79.078 32.3464 79.14 32.7182C79.14 32.8111 79.171 32.9041 79.171 32.997C79.171 33.09 79.202 33.1829 79.202 33.3068C79.233 33.4927 79.233 33.7096 79.264 33.9265C79.357 34.763 79.357 35.6615 79.388 36.5599C79.357 37.4584 79.357 38.3569 79.264 39.1934C79.233 39.4103 79.233 39.5961 79.202 39.813C79.202 39.906 79.202 40.0299 79.171 40.1228C79.171 40.2158 79.14 40.3087 79.14 40.4017C79.078 40.7735 79.0471 41.1452 78.9851 41.486C78.9541 41.8268 78.8611 42.1367 78.8301 42.3845C78.7681 42.6633 78.7371 42.8802 78.7061 43.0971C78.6751 43.283 78.6441 43.4379 78.6132 43.5618C78.5822 43.6548 78.5822 43.7167 78.5822 43.7167C78.5822 43.7167 78.5202 43.9336 78.4272 44.3054C78.3962 44.4913 78.3342 44.7391 78.2722 44.987C78.2412 45.1109 78.2102 45.2658 78.1483 45.4207C78.1173 45.5756 78.0553 45.7305 78.0243 45.8854C77.6524 47.1867 77.0325 48.8907 76.2887 50.5327C76.1957 50.7496 76.1027 50.9355 76.0097 51.1523C75.9787 51.2453 75.9167 51.3692 75.8548 51.4622C75.7928 51.5551 75.7618 51.6481 75.6998 51.772C75.4828 52.1747 75.2969 52.5465 75.0799 52.9183C74.863 53.2901 74.646 53.6309 74.4601 53.9717C74.3671 54.1266 74.2741 54.3125 74.1501 54.4674C74.0572 54.6223 73.9642 54.7772 73.8402 54.9011C73.6542 55.18 73.4683 55.4588 73.3133 55.6757C73.1584 55.8926 73.0034 56.1094 72.8794 56.2643C72.6315 56.5742 72.5075 56.76 72.5075 56.76C72.5075 56.76 72.4765 56.822 72.4145 56.884C72.3525 56.9769 72.2596 57.1008 72.1356 57.2558C72.0116 57.4107 71.8566 57.5966 71.6707 57.8134C71.5777 57.9064 71.4847 58.0303 71.3917 58.1542C71.2988 58.2782 71.2058 58.4021 71.0818 58.526C70.183 59.5484 68.9123 60.8806 67.5176 62.0889C66.1229 63.2972 64.6042 64.3816 63.4575 65.1251C62.8686 65.4969 62.3727 65.8067 62.0318 65.9926C61.6909 66.1785 61.4739 66.3024 61.4739 66.3024C61.4739 66.3024 61.257 66.4264 60.916 66.6123C60.8231 66.6742 60.7301 66.7052 60.6061 66.7672C60.5131 66.8291 60.3892 66.8911 60.2652 66.953C60.0172 67.077 59.7383 67.2319 59.3974 67.3868C58.1267 67.9755 56.422 68.719 54.6244 69.2457C54.1905 69.4006 53.7256 69.4936 53.2917 69.6175C53.0748 69.6795 52.8578 69.7414 52.6409 69.8034C52.4239 69.8653 52.207 69.8963 51.99 69.9583C51.5561 70.0512 51.1532 70.1442 50.7503 70.2371C50.3474 70.2991 49.9754 70.361 49.6345 70.423C49.4486 70.454 49.2936 70.485 49.1386 70.516C48.9837 70.5469 48.8287 70.5469 48.6737 70.5779C48.3948 70.6089 48.1468 70.6399 47.9299 70.6709C47.527 70.7328 47.279 70.7638 47.279 70.7638L47.248 70.423C47.31 70.516 47.527 70.485 47.9299 70.423Z" fill="#5D69BE"/>
<path d="M49.5029 23.5195C49.5139 23.4734 49.5172 23.4269 49.5147 23.3812C49.8804 23.247 50.1436 22.8852 50.1436 22.4599C50.1436 21.9208 49.7215 21.4822 49.2025 21.4822C48.6835 21.4822 48.2613 21.9208 48.2613 22.4599C48.2613 22.7673 48.3988 23.0415 48.6129 23.2209L47.3707 24.5114C47.0547 24.8398 46.6344 25.0207 46.1874 25.0207C45.6622 25.0207 45.1611 24.7597 44.8468 24.3227L42.8328 21.5225L42.8311 21.5203C42.9926 21.3447 43.0925 21.1074 43.0925 20.8459C43.0925 20.3067 42.6703 19.8682 42.1514 19.8682C41.6324 19.8682 41.2102 20.3067 41.2102 20.8459C41.2102 21.1154 41.3157 21.3599 41.4862 21.5368L39.4575 24.3294C39.143 24.7622 38.6437 25.0206 38.12 25.0206C37.6771 25.0206 37.2442 24.8334 36.9322 24.5068L35.6978 23.2147C35.9075 23.0352 36.0414 22.7636 36.0414 22.4599C36.0414 21.9208 35.6192 21.4822 35.1002 21.4822C34.5813 21.4822 34.1591 21.9208 34.1591 22.4599C34.1591 22.8969 34.4365 23.2677 34.8179 23.3925C34.8151 23.4394 34.8184 23.4872 34.8297 23.5346L35.8157 27.6473C35.8654 27.8548 36.0447 28.0004 36.2505 28.0004H42.1686L48.0844 27.9694C48.2891 27.9683 48.4672 27.8231 48.5169 27.6167L49.5029 23.5195Z" fill="white"/>
<path d="M47.9725 28.9937C48.22 28.9937 48.4207 29.2021 48.4207 29.4592V30.5767C48.4207 30.8338 48.22 31.0422 47.9725 31.0422H36.38C36.1325 31.0422 35.9318 30.8338 35.9318 30.5767V29.4592C35.9318 29.2021 36.1325 28.9937 36.38 28.9937H47.9725Z" fill="white"/>
<path fill-rule="evenodd" clip-rule="evenodd" d="M26.4275 47.1151H27.9275C28.3734 47.1151 28.6572 47.1961 28.9004 47.3176C29.0626 47.4795 29.1437 47.7629 29.1437 48.2082V48.856C29.164 48.9572 29.1741 49.0584 29.1842 49.1596C29.1944 49.2608 29.2045 49.3621 29.2248 49.4633C29.2248 49.5226 29.2465 49.6036 29.274 49.7062C29.2841 49.7438 29.295 49.7843 29.3059 49.8277H30.9275V49.6657C30.7653 49.5848 30.6842 49.4228 30.6437 49.2609C30.6032 49.1394 30.6032 48.937 30.6032 48.6131V48.1678C30.6032 47.6819 30.5221 47.3176 30.4004 47.0746C30.2788 46.8317 30.0356 46.6293 29.7113 46.5078C30.0761 46.3864 30.3599 46.1435 30.5221 45.8196C30.6842 45.4957 30.7653 45.1718 30.7653 44.8479C30.7653 44.5645 30.7248 44.3216 30.6437 44.1192C30.5626 43.8763 30.441 43.6738 30.2788 43.5119C30.0761 43.3095 29.8734 43.1475 29.5896 43.0261C29.3059 42.9451 28.941 42.8641 28.4545 42.8641H25.0086V49.8682H26.4275V47.1151ZM29.2653 45.0908C29.2653 45.4552 29.1032 45.7386 28.8194 45.8601C28.6572 45.9006 28.414 45.941 28.0896 45.9815H26.4275V44.1192H28.1302C28.4545 44.1192 28.6977 44.1597 28.8599 44.2406C29.1437 44.4026 29.2653 44.686 29.2653 45.0908Z" fill="white"/>
<path d="M32.9545 46.7912H36.3599V45.6172H32.995V44.1192H36.6842V42.8641H31.5356V49.8682H36.8464V48.6131H32.9545V46.7912Z" fill="white"/>
<path d="M38.5491 42.8641H36.968L39.3599 49.8682H40.7383L43.1302 42.8641H41.5896L40.0491 48.1678L38.5491 42.8641Z" fill="white"/>
<path d="M44.8329 42.8641H43.3734V49.8682H44.8329V42.8641Z" fill="white"/>
<path d="M47.1437 46.7912H50.5491V45.6172H47.1842V44.1192H50.8734V42.8641H45.7248V49.8682H51.0356V48.6131H47.1437V46.7912Z" fill="white"/>
<path d="M59.995 42.8641H58.495L57.4815 46.9937L57.2788 48.0463L57.0761 46.9127L56.2653 42.9046H54.7248L53.9545 46.9127L53.7518 48.0058L53.5491 46.8722L52.6167 42.8641H51.0761L53.0626 49.8682H54.4004L55.2518 45.7791L55.5356 44.4431L55.7788 45.7791L56.6302 49.8682H58.0086L59.995 42.8641Z" fill="white"/>
<path fill-rule="evenodd" clip-rule="evenodd" d="M23.0009 35.1425C23.4189 35.3269 23.6816 35.6511 23.7892 36.1152H25.186C25.1091 35.4606 24.808 34.9151 24.2824 34.4787C23.76 34.0392 23.067 33.8195 22.2034 33.8195C21.2077 33.8195 20.4071 34.1514 19.8017 34.8152C19.1963 35.479 18.8936 36.3611 18.8936 37.4613C18.8936 38.5492 19.1932 39.4066 19.7925 40.0335C20.3672 40.6574 21.1047 40.9693 22.0052 40.9693C22.5522 40.9693 23.0132 40.8541 23.3881 40.6236C23.6063 40.4914 23.8522 40.264 24.1257 39.9413L24.2686 40.7896H26.6298L27.1 39.3928H29.6031L30.041 40.7896H32.8032V36.1936C32.8032 36.0614 32.8017 35.877 32.7986 35.6404C32.7955 35.4007 32.794 35.2163 32.794 35.0872L34.0709 40.7896H35.4493L36.7354 35.0872C36.7354 35.2163 36.7339 35.4007 36.7308 35.6404C36.7277 35.877 36.7262 36.0614 36.7262 36.1936V40.7896H38.0492V33.9947H36.007L34.7808 39.3375L33.5454 33.9947H31.4802V40.5058L29.1744 33.9947H27.5702L25.209 40.6113V37.1432H22.3786V38.2772H23.9505C23.8798 38.7228 23.6924 39.0839 23.3881 39.3605C23.0839 39.634 22.6936 39.7708 22.2172 39.7708C21.7317 39.7708 21.2983 39.5971 20.9173 39.2499C20.5362 38.9026 20.3456 38.311 20.3456 37.4751C20.3456 36.6453 20.5208 36.0245 20.8712 35.6127C21.2246 35.1978 21.6748 34.9904 22.2218 34.9904C22.5077 34.9904 22.7673 35.0411 23.0009 35.1425ZM29.2066 38.2219H27.4826L28.3584 35.5482L29.2066 38.2219Z" fill="white"/>
<path fill-rule="evenodd" clip-rule="evenodd" d="M43.5174 34.7184C43.1701 34.2482 42.58 34.007 41.7472 33.9947H38.4466V40.7896H41.5259C41.8732 40.7896 42.1943 40.7588 42.4894 40.6974C42.7875 40.6359 43.0456 40.5222 43.2638 40.3562C43.4574 40.2118 43.6188 40.0335 43.7478 39.8215C43.9507 39.5019 44.0521 39.1408 44.0521 38.7382C44.0521 38.3479 43.963 38.016 43.7847 37.7425C43.6096 37.4689 43.3483 37.2692 43.0011 37.1432C43.2285 37.0264 43.4006 36.8973 43.5174 36.756C43.7263 36.504 43.8308 36.1705 43.8308 35.7556C43.8308 35.353 43.7263 35.0073 43.5174 34.7184ZM39.8018 36.673V35.1748H41.2954C41.6243 35.1748 41.8947 35.2101 42.1068 35.2808C42.3526 35.3822 42.4755 35.5912 42.4755 35.9078C42.4755 36.1936 42.3818 36.3933 42.1943 36.507C42.0099 36.6177 41.7687 36.673 41.4706 36.673H39.8018ZM39.8018 39.6094V37.7978H41.4936C41.7887 37.8009 42.0176 37.8393 42.1805 37.913C42.4725 38.0452 42.6184 38.288 42.6184 38.6414C42.6184 39.0593 42.4679 39.3421 42.1667 39.4896C42.0007 39.5695 41.7687 39.6094 41.4706 39.6094H39.8018Z" fill="white"/>
<path d="M45.7218 33.9947H44.3019V40.7896H49.0869V39.5679H45.7218V33.9947Z" fill="white"/>
<path d="M50.5584 35.1978H54.154V33.9947H49.1708V40.7896H54.32V39.5679H50.5584V37.8208H53.859V36.6407H50.5584V35.1978Z" fill="white"/>
<path fill-rule="evenodd" clip-rule="evenodd" d="M58.9446 34.1699C58.6895 34.0623 58.3238 34.0039 57.8474 33.9947H54.5145V40.7896H55.9021V38.1251H57.368C57.786 38.1251 58.0702 38.1973 58.2208 38.3417C58.3745 38.4862 58.4544 38.7751 58.4605 39.2084L58.4698 39.8399C58.4728 40.0397 58.4928 40.2348 58.5297 40.4254C58.5481 40.5176 58.5789 40.639 58.6219 40.7896H60.1846V40.619C60.0494 40.536 59.9633 40.4069 59.9265 40.2318C59.9019 40.1211 59.8896 39.9106 59.8896 39.6002V39.1438C59.8896 38.6675 59.8235 38.3141 59.6914 38.0836C59.5623 37.85 59.341 37.6702 59.0275 37.5442C59.4025 37.4152 59.6714 37.1954 59.8343 36.885C59.9971 36.5716 60.0786 36.2535 60.0786 35.9308C60.0786 35.6634 60.0356 35.4253 59.9495 35.2163C59.8635 35.0073 59.7467 34.8168 59.5992 34.6447C59.4209 34.4357 59.2027 34.2774 58.9446 34.1699ZM55.9021 37.0003V35.1748H57.5524C57.8597 35.1748 58.0902 35.2147 58.2439 35.2946C58.5174 35.436 58.6542 35.7126 58.6542 36.1244C58.6542 36.5055 58.5128 36.7606 58.23 36.8896C58.0702 36.9634 57.8305 37.0003 57.5109 37.0003H55.9021Z" fill="white"/>
<path d="M61.6422 39.3882C61.5162 39.2345 61.4317 39.0025 61.3887 38.6921H60.0334C60.0334 39.3989 60.2869 39.9552 60.794 40.3608C61.3011 40.7634 61.9972 40.9647 62.8823 40.9647C63.7489 40.9647 64.4189 40.7604 64.8922 40.3516C65.3685 39.9398 65.6067 39.4235 65.6067 38.8027C65.6067 38.1973 65.4038 37.7348 64.9982 37.4152C64.737 37.2093 64.3497 37.0448 63.8365 36.9219L62.6656 36.6407C62.2138 36.5332 61.9188 36.4394 61.7805 36.3595C61.5654 36.2397 61.4578 36.0583 61.4578 35.8156C61.4578 35.5513 61.5669 35.3454 61.7851 35.1978C62.0033 35.0503 62.2953 34.9766 62.661 34.9766C62.9898 34.9766 63.2649 35.0334 63.4862 35.1471C63.8181 35.3192 63.9963 35.6097 64.0209 36.0184H65.3854C65.3608 35.2962 65.095 34.7461 64.5879 34.3681C64.0839 33.987 63.4739 33.7965 62.7578 33.7965C61.9004 33.7965 61.2504 33.9978 60.8079 34.4003C60.3653 34.8029 60.144 35.3085 60.144 35.917C60.144 36.5839 60.373 37.074 60.8309 37.3875C61.1013 37.575 61.59 37.7486 62.2968 37.9084L63.016 38.0698C63.437 38.162 63.7458 38.268 63.9425 38.3878C64.1392 38.5108 64.2376 38.6844 64.2376 38.9087C64.2376 39.2929 64.0393 39.5557 63.6429 39.697C63.4339 39.7708 63.1619 39.8077 62.827 39.8077C62.2676 39.8077 61.8727 39.6678 61.6422 39.3882Z" fill="white"/>
<path d="M35.9493 13.0316V12.2376L39.0517 7.78702H40.3259V12.1175H41.1847V13.0316H40.3259V14.4351H39.2918V13.0316H35.9493ZM39.338 8.8581L37.1589 12.1175H39.338V8.8581ZM42.6201 14.4998C42.4293 14.4998 42.2692 14.4351 42.14 14.3059C42.0107 14.1766 41.9461 14.0165 41.9461 13.8257C41.9461 13.6349 42.0107 13.4748 42.14 13.3456C42.2692 13.2163 42.4293 13.1517 42.6201 13.1517C42.8048 13.1517 42.9617 13.2163 43.091 13.3456C43.2203 13.4748 43.2849 13.6349 43.2849 13.8257C43.2849 14.0165 43.2203 14.1766 43.091 14.3059C42.9617 14.4351 42.8048 14.4998 42.6201 14.4998ZM45.5952 12.6069C45.6568 12.9147 45.7891 13.1486 45.9923 13.3086C46.1954 13.4687 46.4693 13.5487 46.814 13.5487C47.2511 13.5487 47.5712 13.3763 47.7743 13.0316C47.9775 12.6869 48.079 12.0991 48.079 11.268C47.9313 11.4773 47.722 11.6405 47.4512 11.7574C47.1865 11.8682 46.8971 11.9236 46.5832 11.9236C46.1831 11.9236 45.8199 11.8436 45.4937 11.6835C45.1674 11.5173 44.9089 11.2742 44.718 10.9541C44.5334 10.6279 44.441 10.2339 44.441 9.77222C44.441 9.09509 44.638 8.55647 45.032 8.15636C45.4321 7.75008 45.98 7.54695 46.6755 7.54695C47.5127 7.54695 48.1067 7.82703 48.4576 8.38719C48.8146 8.9412 48.9931 9.79376 48.9931 10.9449C48.9931 11.7389 48.9254 12.3884 48.79 12.8931C48.6607 13.3979 48.433 13.7795 48.1067 14.0381C47.7805 14.2966 47.328 14.4259 46.7494 14.4259C46.0908 14.4259 45.5829 14.2535 45.2259 13.9088C44.8689 13.5641 44.6688 13.1301 44.6257 12.6069H45.5952ZM46.7679 11.0372C47.1372 11.0372 47.4265 10.9233 47.6358 10.6956C47.8513 10.4616 47.959 10.1539 47.959 9.77222C47.959 9.34748 47.8451 9.01815 47.6174 8.78423C47.3958 8.54416 47.091 8.42413 46.7032 8.42413C46.3154 8.42413 46.0077 8.54724 45.7799 8.79347C45.5583 9.03354 45.4475 9.35055 45.4475 9.74451C45.4475 10.12 45.5552 10.4309 45.7707 10.6771C45.9923 10.9172 46.3247 11.0372 46.7679 11.0372Z" fill="url(#paint0_linear_1_596)"/>
<path d="M39.6762 56.6674C39.8155 56.6923 39.9337 56.7657 40.0308 56.8877C40.1278 57.0096 40.1763 57.1477 40.1763 57.302C40.1763 57.4339 40.1415 57.5533 40.0718 57.6603C40.0046 57.7648 39.9063 57.8482 39.7769 57.9104C39.6476 57.9701 39.497 58 39.3253 58H38.2876V55.4058H39.2768C39.4535 55.4058 39.6052 55.4356 39.7322 55.4954C39.8591 55.5551 39.9549 55.636 40.0196 55.738C40.0843 55.8375 40.1166 55.9495 40.1166 56.0739C40.1166 56.2232 40.0768 56.3477 39.9972 56.4472C39.9175 56.5467 39.8105 56.6202 39.6762 56.6674ZM38.7131 56.4957H39.2394C39.3788 56.4957 39.487 56.4646 39.5642 56.4024C39.6438 56.3377 39.6836 56.2456 39.6836 56.1262C39.6836 56.0092 39.6438 55.9184 39.5642 55.8537C39.487 55.7865 39.3788 55.7529 39.2394 55.7529H38.7131V56.4957ZM39.288 57.6529C39.4323 57.6529 39.5455 57.618 39.6276 57.5483C39.7098 57.4787 39.7508 57.3816 39.7508 57.2572C39.7508 57.1303 39.7073 57.0295 39.6202 56.9548C39.5331 56.8802 39.4174 56.8429 39.273 56.8429H38.7131V57.6529H39.288ZM41.0643 55.7492V56.5107H41.9601V56.8578H41.0643V57.6529H42.0721V58H40.6388V55.4021H42.0721V55.7492H41.0643ZM43.451 58.0261C43.2768 58.0261 43.1201 57.9963 42.9807 57.9365C42.8413 57.8743 42.7319 57.7872 42.6522 57.6753C42.5726 57.5633 42.5328 57.4326 42.5328 57.2833H42.9882C42.9981 57.3953 43.0417 57.4874 43.1188 57.5595C43.1984 57.6317 43.3092 57.6678 43.451 57.6678C43.5978 57.6678 43.7123 57.633 43.7944 57.5633C43.8765 57.4911 43.9176 57.399 43.9176 57.2871C43.9176 57.2 43.8915 57.129 43.8392 57.0743C43.7894 57.0195 43.726 56.9772 43.6488 56.9474C43.5742 56.9175 43.4697 56.8852 43.3353 56.8503C43.1661 56.8055 43.028 56.7607 42.921 56.716C42.8165 56.6687 42.7269 56.5965 42.6522 56.4995C42.5776 56.4024 42.5402 56.273 42.5402 56.1113C42.5402 55.962 42.5776 55.8313 42.6522 55.7193C42.7269 55.6074 42.8314 55.5215 42.9658 55.4618C43.1001 55.4021 43.2557 55.3722 43.4324 55.3722C43.6837 55.3722 43.889 55.4356 44.0482 55.5626C44.21 55.687 44.2996 55.8587 44.317 56.0777H43.8467C43.8392 55.9831 43.7944 55.9022 43.7123 55.835C43.6302 55.7679 43.5219 55.7343 43.3876 55.7343C43.2656 55.7343 43.1661 55.7654 43.0889 55.8276C43.0118 55.8898 42.9732 55.9794 42.9732 56.0963C42.9732 56.176 42.9969 56.2419 43.0442 56.2942C43.0939 56.3439 43.1561 56.3837 43.2308 56.4136C43.3054 56.4435 43.4075 56.4758 43.5369 56.5107C43.7086 56.5579 43.8479 56.6052 43.9549 56.6525C44.0644 56.6998 44.1565 56.7732 44.2311 56.8727C44.3083 56.9698 44.3469 57.1004 44.3469 57.2647C44.3469 57.3965 44.3108 57.521 44.2386 57.6379C44.1689 57.7549 44.0657 57.8494 43.9288 57.9216C43.7944 57.9913 43.6352 58.0261 43.451 58.0261ZM46.5249 55.4058V55.7529H45.8344V58H45.4089V55.7529H44.7146V55.4058H46.5249ZM35.3426 60.6973C35.3426 60.4435 35.4011 60.2158 35.518 60.0142C35.6375 59.8126 35.798 59.6559 35.9996 59.5439C36.2036 59.4294 36.4263 59.3722 36.6677 59.3722C36.9439 59.3722 37.189 59.4406 37.4031 59.5775C37.6195 59.7119 37.7763 59.9035 37.8734 60.1523H37.362C37.2948 60.0155 37.2015 59.9134 37.082 59.8462C36.9626 59.7791 36.8245 59.7455 36.6677 59.7455C36.496 59.7455 36.343 59.784 36.2086 59.8612C36.0742 59.9383 35.9685 60.0491 35.8913 60.1934C35.8167 60.3377 35.7793 60.5057 35.7793 60.6973C35.7793 60.8889 35.8167 61.0569 35.8913 61.2012C35.9685 61.3455 36.0742 61.4575 36.2086 61.5371C36.343 61.6143 36.496 61.6529 36.6677 61.6529C36.8245 61.6529 36.9626 61.6193 37.082 61.5521C37.2015 61.4849 37.2948 61.3829 37.362 61.246H37.8734C37.7763 61.4948 37.6195 61.6865 37.4031 61.8208C37.189 61.9552 36.9439 62.0224 36.6677 62.0224C36.4238 62.0224 36.2011 61.9664 35.9996 61.8544C35.798 61.74 35.6375 61.5819 35.518 61.3804C35.4011 61.1788 35.3426 60.9511 35.3426 60.6973ZM40.4431 59.4058V62H40.0176V60.8653H38.797V62H38.3714V59.4058H38.797V60.5181H40.0176V59.4058H40.4431ZM42.1865 62.0261C41.9452 62.0261 41.7224 61.9701 41.5184 61.8582C41.3168 61.7437 41.1563 61.5857 41.0369 61.3841C40.9199 61.1801 40.8614 60.9511 40.8614 60.6973C40.8614 60.4435 40.9199 60.2158 41.0369 60.0142C41.1563 59.8126 41.3168 59.6559 41.5184 59.5439C41.7224 59.4294 41.9452 59.3722 42.1865 59.3722C42.4304 59.3722 42.6531 59.4294 42.8547 59.5439C43.0587 59.6559 43.2192 59.8126 43.3362 60.0142C43.4532 60.2158 43.5116 60.4435 43.5116 60.6973C43.5116 60.9511 43.4532 61.1801 43.3362 61.3841C43.2192 61.5857 43.0587 61.7437 42.8547 61.8582C42.6531 61.9701 42.4304 62.0261 42.1865 62.0261ZM42.1865 61.6566C42.3582 61.6566 42.5113 61.618 42.6457 61.5409C42.78 61.4612 42.8846 61.3493 42.9592 61.2049C43.0363 61.0581 43.0749 60.8889 43.0749 60.6973C43.0749 60.5057 43.0363 60.3377 42.9592 60.1934C42.8846 60.0491 42.78 59.9383 42.6457 59.8612C42.5113 59.784 42.3582 59.7455 42.1865 59.7455C42.0148 59.7455 41.8618 59.784 41.7274 59.8612C41.593 59.9383 41.4873 60.0491 41.4101 60.1934C41.3355 60.3377 41.2982 60.5057 41.2982 60.6973C41.2982 60.8889 41.3355 61.0581 41.4101 61.2049C41.4873 61.3493 41.593 61.4612 41.7274 61.5409C41.8618 61.618 42.0148 61.6566 42.1865 61.6566ZM44.3559 59.4058V62H43.9304V59.4058H44.3559ZM44.7727 60.6973C44.7727 60.4435 44.8312 60.2158 44.9482 60.0142C45.0676 59.8126 45.2281 59.6559 45.4297 59.5439C45.6337 59.4294 45.8565 59.3722 46.0978 59.3722C46.3741 59.3722 46.6192 59.4406 46.8332 59.5775C47.0497 59.7119 47.2064 59.9035 47.3035 60.1523H46.7921C46.7249 60.0155 46.6316 59.9134 46.5122 59.8462C46.3927 59.7791 46.2546 59.7455 46.0978 59.7455C45.9261 59.7455 45.7731 59.784 45.6387 59.8612C45.5043 59.9383 45.3986 60.0491 45.3214 60.1934C45.2468 60.3377 45.2095 60.5057 45.2095 60.6973C45.2095 60.8889 45.2468 61.0569 45.3214 61.2012C45.3986 61.3455 45.5043 61.4575 45.6387 61.5371C45.7731 61.6143 45.9261 61.6529 46.0978 61.6529C46.2546 61.6529 46.3927 61.6193 46.5122 61.5521C46.6316 61.4849 46.7249 61.3829 46.7921 61.246H47.3035C47.2064 61.4948 47.0497 61.6865 46.8332 61.8208C46.6192 61.9552 46.3741 62.0224 46.0978 62.0224C45.854 62.0224 45.6313 61.9664 45.4297 61.8544C45.2281 61.74 45.0676 61.5819 44.9482 61.3804C44.8312 61.1788 44.7727 60.9511 44.7727 60.6973ZM48.2271 59.7492V60.5107H49.1229V60.8578H48.2271V61.6529H49.2349V62H47.8016V59.4021H49.2349V59.7492H48.2271Z" fill="url(#paint1_linear_1_596)"/>
<defs>
<linearGradient id="paint0_linear_1_596" x1="35.5408" y1="5.09471" x2="52.8222" y2="11.8946" gradientUnits="userSpaceOnUse">
<stop stop-color="#42E8FF"/>
<stop offset="0.197917" stop-color="#5BBFD6"/>
<stop offset="0.357891" stop-color="#2CA0E1"/>
<stop offset="0.859375" stop-color="#76D6FF"/>
<stop offset="1" stop-color="#0185FF"/>
</linearGradient>
<linearGradient id="paint1_linear_1_596" x1="34.858" y1="55.3769" x2="48.396" y2="64.699" gradientUnits="userSpaceOnUse">
<stop stop-color="#42E8FF"/>
<stop offset="0.197917" stop-color="#5BBFD6"/>
<stop offset="0.357891" stop-color="#2CA0E1"/>
<stop offset="0.859375" stop-color="#76D6FF"/>
<stop offset="1" stop-color="#0185FF"/>
</linearGradient>
</defs>
</svg>
