<svg width="85" height="74" viewBox="0 0 85 74" fill="none" xmlns="http://www.w3.org/2000/svg">
<path d="M29.5675 69.7438C29.3506 69.7438 29.1336 69.7438 28.8857 69.7748C28.8237 69.7748 28.7617 69.8058 28.6997 69.8058C28.6377 69.8058 28.5757 69.8368 28.5138 69.8368C28.3898 69.8678 28.2658 69.8987 28.1108 69.9297C27.584 70.0846 26.9951 70.3015 26.4062 70.5803C25.8483 70.8282 25.2595 71.107 24.7326 71.3859C24.2057 71.6647 23.7718 71.9126 23.4309 72.0675C23.1209 72.2224 22.904 72.3463 22.904 72.3463C22.904 72.3463 22.966 72.3773 23.059 72.4083C23.1519 72.4393 23.3069 72.5012 23.4619 72.5322C23.8338 72.6251 24.3297 72.7801 24.9185 72.873C25.0735 72.904 25.1975 72.935 25.3525 72.9659C25.5074 72.9969 25.6624 72.9969 25.8174 73.0279C26.1273 73.0589 26.4682 73.0899 26.7781 73.0899C27.429 73.1209 28.0799 73.0279 28.6377 72.873C29.7535 72.5632 30.4973 71.8816 30.9622 71.3239C31.4271 70.7662 31.6441 70.2705 31.6441 70.2705C31.6441 70.2705 31.2722 70.0227 30.6213 69.8678C30.3734 69.8368 29.9704 69.7438 29.5675 69.7438Z" fill="#5D69BE"/>
<path d="M31.2723 65.3444C31.0244 64.9417 30.6835 64.5699 30.3115 64.2291C30.1256 64.0432 29.9396 63.8883 29.7537 63.7334C29.6607 63.6404 29.5677 63.5785 29.4747 63.5165C29.3817 63.4545 29.2888 63.3616 29.2268 63.2996C28.8858 63.0208 28.5759 62.8349 28.328 62.68C28.111 62.5251 27.9561 62.4321 27.9561 62.4321C27.9561 62.4321 27.9561 62.618 27.9561 62.9588C27.9561 63.2996 27.987 63.7334 28.08 64.2601C28.142 64.7867 28.266 65.3444 28.421 65.9021C28.5759 66.4288 28.8239 66.9555 29.0718 67.3892C29.1338 67.5131 29.1958 67.6061 29.2888 67.699C29.3198 67.761 29.3507 67.792 29.4127 67.823C29.4437 67.8539 29.4747 67.9159 29.5367 67.9469C29.6917 68.1018 29.8776 68.2567 30.0326 68.3496C30.1876 68.4736 30.3735 68.5665 30.5285 68.6285C30.6835 68.7214 30.8384 68.7834 30.9934 68.8144C31.5823 69.0003 32.0472 68.9693 32.0472 68.9693C32.0472 68.9693 32.1091 68.4426 32.0472 67.73C32.0162 67.3582 31.9542 66.9555 31.8302 66.5527C31.7992 66.4598 31.7682 66.3358 31.7372 66.2429C31.7062 66.1499 31.6442 66.026 31.6132 65.9331C31.4893 65.7472 31.3963 65.5303 31.2723 65.3444Z" fill="#5D69BE"/>
<path d="M22.6563 66.5527C22.6253 66.5218 22.5633 66.4598 22.5013 66.3978C22.3463 66.2739 22.1294 66.119 21.8504 65.9641C21.6955 65.8711 21.5405 65.8092 21.3855 65.7472C21.1996 65.6852 21.0136 65.6233 20.8277 65.5613C20.4248 65.4374 19.9289 65.3754 19.371 65.3754C19.092 65.3754 18.7821 65.4064 18.5032 65.4374C18.1932 65.4684 17.8833 65.4994 17.5734 65.5613C17.2634 65.6233 16.9535 65.6852 16.6436 65.7162C16.3337 65.7782 16.0237 65.8402 15.7448 65.9021C15.1869 66.026 14.691 66.15 14.3191 66.2119C13.9472 66.3049 13.7302 66.3668 13.7302 66.3668C13.7302 66.3668 13.9162 66.4908 14.2261 66.7076C14.3811 66.8006 14.567 66.9245 14.784 67.0484C14.877 67.1104 15.0009 67.1724 15.1249 67.2343C15.2489 67.2963 15.3729 67.3583 15.4968 67.4202C15.7448 67.5441 16.0547 67.6681 16.3337 67.792C16.4886 67.854 16.6436 67.9159 16.7676 67.9469C16.8295 67.9779 16.9225 68.0089 16.9845 68.0399C17.0775 68.0708 17.1395 68.0708 17.2015 68.1018C17.8213 68.2877 18.4722 68.3807 19.0301 68.3807C20.2078 68.3497 21.1066 67.9159 21.7265 67.4822C22.0364 67.2653 22.2534 67.0484 22.4393 66.8935C22.5943 66.7386 22.6873 66.6457 22.6873 66.6457C22.6873 66.6457 22.6873 66.5837 22.6563 66.5527Z" fill="#5D69BE"/>
<path d="M21.0445 63.1447C21.1995 63.6095 21.4164 64.0122 21.6644 64.322C21.7884 64.4769 21.9123 64.6319 22.0673 64.7248C22.1913 64.8487 22.3462 64.9417 22.4702 65.0346C22.7181 65.1895 22.9661 65.3135 23.1521 65.3754C23.245 65.4064 23.307 65.4374 23.369 65.4374C23.431 65.4374 23.431 65.4684 23.431 65.4684C23.431 65.4684 23.493 65.3444 23.555 65.1276C23.617 64.9107 23.7099 64.6319 23.7719 64.2601C23.8959 63.5475 23.9579 62.618 23.6789 61.6886C23.555 61.2239 23.338 60.7591 23.0591 60.3564C22.8111 59.9226 22.5322 59.5199 22.2533 59.21C22.1293 59.0551 22.0053 58.8692 21.8813 58.7453C21.7884 58.5904 21.6644 58.4975 21.5714 58.3735C21.3854 58.1876 21.2925 58.0637 21.2925 58.0637C21.2925 58.0637 21.2305 58.2496 21.1685 58.5594C21.0755 58.8692 20.9825 59.334 20.9205 59.8297C20.8895 60.0775 20.8586 60.3564 20.8276 60.6352C20.7966 60.914 20.7966 61.1929 20.7966 61.4717C20.7966 61.7506 20.8276 62.0294 20.8586 62.3082C20.9205 62.649 20.9515 62.8969 21.0445 63.1447Z" fill="#5D69BE"/>
<path d="M14.6291 60.1706C14.5362 60.0157 14.3812 59.7988 14.1332 59.5819C13.9163 59.365 13.6064 59.1172 13.2654 58.9003C12.8935 58.6834 12.4596 58.4666 11.9327 58.3426C11.7468 58.2807 11.5608 58.2497 11.3748 58.2187C11.1889 58.1877 10.9719 58.1568 10.786 58.1258C9.7632 57.9709 8.61646 57.9089 7.74865 57.8469C6.88084 57.785 6.22998 57.785 6.22998 57.785C6.22998 57.785 6.44693 58.0638 6.81885 58.4666C7.15978 58.8693 7.71765 59.365 8.33752 59.8298C8.4305 59.8917 8.52348 59.9847 8.61646 60.0466C8.67844 60.0776 8.70944 60.1086 8.77142 60.1396C8.80241 60.1706 8.8644 60.2015 8.92639 60.2325C9.14334 60.3565 9.3293 60.4804 9.54625 60.6043C9.7632 60.7282 9.98016 60.8212 10.1971 60.9141C10.4141 61.0071 10.6 61.1 10.848 61.131C11.9947 61.4098 12.9555 61.2239 13.6683 61.0071C14.3812 60.7592 14.8151 60.4494 14.8151 60.4494C14.8151 60.4494 14.7221 60.3255 14.6291 60.1706Z" fill="#5D69BE"/>
<path d="M15.0004 58.8384C15.2174 59.0553 15.4033 59.2412 15.5583 59.3341C15.7132 59.427 15.8062 59.489 15.8062 59.489C15.8062 59.489 16.1472 59.0862 16.4571 58.4666C16.798 57.816 17.1079 56.9485 17.1079 55.9881C17.1079 55.6473 17.0769 55.2755 17.015 54.9347C16.984 54.7488 16.922 54.5939 16.891 54.408C16.829 54.2531 16.798 54.0672 16.736 53.9123C16.643 53.6335 16.5501 53.3546 16.4571 53.1068C16.4261 53.0448 16.3951 52.9828 16.3951 52.9209C16.3641 52.8589 16.3641 52.7969 16.3331 52.766C16.3021 52.642 16.2401 52.5491 16.2091 52.4561C16.0542 52.0844 15.9302 51.8675 15.9302 51.8675C15.9302 51.8675 15.6203 52.3322 15.2483 53.0448C15.1554 53.2307 15.0624 53.4166 14.9694 53.6335C14.9074 53.7264 14.8764 53.8503 14.8454 53.9433C14.8144 54.0362 14.7525 54.1601 14.7215 54.2531C14.5665 54.6868 14.4115 55.1516 14.3186 55.6163C14.2876 55.8022 14.2566 55.9881 14.2256 56.143C14.1946 56.3289 14.1946 56.4838 14.1946 56.6387C14.1946 57.1344 14.2876 57.5681 14.4425 57.9399C14.5665 58.3117 14.7835 58.6215 15.0004 58.8384Z" fill="#5D69BE"/>
<path d="M7.06691 52.5802C7.28386 52.5802 7.50081 52.5802 7.68677 52.5802C8.43061 52.5182 8.95749 52.3633 8.95749 52.3633C8.95749 52.3633 8.9265 52.2394 8.89551 52.0844C8.86451 51.9915 8.83352 51.8986 8.77154 51.7746C8.74054 51.6507 8.67856 51.5268 8.58558 51.3719C8.43061 51.093 8.24465 50.7832 7.93472 50.4734C7.87273 50.4114 7.77975 50.3185 7.71777 50.2255C7.62479 50.1326 7.5628 50.0706 7.46982 50.0087C7.28386 49.8538 7.06691 49.6989 6.84996 49.5749C6.60201 49.42 6.35407 49.2961 6.07513 49.1722C5.79619 49.0482 5.51725 48.9243 5.23831 48.8004C4.64944 48.5525 4.06057 48.3357 3.50269 48.1498C2.97581 47.9639 2.47992 47.809 2.13899 47.685C1.79807 47.5611 1.58112 47.4991 1.58112 47.4991C1.58112 47.4991 1.6741 47.716 1.82906 48.0258C1.89105 48.1807 1.98403 48.3976 2.108 48.6145C2.23197 48.8314 2.35595 49.0482 2.51091 49.2961C2.66588 49.5439 2.82084 49.7918 3.0068 50.0397C3.0378 50.1016 3.09978 50.1636 3.13078 50.2255C3.19276 50.2875 3.22375 50.3495 3.28574 50.4114C3.37872 50.5354 3.50269 50.6593 3.59567 50.7832C3.81263 51.0311 4.02958 51.2479 4.27752 51.4338C4.4015 51.5268 4.49448 51.6197 4.61845 51.7127C4.74242 51.8056 4.86639 51.8676 4.99037 51.9605C5.48626 52.2394 5.98215 52.4252 6.44705 52.5182C6.63301 52.5492 6.84996 52.5802 7.06691 52.5802Z" fill="#5D69BE"/>
<path d="M9.32893 49.8846C9.39092 50.2873 9.4839 50.6281 9.60787 50.907C9.66985 51.0309 9.73184 51.1548 9.79383 51.2787C9.85581 51.3717 9.9178 51.4646 9.97979 51.5266C10.1038 51.6815 10.1657 51.7435 10.1657 51.7435C10.1657 51.7435 10.5997 51.4646 11.0955 50.907C11.2195 50.783 11.3435 50.6281 11.4675 50.4732C11.5914 50.3183 11.7154 50.1324 11.8394 49.9465C12.0873 49.5748 12.3043 49.172 12.4282 48.7073C12.4592 48.5833 12.4902 48.4904 12.5212 48.3665C12.5522 48.2425 12.5832 48.1186 12.5832 47.9947C12.6142 47.7468 12.6452 47.499 12.6452 47.2511C12.6452 46.7554 12.6762 46.2907 12.6142 45.8569C12.6142 45.6401 12.5832 45.4542 12.5522 45.2683C12.5522 45.0824 12.5212 44.9275 12.5212 44.8036C12.4902 44.5247 12.4592 44.3698 12.4592 44.3698C12.4592 44.3698 12.3043 44.4937 12.0563 44.7416C11.8084 44.9585 11.4675 45.2993 11.1265 45.702C10.7856 46.1048 10.4137 46.5385 10.1038 47.0342C9.94879 47.2821 9.79383 47.53 9.66985 47.7778C9.54588 48.0257 9.4529 48.2735 9.39092 48.5214C9.32893 48.7692 9.26694 48.9861 9.23595 49.203C9.23595 49.3269 9.20496 49.4198 9.20496 49.5438C9.20496 49.6057 9.20496 49.6367 9.20496 49.6987C9.29794 49.7916 9.29794 49.8226 9.32893 49.8846Z" fill="#5D69BE"/>
<path d="M2.63442 42.5729C2.85137 42.7278 3.06833 42.8518 3.28528 42.9447C3.71918 43.1616 4.15309 43.2855 4.49401 43.3475C5.23785 43.5024 5.76473 43.4404 5.76473 43.4404C5.76473 43.4404 5.82672 43.0067 5.70275 42.387C5.67175 42.2321 5.60977 42.0772 5.54778 41.8913C5.48579 41.7054 5.42381 41.5505 5.33083 41.3337C5.23785 41.1478 5.11388 40.9619 4.9899 40.776C4.92792 40.683 4.83494 40.5901 4.77295 40.4972C4.74196 40.4352 4.67997 40.4042 4.64898 40.3422C4.61798 40.2803 4.556 40.2493 4.52501 40.1873C3.81216 39.4128 2.63442 38.6073 1.70463 37.9567C1.23973 37.6468 0.805823 37.368 0.495891 37.1511C0.185959 36.9652 0 36.8413 0 36.8413C0 36.8413 0.0309932 37.0582 0.0929796 37.43C0.154966 37.8017 0.247945 38.2665 0.402911 38.8241C0.557877 39.3818 0.77483 39.9705 1.05377 40.5281C1.11575 40.683 1.17774 40.807 1.27072 40.9309C1.3637 41.0548 1.42569 41.2097 1.51867 41.3337C1.67363 41.5815 1.85959 41.8294 2.07654 42.0153C2.23151 42.2321 2.41747 42.418 2.63442 42.5729Z" fill="#5D69BE"/>
<path d="M7.15943 43.1925C7.15943 43.1925 7.68631 43.0376 8.30618 42.6349C8.61611 42.449 8.95703 42.2011 9.29796 41.9223C9.45293 41.7674 9.63888 41.6125 9.76286 41.4266C9.91782 41.2407 10.0728 41.0548 10.1968 40.8689C10.3207 40.652 10.4447 40.4352 10.5377 40.2183C10.6307 40.0014 10.7236 39.7536 10.8166 39.5367C11.0026 39.072 11.0956 38.6072 11.1885 38.2045C11.2815 37.8017 11.3435 37.4299 11.3745 37.1511C11.4055 36.9032 11.4055 36.7173 11.4055 36.7173C11.4055 36.7173 11.2195 36.8103 10.9406 36.9652C10.6307 37.1201 10.2278 37.368 9.79385 37.6468C9.35995 37.9256 8.86405 38.2974 8.43015 38.6692C7.99625 39.041 7.59333 39.4747 7.3144 39.9085C7.15943 40.1253 7.06645 40.3422 6.97347 40.5281C6.91148 40.745 6.8495 40.9309 6.78751 41.1477C6.75652 41.3336 6.72552 41.5195 6.72552 41.7054C6.72552 41.8913 6.75652 42.0462 6.75652 42.2011C6.94248 42.8208 7.15943 43.1925 7.15943 43.1925Z" fill="#5D69BE"/>
<path d="M1.4567 29.3126C1.48769 29.5605 1.51869 29.7774 1.58067 29.9942C1.67365 30.459 1.82862 30.8927 2.01458 31.2645C2.29352 31.7602 2.60345 32.163 2.97537 32.4728C3.31629 32.7826 3.68821 33.0304 4.02914 33.1854C4.71099 33.5262 5.23787 33.6191 5.23787 33.6191C5.23787 33.6191 5.29986 33.5262 5.33085 33.3403C5.36184 33.1544 5.45482 32.9065 5.45482 32.5967C5.48582 32.2869 5.48582 31.9151 5.39284 31.5123C5.33085 31.1096 5.17588 30.6449 4.92794 30.1801C4.83496 30.0252 4.74198 29.8703 4.649 29.6844C4.58701 29.5915 4.55602 29.5295 4.49403 29.4366C4.43205 29.3436 4.40105 29.2817 4.33907 29.1887C4.06013 28.7859 3.7502 28.3522 3.40927 27.9494C3.09934 27.5467 2.75841 27.1749 2.51047 26.8341C1.95259 26.1835 1.54968 25.7188 1.54968 25.7188C1.54968 25.7188 1.51869 26.0595 1.4567 26.5862C1.42571 26.8341 1.39471 27.1749 1.39471 27.5157C1.39471 27.8565 1.39471 28.2283 1.39471 28.6001C1.39471 28.8169 1.42571 29.0648 1.4567 29.3126Z" fill="#5D69BE"/>
<path d="M10.2587 32.3492C10.3207 32.2872 10.3827 32.2253 10.4447 32.1633C10.5067 32.1013 10.5687 32.0394 10.6306 31.9774C10.7546 31.8535 10.8786 31.6986 11.0026 31.5747C11.1265 31.4197 11.2195 31.2958 11.3125 31.1409C11.4055 30.986 11.4984 30.8311 11.5914 30.7072C11.7464 30.4593 11.9014 30.2115 12.0253 29.9636C12.0873 29.8397 12.1493 29.7467 12.1803 29.6228C12.2113 29.5299 12.2733 29.4059 12.3353 29.344C12.5212 28.9722 12.6142 28.7553 12.6142 28.7553C12.6142 28.7553 12.0563 28.8483 11.2505 29.0651C11.0645 29.1271 10.8476 29.1891 10.6306 29.251C10.4137 29.313 10.1967 29.4059 9.97978 29.4989C9.51488 29.6848 9.08098 29.8707 8.64707 30.1185C8.30615 30.3044 8.02721 30.5213 7.77926 30.7381C7.40735 31.0789 7.12841 31.4507 6.94245 31.7915C6.75649 32.1633 6.6945 32.5041 6.63252 32.7829C6.60152 33.0928 6.57053 33.3406 6.60152 33.5265C6.63252 33.7124 6.66351 33.8053 6.66351 33.8053C6.66351 33.8053 7.19039 33.7744 7.90324 33.5885C8.61608 33.3406 9.51488 32.9688 10.2587 32.3492Z" fill="#5D69BE"/>
<path d="M5.7647 22.3419C6.01265 22.7447 6.29158 23.0545 6.57052 23.3333C7.1284 23.829 7.5933 24.0769 7.5933 24.0769C7.5933 24.0769 7.65528 23.9839 7.74826 23.829C7.84124 23.6741 7.96522 23.4263 8.08919 23.1474C8.21316 22.8686 8.30614 22.4968 8.36813 22.0941C8.39912 21.8772 8.39912 21.6603 8.39912 21.4434C8.39912 21.2266 8.36813 20.9787 8.33713 20.6999C8.27515 20.452 8.21316 20.1732 8.12018 19.8634C8.08919 19.7085 8.0272 19.5845 7.99621 19.4296C7.93422 19.2747 7.90323 19.1508 7.84124 18.9959C7.65528 18.4072 7.40734 17.8495 7.19039 17.3229C7.06641 17.075 6.97343 16.8272 6.88045 16.6103C6.78747 16.3934 6.6945 16.2075 6.63251 16.0216C6.47754 15.6808 6.38456 15.4949 6.38456 15.4949C6.38456 15.4949 6.29158 15.6808 6.13662 16.0216C6.04364 16.1765 5.98165 16.3934 5.88867 16.6103C5.79569 16.8272 5.70271 17.106 5.60973 17.3538C5.57874 17.4778 5.51675 17.6327 5.48576 17.7566C5.45477 17.9115 5.39278 18.0354 5.36179 18.1903C5.2998 18.5002 5.23782 18.81 5.20682 19.1198C5.17583 19.4296 5.14484 19.7394 5.14484 20.0493C5.14484 20.3591 5.17583 20.6379 5.23782 20.9167C5.3308 21.4744 5.51675 21.9391 5.7647 22.3419Z" fill="#5D69BE"/>
<path d="M13.4204 23.8289C13.6373 23.705 13.8543 23.5501 14.0402 23.3952C14.2262 23.2402 14.4121 23.0853 14.5981 22.9304C14.7841 22.7755 14.939 22.6206 15.094 22.4657C15.249 22.3108 15.3729 22.1559 15.4969 22.032C15.5589 21.97 15.6209 21.908 15.6519 21.8461C15.7139 21.7841 15.7449 21.7221 15.8068 21.6912C15.9928 21.5053 16.0858 21.3813 16.0858 21.3813C16.0858 21.3813 15.8688 21.3504 15.5279 21.3194C15.187 21.2884 14.6911 21.2884 14.1642 21.2884C13.6373 21.3194 13.0175 21.3504 12.4286 21.4433C12.2736 21.4743 12.1187 21.5053 11.9947 21.5362C11.8707 21.5672 11.7157 21.5982 11.5918 21.6602C11.3128 21.7531 11.0649 21.8461 10.8169 21.939C10.569 22.032 10.383 22.1559 10.1661 22.3108C9.98012 22.4347 9.82516 22.5896 9.67019 22.7445C9.39125 23.0544 9.20529 23.3332 9.08132 23.612C8.95735 23.8909 8.89536 24.1387 8.86437 24.3246C8.83337 24.5105 8.83337 24.6034 8.83337 24.6034C8.83337 24.6034 9.36026 24.7274 10.1041 24.7274C10.476 24.7274 10.9099 24.6964 11.3438 24.6344C11.8087 24.5725 12.2736 24.4485 12.7075 24.2317C12.9865 24.0768 13.2034 23.9528 13.4204 23.8289Z" fill="#5D69BE"/>
<path d="M11.0646 13.729C11.1885 14.1627 11.3745 14.5655 11.5605 14.8753C11.9324 15.4949 12.3353 15.8667 12.3353 15.8667C12.3353 15.8667 12.7072 15.6189 13.1101 15.1231C13.2031 14.9992 13.2961 14.8443 13.3891 14.6894C13.482 14.5345 13.575 14.3486 13.668 14.1627C13.823 13.7909 13.9469 13.3262 14.0089 12.7995C14.0709 12.2728 14.0399 11.6842 14.0089 11.0645C13.9469 10.4449 13.9159 9.82526 13.823 9.26759C13.761 8.70992 13.699 8.21421 13.637 7.87341C13.575 7.53261 13.544 7.31573 13.544 7.31573C13.544 7.31573 13.513 7.34672 13.4201 7.43966C13.3581 7.50163 13.2651 7.62555 13.1411 7.78046C12.8932 8.0593 12.5832 8.46206 12.2733 8.92679C11.9634 9.4225 11.6534 9.94919 11.4055 10.5378C11.1576 11.1265 10.9716 11.7151 10.9406 12.2728C10.9406 12.3967 10.9096 12.5517 10.9096 12.6756C10.9096 12.7995 10.9096 12.9544 10.9406 13.0783C10.9716 13.2642 11.0026 13.5121 11.0646 13.729Z" fill="#5D69BE"/>
<path d="M18.0382 17.1367C18.1622 17.1057 18.2862 17.0438 18.4102 17.0128C18.4721 16.9818 18.5341 16.9508 18.5961 16.9508C18.6581 16.9199 18.7201 16.8889 18.7821 16.8889C19.247 16.703 19.6809 16.4551 20.0528 16.2383C20.4557 16.0214 20.7656 15.8355 20.9826 15.6806C21.1066 15.6186 21.1686 15.5257 21.2305 15.4947C21.2925 15.4637 21.3235 15.4327 21.3235 15.4327C21.3235 15.4327 21.2615 15.4018 21.1995 15.3708C21.1066 15.3398 20.9826 15.2778 20.8276 15.2468C20.5177 15.1539 20.0528 14.999 19.5259 14.8751C19.278 14.8131 18.999 14.7511 18.6891 14.6892C18.5341 14.6582 18.4102 14.6272 18.2552 14.6272C18.1002 14.5962 17.9453 14.5962 17.8213 14.5962C17.2324 14.5343 16.6435 14.5343 16.1167 14.6272C15.5898 14.7202 15.1869 14.906 14.8149 15.0919C14.629 15.1849 14.474 15.3088 14.35 15.4327C14.2261 15.5567 14.1021 15.6806 14.0091 15.8045C13.6062 16.2692 13.4822 16.672 13.4822 16.672C13.4822 16.672 13.9471 16.9199 14.691 17.1367C15.0319 17.2297 15.4658 17.3226 15.9307 17.3536C16.3956 17.3846 16.8605 17.3846 17.3564 17.2916C17.5423 17.2607 17.7903 17.1987 18.0382 17.1367Z" fill="#5D69BE"/>
<path d="M19.4018 8.58602C19.4948 8.77191 19.5568 8.89584 19.5568 8.89584C19.5568 8.89584 19.5878 8.89584 19.6188 8.86485C19.6807 8.83387 19.7427 8.80289 19.8357 8.77191C20.0217 8.67896 20.2386 8.55504 20.5176 8.36915C21.0134 7.96638 21.6333 7.37773 22.0362 6.38631C22.1602 6.04551 22.2842 5.70471 22.4081 5.30195C22.5321 4.80624 22.6561 4.31053 22.7491 3.81483C22.842 3.31912 22.935 2.85439 22.997 2.42065C23.152 1.58414 23.214 0.995483 23.214 0.995483C23.214 0.995483 22.904 1.18137 22.4701 1.49119C22.2532 1.6461 22.0052 1.83199 21.7263 2.04886C21.4473 2.26574 21.1684 2.51359 20.8895 2.79243C20.7035 2.94734 20.5485 3.13323 20.3936 3.31912C20.3626 3.3501 20.3006 3.41206 20.2696 3.44304C20.2386 3.47403 20.2076 3.53599 20.1456 3.59795C20.0836 3.6909 19.9907 3.78384 19.9287 3.87679C19.6497 4.24857 19.4018 4.65133 19.2468 5.0541C19.1229 5.30195 19.0609 5.58079 19.0299 5.82864C18.9989 6.07649 18.9679 6.32435 18.9679 6.54122C18.9679 7.00595 19.0299 7.40871 19.1229 7.78049C19.2158 8.12129 19.3088 8.40013 19.4018 8.58602Z" fill="#5D69BE"/>
<path d="M26.1273 11.467C26.4372 11.405 26.7162 11.343 26.9641 11.2811C27.2121 11.2191 27.46 11.1571 27.677 11.0952C28.0799 10.9712 28.3278 10.8783 28.3278 10.8783C28.3278 10.8783 27.8629 10.5375 27.1811 10.1038C26.8402 9.88689 26.4372 9.67002 25.9723 9.45314C25.5384 9.23627 25.0735 9.05038 24.6086 8.92645C24.2367 8.83351 23.8958 8.74056 23.5549 8.70958C22.5321 8.61663 21.6953 8.92645 21.1994 9.26725C20.9514 9.45314 20.7655 9.60805 20.6105 9.76296C20.5485 9.82492 20.4865 9.88689 20.4556 9.91787C20.4246 9.94885 20.4246 9.97983 20.4246 9.97983C20.4246 9.97983 20.5175 10.0728 20.7035 10.1967C20.8895 10.3206 21.1374 10.5375 21.4473 10.7234C21.7573 10.9093 22.1292 11.1262 22.5631 11.2811C22.78 11.374 22.997 11.436 23.2139 11.4979C23.4309 11.5599 23.6788 11.5909 23.9268 11.6219C24.6396 11.7148 25.4145 11.5909 26.1273 11.467Z" fill="#5D69BE"/>
<path d="M36.9437 70.5187C36.7577 70.4877 36.5098 70.4567 36.2308 70.4257C36.1069 70.3947 35.9519 70.3947 35.7969 70.3637C35.642 70.3328 35.487 70.3018 35.301 70.2708C34.9601 70.2088 34.5882 70.1469 34.1853 70.0849C33.7824 69.992 33.3795 69.899 32.9766 69.8061C32.7596 69.7441 32.5427 69.7131 32.3257 69.6512C32.1087 69.5892 31.8918 69.5272 31.6748 69.4653C31.2409 69.3413 30.776 69.2484 30.3421 69.0935C28.5755 68.5668 26.8709 67.8232 25.6312 67.2346C25.3212 67.0797 25.0423 66.9557 24.7944 66.8318C24.6704 66.7699 24.5464 66.7079 24.4534 66.6459C24.3604 66.584 24.2365 66.522 24.1745 66.491C23.8336 66.3051 23.6166 66.1812 23.6166 66.1812C23.6166 66.1812 23.4307 66.0573 23.0587 65.8714C22.7178 65.6855 22.2219 65.3447 21.633 65.0039C20.4863 64.2603 18.9986 63.207 17.6039 61.9987C16.2402 60.7904 14.9695 59.4891 14.0707 58.4667C13.9467 58.3428 13.8538 58.2189 13.7608 58.095C13.6678 57.971 13.5748 57.8781 13.4818 57.7542C13.2959 57.5373 13.1409 57.3514 13.0169 57.1965C12.893 57.0416 12.8 56.9177 12.738 56.8247C12.676 56.7318 12.645 56.7008 12.645 56.7008C12.645 56.7008 12.521 56.5149 12.2731 56.2051C12.1491 56.0502 12.0252 55.8643 11.8702 55.6164C11.7152 55.3995 11.5603 55.1207 11.3433 54.8419C11.2503 54.7179 11.1573 54.563 11.0644 54.4081C10.9714 54.2532 10.8784 54.0983 10.7854 53.9124C10.5995 53.5716 10.3825 53.2308 10.1656 52.859C9.97961 52.4873 9.76266 52.1155 9.5457 51.7127C9.48372 51.6198 9.45272 51.5268 9.39074 51.4029C9.35974 51.31 9.29776 51.186 9.23577 51.0931C9.14279 50.8762 9.04981 50.6903 8.95683 50.4734C8.213 48.8314 7.59313 47.1584 7.22121 45.8572C7.19022 45.7023 7.12823 45.5473 7.09724 45.3924C7.06625 45.2375 7.00426 45.1136 6.97327 44.9897C6.91128 44.7108 6.8493 44.494 6.8183 44.3081C6.72532 43.9363 6.66334 43.7194 6.66334 43.7194C6.66334 43.7194 6.66334 43.6575 6.63234 43.5645C6.60135 43.4716 6.57036 43.3167 6.53936 43.1308C6.50837 42.9449 6.47738 42.697 6.41539 42.4492C6.3844 42.1703 6.29142 41.8915 6.26043 41.5507C6.22943 41.2099 6.16745 40.8691 6.10546 40.4973C6.10546 40.4044 6.07447 40.3114 6.07447 40.2185C6.07447 40.1255 6.04347 40.0326 6.04347 39.9087C6.04347 39.7228 6.01248 39.5059 5.98149 39.289C5.88851 38.4525 5.88851 37.554 5.85751 36.6866C5.88851 35.7881 5.88851 34.8896 5.98149 34.0841C6.01248 33.8672 6.01248 33.6813 6.04347 33.4645C6.04347 33.3715 6.04347 33.2786 6.07447 33.1546C6.07447 33.0617 6.10546 32.9687 6.10546 32.8758C6.16745 32.504 6.19844 32.1322 6.26043 31.8224C6.29142 31.4816 6.3534 31.2028 6.41539 30.9239C6.47738 30.6451 6.50837 30.4282 6.53936 30.2423C6.57036 30.0565 6.60135 29.9015 6.63234 29.8086C6.66334 29.7157 6.66334 29.6537 6.66334 29.6537C6.66334 29.6537 6.72532 29.4368 6.8183 29.065C6.8493 28.8791 6.91128 28.6313 6.97327 28.3834C7.00426 28.2595 7.03526 28.1046 7.09724 27.9497C7.15923 27.7948 7.19022 27.6399 7.22121 27.485C7.56214 26.1837 8.213 24.5107 8.95683 22.8687C9.04981 22.6828 9.14279 22.4659 9.23577 22.249C9.29776 22.1561 9.32875 22.0632 9.39074 21.9392C9.45272 21.8463 9.48372 21.7533 9.5457 21.6294C9.76266 21.2267 9.94862 20.8549 10.1656 20.4831C10.3825 20.1113 10.5995 19.7705 10.7854 19.4297C10.8784 19.2748 10.9714 19.0889 11.0644 18.934C11.1573 18.7791 11.2503 18.6242 11.3433 18.5003C11.5293 18.2214 11.7152 17.9736 11.8702 17.7257C12.0252 17.5088 12.1801 17.3229 12.2731 17.1371C12.521 16.8272 12.645 16.6413 12.645 16.6413C12.645 16.6413 12.676 16.6104 12.738 16.5174C12.8 16.4245 12.893 16.3005 13.0169 16.1456C13.1409 15.9907 13.2959 15.8048 13.4818 15.588C13.5748 15.495 13.6678 15.3711 13.7608 15.2472C13.8538 15.1232 13.9467 14.9993 14.0707 14.8754C14.9695 13.853 16.2402 12.5518 17.6039 11.3435C18.9676 10.1352 20.4863 9.08179 21.633 8.33823C22.2219 7.96645 22.6868 7.65663 23.0587 7.47074C23.3997 7.28485 23.6166 7.16092 23.6166 7.16092C23.6166 7.16092 23.8026 7.037 24.1745 6.85111C24.2675 6.78914 24.3604 6.75816 24.4534 6.6962C24.5464 6.63423 24.6704 6.57227 24.7944 6.51031C24.8873 6.47932 24.9803 6.41736 25.0423 6.38638C25.0423 6.38638 25.0423 6.38638 25.0733 6.38638C25.2902 6.41736 25.6002 6.41736 25.9721 6.38638C26.7159 6.3554 27.6767 6.20049 28.5445 5.73576C28.9784 5.51889 29.4123 5.20907 29.7533 4.86827C29.9392 4.71336 30.1252 4.52747 30.2801 4.37256C30.4351 4.21765 30.5901 4.03176 30.745 3.87686C31.024 3.53606 31.2719 3.25722 31.4269 3.07133C31.5819 2.85446 31.6748 2.73053 31.6748 2.73053C31.6748 2.73053 31.4579 2.73053 31.117 2.73053C30.776 2.73053 30.3111 2.73053 29.7533 2.79249C29.6293 2.79249 29.4743 2.82348 29.3503 2.82348C29.2264 2.85446 29.0714 2.85446 28.9164 2.88544C28.6375 2.91642 28.3276 2.97838 28.0486 3.04035C27.4908 3.16427 26.9019 3.35017 26.437 3.59802C25.9721 3.84587 25.6312 4.15569 25.3522 4.46551C25.1043 4.77533 24.9493 5.08514 24.8253 5.39496C24.7324 5.6738 24.6704 5.92165 24.6394 6.10754C24.6394 6.13853 24.6394 6.16951 24.6394 6.20049C24.6084 6.23147 24.5774 6.23147 24.5464 6.26245C24.4224 6.32442 24.2985 6.38638 24.2055 6.44834C24.1125 6.51031 23.9885 6.57227 23.8955 6.60325C23.5546 6.78914 23.3377 6.91307 23.3377 6.91307C23.3377 6.91307 23.1207 7.037 22.7798 7.22289C22.4389 7.40878 21.943 7.74958 21.3541 8.09038C20.2074 8.86492 18.6887 9.9183 17.294 11.1266C15.8993 12.3349 14.6286 13.6671 13.7298 14.6895C13.6058 14.8134 13.5128 14.9374 13.4199 15.0613C13.3269 15.1852 13.2339 15.3091 13.1409 15.4021C12.955 15.6189 12.8 15.8048 12.676 15.9597C12.552 16.1147 12.4591 16.2386 12.3971 16.3315C12.3971 16.4864 12.3661 16.5174 12.3661 16.5174C12.3661 16.5174 12.2421 16.7033 11.9942 17.0131C11.8702 17.168 11.7152 17.3539 11.5603 17.6018C11.4053 17.8187 11.2193 18.0975 11.0334 18.3763C10.9404 18.5312 10.8474 18.6552 10.7234 18.8101C10.6305 18.965 10.5375 19.1199 10.4135 19.3058C10.2276 19.6466 10.0106 19.9874 9.79365 20.3592C9.60769 20.7309 9.39074 21.1337 9.17379 21.5055C9.1118 21.5984 9.08081 21.6914 9.01882 21.8153C8.98783 21.9082 8.92584 22.0322 8.86385 22.1251C8.77087 22.342 8.67789 22.5279 8.58491 22.7448C7.81008 24.3868 7.19022 26.0908 6.8493 27.392C6.78731 27.5469 6.75632 27.7018 6.72532 27.8568C6.66334 28.0117 6.63234 28.1356 6.60135 28.2905C6.53936 28.5693 6.47738 28.7862 6.44638 28.9721C6.35341 29.3439 6.29142 29.5607 6.29142 29.5607C6.29142 29.5607 6.29142 29.6227 6.26043 29.7157C6.22943 29.8086 6.19844 29.9635 6.16745 30.1804C6.13645 30.3663 6.07447 30.6141 6.04347 30.893C6.01248 31.1718 5.9195 31.4816 5.88851 31.7914C5.85751 32.1322 5.79553 32.504 5.73354 32.8758C5.73354 32.9687 5.70255 33.0617 5.70255 33.1546C5.70255 33.2476 5.67155 33.3405 5.67155 33.4645C5.64056 33.6503 5.64056 33.8672 5.60957 34.0841C5.51659 34.9206 5.51659 35.8191 5.4856 36.7175C5.51659 37.616 5.51659 38.5145 5.60957 39.351C5.64056 39.5679 5.64056 39.7538 5.67155 39.9706C5.67155 40.0636 5.70255 40.1875 5.70255 40.2804C5.70255 40.3734 5.73354 40.4663 5.73354 40.5593C5.79553 40.9311 5.82652 41.3028 5.88851 41.6436C5.9195 41.9844 5.98149 42.2943 6.04347 42.5421C6.10546 42.8209 6.13645 43.0378 6.16745 43.2547C6.19844 43.4406 6.22943 43.5955 6.26043 43.7194C6.29142 43.8124 6.29142 43.8743 6.29142 43.8743C6.29142 43.8743 6.35341 44.0912 6.44638 44.463C6.50837 44.6489 6.53936 44.8967 6.60135 45.1446C6.63234 45.2685 6.66334 45.4234 6.72532 45.5783C6.75632 45.7332 6.8183 45.8881 6.8493 46.043C7.19022 47.3443 7.84108 49.0483 8.58491 50.6903C8.67789 50.9072 8.77087 51.0931 8.86385 51.31C8.92584 51.4029 8.95683 51.5268 9.01882 51.6198C9.08081 51.7127 9.1118 51.8057 9.17379 51.9296C9.39074 52.3323 9.5767 52.7041 9.79365 53.0759C10.0106 53.4477 10.2276 53.7885 10.4135 54.1293C10.5065 54.2842 10.5995 54.4701 10.7234 54.625C10.8164 54.7799 10.9094 54.9348 11.0334 55.0587C11.2193 55.3376 11.4053 55.6164 11.5603 55.8333C11.7152 56.0502 11.8702 56.267 11.9942 56.4219C12.2421 56.7318 12.3661 56.9177 12.3661 56.9177C12.3661 56.9177 12.3971 56.9796 12.4591 57.0416C12.521 57.1345 12.614 57.2585 12.738 57.4134C12.862 57.5683 13.0169 57.7542 13.2029 57.971C13.2959 58.064 13.3889 58.1879 13.4818 58.3118C13.5748 58.4358 13.6678 58.5597 13.7918 58.6836C14.6906 59.706 15.9613 61.0382 17.356 62.2465C18.7507 63.4548 20.2693 64.5392 21.4161 65.2827C22.005 65.6545 22.5009 65.9643 22.8418 66.1502C23.1827 66.3361 23.3997 66.46 23.3997 66.46C23.3997 66.46 23.6166 66.584 23.9575 66.7699C24.0505 66.8318 24.1435 66.8628 24.2675 66.9248C24.3914 66.9867 24.4844 67.0487 24.6084 67.1107C24.8563 67.2346 25.1353 67.3895 25.4762 67.5444C26.7469 68.1331 28.4515 68.8766 30.2492 69.4033C30.6831 69.5582 31.148 69.6512 31.5819 69.7751C31.7988 69.8371 32.0158 69.899 32.2327 69.961C32.4497 70.0229 32.6666 70.0539 32.8836 70.1159C33.3175 70.2088 33.7204 70.3018 34.1233 70.3947C34.5262 70.4567 34.8981 70.5187 35.2391 70.5806C35.425 70.6116 35.58 70.6426 35.7349 70.6736C35.8899 70.7045 36.0449 70.7045 36.1998 70.7355C36.4788 70.7665 36.7267 70.7975 36.9437 70.8285C37.3466 70.8904 37.5945 70.9214 37.5945 70.9214L37.6255 70.5806C37.5635 70.6116 37.3466 70.5806 36.9437 70.5187Z" fill="#5D69BE"/>
<path d="M54.5177 69.7439C54.7346 69.7439 54.9516 69.7439 55.1995 69.7749C55.2615 69.7749 55.3235 69.8059 55.3855 69.8059C55.4475 69.8059 55.5095 69.8368 55.5715 69.8368C55.6954 69.8678 55.8194 69.8988 55.9434 69.9298C56.4703 70.0847 57.0591 70.3016 57.648 70.5804C58.2059 70.8283 58.7948 71.1071 59.3216 71.3859C59.8485 71.6648 60.2824 71.9126 60.6234 72.0675C60.9333 72.2224 61.1502 72.3464 61.1502 72.3464C61.1502 72.3464 61.0882 72.3773 60.9953 72.4083C60.9023 72.4393 60.7473 72.5013 60.5924 72.5323C60.2204 72.6252 59.7245 72.7801 59.1357 72.8731C58.9807 72.904 58.8567 72.935 58.7018 72.966C58.5468 72.997 58.3918 72.997 58.2369 73.028C57.9269 73.0589 57.586 73.0899 57.2761 73.0899C56.6252 73.1209 55.9744 73.028 55.4165 72.8731C54.3007 72.5632 53.5569 71.8816 53.092 71.324C52.6271 70.7663 52.4102 70.2706 52.4102 70.2706C52.4102 70.2706 52.7821 70.0227 53.4329 69.8678C53.7119 69.8368 54.1148 69.7439 54.5177 69.7439Z" fill="#5D69BE"/>
<path d="M52.8132 65.3445C53.0612 64.9417 53.4331 64.5699 53.774 64.2291C53.96 64.0432 54.1459 63.8883 54.3319 63.7334C54.4249 63.6405 54.5179 63.5785 54.6108 63.5166C54.7038 63.4546 54.7968 63.3616 54.8588 63.2997C55.1997 63.0208 55.5097 62.835 55.7576 62.68C55.9745 62.5251 56.1295 62.4322 56.1295 62.4322C56.1295 62.4322 56.1295 62.6181 56.1295 62.9589C56.1295 63.2997 56.0985 63.7334 56.0055 64.2601C55.9436 64.7868 55.8196 65.3445 55.6646 65.9021C55.5096 66.4288 55.2617 66.9555 55.0138 67.3893C54.9518 67.5132 54.8898 67.6061 54.7968 67.6991C54.7658 67.7611 54.7348 67.792 54.6728 67.823C54.6418 67.854 54.6109 67.916 54.5489 67.9469C54.3939 68.1019 54.2389 68.2568 54.053 68.3497C53.898 68.4736 53.712 68.5666 53.5571 68.6285C53.4021 68.7215 53.2471 68.7835 53.0922 68.8144C52.4723 69.0003 52.0384 68.9693 52.0384 68.9693C52.0384 68.9693 51.9764 68.4427 52.0384 67.7301C52.0694 67.3583 52.1314 66.9555 52.2864 66.5528C52.3174 66.4598 52.3483 66.3359 52.3793 66.2429C52.4103 66.15 52.4723 66.0261 52.5033 65.9331C52.5963 65.7472 52.6893 65.5304 52.8132 65.3445Z" fill="#5D69BE"/>
<path d="M61.4292 66.5528C61.4602 66.5218 61.5222 66.4599 61.6152 66.3979C61.7702 66.274 61.9561 66.119 62.2661 65.9641C62.39 65.8712 62.576 65.8092 62.731 65.7473C62.8859 65.6853 63.1029 65.6233 63.2888 65.5614C63.6917 65.4374 64.1876 65.3755 64.7455 65.3755C65.0244 65.3755 65.3034 65.4065 65.6133 65.4375C65.9233 65.4684 66.2332 65.4994 66.5431 65.5614C66.853 65.6233 67.163 65.6853 67.4729 65.7163C67.7828 65.7782 68.0618 65.8402 68.3717 65.9022C68.9296 66.0261 69.4255 66.15 69.7974 66.212C70.1693 66.3049 70.3863 66.3669 70.3863 66.3669C70.3863 66.3669 70.2003 66.4908 69.8904 66.7077C69.7354 66.8007 69.5495 66.9246 69.3325 67.0485C69.2085 67.1105 69.1156 67.1724 68.9916 67.2344C68.8676 67.2964 68.7436 67.3583 68.6197 67.4203C68.3407 67.5442 68.0618 67.6681 67.7828 67.7921C67.6279 67.854 67.4729 67.916 67.3489 67.947C67.287 67.978 67.194 68.0089 67.132 68.0399C67.07 68.0709 66.977 68.0709 66.884 68.1019C66.2642 68.2878 65.6133 68.3807 65.0554 68.3807C63.8777 68.3497 62.9789 67.916 62.359 67.4822C62.0491 67.2654 61.8322 67.0485 61.6772 66.8936C61.5222 66.7387 61.4292 66.6457 61.4292 66.6457C61.4292 66.6457 61.3982 66.5838 61.4292 66.5528Z" fill="#5D69BE"/>
<path d="M63.0409 63.1448C62.8859 63.6095 62.669 64.0123 62.421 64.3221C62.2971 64.477 62.1731 64.6319 62.0181 64.7249C61.8941 64.8488 61.7392 64.9417 61.6152 65.0347C61.3673 65.1896 61.1193 65.3135 60.9334 65.3755C60.8404 65.4065 60.7784 65.4374 60.7164 65.4374C60.6544 65.4374 60.6234 65.4684 60.6234 65.4684C60.6234 65.4684 60.5614 65.3445 60.4995 65.1276C60.4375 64.9108 60.3445 64.6319 60.2825 64.2601C60.1585 63.5476 60.0965 62.6181 60.3755 61.6886C60.4995 61.2239 60.7164 60.7592 60.9953 60.3564C61.2433 59.9227 61.5222 59.5199 61.8012 59.2101C61.9251 59.0552 62.0491 58.8693 62.1731 58.7454C62.2971 58.5905 62.39 58.4975 62.483 58.3736C62.669 58.1877 62.762 58.0638 62.762 58.0638C62.762 58.0638 62.8239 58.2497 62.8859 58.5595C62.9479 58.8693 63.0409 59.334 63.1339 59.8297C63.1649 60.0776 63.1959 60.3564 63.2269 60.6353C63.2578 60.9141 63.2578 61.1929 63.2578 61.4718C63.2578 61.7506 63.2269 62.0294 63.1959 62.3083C63.1649 62.6491 63.1339 62.8969 63.0409 63.1448Z" fill="#5D69BE"/>
<path d="M69.4872 60.1702C69.5801 60.0153 69.7351 59.7984 69.983 59.5816C70.2 59.3647 70.5099 59.1168 70.8509 58.8999C71.1918 58.6831 71.6567 58.4662 72.1836 58.3423C72.3695 58.2803 72.5555 58.2493 72.7414 58.2183C72.9274 58.1874 73.1443 58.1564 73.3303 58.1254C74.3531 57.9705 75.4998 57.9085 76.3676 57.8466C77.2355 57.7846 77.8863 57.7846 77.8863 57.7846C77.8863 57.7846 77.6694 58.0634 77.2974 58.4662C76.9565 58.869 76.3986 59.3647 75.7788 59.8294C75.6858 59.8914 75.5928 59.9843 75.4998 60.0463C75.4378 60.0773 75.4069 60.1082 75.3449 60.1392C75.2829 60.1702 75.2519 60.2012 75.1899 60.2322C74.9729 60.3561 74.787 60.48 74.57 60.6039C74.3531 60.7279 74.1361 60.8208 73.9192 60.9138C73.7022 61.0067 73.4853 61.0997 73.2683 61.1306C72.1216 61.4095 71.1298 61.2236 70.4169 61.0067C69.7041 60.7589 69.2702 60.449 69.2702 60.449C69.2702 60.449 69.3632 60.3251 69.4872 60.1702Z" fill="#5D69BE"/>
<path d="M69.0845 58.8385C68.8676 59.0553 68.6816 59.2412 68.5267 59.3342C68.3717 59.4271 68.2787 59.4891 68.2787 59.4891C68.2787 59.4891 67.9378 59.0863 67.6279 58.4667C67.2869 57.8161 66.946 56.9486 66.977 55.9881C66.977 55.6473 67.008 55.2756 67.07 54.9348C67.101 54.7489 67.163 54.5939 67.194 54.4081C67.2559 54.2531 67.2869 54.0673 67.3489 53.9124C67.4419 53.6335 67.5349 53.3547 67.6279 53.1068C67.6589 53.0449 67.6898 52.9829 67.6898 52.9209C67.7208 52.859 67.7208 52.797 67.7518 52.766C67.7828 52.6421 67.8448 52.5492 67.8758 52.4562C68.0308 52.0844 68.1547 51.8676 68.1547 51.8676C68.1547 51.8676 68.4647 52.3323 68.8366 53.0449C68.9296 53.2308 69.0226 53.4166 69.1155 53.6335C69.1465 53.7265 69.2085 53.8504 69.2395 53.9433C69.2705 54.0363 69.3325 54.1602 69.3635 54.2531C69.5184 54.6869 69.6734 55.1516 69.7664 55.6164C69.7974 55.8022 69.8284 55.9881 69.8594 56.143C69.8904 56.3289 69.8904 56.4838 69.8904 56.6388C69.8904 57.1345 69.7974 57.5682 69.6424 57.94C69.5184 58.3118 69.3015 58.6216 69.0845 58.8385Z" fill="#5D69BE"/>
<path d="M77.0188 52.5798C76.8018 52.5798 76.5849 52.5798 76.3989 52.5798C75.6241 52.5178 75.1282 52.3629 75.1282 52.3629C75.1282 52.3629 75.1282 52.239 75.1902 52.0841C75.2212 51.9911 75.2521 51.8982 75.3141 51.7743C75.3761 51.6503 75.4071 51.5264 75.5001 51.3715C75.6551 51.0927 75.841 50.7828 76.151 50.473C76.2129 50.4111 76.3059 50.3181 76.3679 50.2252C76.4609 50.1322 76.5229 50.0703 76.6158 50.0083C76.8018 49.8534 77.0188 49.6985 77.2357 49.5746C77.4837 49.4196 77.7316 49.2957 78.0105 49.1718C78.2895 49.0479 78.5684 48.9239 78.8474 48.8C79.4362 48.5522 80.0251 48.3353 80.583 48.1494C81.1409 47.9635 81.6058 47.8086 81.9777 47.6847C82.3186 47.5607 82.5355 47.4988 82.5355 47.4988C82.5355 47.4988 82.4426 47.7157 82.2876 48.0255C82.2256 48.1804 82.1326 48.3972 82.0087 48.6141C81.8847 48.831 81.7607 49.0479 81.6057 49.2957C81.4508 49.5436 81.2958 49.7914 81.1099 50.0393C81.0789 50.1012 81.0169 50.1632 80.9859 50.2252C80.9549 50.2871 80.8929 50.3491 80.8309 50.4111C80.7379 50.535 80.614 50.6589 80.521 50.7828C80.304 51.0307 80.0871 51.2476 79.8391 51.4335C79.7152 51.5264 79.6222 51.6194 79.4982 51.7123C79.3742 51.8052 79.2503 51.8672 79.1263 51.9602C78.6304 52.239 78.1345 52.4249 77.6696 52.5178C77.4527 52.5488 77.2357 52.5798 77.0188 52.5798Z" fill="#5D69BE"/>
<path d="M74.7559 49.8842C74.6939 50.287 74.6009 50.6278 74.477 50.9066C74.415 51.0305 74.353 51.1545 74.291 51.2784C74.229 51.3713 74.167 51.4643 74.105 51.5262C73.9811 51.6811 73.9191 51.7431 73.9191 51.7431C73.9191 51.7431 73.4852 51.4643 72.9893 50.9066C72.8653 50.7827 72.7413 50.6278 72.6174 50.4729C72.4934 50.3179 72.3694 50.1321 72.2455 49.9462C71.9975 49.5744 71.7806 49.1716 71.6566 48.7069C71.6256 48.583 71.5946 48.49 71.5636 48.3661C71.5326 48.2422 71.5016 48.1182 71.5016 47.9943C71.4706 47.7465 71.4396 47.4986 71.4396 47.2508C71.4396 46.755 71.4396 46.2903 71.4706 45.8566C71.5016 45.6397 71.5016 45.4538 71.5326 45.2679C71.5326 45.082 71.5636 44.9271 71.5946 44.8032C71.6256 44.5244 71.6566 44.3694 71.6566 44.3694C71.6566 44.3694 71.8116 44.4934 72.0595 44.7412C72.3074 44.9581 72.6484 45.2989 72.9893 45.7017C73.3302 46.1044 73.7021 46.5382 74.0121 47.0339C74.167 47.2817 74.322 47.5296 74.446 47.7774C74.5699 48.0253 74.6629 48.2731 74.7249 48.521C74.7869 48.7689 74.8489 48.9857 74.8799 49.2026C74.8799 49.3265 74.9109 49.4195 74.9109 49.5434C74.9109 49.6054 74.9109 49.6363 74.9109 49.6983C74.7869 49.7913 74.7869 49.8222 74.7559 49.8842Z" fill="#5D69BE"/>
<path d="M81.451 42.573C81.234 42.7279 81.0171 42.8518 80.8001 42.9448C80.3662 43.1617 79.9323 43.2856 79.5604 43.3475C78.8165 43.5025 78.2897 43.4405 78.2897 43.4405C78.2897 43.4405 78.2277 43.0067 78.3517 42.3871C78.3826 42.2322 78.4446 42.0773 78.4756 41.8914C78.5376 41.7055 78.5996 41.5506 78.6926 41.3337C78.7856 41.1478 78.9095 40.9619 79.0335 40.7761C79.0955 40.6831 79.1885 40.5902 79.2505 40.4972C79.2815 40.4353 79.3434 40.4043 79.3744 40.3423C79.4054 40.2803 79.4674 40.2494 79.4984 40.1874C80.2112 39.4129 81.389 38.6073 82.3188 37.9567C82.7837 37.6469 83.2176 37.3681 83.5275 37.1512C83.8375 36.9653 84.0234 36.8414 84.0234 36.8414C84.0234 36.8414 83.9924 37.0582 83.9304 37.43C83.8684 37.8018 83.7755 38.2665 83.6205 38.8242C83.4655 39.3819 83.2486 39.9705 82.9696 40.5282C82.9076 40.6831 82.8457 40.807 82.7527 40.931C82.6597 41.0549 82.5977 41.2098 82.5047 41.3337C82.3188 41.5816 82.1638 41.8294 81.9469 42.0153C81.8849 42.2322 81.6679 42.4181 81.451 42.573Z" fill="#5D69BE"/>
<path d="M76.9252 43.1926C76.9252 43.1926 76.3983 43.0377 75.7785 42.6349C75.4685 42.449 75.1276 42.2012 74.7867 41.9223C74.6317 41.7674 74.4457 41.6125 74.3218 41.4266C74.1668 41.2407 74.0118 41.0549 73.8879 40.869C73.7639 40.6521 73.6399 40.4352 73.5469 40.2183C73.454 40.0015 73.361 39.7536 73.268 39.5367C73.113 39.072 72.9891 38.6073 72.8961 38.2045C72.8031 37.8018 72.7411 37.43 72.7101 37.1512C72.6791 36.9033 72.6791 36.7174 72.6791 36.7174C72.6791 36.7174 72.8651 36.8104 73.144 36.9653C73.454 37.1202 73.8569 37.368 74.2908 37.6469C74.7247 37.9257 75.2206 38.2975 75.6545 38.6693C76.0884 39.041 76.4913 39.4748 76.7702 39.9085C76.9252 40.1254 77.0182 40.3423 77.1112 40.5282C77.2041 40.745 77.2351 40.9309 77.2661 41.1478C77.2971 41.3337 77.3281 41.5196 77.3281 41.7055C77.3281 41.8914 77.2971 42.0463 77.2971 42.2012C77.1422 42.8208 76.9252 43.1926 76.9252 43.1926Z" fill="#5D69BE"/>
<path d="M82.6288 29.3127C82.5978 29.5606 82.5668 29.7774 82.5049 29.9943C82.4119 30.459 82.2569 30.8928 82.0709 31.2645C81.792 31.7603 81.4511 32.163 81.1102 32.4728C80.7692 32.7827 80.3973 33.0305 80.0564 33.1854C79.3745 33.5262 78.8477 33.6192 78.8477 33.6192C78.8477 33.6192 78.8167 33.5262 78.7547 33.3403C78.7237 33.1544 78.6307 32.9066 78.5997 32.5968C78.5687 32.2869 78.5687 31.9152 78.6617 31.5124C78.7237 31.1096 78.8477 30.6449 79.1266 30.1802C79.2196 30.0253 79.3126 29.8704 79.4055 29.6845C79.4675 29.5915 79.4985 29.5296 79.5605 29.4366C79.6225 29.3437 79.6845 29.2817 79.7155 29.1888C79.9944 28.786 80.3043 28.3523 80.6453 27.9495C80.9552 27.5467 81.2961 27.175 81.5441 26.8342C82.1019 26.1835 82.5049 25.7188 82.5049 25.7188C82.5049 25.7188 82.5668 26.0596 82.6288 26.5863C82.6598 26.8342 82.6908 27.175 82.6908 27.5158C82.6908 27.8566 82.6908 28.2283 82.6908 28.6001C82.6908 28.817 82.6598 29.0648 82.6288 29.3127Z" fill="#5D69BE"/>
<path d="M73.8263 32.3493C73.7643 32.2873 73.7023 32.2253 73.6403 32.1634C73.5784 32.1014 73.5164 32.0394 73.4544 31.9775C73.3304 31.8535 73.2064 31.6986 73.0825 31.5747C72.9585 31.4198 72.8655 31.2959 72.7725 31.141C72.6796 30.9861 72.5866 30.8312 72.4936 30.7072C72.3386 30.4594 72.1837 30.2115 72.0597 29.9637C71.9977 29.8397 71.9357 29.7468 71.9047 29.6229C71.8427 29.5299 71.8118 29.406 71.7498 29.344C71.5638 28.9722 71.4708 28.7554 71.4708 28.7554C71.4708 28.7554 72.0287 28.8483 72.8345 29.0652C73.0205 29.1272 73.2374 29.1891 73.4544 29.2511C73.6713 29.313 73.8883 29.406 74.1052 29.4989C74.5701 29.6848 75.004 29.8707 75.438 30.1186C75.7789 30.3045 76.0578 30.5213 76.3058 30.7382C76.6777 31.079 76.9876 31.4508 77.1426 31.7916C77.2975 32.1634 77.3905 32.5042 77.4525 32.783C77.4835 33.0928 77.4835 33.3407 77.4525 33.5266C77.4215 33.7125 77.3905 33.8054 77.3905 33.8054C77.3905 33.8054 76.8636 33.7744 76.1508 33.5885C75.4689 33.3407 74.5701 32.9689 73.8263 32.3493Z" fill="#5D69BE"/>
<path d="M78.3204 22.3415C78.0724 22.7443 77.7935 23.0541 77.5146 23.333C76.9567 23.8287 76.4918 24.0765 76.4918 24.0765C76.4918 24.0765 76.4298 23.9836 76.3058 23.8287C76.2128 23.6738 76.0889 23.4259 75.9649 23.1471C75.8409 22.8682 75.7479 22.4964 75.686 22.0937C75.655 21.8768 75.655 21.6599 75.655 21.4431C75.655 21.2262 75.686 20.9783 75.717 20.6995C75.7479 20.4517 75.8409 20.1728 75.9339 19.863C75.9649 19.7081 76.0269 19.5842 76.0579 19.4293C76.1199 19.2743 76.1509 19.1504 76.2128 18.9955C76.3988 18.4069 76.6468 17.8492 76.8637 17.3225C76.9877 17.0746 77.0807 16.8268 77.1736 16.6099C77.2666 16.393 77.3596 16.2071 77.4216 16.0213C77.5765 15.6805 77.6695 15.4946 77.6695 15.4946C77.6695 15.4946 77.7625 15.6805 77.9175 16.0213C78.0105 16.1762 78.0724 16.393 78.1654 16.6099C78.2584 16.8268 78.3514 17.1056 78.4444 17.3535C78.4753 17.4774 78.5373 17.6323 78.5683 17.7562C78.5993 17.9111 78.6613 18.0351 78.6923 18.19C78.7543 18.4998 78.8163 18.8096 78.8473 19.1194C78.8783 19.4293 78.9093 19.7391 78.9093 20.0489C78.9093 20.3587 78.8783 20.6375 78.8163 20.9164C78.7853 21.4741 78.5683 21.9388 78.3204 22.3415Z" fill="#5D69BE"/>
<path d="M70.6653 23.829C70.4483 23.705 70.2314 23.5501 70.0454 23.3952C69.8595 23.2403 69.6735 23.0854 69.4876 22.9305C69.3016 22.7756 69.1466 22.6207 68.9917 22.4658C68.8367 22.3109 68.7127 22.1559 68.5887 22.032C68.5268 21.9701 68.4648 21.9081 68.4338 21.8461C68.3718 21.7842 68.3408 21.7222 68.2788 21.6912C68.0929 21.5053 67.9999 21.3814 67.9999 21.3814C67.9999 21.3814 68.2168 21.3504 68.5578 21.3194C68.8987 21.2885 69.3946 21.2885 69.9215 21.2885C70.4483 21.3194 71.0372 21.3504 71.6571 21.4434C71.812 21.4743 71.967 21.5053 72.091 21.5363C72.215 21.5673 72.3699 21.5983 72.4939 21.6602C72.7728 21.7532 73.0208 21.8461 73.2687 21.9391C73.5167 22.032 73.7026 22.1559 73.9196 22.3109C74.1055 22.4348 74.2605 22.5897 74.3845 22.7446C74.6634 23.0544 74.8494 23.3332 74.9733 23.6121C75.0973 23.8909 75.1593 24.1388 75.1903 24.3247C75.2213 24.5106 75.2213 24.6035 75.2213 24.6035C75.2213 24.6035 74.6944 24.7274 73.9506 24.7274C73.5787 24.7274 73.1447 24.6964 72.7108 24.6345C72.2459 24.5725 71.781 24.4486 71.3471 24.2317C71.0992 24.0768 70.8822 23.9529 70.6653 23.829Z" fill="#5D69BE"/>
<path d="M73.0204 13.729C72.8964 14.1628 72.7104 14.5655 72.5245 14.8753C72.1526 15.495 71.7496 15.8668 71.7496 15.8668C71.7496 15.8668 71.3777 15.6189 70.9748 15.1232C70.8818 14.9993 70.7889 14.8444 70.6959 14.6895C70.6029 14.5346 70.5099 14.3487 70.4169 14.1628C70.262 13.791 70.138 13.3263 70.076 12.7996C70.014 12.2729 70.045 11.6842 70.076 11.0646C70.107 10.445 70.169 9.82532 70.231 9.26765C70.293 8.70998 70.355 8.21427 70.4169 7.87347C70.4789 7.53267 70.5099 7.3158 70.5099 7.3158C70.5099 7.3158 70.5409 7.34678 70.6339 7.43972C70.6959 7.50169 70.7889 7.62561 70.9128 7.78052C71.1608 8.05936 71.4707 8.46212 71.7806 8.92685C72.0906 9.42256 72.4005 9.94925 72.6794 10.5379C72.9274 11.1266 73.0824 11.7152 73.1443 12.2729C73.1753 12.3968 73.1753 12.5517 73.1753 12.6756C73.1753 12.7996 73.1753 12.9545 73.1443 13.0784C73.1133 13.2643 73.0823 13.5122 73.0204 13.729Z" fill="#5D69BE"/>
<path d="M66.0469 17.1368C65.923 17.1058 65.799 17.0438 65.706 17.0129C65.644 16.9819 65.5821 16.9509 65.5201 16.9509C65.4581 16.9199 65.3961 16.8889 65.3341 16.8889C64.8692 16.703 64.4353 16.4552 64.0634 16.2383C63.6605 16.0214 63.3505 15.8356 63.1336 15.6806C63.0096 15.6187 62.9476 15.5257 62.8856 15.4948C62.8237 15.4638 62.7927 15.4328 62.7927 15.4328C62.7927 15.4328 62.8547 15.4018 62.9166 15.3708C63.0096 15.3398 63.1336 15.2779 63.2886 15.2469C63.5985 15.154 64.0634 14.999 64.5903 14.8751C64.8382 14.8132 65.1172 14.7512 65.4271 14.6892C65.5821 14.6582 65.706 14.6273 65.861 14.6273C66.016 14.5963 66.1399 14.5963 66.2949 14.5963C66.8838 14.5343 67.4726 14.5343 67.9995 14.6273C68.5264 14.7202 68.9293 14.9061 69.3012 15.092C69.4872 15.1849 69.6422 15.3089 69.7661 15.4328C69.8901 15.5567 70.0141 15.6806 70.1071 15.8046C70.51 16.2693 70.6339 16.6721 70.6339 16.6721C70.6339 16.6721 70.169 16.9199 69.4562 17.1368C69.0843 17.2297 68.6814 17.3227 68.2165 17.3537C67.7516 17.3846 67.2867 17.3846 66.7908 17.2917C66.5428 17.2607 66.2949 17.1988 66.0469 17.1368Z" fill="#5D69BE"/>
<path d="M64.6833 8.58587C64.5903 8.77176 64.5284 8.89569 64.5284 8.89569C64.5284 8.89569 64.4974 8.89569 64.4664 8.86471C64.4044 8.83373 64.3424 8.80274 64.2494 8.77176C64.0635 8.67882 63.8465 8.55489 63.5676 8.369C63.0717 7.96624 62.4208 7.37758 62.0489 6.38617C61.9249 6.04537 61.801 5.70457 61.677 5.3018C61.553 4.8061 61.429 4.31039 61.3361 3.81468C61.2431 3.31897 61.1501 2.85424 61.0881 2.4205C60.9641 1.58399 60.8712 0.995337 60.8712 0.964355C60.8712 0.964355 61.1811 1.15025 61.615 1.46006C61.8319 1.61497 62.0799 1.80086 62.3588 2.01774C62.6378 2.23461 62.9167 2.48246 63.1956 2.7613C63.3506 2.91621 63.5366 3.1021 63.6915 3.28799C63.7225 3.31897 63.7845 3.38093 63.8155 3.41192C63.8465 3.4429 63.8775 3.50486 63.9395 3.56682C64.0015 3.65977 64.0944 3.75272 64.1564 3.84566C64.4354 4.21744 64.6833 4.62021 64.8383 5.02297C64.9623 5.27082 65.0242 5.54966 65.0552 5.79751C65.1172 6.04537 65.1172 6.29322 65.1172 6.51009C65.1172 6.97482 65.0552 7.37758 64.9623 7.74936C64.8693 8.12115 64.7763 8.39998 64.6833 8.58587Z" fill="#5D69BE"/>
<path d="M57.9572 11.467C57.6473 11.4051 57.3684 11.3431 57.1204 11.2811C56.8415 11.2192 56.6245 11.1572 56.4076 11.0952C56.0047 10.9713 55.7567 10.8784 55.7567 10.8784C55.7567 10.8784 56.2216 10.5376 56.9035 10.1038C57.2444 9.88695 57.6473 9.67008 58.1122 9.4532C58.5461 9.23633 59.011 9.05044 59.4759 8.92651C59.8478 8.83357 60.1887 8.74062 60.5297 8.70964C61.5524 8.6167 62.3893 8.92651 62.8851 9.26731C63.1331 9.4532 63.319 9.60811 63.474 9.76302C63.536 9.82498 63.598 9.88695 63.629 9.91793C63.66 9.94891 63.66 9.97989 63.66 9.97989C63.66 9.97989 63.567 10.0728 63.381 10.1968C63.1951 10.3207 62.9471 10.5376 62.6372 10.7235C62.3273 10.9093 61.9244 11.1262 61.5214 11.2811C61.3045 11.3741 61.0875 11.436 60.8706 11.498C60.6536 11.56 60.4057 11.5909 60.1577 11.6219C59.4449 11.7149 58.6701 11.5909 57.9572 11.467Z" fill="#5D69BE"/>
<path d="M47.1408 70.5187C47.3268 70.4877 47.5747 70.4568 47.8537 70.4258C47.9777 70.3948 48.1326 70.3948 48.2876 70.3638C48.4425 70.3328 48.5975 70.3018 48.7835 70.2709C49.1244 70.2089 49.4963 70.1469 49.8992 70.085C50.2711 69.992 50.7051 69.8991 51.108 69.8061C51.3249 69.7442 51.5419 69.7132 51.7588 69.6512C51.9758 69.5893 52.1927 69.5273 52.4097 69.4653C52.8436 69.3414 53.3085 69.2485 53.7424 69.0936C55.509 68.5669 57.2136 67.8233 58.4533 67.2346C58.7633 67.0797 59.0422 66.9558 59.2902 66.8319C59.4141 66.7699 59.5381 66.708 59.6311 66.646C59.7241 66.584 59.848 66.5221 59.91 66.4911C60.251 66.3052 60.4679 66.1813 60.4679 66.1813C60.4679 66.1813 60.6849 66.0573 61.0258 65.8714C61.3667 65.6856 61.8626 65.3448 62.4515 65.004C63.5982 64.2604 65.0859 63.207 66.4806 61.9987C67.8443 60.7904 69.115 59.4892 70.0138 58.4668C70.1378 58.3429 70.2308 58.219 70.3237 58.095C70.4167 57.9711 70.5097 57.8782 70.6027 57.7542C70.7886 57.5373 70.9436 57.3515 71.0676 57.1965C71.1915 57.0416 71.2845 56.9177 71.3465 56.8248C71.4085 56.7318 71.4395 56.7008 71.4395 56.7008C71.4395 56.7008 71.5635 56.5149 71.8114 56.2051C71.9354 56.0502 72.0903 55.8643 72.2453 55.6165C72.4003 55.3996 72.5862 55.1208 72.7412 54.8419C72.8342 54.718 72.9272 54.5631 73.0511 54.4082C73.1441 54.2533 73.2371 54.0984 73.3301 53.9125C73.516 53.5717 73.733 53.2309 73.9499 52.8591C74.1359 52.4873 74.3529 52.1155 74.5698 51.7128C74.6318 51.6198 74.6628 51.5269 74.7248 51.403C74.7558 51.31 74.8177 51.1861 74.8797 51.0931C74.9727 50.8763 75.0657 50.6904 75.1587 50.4735C75.9025 48.8315 76.5224 47.1585 76.8943 45.8572C76.9563 45.7023 76.9873 45.5474 77.0183 45.3925C77.0493 45.2376 77.1112 45.1137 77.1422 44.9897C77.2042 44.7109 77.2662 44.494 77.2972 44.3081C77.3902 43.9364 77.4522 43.7195 77.4522 43.7195C77.4522 43.7195 77.4522 43.6575 77.4832 43.5646C77.5142 43.4716 77.5451 43.3167 77.5761 43.1308C77.6071 42.9449 77.6691 42.6971 77.7001 42.4492C77.7621 42.1704 77.8241 41.8916 77.8551 41.5508C77.8861 41.21 77.9481 40.8692 78.01 40.4974C78.01 40.4044 78.041 40.3115 78.041 40.2185C78.041 40.1256 78.072 40.0326 78.072 39.9087C78.072 39.7228 78.103 39.506 78.103 39.2891C78.196 38.4526 78.196 37.5541 78.227 36.6866C78.196 35.7881 78.196 34.8897 78.103 34.0842C78.072 33.8673 78.072 33.6814 78.072 33.4645C78.072 33.3716 78.041 33.2786 78.041 33.1547C78.041 33.0618 78.01 32.9688 78.01 32.8759C77.9481 32.5041 77.9171 32.1323 77.8551 31.8225C77.8241 31.4817 77.7621 31.2028 77.7001 30.924C77.6381 30.6452 77.6071 30.4283 77.5761 30.2424C77.5451 30.0565 77.5142 29.9016 77.4832 29.8087C77.4522 29.7157 77.4522 29.6538 77.4522 29.6538C77.4522 29.6538 77.3902 29.4369 77.2972 29.0651C77.2662 28.8792 77.2042 28.6314 77.1422 28.3835C77.1112 28.2596 77.0803 28.1047 77.0183 27.9498C76.9873 27.7948 76.9253 27.6399 76.8943 27.485C76.5534 26.1838 75.9025 24.5108 75.1587 22.8687C75.0657 22.6829 74.9727 22.466 74.8797 22.2491C74.8177 22.1562 74.7868 22.0632 74.7248 21.9393C74.6628 21.8463 74.6318 21.7534 74.5698 21.6295C74.3529 21.2267 74.1669 20.8549 73.9499 20.4831C73.733 20.1114 73.516 19.7706 73.3301 19.4298C73.2371 19.2749 73.1441 19.089 73.0511 18.9341C72.9582 18.7792 72.8652 18.6242 72.7412 18.5003C72.5552 18.2215 72.3693 17.9736 72.2453 17.7258C72.0903 17.5089 71.9354 17.323 71.8114 17.1371C71.5635 16.8273 71.4395 16.6414 71.4395 16.6414C71.4395 16.6414 71.4085 16.6104 71.3465 16.5175C71.2845 16.4245 71.1915 16.3006 71.0676 16.1457C70.9436 15.9908 70.7886 15.8049 70.6027 15.588C70.5097 15.4951 70.4167 15.3712 70.3237 15.2472C70.2308 15.1233 70.1378 14.9994 70.0138 14.8754C69.115 13.853 67.8443 12.5518 66.4806 11.3435C65.1169 10.1352 63.5982 9.08186 62.4515 8.33829C61.8626 7.96651 61.3977 7.65669 61.0258 7.4708C60.6849 7.28491 60.4679 7.16098 60.4679 7.16098C60.4679 7.16098 60.251 7.03706 59.91 6.85117C59.817 6.7892 59.7241 6.75822 59.6311 6.69626C59.5071 6.63429 59.4141 6.57233 59.2902 6.51037C59.1972 6.47939 59.1042 6.41742 59.0112 6.38644C59.0112 6.38644 59.0112 6.38644 58.9802 6.38644C58.7633 6.41742 58.4533 6.41742 58.0814 6.38644C57.3376 6.35546 56.3768 6.20055 55.509 5.73582C55.0751 5.51895 54.6412 5.20913 54.3003 4.86833C54.1143 4.71342 53.9283 4.52753 53.7734 4.37262C53.6184 4.21772 53.4325 4.03183 53.3085 3.87692C53.0295 3.53612 52.7816 3.25728 52.6266 3.07139C52.4717 2.85452 52.3787 2.73059 52.3787 2.73059C52.3787 2.73059 52.5956 2.73059 52.9366 2.73059C53.2775 2.73059 53.7424 2.73059 54.3003 2.79255C54.4242 2.79255 54.5792 2.82354 54.7032 2.82354C54.8271 2.85452 54.9821 2.85452 55.1371 2.8855C55.416 2.91648 55.7259 2.97845 56.0049 3.04041C56.5938 3.16434 57.1516 3.35023 57.6165 3.59808C58.0814 3.84593 58.4224 4.15575 58.6703 4.46557C58.9182 4.77539 59.0732 5.08521 59.1972 5.39502C59.3212 5.67386 59.3521 5.92171 59.3831 6.1076C59.3831 6.13859 59.3831 6.16957 59.3831 6.20055C59.4141 6.23153 59.4451 6.23153 59.4761 6.26251C59.6001 6.32448 59.7241 6.38644 59.817 6.4484C59.941 6.51037 60.034 6.57233 60.127 6.60331C60.4679 6.7892 60.6849 6.91313 60.6849 6.91313C60.6849 6.91313 60.9018 7.03706 61.2427 7.22295C61.5837 7.40884 62.0796 7.74964 62.6684 8.09044C63.8152 8.86498 65.3338 9.91836 66.7285 11.1267C68.1232 12.3349 69.3939 13.6672 70.2927 14.6896C70.4167 14.8135 70.5097 14.9374 70.6027 15.0613C70.6957 15.1853 70.7886 15.3092 70.8816 15.4021C71.0676 15.619 71.2225 15.8049 71.3465 15.9598C71.4705 16.1147 71.5635 16.2386 71.6255 16.3316C71.6874 16.4245 71.7184 16.4555 71.7184 16.4555C71.7184 16.4555 71.8424 16.6414 72.0903 16.9512C72.2143 17.1061 72.3693 17.292 72.5243 17.5399C72.6792 17.7568 72.8342 18.0356 73.0511 18.3144C73.1441 18.4693 73.2371 18.5933 73.3611 18.7482C73.4541 18.9031 73.547 19.058 73.671 19.2439C73.888 19.5847 74.0739 19.9255 74.2909 20.2973C74.5078 20.669 74.6938 21.0718 74.9107 21.4436C74.9727 21.5365 75.0037 21.6295 75.0657 21.7534C75.0967 21.8463 75.1587 21.9703 75.2207 22.0632C75.3136 22.2801 75.4066 22.466 75.4996 22.6829C76.2744 24.3249 76.8943 26.0289 77.2352 27.3301C77.2662 27.485 77.3282 27.6399 77.3592 27.7948C77.3902 27.9498 77.4522 28.0737 77.4832 28.2286C77.5452 28.5074 77.6071 28.7243 77.6381 28.9102C77.7311 29.282 77.7931 29.4988 77.7931 29.4988C77.7931 29.4988 77.8241 29.5608 77.8241 29.6538C77.8551 29.7467 77.8861 29.9016 77.9171 30.1185C77.9481 30.3044 78.01 30.5522 78.041 30.8311C78.072 31.1099 78.165 31.4197 78.196 31.7295C78.227 32.0703 78.289 32.4421 78.351 32.8139C78.351 32.9068 78.382 32.9998 78.382 33.0927C78.382 33.1857 78.413 33.2786 78.413 33.4025C78.444 33.5884 78.444 33.8053 78.4749 34.0222C78.5679 34.8587 78.5679 35.7572 78.5989 36.6556C78.5679 37.5541 78.5679 38.4526 78.4749 39.2891C78.444 39.506 78.444 39.6918 78.413 39.9087C78.413 40.0017 78.413 40.1256 78.382 40.2185C78.382 40.3115 78.351 40.4044 78.351 40.4974C78.289 40.8692 78.258 41.2409 78.196 41.5817C78.165 41.9225 78.072 42.2324 78.041 42.4802C77.9791 42.759 77.9481 42.9759 77.9171 43.1928C77.8861 43.3787 77.8551 43.5336 77.8241 43.6575C77.7931 43.7505 77.7931 43.8124 77.7931 43.8124C77.7931 43.8124 77.7311 44.0293 77.6381 44.4011C77.6071 44.587 77.5452 44.8348 77.4832 45.0827C77.4522 45.2066 77.4212 45.3615 77.3592 45.5164C77.3282 45.6713 77.2662 45.8262 77.2352 45.9811C76.8633 47.2824 76.2434 48.9864 75.4996 50.6284C75.4066 50.8453 75.3136 51.0312 75.2207 51.2481C75.1897 51.341 75.1277 51.4649 75.0657 51.5579C75.0037 51.6508 74.9727 51.7438 74.9107 51.8677C74.6938 52.2704 74.5078 52.6422 74.2909 53.014C74.0739 53.3858 73.857 53.7266 73.671 54.0674C73.578 54.2223 73.485 54.4082 73.3611 54.5631C73.2681 54.718 73.1751 54.8729 73.0511 54.9968C72.8652 55.2757 72.6792 55.5545 72.5243 55.7714C72.3693 55.9883 72.2143 56.2051 72.0903 56.36C71.8424 56.6699 71.7184 56.8558 71.7184 56.8558C71.7184 56.8558 71.6874 56.9177 71.6255 56.9797C71.5635 57.0726 71.4705 57.1965 71.3465 57.3515C71.2225 57.5064 71.0676 57.6923 70.8816 57.9091C70.7886 58.0021 70.6957 58.126 70.6027 58.2499C70.5097 58.3739 70.4167 58.4978 70.2927 58.6217C69.3939 59.6441 68.1232 60.9763 66.7285 62.1846C65.3338 63.3929 63.8152 64.4773 62.6684 65.2208C62.0796 65.5926 61.5837 65.9024 61.2427 66.0883C60.9018 66.2742 60.6849 66.3981 60.6849 66.3981C60.6849 66.3981 60.4679 66.5221 60.127 66.708C60.034 66.7699 59.941 66.8009 59.817 66.8629C59.7241 66.9248 59.6001 66.9868 59.4761 67.0488C59.2282 67.1727 58.9492 67.3276 58.6083 67.4825C57.3376 68.0712 55.633 68.8147 53.8354 69.3414C53.4015 69.4963 52.9366 69.5893 52.5027 69.7132C52.2857 69.7752 52.0687 69.8371 51.8518 69.8991C51.6348 69.961 51.4179 69.992 51.2009 70.054C50.767 70.1469 50.3641 70.2399 49.9612 70.3328C49.5583 70.3948 49.1864 70.4567 48.8455 70.5187C48.6595 70.5497 48.5045 70.5807 48.3496 70.6117C48.1946 70.6426 48.0396 70.6426 47.8847 70.6736C47.6057 70.7046 47.3578 70.7356 47.1408 70.7666C46.7379 70.8285 46.49 70.8595 46.49 70.8595L46.459 70.5187C46.521 70.6117 46.7379 70.5807 47.1408 70.5187Z" fill="#5D69BE"/>
<path d="M24.2566 39.0898C24.8938 39.0703 25.531 39.0573 26.1748 39.0444C26.5064 39.0379 26.877 39.1417 27.2802 39.3754C27.2285 39.0722 27.1752 38.7674 27.1218 38.4626C27.0679 38.154 27.0139 37.8454 26.9616 37.5384C26.5389 37.6618 26.1098 37.7526 25.7066 37.7851C25.583 37.7981 25.466 37.8046 25.362 37.8046C24.6272 37.811 24.0744 37.6293 23.6713 37.2982C22.2638 37.2982 20.8499 37.3047 19.4359 37.3112L19.4252 37.3112C19.3017 38.0772 19.1781 38.8496 19.0611 39.6221C19.4773 39.3494 19.8479 39.2131 20.1795 39.2001C20.8168 39.1807 21.454 39.1612 22.0977 39.1417V45.7822C22.0977 46.1652 21.9807 46.5092 21.7466 46.8207C22.6764 46.7104 23.6128 46.6001 24.5492 46.4897C24.3541 46.0872 24.2566 45.7757 24.2566 45.542V39.0898Z" fill="white"/>
<path fill-rule="evenodd" clip-rule="evenodd" d="M57.1165 27.8099C57.2453 27.9369 57.3831 28.0726 57.5555 28.1717C58.4269 28.1782 58.9925 28.8208 58.96 29.3206C58.9535 29.4245 58.8495 29.6387 58.7065 29.9113C58.96 29.9697 59.2592 30.0217 59.5323 30.0671C59.2201 30.8266 58.6479 31.0992 58.0822 31.0927H57.9457C56.7297 32.8194 54.7075 35.1302 53.5435 35.1237C52.4446 35.1172 52.0674 34.4876 52.139 33.5788C52.3146 31.3329 55.2146 27.4447 56.5151 27.4512C56.7524 27.4512 56.9246 27.6208 57.1165 27.8099ZM53.2964 34.0916C53.2834 34.2279 53.3484 34.2928 53.4525 34.2928C54.1353 34.2928 56.3981 31.5081 56.4761 30.489C56.4956 30.2618 56.4046 30.1255 56.164 30.1255C55.4292 30.1255 53.4329 32.3455 53.2964 34.0916Z" fill="white"/>
<path d="M32.4757 29.0718C31.8179 29.8333 31.0939 30.6714 30.7005 31.5666C30.629 31.7353 30.5249 31.8067 30.4143 31.8197C29.9527 31.8587 29.2699 30.7487 29.2699 30.2164C29.3682 29.5623 30.1571 28.6257 30.5988 28.1013C30.7707 27.8972 30.8901 27.7555 30.8955 27.7173C30.8955 27.6719 30.876 27.6394 30.824 27.6459C30.0112 27.7108 27.1827 31.2874 26.1943 33.7086C25.8041 34.6628 25.414 35.617 26.877 35.5067C27.6638 35.4483 28.4311 35.3184 29.0813 35.0588C29.1854 35.0069 29.3219 34.9614 29.439 34.9549C29.6731 34.9355 29.9657 35.1107 29.9657 35.3249C29.9657 35.4158 29.8941 35.5132 29.7576 35.5976C28.8342 36.1169 27.3452 36.8958 25.9276 36.9996C24.4061 37.1165 23.8274 36.409 23.8274 35.299C23.8274 31.7353 29.0228 24.5107 31.4547 24.3354C32.3391 24.2705 32.7487 24.8093 33.1258 25.6012C33.2093 25.743 33.3256 25.8637 33.4419 25.9845C33.661 26.212 33.8802 26.4396 33.8802 26.8085C33.8802 27.4461 33.2203 28.2099 32.4757 29.0718Z" fill="white"/>
<path d="M51.9309 35.5586C51.9309 35.5132 51.8919 35.4548 51.8269 35.3963C51.3132 34.9614 51.0921 34.4162 51.0921 33.7995C51.0921 32.326 52.2885 30.4825 53.4004 29.1519C53.576 28.9571 53.641 28.7689 53.641 28.6326C53.641 28.2041 52.9973 28.0224 52.3796 28.0224C50.6784 28.6729 48.5509 31.6976 47.4761 33.2257C47.146 33.6952 46.9151 34.0234 46.8265 34.0981C46.8265 33.2867 48.2635 30.9564 49.9867 29.3076C50.2403 29.1194 50.3443 28.9312 50.3443 28.7624C50.3443 28.2691 49.577 27.8861 49.1479 27.9185C47.8149 28.0159 45.4415 32.2157 45.4415 34.3188C45.4415 35.0004 46.4494 35.5262 46.8395 35.4937C47.028 35.4742 47.1646 35.3769 47.2491 35.1562C47.8083 33.5918 49.9151 30.7422 51.7228 29.8594C50.5654 31.1966 49.0438 33.105 49.0438 34.6888C49.0438 35.9221 49.9346 36.2662 50.7344 36.2077C51.3652 36.1623 51.9309 35.8637 51.9309 35.5586Z" fill="white"/>
<path d="M43.9329 35.9026C43.2827 35.9546 42.4829 35.4807 42.4829 33.7411C42.4829 32.9565 43.2302 31.4515 43.8291 30.2453C44.2311 29.4357 44.5663 28.7607 44.5637 28.5287C44.5637 28.4559 44.5303 28.3887 44.4992 28.326C44.472 28.2713 44.4466 28.2201 44.4466 28.1717C44.4466 27.8342 45.7926 27.568 46.0852 27.5485C46.5794 27.5096 46.9891 27.6329 46.9891 28.0743C46.9891 28.3901 46.4725 29.2424 45.8763 30.226C45.0632 31.5677 44.1019 33.1538 44.1019 33.9553C44.1019 34.4292 44.271 34.8251 44.6807 35.1302C44.7522 35.1886 44.7847 35.247 44.7847 35.2925C44.7847 35.5781 44.3946 35.8702 43.9329 35.9026Z" fill="white"/>
<path d="M47.3467 27.0942C46.7679 27.1331 45.7081 26.7112 45.7081 26.2373C45.7081 25.7051 46.4103 24.7703 47.0671 24.7249C47.8408 24.6665 48.4196 25.3091 48.4196 25.7051C48.4196 26.101 47.8083 27.0617 47.3467 27.0942Z" fill="white"/>
<path fill-rule="evenodd" clip-rule="evenodd" d="M39.0236 31.5211C38.8155 31.7613 38.6074 32.0015 38.4189 32.2222C38.3733 32.0988 38.3473 32.0209 38.3538 32.0274C37.8401 32.0794 37.6191 32.4494 37.6191 32.9492C37.6191 33.0011 37.6191 33.0595 37.6255 33.118C37.4239 33.3407 37.2299 33.5578 37.0551 33.7536C36.6999 34.1513 36.4231 34.4612 36.3186 34.5525C36.1105 34.7472 35.9739 34.8381 35.8569 34.8446C35.7203 34.8576 35.6358 34.7277 35.6358 34.5135C35.6358 33.9228 36.182 32.5857 37.3069 31.268C37.3915 31.1576 37.4435 31.0602 37.4435 31.0018C37.4435 30.6838 36.8258 30.4111 36.091 30.4631C35.9024 30.476 35.7138 30.5085 35.5253 30.5669C35.2196 32.008 33.3925 35.1432 32.3651 35.2211C32.248 35.2341 32.196 35.1172 32.196 34.916C32.196 33.8514 33.7176 30.3982 36.208 30.2164C36.4616 30.1969 36.7347 30.2229 37.0273 30.2748C37.0989 30.2878 37.1639 30.3008 37.2159 30.2943C37.5085 30.2683 37.7816 29.775 37.7816 29.2752C37.7816 28.7234 37.4565 28.1717 36.4681 28.2431C33.4835 28.4638 30.9541 32.9492 30.9541 35.2341C30.9541 35.9481 31.6498 36.3246 32.4041 36.2662C32.8852 36.2337 33.7566 35.63 34.5239 34.7537C34.5564 35.8183 35.0701 36.1623 35.5968 36.1233C36.143 36.0779 36.9883 35.0653 37.8401 33.9748C38.2368 34.929 39.0951 35.8767 40.0184 35.8053C41.7286 35.6755 42.0862 33.4555 42.0862 32.2222C42.0862 31.8595 42.0427 31.4534 42.0048 31.0996C41.9756 30.8265 41.9497 30.5845 41.9497 30.4176C41.9497 30.3809 41.9497 30.3459 41.9523 30.3143C41.9548 30.2846 41.9597 30.2579 41.9692 30.2359C42.0287 30.0484 42.2753 29.7805 42.5 29.5364C42.5944 29.4339 42.6849 29.3356 42.756 29.2492C42.808 29.1843 42.8275 29.1194 42.8275 29.074C42.8275 28.8922 42.5739 28.7624 42.3658 28.6845C42.294 28.6606 42.1891 28.6202 42.0653 28.5725C41.685 28.4261 41.1257 28.2108 40.7922 28.1912C40.4866 28.2106 40.298 28.6066 40.2785 29.035C40.246 29.5738 39.6803 30.6903 39.0236 31.5211ZM40.0184 31.2095C39.9794 31.216 39.9144 31.255 39.8494 31.3329C39.4982 31.8132 39.0951 32.352 38.6724 32.8843C38.9065 33.436 39.2186 34.0397 39.4723 34.0202C40.0054 33.9813 40.1745 32.8713 40.1745 32.0664C40.1745 31.5795 40.1225 31.2031 40.0184 31.2095Z" fill="white"/>
<path d="M28.0605 46.1457C29.9397 45.9964 31.8189 45.8795 33.7046 45.7757C33.7338 45.609 33.7626 45.4422 33.7913 45.2755C33.8779 44.7736 33.9646 44.2718 34.0622 43.7699C33.6396 44.0101 33.2754 44.1334 32.9568 44.1464C32.144 44.1854 31.3377 44.2243 30.5314 44.2632V41.9784C31.0451 41.9589 31.5653 41.9394 32.079 41.9264C32.3066 41.9135 32.5667 41.9784 32.8658 42.1212V39.9921C32.5992 40.1543 32.3456 40.2387 32.0985 40.2452C31.5718 40.2517 31.0516 40.2647 30.5314 40.2777V38.9535C30.8765 38.9503 31.2199 38.9454 31.5641 38.9406C31.914 38.9357 32.2647 38.9308 32.6187 38.9275C32.9503 38.9275 33.2754 39.0249 33.581 39.2261V37.2593C32.6577 37.2625 31.736 37.2642 30.8142 37.2658C29.8925 37.2674 28.9708 37.269 28.0475 37.2723C28.2685 37.5384 28.3856 37.8435 28.3856 38.2005V45.1915C28.3856 45.529 28.2815 45.8471 28.0605 46.1457Z" fill="white"/>
<path d="M34.7255 45.2174C36.3771 45.899 38.6009 46.243 40.0184 44.9513C40.6557 44.3801 40.9743 43.692 40.9743 42.9001C40.9743 42.3224 40.7727 41.8161 40.3761 41.3747C39.9794 40.9268 39.3812 40.5503 38.5879 40.2387C38.4334 40.1816 38.2896 40.1281 38.156 40.0784C37.7894 39.942 37.5002 39.8345 37.2809 39.7584C37.0468 39.661 36.9298 39.5117 36.9298 39.3105C36.9298 39.0184 37.1443 38.8691 37.5866 38.8691C38.4253 38.8691 39.2317 39.278 40.012 40.1089V37.0191C39.7388 37.2917 39.5177 37.4281 39.3682 37.4281C39.2251 37.4151 38.9846 37.3696 38.6464 37.2853C38.3148 37.2009 38.0157 37.1554 37.7621 37.1554C36.8973 37.1554 36.195 37.3372 35.6618 37.7072C35.0831 38.1096 34.7905 38.7068 34.7905 39.4793C34.7905 40.2063 35.0831 40.784 35.6618 41.2059C35.9674 41.4201 36.6112 41.7187 37.593 42.1017C38.4189 42.4197 38.835 42.7703 38.835 43.1662C38.835 43.718 38.4058 43.9971 37.5475 44.0101C36.5071 44.0296 35.5643 43.6076 34.7255 42.7378V45.2174Z" fill="white"/>
<path d="M49.0178 39.2651C48.5952 39.0379 48.2245 38.9275 47.8929 38.921C47.2491 38.9145 46.6119 38.908 45.9877 38.908V44.789C45.9877 44.9967 46.0852 45.3018 46.2803 45.6913C45.3439 45.6588 44.4076 45.6329 43.4713 45.6199C43.7053 45.3797 43.8224 45.0876 43.8224 44.7501V38.8886C43.4997 38.8886 43.1787 38.8869 42.8584 38.8853C42.5398 38.8837 42.222 38.8821 41.9041 38.8821C41.5725 38.8821 41.2019 38.9924 40.7857 39.2131C40.9028 38.564 41.0263 37.9084 41.1499 37.2593C42.3983 37.2593 43.6484 37.2609 44.8984 37.2625C46.1486 37.2642 47.3987 37.2658 48.6472 37.2658C48.6992 37.5474 48.7512 37.8279 48.8033 38.1083C48.8748 38.4934 48.9463 38.8781 49.0178 39.2651Z" fill="white"/>
<path d="M49.7851 45.8471C51.6643 45.9639 53.5435 46.1067 55.4227 46.256C55.5333 45.568 55.6503 44.8734 55.7673 44.1789C55.3447 44.3866 54.9806 44.4775 54.6619 44.458C53.8556 44.3995 53.0493 44.3476 52.243 44.3022V42.0043L52.2973 42.0064C52.7933 42.0252 53.295 42.0442 53.7906 42.0692C54.0182 42.0757 54.2783 42.1666 54.5774 42.3354V40.1154C54.3108 40.2777 54.0572 40.3491 53.8101 40.3426C53.2899 40.3231 52.7697 40.3101 52.2495 40.2971V38.9665L54.3368 39.0054C54.6684 39.0119 54.9935 39.1223 55.2991 39.343V37.2723C54.3758 37.269 53.4541 37.2674 52.5324 37.2658C51.6107 37.2642 50.689 37.2625 49.7656 37.2593C49.9932 37.5125 50.1037 37.8175 50.1037 38.1616V44.9643C50.1037 45.2953 49.9997 45.5874 49.7851 45.8471Z" fill="white"/>
<path fill-rule="evenodd" clip-rule="evenodd" d="M60.4036 45.6459C60.7807 46.6585 61.3139 47.1907 61.9967 47.2427C62.3348 47.2686 62.7054 47.1713 63.1151 46.9571C63.2776 46.8597 63.4467 46.7429 63.6092 46.6001C63.2516 46.4443 62.9655 46.2106 62.751 45.886C62.6274 45.6783 62.4713 45.2953 62.2633 44.7306C62.0877 44.2373 61.8211 43.7504 61.4765 43.2701C61.9641 43.0364 62.3348 42.7054 62.5819 42.2769C62.829 41.8485 62.9525 41.3098 62.9525 40.6801C62.9395 39.5572 62.6599 38.7003 62.1267 38.1356C61.5935 37.5774 60.7872 37.2982 59.7273 37.2917L59.6811 37.2915C58.5654 37.2851 57.4621 37.2788 56.3526 37.2788C56.5737 37.5449 56.6907 37.863 56.6907 38.233V45.4252C56.6907 45.7822 56.5801 46.0937 56.3656 46.3469C57.3084 46.4378 58.2447 46.5351 59.1876 46.639C58.9665 46.3274 58.856 45.9899 58.856 45.6264V43.4908C59.0381 43.5103 59.2201 43.5232 59.4087 43.5362C59.6233 43.8413 59.7728 44.0815 59.8509 44.2503C59.9549 44.4645 60.1435 44.9253 60.4036 45.6459ZM59.0641 39.1807C59.1357 39.1823 59.2072 39.1839 59.2787 39.1872C59.8314 39.2066 60.215 39.2586 60.4231 39.3624C60.7677 39.5247 60.9432 39.8557 60.9432 40.3426C60.9466 40.3491 60.9498 40.3572 60.953 40.3653C60.9563 40.3734 60.9595 40.3815 60.9628 40.388C60.9628 40.9138 60.8132 41.2838 60.5206 41.485C60.267 41.6473 59.8703 41.7187 59.3242 41.6863C59.2639 41.6839 59.2045 41.6806 59.1457 41.677C59.0459 41.671 58.9477 41.6644 58.8495 41.6603V39.1742C58.921 39.1774 58.9926 39.1791 59.0641 39.1807Z" fill="white"/>
<path d="M42.0927 53.4287C41.0198 53.3833 40.0379 53.0912 39.2837 52.6303L40.2525 51.9682C40.7597 52.2603 41.397 52.455 42.0927 52.494V53.4287Z" fill="white"/>
<path d="M38.8935 52.3707C38.2237 51.8514 37.7946 51.1828 37.7296 50.4428H39.0951C39.1536 50.9231 39.4332 51.358 39.8559 51.7086L38.8935 52.3707Z" fill="white"/>
<path d="M37.7296 50.0663C37.7946 49.3263 38.2237 48.6577 38.8935 48.1384L39.8623 48.8005C39.4332 49.1446 39.1601 49.586 39.1015 50.0663H37.7296Z" fill="white"/>
<path d="M39.2837 47.8788C40.0379 47.4179 41.0133 47.1258 42.0927 47.0804V48.0151C41.3904 48.0541 40.7597 48.2423 40.2525 48.5409L39.2837 47.8788Z" fill="white"/>
<path d="M42.6389 48.0151V47.0807C43.7093 47.127 44.6887 47.4189 45.4414 47.8788L44.4791 48.5409C43.9719 48.2488 43.3347 48.0541 42.6389 48.0151Z" fill="white"/>
<path d="M45.8316 48.1384C46.5014 48.6577 46.9305 49.3263 46.9955 50.0663H45.63C45.5715 49.586 45.2919 49.1511 44.8692 48.8005L45.8316 48.1384Z" fill="white"/>
<path d="M46.9955 50.4428C46.9305 51.1828 46.5014 51.8514 45.8316 52.3707L44.8627 51.7086C45.2919 51.3645 45.565 50.9231 45.6235 50.4428H46.9955Z" fill="white"/>
<path d="M45.4414 52.6303C44.6872 53.0912 43.7118 53.3833 42.6324 53.4287V52.494C43.3347 52.455 43.9654 52.2668 44.4726 51.9682L45.4414 52.6303Z" fill="white"/>
<path d="M42.3658 52.124C40.8572 52.124 39.6348 51.2866 39.6348 50.2546C39.6348 49.2225 40.8572 48.3851 42.3658 48.3851C43.8744 48.3851 45.0968 49.2225 45.0968 50.2546C45.0968 51.2866 43.8679 52.124 42.3658 52.124Z" fill="white"/>
<path d="M38.1486 52.3317C37.9151 52.0563 37.8271 51.6931 37.8271 51.3321C39.3103 54.6141 45.9877 54.4339 47.0931 51.0724V51.2217C47.0931 51.5953 47.0445 51.978 46.8372 52.2888C45.3591 54.5055 40.1524 54.6952 38.1486 52.3317Z" fill="white"/>
<path d="M36.4252 11.0131C35.785 10.693 35.4649 10.1883 35.4649 9.49882C35.4649 9.16642 35.548 8.86171 35.7142 8.58471C35.8804 8.30771 36.1297 8.08918 36.4621 7.92913C36.7945 7.76293 37.2008 7.67983 37.681 7.67983C38.1549 7.67983 38.5581 7.76293 38.8905 7.92913C39.2291 8.08918 39.4815 8.30771 39.6477 8.58471C39.8139 8.86171 39.897 9.16642 39.897 9.49882C39.897 9.84354 39.8077 10.1482 39.6292 10.4129C39.4569 10.6715 39.226 10.8715 38.9367 11.0131C39.2876 11.1424 39.5646 11.3548 39.7677 11.6502C39.9709 11.9395 40.0724 12.2812 40.0724 12.6751C40.0724 13.0753 39.9709 13.4292 39.7677 13.737C39.5646 14.0448 39.2814 14.2818 38.9182 14.448C38.5551 14.6142 38.1426 14.6973 37.681 14.6973C37.2193 14.6973 36.8068 14.6142 36.4437 14.448C36.0866 14.2818 35.8066 14.0448 35.6034 13.737C35.4003 13.4292 35.2987 13.0753 35.2987 12.6751C35.2987 12.275 35.4003 11.9303 35.6034 11.641C35.8066 11.3517 36.0805 11.1424 36.4252 11.0131ZM38.8905 9.62809C38.8905 9.28338 38.7828 9.01868 38.5674 8.83401C38.3519 8.64934 38.0564 8.55701 37.681 8.55701C37.3116 8.55701 37.0192 8.64934 36.8038 8.83401C36.5883 9.01868 36.4806 9.28645 36.4806 9.63733C36.4806 9.94511 36.5914 10.1975 36.813 10.3945C37.0408 10.5853 37.3301 10.6807 37.681 10.6807C38.0318 10.6807 38.3211 10.5822 38.5489 10.3852C38.7767 10.1883 38.8905 9.93587 38.8905 9.62809ZM37.681 11.4748C37.2747 11.4748 36.9423 11.5764 36.6837 11.7795C36.4314 11.9765 36.3052 12.2627 36.3052 12.6382C36.3052 12.9891 36.4283 13.2753 36.6745 13.4969C36.9207 13.7124 37.2562 13.8201 37.681 13.8201C38.0995 13.8201 38.4289 13.7093 38.6689 13.4877C38.9152 13.2661 39.0383 12.9829 39.0383 12.6382C39.0383 12.2689 38.9121 11.9826 38.6597 11.7795C38.4135 11.5764 38.0872 11.4748 37.681 11.4748ZM41.7409 14.5957C41.55 14.5957 41.39 14.5311 41.2607 14.4018C41.1315 14.2725 41.0668 14.1125 41.0668 13.9217C41.0668 13.7308 41.1315 13.5708 41.2607 13.4415C41.39 13.3122 41.55 13.2476 41.7409 13.2476C41.9255 13.2476 42.0825 13.3122 42.2118 13.4415C42.341 13.5708 42.4057 13.7308 42.4057 13.9217C42.4057 14.1125 42.341 14.2725 42.2118 14.4018C42.0825 14.5311 41.9255 14.5957 41.7409 14.5957ZM43.9865 13.0999C44.5775 12.589 45.0422 12.1704 45.3808 11.8441C45.7255 11.5117 46.0118 11.167 46.2395 10.81C46.4673 10.4529 46.5812 10.0959 46.5812 9.73889C46.5812 9.36955 46.4919 9.08024 46.3134 8.87095C46.141 8.66166 45.8671 8.55701 45.4916 8.55701C45.1284 8.55701 44.8453 8.67397 44.6421 8.90788C44.4451 9.13564 44.3405 9.44342 44.3282 9.83123H43.3125C43.331 9.12948 43.5403 8.59394 43.9404 8.2246C44.3467 7.84911 44.8607 7.66136 45.4824 7.66136C46.1533 7.66136 46.6766 7.84603 47.0521 8.21537C47.4337 8.58471 47.6245 9.07716 47.6245 9.69273C47.6245 10.1359 47.5107 10.5638 47.2829 10.9762C47.0613 11.3825 46.7935 11.7487 46.4796 12.075C46.1718 12.3951 45.7778 12.7675 45.2977 13.1922L44.8822 13.5616H47.8092V14.4387H43.3217V13.6724L43.9865 13.0999Z" fill="url(#paint0_linear_1_506)"/>
<path d="M38.0343 58.7167C37.9671 58.5873 37.8738 58.4903 37.7544 58.4256C37.6349 58.3584 37.4968 58.3248 37.34 58.3248C37.1683 58.3248 37.0153 58.3634 36.8809 58.4405C36.7465 58.5176 36.6408 58.6271 36.5636 58.769C36.489 58.9108 36.4516 59.0751 36.4516 59.2617C36.4516 59.4483 36.489 59.6138 36.5636 59.7581C36.6408 59.9 36.7465 60.0095 36.8809 60.0866C37.0153 60.1638 37.1683 60.2023 37.34 60.2023C37.5714 60.2023 37.7593 60.1376 37.9037 60.0082C38.048 59.8788 38.1363 59.7034 38.1687 59.4819H37.1944V59.1422H38.6241V59.4744C38.5967 59.676 38.5245 59.8614 38.4076 60.0306C38.2931 60.1998 38.1425 60.3355 37.9559 60.4375C37.7718 60.537 37.5665 60.5868 37.34 60.5868C37.0962 60.5868 36.8734 60.5308 36.6719 60.4188C36.4703 60.3043 36.3098 60.1463 36.1904 59.9448C36.0734 59.7432 36.0149 59.5155 36.0149 59.2617C36.0149 59.0079 36.0734 58.7802 36.1904 58.5786C36.3098 58.377 36.4703 58.2203 36.6719 58.1083C36.8759 57.9938 37.0986 57.9366 37.34 57.9366C37.6162 57.9366 37.8614 58.005 38.0754 58.1419C38.2919 58.2763 38.4486 58.4679 38.5457 58.7167H38.0343ZM40.227 60.5905C39.9856 60.5905 39.7629 60.5345 39.5589 60.4226C39.3573 60.3081 39.1968 60.1501 39.0774 59.9485C38.9604 59.7444 38.9019 59.5155 38.9019 59.2617C38.9019 59.0079 38.9604 58.7802 39.0774 58.5786C39.1968 58.377 39.3573 58.2203 39.5589 58.1083C39.7629 57.9938 39.9856 57.9366 40.227 57.9366C40.4709 57.9366 40.6936 57.9938 40.8952 58.1083C41.0992 58.2203 41.2597 58.377 41.3767 58.5786C41.4936 58.7802 41.5521 59.0079 41.5521 59.2617C41.5521 59.5155 41.4936 59.7444 41.3767 59.9485C41.2597 60.1501 41.0992 60.3081 40.8952 60.4226C40.6936 60.5345 40.4709 60.5905 40.227 60.5905ZM40.227 60.221C40.3987 60.221 40.5518 60.1824 40.6861 60.1053C40.8205 60.0256 40.925 59.9137 40.9997 59.7693C41.0768 59.6225 41.1154 59.4533 41.1154 59.2617C41.1154 59.0701 41.0768 58.9021 40.9997 58.7578C40.925 58.6134 40.8205 58.5027 40.6861 58.4256C40.5518 58.3484 40.3987 58.3099 40.227 58.3099C40.0553 58.3099 39.9023 58.3484 39.7679 58.4256C39.6335 58.5027 39.5278 58.6134 39.4506 58.7578C39.376 58.9021 39.3386 59.0701 39.3386 59.2617C39.3386 59.4533 39.376 59.6225 39.4506 59.7693C39.5278 59.9137 39.6335 60.0256 39.7679 60.1053C39.9023 60.1824 40.0553 60.221 40.227 60.221ZM43.1541 60.5905C42.9127 60.5905 42.69 60.5345 42.486 60.4226C42.2844 60.3081 42.1239 60.1501 42.0044 59.9485C41.8875 59.7444 41.829 59.5155 41.829 59.2617C41.829 59.0079 41.8875 58.7802 42.0044 58.5786C42.1239 58.377 42.2844 58.2203 42.486 58.1083C42.69 57.9938 42.9127 57.9366 43.1541 57.9366C43.398 57.9366 43.6207 57.9938 43.8223 58.1083C44.0263 58.2203 44.1868 58.377 44.3038 58.5786C44.4207 58.7802 44.4792 59.0079 44.4792 59.2617C44.4792 59.5155 44.4207 59.7444 44.3038 59.9485C44.1868 60.1501 44.0263 60.3081 43.8223 60.4226C43.6207 60.5345 43.398 60.5905 43.1541 60.5905ZM43.1541 60.221C43.3258 60.221 43.4789 60.1824 43.6132 60.1053C43.7476 60.0256 43.8521 59.9137 43.9268 59.7693C44.0039 59.6225 44.0425 59.4533 44.0425 59.2617C44.0425 59.0701 44.0039 58.9021 43.9268 58.7578C43.8521 58.6134 43.7476 58.5027 43.6132 58.4256C43.4789 58.3484 43.3258 58.3099 43.1541 58.3099C42.9824 58.3099 42.8294 58.3484 42.695 58.4256C42.5606 58.5027 42.4549 58.6134 42.3777 58.7578C42.3031 58.9021 42.2657 59.0701 42.2657 59.2617C42.2657 59.4533 42.3031 59.6225 42.3777 59.7693C42.4549 59.9137 42.5606 60.0256 42.695 60.1053C42.8294 60.1824 42.9824 60.221 43.1541 60.221ZM45.7453 57.9702C46.0215 57.9702 46.2629 58.0237 46.4694 58.1307C46.6784 58.2352 46.8389 58.387 46.9509 58.5861C47.0654 58.7827 47.1226 59.0128 47.1226 59.2766C47.1226 59.5404 47.0654 59.7693 46.9509 59.9634C46.8389 60.1575 46.6784 60.3068 46.4694 60.4114C46.2629 60.5134 46.0215 60.5644 45.7453 60.5644H44.8979V57.9702H45.7453ZM45.7453 60.2173C46.0489 60.2173 46.2815 60.1351 46.4433 59.9709C46.605 59.8067 46.6859 59.5752 46.6859 59.2766C46.6859 58.9755 46.605 58.7404 46.4433 58.5711C46.2815 58.4019 46.0489 58.3173 45.7453 58.3173H45.3235V60.2173H45.7453ZM35.0216 63.2617C35.0216 63.0079 35.0801 62.7802 35.197 62.5786C35.3165 62.377 35.477 62.2203 35.6786 62.1083C35.8826 61.9938 36.1053 61.9366 36.3467 61.9366C36.6229 61.9366 36.868 62.005 37.082 62.1419C37.2985 62.2763 37.4553 62.4679 37.5524 62.7167H37.041C36.9738 62.5799 36.8805 62.4778 36.761 62.4106C36.6416 62.3434 36.5035 62.3099 36.3467 62.3099C36.175 62.3099 36.022 62.3484 35.8876 62.4256C35.7532 62.5027 35.6475 62.6134 35.5703 62.7578C35.4957 62.9021 35.4583 63.0701 35.4583 63.2617C35.4583 63.4533 35.4957 63.6213 35.5703 63.7656C35.6475 63.9099 35.7532 64.0219 35.8876 64.1015C36.022 64.1787 36.175 64.2173 36.3467 64.2173C36.5035 64.2173 36.6416 64.1837 36.761 64.1165C36.8805 64.0493 36.9738 63.9473 37.041 63.8104H37.5524C37.4553 64.0592 37.2985 64.2508 37.082 64.3852C36.868 64.5196 36.6229 64.5868 36.3467 64.5868C36.1028 64.5868 35.8801 64.5308 35.6786 64.4188C35.477 64.3043 35.3165 64.1463 35.197 63.9448C35.0801 63.7432 35.0216 63.5155 35.0216 63.2617ZM39.6144 64.0344H38.5282L38.3416 64.5644H37.8974L38.8268 61.9664H39.3196L40.249 64.5644H39.8011L39.6144 64.0344ZM39.495 63.6872L39.0732 62.4816L38.6477 63.6872H39.495ZM41.5079 64.5905C41.3337 64.5905 41.1769 64.5607 41.0376 64.5009C40.8982 64.4387 40.7887 64.3516 40.7091 64.2396C40.6295 64.1277 40.5897 63.997 40.5897 63.8477H41.045C41.055 63.9597 41.0985 64.0518 41.1757 64.1239C41.2553 64.1961 41.3661 64.2322 41.5079 64.2322C41.6547 64.2322 41.7692 64.1973 41.8513 64.1277C41.9334 64.0555 41.9745 63.9634 41.9745 63.8515C41.9745 63.7644 41.9484 63.6934 41.8961 63.6387C41.8463 63.5839 41.7829 63.5416 41.7057 63.5118C41.6311 63.4819 41.5266 63.4496 41.3922 63.4147C41.223 63.3699 41.0849 63.3251 40.9779 63.2803C40.8733 63.2331 40.7838 63.1609 40.7091 63.0639C40.6344 62.9668 40.5971 62.8374 40.5971 62.6757C40.5971 62.5263 40.6344 62.3957 40.7091 62.2837C40.7838 62.1717 40.8883 62.0859 41.0226 62.0262C41.157 61.9664 41.3126 61.9366 41.4892 61.9366C41.7406 61.9366 41.9459 62 42.1051 62.127C42.2669 62.2514 42.3565 62.4231 42.3739 62.6421H41.9036C41.8961 62.5475 41.8513 62.4666 41.7692 62.3994C41.6871 62.3322 41.5788 62.2987 41.4444 62.2987C41.3225 62.2987 41.223 62.3298 41.1458 62.392C41.0687 62.4542 41.0301 62.5438 41.0301 62.6607C41.0301 62.7404 41.0538 62.8063 41.101 62.8586C41.1508 62.9083 41.213 62.9481 41.2877 62.978C41.3623 63.0079 41.4643 63.0402 41.5937 63.0751C41.7655 63.1223 41.9048 63.1696 42.0118 63.2169C42.1213 63.2642 42.2134 63.3376 42.288 63.4371C42.3652 63.5342 42.4037 63.6648 42.4037 63.8291C42.4037 63.9609 42.3677 64.0854 42.2955 64.2023C42.2258 64.3193 42.1225 64.4138 41.9857 64.486C41.8513 64.5557 41.692 64.5905 41.5079 64.5905ZM43.3314 61.9702V64.5644H42.9058V61.9702H43.3314ZM46.0214 64.5644H45.5959L44.3156 62.6271V64.5644H43.89V61.9664H44.3156L45.5959 63.9V61.9664H46.0214V64.5644ZM47.7635 64.5905C47.5221 64.5905 47.2994 64.5345 47.0953 64.4226C46.8937 64.3081 46.7332 64.1501 46.6138 63.9485C46.4968 63.7444 46.4384 63.5155 46.4384 63.2617C46.4384 63.0079 46.4968 62.7802 46.6138 62.5786C46.7332 62.377 46.8937 62.2203 47.0953 62.1083C47.2994 61.9938 47.5221 61.9366 47.7635 61.9366C48.0073 61.9366 48.23 61.9938 48.4316 62.1083C48.6357 62.2203 48.7962 62.377 48.9131 62.5786C49.0301 62.7802 49.0886 63.0079 49.0886 63.2617C49.0886 63.5155 49.0301 63.7444 48.9131 63.9485C48.7962 64.1501 48.6357 64.3081 48.4316 64.4226C48.23 64.5345 48.0073 64.5905 47.7635 64.5905ZM47.7635 64.221C47.9352 64.221 48.0882 64.1824 48.2226 64.1053C48.357 64.0256 48.4615 63.9137 48.5361 63.7693C48.6133 63.6225 48.6518 63.4533 48.6518 63.2617C48.6518 63.0701 48.6133 62.9021 48.5361 62.7578C48.4615 62.6134 48.357 62.5027 48.2226 62.4256C48.0882 62.3484 47.9352 62.3099 47.7635 62.3099C47.5918 62.3099 47.4387 62.3484 47.3043 62.4256C47.17 62.5027 47.0642 62.6134 46.9871 62.7578C46.9124 62.9021 46.8751 63.0701 46.8751 63.2617C46.8751 63.4533 46.9124 63.6225 46.9871 63.7693C47.0642 63.9137 47.17 64.0256 47.3043 64.1053C47.4387 64.1824 47.5918 64.221 47.7635 64.221Z" fill="url(#paint1_linear_1_506)"/>
<defs>
<linearGradient id="paint0_linear_1_506" x1="34.7506" y1="5.19066" x2="51.1636" y2="11.2183" gradientUnits="userSpaceOnUse">
<stop stop-color="#42E8FF"/>
<stop offset="0.197917" stop-color="#5BBFD6"/>
<stop offset="0.357891" stop-color="#2CA0E1"/>
<stop offset="0.859375" stop-color="#76D6FF"/>
<stop offset="1" stop-color="#0185FF"/>
</linearGradient>
<linearGradient id="paint1_linear_1_506" x1="34.5716" y1="57.9413" x2="48.1096" y2="67.2634" gradientUnits="userSpaceOnUse">
<stop stop-color="#42E8FF"/>
<stop offset="0.197917" stop-color="#5BBFD6"/>
<stop offset="0.357891" stop-color="#2CA0E1"/>
<stop offset="0.859375" stop-color="#76D6FF"/>
<stop offset="1" stop-color="#0185FF"/>
</linearGradient>
</defs>
</svg>
