<svg width="85" height="73" viewBox="0 0 85 73" fill="none" xmlns="http://www.w3.org/2000/svg">
<path d="M29.5675 68.7797C29.3506 68.7797 29.1336 68.7797 28.8857 68.8107C28.8237 68.8107 28.7617 68.8417 28.6997 68.8417C28.6377 68.8417 28.5757 68.8726 28.5138 68.8726C28.3898 68.9036 28.2658 68.9346 28.1108 68.9656C27.584 69.1205 26.9951 69.3374 26.4062 69.6162C25.8483 69.8641 25.2595 70.1429 24.7326 70.4217C24.2057 70.7006 23.7718 70.9484 23.4309 71.1033C23.1209 71.2582 22.904 71.3822 22.904 71.3822C22.904 71.3822 22.966 71.4131 23.059 71.4441C23.1519 71.4751 23.3069 71.5371 23.4619 71.5681C23.8338 71.661 24.3297 71.8159 24.9185 71.9089C25.0735 71.9398 25.1975 71.9708 25.3525 72.0018C25.5074 72.0328 25.6624 72.0328 25.8174 72.0638C26.1273 72.0947 26.4682 72.1257 26.7781 72.1257C27.429 72.1567 28.0799 72.0638 28.6377 71.9089C29.7535 71.599 30.4973 70.9174 30.9622 70.3598C31.4271 69.8021 31.6441 69.3064 31.6441 69.3064C31.6441 69.3064 31.2722 69.0585 30.6213 68.9036C30.3734 68.8726 29.9704 68.7797 29.5675 68.7797Z" fill="#5D69BE"/>
<path d="M31.2723 64.3802C31.0244 63.9775 30.6835 63.6057 30.3115 63.2649C30.1256 63.079 29.9396 62.9241 29.7537 62.7692C29.6607 62.6762 29.5677 62.6143 29.4747 62.5523C29.3817 62.4904 29.2888 62.3974 29.2268 62.3354C28.8858 62.0566 28.5759 61.8707 28.328 61.7158C28.111 61.5609 27.9561 61.468 27.9561 61.468C27.9561 61.468 27.9561 61.6538 27.9561 61.9946C27.9561 62.3354 27.987 62.7692 28.08 63.2959C28.142 63.8226 28.266 64.3802 28.421 64.9379C28.5759 65.4646 28.8239 65.9913 29.0718 66.425C29.1338 66.549 29.1958 66.6419 29.2888 66.7349C29.3198 66.7968 29.3507 66.8278 29.4127 66.8588C29.4437 66.8898 29.4747 66.9517 29.5367 66.9827C29.6917 67.1376 29.8776 67.2925 30.0326 67.3855C30.1876 67.5094 30.3735 67.6023 30.5285 67.6643C30.6835 67.7573 30.8384 67.8192 30.9934 67.8502C31.5823 68.0361 32.0472 68.0051 32.0472 68.0051C32.0472 68.0051 32.1091 67.4784 32.0472 66.7658C32.0162 66.3941 31.9542 65.9913 31.8302 65.5885C31.7992 65.4956 31.7682 65.3717 31.7372 65.2787C31.7062 65.1858 31.6442 65.0618 31.6132 64.9689C31.4893 64.783 31.3963 64.5661 31.2723 64.3802Z" fill="#5D69BE"/>
<path d="M22.6563 65.5886C22.6253 65.5576 22.5633 65.4957 22.5013 65.4337C22.3463 65.3098 22.1294 65.1549 21.8504 65C21.6955 64.907 21.5405 64.8451 21.3855 64.7831C21.1996 64.7211 21.0136 64.6592 20.8277 64.5972C20.4248 64.4733 19.9289 64.4113 19.371 64.4113C19.092 64.4113 18.7821 64.4423 18.5032 64.4733C18.1932 64.5043 17.8833 64.5352 17.5734 64.5972C17.2634 64.6592 16.9535 64.7211 16.6436 64.7521C16.3337 64.8141 16.0237 64.876 15.7448 64.938C15.1869 65.0619 14.691 65.1859 14.3191 65.2478C13.9472 65.3408 13.7302 65.4027 13.7302 65.4027C13.7302 65.4027 13.9162 65.5267 14.2261 65.7435C14.3811 65.8365 14.567 65.9604 14.784 66.0843C14.877 66.1463 15.0009 66.2083 15.1249 66.2702C15.2489 66.3322 15.3729 66.3941 15.4968 66.4561C15.7448 66.58 16.0547 66.704 16.3337 66.8279C16.4886 66.8899 16.6436 66.9518 16.7676 66.9828C16.8295 67.0138 16.9225 67.0448 16.9845 67.0757C17.0775 67.1067 17.1395 67.1067 17.2015 67.1377C17.8213 67.3236 18.4722 67.4165 19.0301 67.4165C20.2078 67.3856 21.1066 66.9518 21.7265 66.5181C22.0364 66.3012 22.2534 66.0843 22.4393 65.9294C22.5943 65.7745 22.6873 65.6816 22.6873 65.6816C22.6873 65.6816 22.6873 65.6196 22.6563 65.5886Z" fill="#5D69BE"/>
<path d="M21.0445 62.1806C21.1995 62.6453 21.4164 63.0481 21.6644 63.3579C21.7884 63.5128 21.9123 63.6677 22.0673 63.7607C22.1913 63.8846 22.3462 63.9775 22.4702 64.0705C22.7181 64.2254 22.9661 64.3493 23.1521 64.4113C23.245 64.4423 23.307 64.4732 23.369 64.4732C23.431 64.4732 23.431 64.5042 23.431 64.5042C23.431 64.5042 23.493 64.3803 23.555 64.1634C23.617 63.9466 23.7099 63.6677 23.7719 63.2959C23.8959 62.5834 23.9579 61.6539 23.6789 60.7244C23.555 60.2597 23.338 59.795 23.0591 59.3922C22.8111 58.9585 22.5322 58.5557 22.2533 58.2459C22.1293 58.091 22.0053 57.9051 21.8813 57.7812C21.7884 57.6263 21.6644 57.5333 21.5714 57.4094C21.3854 57.2235 21.2925 57.0996 21.2925 57.0996C21.2925 57.0996 21.2305 57.2855 21.1685 57.5953C21.0755 57.9051 20.9825 58.3698 20.9205 58.8655C20.8895 59.1134 20.8586 59.3922 20.8276 59.6711C20.7966 59.9499 20.7966 60.2287 20.7966 60.5076C20.7966 60.7864 20.8276 61.0652 20.8586 61.3441C20.9205 61.6849 20.9515 61.9327 21.0445 62.1806Z" fill="#5D69BE"/>
<path d="M14.6291 59.2064C14.5362 59.0515 14.3812 58.8346 14.1332 58.6177C13.9163 58.4009 13.6064 58.153 13.2654 57.9361C12.8935 57.7193 12.4596 57.5024 11.9327 57.3785C11.7468 57.3165 11.5608 57.2855 11.3748 57.2545C11.1889 57.2236 10.9719 57.1926 10.786 57.1616C9.7632 57.0067 8.61646 56.9447 7.74865 56.8828C6.88084 56.8208 6.22998 56.8208 6.22998 56.8208C6.22998 56.8208 6.44693 57.0996 6.81885 57.5024C7.15978 57.9052 7.71765 58.4009 8.33752 58.8656C8.4305 58.9276 8.52348 59.0205 8.61646 59.0825C8.67844 59.1135 8.70944 59.1444 8.77142 59.1754C8.80241 59.2064 8.8644 59.2374 8.92639 59.2684C9.14334 59.3923 9.3293 59.5162 9.54625 59.6401C9.7632 59.7641 9.98016 59.857 10.1971 59.95C10.4141 60.0429 10.6 60.1359 10.848 60.1668C11.9947 60.4457 12.9555 60.2598 13.6683 60.0429C14.3812 59.795 14.8151 59.4852 14.8151 59.4852C14.8151 59.4852 14.7221 59.3613 14.6291 59.2064Z" fill="#5D69BE"/>
<path d="M15.0004 57.8743C15.2174 58.0912 15.4033 58.277 15.5583 58.37C15.7132 58.4629 15.8062 58.5249 15.8062 58.5249C15.8062 58.5249 16.1472 58.1221 16.4571 57.5025C16.798 56.8519 17.1079 55.9844 17.1079 55.024C17.1079 54.6832 17.0769 54.3114 17.015 53.9706C16.984 53.7847 16.922 53.6298 16.891 53.4439C16.829 53.289 16.798 53.1031 16.736 52.9482C16.643 52.6693 16.5501 52.3905 16.4571 52.1427C16.4261 52.0807 16.3951 52.0187 16.3951 51.9568C16.3641 51.8948 16.3641 51.8328 16.3331 51.8019C16.3021 51.6779 16.2401 51.585 16.2091 51.492C16.0542 51.1203 15.9302 50.9034 15.9302 50.9034C15.9302 50.9034 15.6203 51.3681 15.2483 52.0807C15.1554 52.2666 15.0624 52.4525 14.9694 52.6693C14.9074 52.7623 14.8764 52.8862 14.8454 52.9792C14.8144 53.0721 14.7525 53.196 14.7215 53.289C14.5665 53.7227 14.4115 54.1875 14.3186 54.6522C14.2876 54.8381 14.2566 55.024 14.2256 55.1789C14.1946 55.3648 14.1946 55.5197 14.1946 55.6746C14.1946 56.1703 14.2876 56.604 14.4425 56.9758C14.5665 57.3476 14.7835 57.6574 15.0004 57.8743Z" fill="#5D69BE"/>
<path d="M7.06691 51.616C7.28386 51.616 7.50081 51.616 7.68677 51.616C8.43061 51.554 8.95749 51.3991 8.95749 51.3991C8.95749 51.3991 8.9265 51.2752 8.89551 51.1203C8.86451 51.0273 8.83352 50.9344 8.77154 50.8105C8.74054 50.6865 8.67856 50.5626 8.58558 50.4077C8.43061 50.1289 8.24465 49.819 7.93472 49.5092C7.87273 49.4473 7.77975 49.3543 7.71777 49.2614C7.62479 49.1684 7.5628 49.1065 7.46982 49.0445C7.28386 48.8896 7.06691 48.7347 6.84996 48.6108C6.60201 48.4558 6.35407 48.3319 6.07513 48.208C5.79619 48.0841 5.51725 47.9601 5.23831 47.8362C4.64944 47.5884 4.06057 47.3715 3.50269 47.1856C2.97581 46.9997 2.47992 46.8448 2.13899 46.7209C1.79807 46.5969 1.58112 46.535 1.58112 46.535C1.58112 46.535 1.6741 46.7518 1.82906 47.0617C1.89105 47.2166 1.98403 47.4334 2.108 47.6503C2.23197 47.8672 2.35595 48.0841 2.51091 48.3319C2.66588 48.5798 2.82084 48.8276 3.0068 49.0755C3.0378 49.1374 3.09978 49.1994 3.13078 49.2614C3.19276 49.3233 3.22375 49.3853 3.28574 49.4473C3.37872 49.5712 3.50269 49.6951 3.59567 49.819C3.81263 50.0669 4.02958 50.2838 4.27752 50.4697C4.4015 50.5626 4.49448 50.6555 4.61845 50.7485C4.74242 50.8414 4.86639 50.9034 4.99037 50.9963C5.48626 51.2752 5.98215 51.4611 6.44705 51.554C6.63301 51.585 6.84996 51.616 7.06691 51.616Z" fill="#5D69BE"/>
<path d="M9.32893 48.9204C9.39092 49.3232 9.4839 49.664 9.60787 49.9428C9.66985 50.0668 9.73184 50.1907 9.79383 50.3146C9.85581 50.4076 9.9178 50.5005 9.97979 50.5625C10.1038 50.7174 10.1657 50.7793 10.1657 50.7793C10.1657 50.7793 10.5997 50.5005 11.0955 49.9428C11.2195 49.8189 11.3435 49.664 11.4675 49.5091C11.5914 49.3542 11.7154 49.1683 11.8394 48.9824C12.0873 48.6106 12.3043 48.2078 12.4282 47.7431C12.4592 47.6192 12.4902 47.5262 12.5212 47.4023C12.5522 47.2784 12.5832 47.1545 12.5832 47.0305C12.6142 46.7827 12.6452 46.5348 12.6452 46.287C12.6452 45.7913 12.6762 45.3265 12.6142 44.8928C12.6142 44.6759 12.5832 44.49 12.5522 44.3041C12.5522 44.1182 12.5212 43.9633 12.5212 43.8394C12.4902 43.5606 12.4592 43.4057 12.4592 43.4057C12.4592 43.4057 12.3043 43.5296 12.0563 43.7775C11.8084 43.9943 11.4675 44.3351 11.1265 44.7379C10.7856 45.1407 10.4137 45.5744 10.1038 46.0701C9.94879 46.318 9.79383 46.5658 9.66985 46.8137C9.54588 47.0615 9.4529 47.3094 9.39092 47.5572C9.32893 47.8051 9.26694 48.022 9.23595 48.2388C9.23595 48.3628 9.20496 48.4557 9.20496 48.5796C9.20496 48.6416 9.20496 48.6726 9.20496 48.7345C9.29794 48.8275 9.29794 48.8585 9.32893 48.9204Z" fill="#5D69BE"/>
<path d="M2.63442 41.6088C2.85137 41.7637 3.06833 41.8877 3.28528 41.9806C3.71918 42.1975 4.15309 42.3214 4.49401 42.3834C5.23785 42.5383 5.76473 42.4763 5.76473 42.4763C5.76473 42.4763 5.82672 42.0426 5.70275 41.4229C5.67175 41.268 5.60977 41.1131 5.54778 40.9272C5.48579 40.7413 5.42381 40.5864 5.33083 40.3696C5.23785 40.1837 5.11388 39.9978 4.9899 39.8119C4.92792 39.7189 4.83494 39.626 4.77295 39.533C4.74196 39.4711 4.67997 39.4401 4.64898 39.3781C4.61798 39.3162 4.556 39.2852 4.52501 39.2232C3.81216 38.4487 2.63442 37.6432 1.70463 36.9925C1.23973 36.6827 0.805823 36.4039 0.495891 36.187C0.185959 36.0011 0 35.8772 0 35.8772C0 35.8772 0.0309932 36.0941 0.0929796 36.4659C0.154966 36.8376 0.247945 37.3024 0.402911 37.86C0.557877 38.4177 0.77483 39.0064 1.05377 39.564C1.11575 39.7189 1.17774 39.8429 1.27072 39.9668C1.3637 40.0907 1.42569 40.2456 1.51867 40.3696C1.67363 40.6174 1.85959 40.8653 2.07654 41.0512C2.23151 41.268 2.41747 41.4539 2.63442 41.6088Z" fill="#5D69BE"/>
<path d="M7.15943 42.2284C7.15943 42.2284 7.68631 42.0735 8.30618 41.6707C8.61611 41.4848 8.95703 41.237 9.29796 40.9581C9.45293 40.8032 9.63888 40.6483 9.76286 40.4624C9.91782 40.2765 10.0728 40.0907 10.1968 39.9048C10.3207 39.6879 10.4447 39.471 10.5377 39.2541C10.6307 39.0373 10.7236 38.7894 10.8166 38.5725C11.0026 38.1078 11.0956 37.6431 11.1885 37.2403C11.2815 36.8376 11.3435 36.4658 11.3745 36.1869C11.4055 35.9391 11.4055 35.7532 11.4055 35.7532C11.4055 35.7532 11.2195 35.8461 10.9406 36.0011C10.6307 36.156 10.2278 36.4038 9.79385 36.6827C9.35995 36.9615 8.86405 37.3333 8.43015 37.7051C7.99625 38.0768 7.59333 38.5106 7.3144 38.9443C7.15943 39.1612 7.06645 39.3781 6.97347 39.564C6.91148 39.7808 6.8495 39.9667 6.78751 40.1836C6.75652 40.3695 6.72552 40.5554 6.72552 40.7413C6.72552 40.9272 6.75652 41.0821 6.75652 41.237C6.94248 41.8566 7.15943 42.2284 7.15943 42.2284Z" fill="#5D69BE"/>
<path d="M1.4567 28.3485C1.48769 28.5964 1.51869 28.8133 1.58067 29.0301C1.67365 29.4948 1.82862 29.9286 2.01458 30.3004C2.29352 30.7961 2.60345 31.1988 2.97537 31.5087C3.31629 31.8185 3.68821 32.0663 4.02914 32.2212C4.71099 32.562 5.23787 32.655 5.23787 32.655C5.23787 32.655 5.29986 32.562 5.33085 32.3762C5.36184 32.1903 5.45482 31.9424 5.45482 31.6326C5.48582 31.3228 5.48582 30.951 5.39284 30.5482C5.33085 30.1455 5.17588 29.6807 4.92794 29.216C4.83496 29.0611 4.74198 28.9062 4.649 28.7203C4.58701 28.6274 4.55602 28.5654 4.49403 28.4725C4.43205 28.3795 4.40105 28.3175 4.33907 28.2246C4.06013 27.8218 3.7502 27.3881 3.40927 26.9853C3.09934 26.5826 2.75841 26.2108 2.51047 25.87C1.95259 25.2194 1.54968 24.7546 1.54968 24.7546C1.54968 24.7546 1.51869 25.0954 1.4567 25.6221C1.42571 25.87 1.39471 26.2108 1.39471 26.5516C1.39471 26.8924 1.39471 27.2642 1.39471 27.6359C1.39471 27.8528 1.42571 28.1007 1.4567 28.3485Z" fill="#5D69BE"/>
<path d="M10.2587 31.3851C10.3207 31.3231 10.3827 31.2611 10.4447 31.1992C10.5067 31.1372 10.5687 31.0752 10.6306 31.0133C10.7546 30.8893 10.8786 30.7344 11.0026 30.6105C11.1265 30.4556 11.2195 30.3317 11.3125 30.1768C11.4055 30.0219 11.4984 29.8669 11.5914 29.743C11.7464 29.4952 11.9014 29.2473 12.0253 28.9995C12.0873 28.8755 12.1493 28.7826 12.1803 28.6587C12.2113 28.5657 12.2733 28.4418 12.3353 28.3798C12.5212 28.008 12.6142 27.7912 12.6142 27.7912C12.6142 27.7912 12.0563 27.8841 11.2505 28.101C11.0645 28.1629 10.8476 28.2249 10.6306 28.2869C10.4137 28.3488 10.1967 28.4418 9.97978 28.5347C9.51488 28.7206 9.08098 28.9065 8.64707 29.1544C8.30615 29.3403 8.02721 29.5571 7.77926 29.774C7.40735 30.1148 7.12841 30.4866 6.94245 30.8274C6.75649 31.1992 6.6945 31.54 6.63252 31.8188C6.60152 32.1286 6.57053 32.3765 6.60152 32.5624C6.63252 32.7483 6.66351 32.8412 6.66351 32.8412C6.66351 32.8412 7.19039 32.8102 7.90324 32.6243C8.61608 32.3765 9.51488 32.0047 10.2587 31.3851Z" fill="#5D69BE"/>
<path d="M5.7647 21.3778C6.01265 21.7806 6.29158 22.0904 6.57052 22.3692C7.1284 22.8649 7.5933 23.1128 7.5933 23.1128C7.5933 23.1128 7.65528 23.0198 7.74826 22.8649C7.84124 22.71 7.96522 22.4622 8.08919 22.1833C8.21316 21.9045 8.30614 21.5327 8.36813 21.1299C8.39912 20.9131 8.39912 20.6962 8.39912 20.4793C8.39912 20.2625 8.36813 20.0146 8.33713 19.7358C8.27515 19.4879 8.21316 19.2091 8.12018 18.8993C8.08919 18.7443 8.0272 18.6204 7.99621 18.4655C7.93422 18.3106 7.90323 18.1867 7.84124 18.0318C7.65528 17.4431 7.40734 16.8854 7.19039 16.3587C7.06641 16.1109 6.97343 15.863 6.88045 15.6462C6.78747 15.4293 6.6945 15.2434 6.63251 15.0575C6.47754 14.7167 6.38456 14.5308 6.38456 14.5308C6.38456 14.5308 6.29158 14.7167 6.13662 15.0575C6.04364 15.2124 5.98165 15.4293 5.88867 15.6462C5.79569 15.863 5.70271 16.1419 5.60973 16.3897C5.57874 16.5137 5.51675 16.6686 5.48576 16.7925C5.45477 16.9474 5.39278 17.0713 5.36179 17.2262C5.2998 17.5361 5.23782 17.8459 5.20682 18.1557C5.17583 18.4655 5.14484 18.7753 5.14484 19.0851C5.14484 19.395 5.17583 19.6738 5.23782 19.9526C5.3308 20.5103 5.51675 20.975 5.7647 21.3778Z" fill="#5D69BE"/>
<path d="M13.4204 22.8647C13.6373 22.7408 13.8543 22.5859 14.0402 22.431C14.2262 22.2761 14.4121 22.1212 14.5981 21.9663C14.7841 21.8113 14.939 21.6564 15.094 21.5015C15.249 21.3466 15.3729 21.1917 15.4969 21.0678C15.5589 21.0058 15.6209 20.9439 15.6519 20.8819C15.7139 20.8199 15.7449 20.758 15.8068 20.727C15.9928 20.5411 16.0858 20.4172 16.0858 20.4172C16.0858 20.4172 15.8688 20.3862 15.5279 20.3552C15.187 20.3242 14.6911 20.3242 14.1642 20.3242C13.6373 20.3552 13.0175 20.3862 12.4286 20.4791C12.2736 20.5101 12.1187 20.5411 11.9947 20.5721C11.8707 20.6031 11.7157 20.634 11.5918 20.696C11.3128 20.7889 11.0649 20.8819 10.8169 20.9748C10.569 21.0678 10.383 21.1917 10.1661 21.3466C9.98012 21.4705 9.82516 21.6255 9.67019 21.7804C9.39125 22.0902 9.20529 22.369 9.08132 22.6479C8.95735 22.9267 8.89536 23.1745 8.86437 23.3604C8.83337 23.5463 8.83337 23.6393 8.83337 23.6393C8.83337 23.6393 9.36026 23.7632 10.1041 23.7632C10.476 23.7632 10.9099 23.7322 11.3438 23.6703C11.8087 23.6083 12.2736 23.4844 12.7075 23.2675C12.9865 23.1126 13.2034 22.9887 13.4204 22.8647Z" fill="#5D69BE"/>
<path d="M11.0646 12.7648C11.1885 13.1985 11.3745 13.6013 11.5605 13.9111C11.9324 14.5308 12.3353 14.9025 12.3353 14.9025C12.3353 14.9025 12.7072 14.6547 13.1101 14.159C13.2031 14.035 13.2961 13.8801 13.3891 13.7252C13.482 13.5703 13.575 13.3844 13.668 13.1985C13.823 12.8268 13.9469 12.362 14.0089 11.8353C14.0709 11.3086 14.0399 10.72 14.0089 10.1004C13.9469 9.48072 13.9159 8.86109 13.823 8.30341C13.761 7.74574 13.699 7.25003 13.637 6.90923C13.575 6.56844 13.544 6.35156 13.544 6.35156C13.544 6.35156 13.513 6.38254 13.4201 6.47549C13.3581 6.53745 13.2651 6.66138 13.1411 6.81629C12.8932 7.09513 12.5832 7.49789 12.2733 7.96262C11.9634 8.45832 11.6534 8.98501 11.4055 9.57367C11.1576 10.1623 10.9716 10.751 10.9406 11.3086C10.9406 11.4326 10.9096 11.5875 10.9096 11.7114C10.9096 11.8353 10.9096 11.9902 10.9406 12.1142C10.9716 12.3001 11.0026 12.5479 11.0646 12.7648Z" fill="#5D69BE"/>
<path d="M18.0382 16.1726C18.1622 16.1416 18.2862 16.0796 18.4102 16.0486C18.4721 16.0176 18.5341 15.9867 18.5961 15.9867C18.6581 15.9557 18.7201 15.9247 18.7821 15.9247C19.247 15.7388 19.6809 15.491 20.0528 15.2741C20.4557 15.0572 20.7656 14.8713 20.9826 14.7164C21.1066 14.6545 21.1686 14.5615 21.2305 14.5305C21.2925 14.4995 21.3235 14.4686 21.3235 14.4686C21.3235 14.4686 21.2615 14.4376 21.1995 14.4066C21.1066 14.3756 20.9826 14.3137 20.8276 14.2827C20.5177 14.1897 20.0528 14.0348 19.5259 13.9109C19.278 13.8489 18.999 13.787 18.6891 13.725C18.5341 13.694 18.4102 13.663 18.2552 13.663C18.1002 13.6321 17.9453 13.6321 17.8213 13.6321C17.2324 13.5701 16.6435 13.5701 16.1167 13.663C15.5898 13.756 15.1869 13.9419 14.8149 14.1278C14.629 14.2207 14.474 14.3446 14.35 14.4686C14.2261 14.5925 14.1021 14.7164 14.0091 14.8403C13.6062 15.3051 13.4822 15.7078 13.4822 15.7078C13.4822 15.7078 13.9471 15.9557 14.691 16.1726C15.0319 16.2655 15.4658 16.3584 15.9307 16.3894C16.3956 16.4204 16.8605 16.4204 17.3564 16.3275C17.5423 16.2965 17.7903 16.2345 18.0382 16.1726Z" fill="#5D69BE"/>
<path d="M19.4018 7.62191C19.4948 7.8078 19.5568 7.93173 19.5568 7.93173C19.5568 7.93173 19.5878 7.93173 19.6188 7.90074C19.6807 7.86976 19.7427 7.83878 19.8357 7.8078C20.0217 7.71485 20.2386 7.59093 20.5176 7.40503C21.0134 7.00227 21.6333 6.41362 22.0362 5.4222C22.1602 5.0814 22.2842 4.7406 22.4081 4.33784C22.5321 3.84213 22.6561 3.34642 22.7491 2.85071C22.842 2.35501 22.935 1.89028 22.997 1.45653C23.152 0.620026 23.214 0.0313721 23.214 0.0313721C23.214 0.0313721 22.904 0.217263 22.4701 0.527081C22.2532 0.681989 22.0052 0.86788 21.7263 1.08475C21.4473 1.30162 21.1684 1.54948 20.8895 1.82832C20.7035 1.98322 20.5485 2.16911 20.3936 2.35501C20.3626 2.38599 20.3006 2.44795 20.2696 2.47893C20.2386 2.50991 20.2076 2.57188 20.1456 2.63384C20.0836 2.72679 19.9907 2.81973 19.9287 2.91268C19.6497 3.28446 19.4018 3.68722 19.2468 4.08998C19.1229 4.33784 19.0609 4.61667 19.0299 4.86453C18.9989 5.11238 18.9679 5.36024 18.9679 5.57711C18.9679 6.04184 19.0299 6.4446 19.1229 6.81638C19.2158 7.15718 19.3088 7.43602 19.4018 7.62191Z" fill="#5D69BE"/>
<path d="M26.1273 10.5028C26.4372 10.4409 26.7162 10.3789 26.9641 10.317C27.2121 10.255 27.46 10.193 27.677 10.1311C28.0799 10.0071 28.3278 9.91419 28.3278 9.91419C28.3278 9.91419 27.8629 9.57339 27.1811 9.13965C26.8402 8.92278 26.4372 8.7059 25.9723 8.48903C25.5384 8.27216 25.0735 8.08627 24.6086 7.96234C24.2367 7.8694 23.8958 7.77645 23.5549 7.74547C22.5321 7.65252 21.6953 7.96234 21.1994 8.30314C20.9514 8.48903 20.7655 8.64394 20.6105 8.79885C20.5485 8.86081 20.4865 8.92278 20.4556 8.95376C20.4246 8.98474 20.4246 9.01572 20.4246 9.01572C20.4246 9.01572 20.5175 9.10867 20.7035 9.23259C20.8895 9.35652 21.1374 9.57339 21.4473 9.75928C21.7573 9.94517 22.1292 10.162 22.5631 10.317C22.78 10.4099 22.997 10.4719 23.2139 10.5338C23.4309 10.5958 23.6788 10.6268 23.9268 10.6578C24.6396 10.7507 25.4145 10.6268 26.1273 10.5028Z" fill="#5D69BE"/>
<path d="M36.9437 69.5545C36.7577 69.5236 36.5098 69.4926 36.2308 69.4616C36.1069 69.4306 35.9519 69.4306 35.7969 69.3996C35.642 69.3687 35.487 69.3377 35.301 69.3067C34.9601 69.2447 34.5882 69.1828 34.1853 69.1208C33.7824 69.0279 33.3795 68.9349 32.9766 68.842C32.7596 68.78 32.5427 68.749 32.3257 68.6871C32.1087 68.6251 31.8918 68.5631 31.6748 68.5012C31.2409 68.3772 30.776 68.2843 30.3421 68.1294C28.5755 67.6027 26.8709 66.8591 25.6312 66.2705C25.3212 66.1156 25.0423 65.9916 24.7944 65.8677C24.6704 65.8057 24.5464 65.7438 24.4534 65.6818C24.3604 65.6199 24.2365 65.5579 24.1745 65.5269C23.8336 65.341 23.6166 65.2171 23.6166 65.2171C23.6166 65.2171 23.4307 65.0932 23.0587 64.9073C22.7178 64.7214 22.2219 64.3806 21.633 64.0398C20.4863 63.2962 18.9986 62.2428 17.6039 61.0346C16.2402 59.8263 14.9695 58.525 14.0707 57.5026C13.9467 57.3787 13.8538 57.2548 13.7608 57.1309C13.6678 57.0069 13.5748 56.914 13.4818 56.7901C13.2959 56.5732 13.1409 56.3873 13.0169 56.2324C12.893 56.0775 12.8 55.9535 12.738 55.8606C12.676 55.7677 12.645 55.7367 12.645 55.7367C12.645 55.7367 12.521 55.5508 12.2731 55.241C12.1491 55.0861 12.0252 54.9002 11.8702 54.6523C11.7152 54.4354 11.5603 54.1566 11.3433 53.8778C11.2503 53.7538 11.1573 53.5989 11.0644 53.444C10.9714 53.2891 10.8784 53.1342 10.7854 52.9483C10.5995 52.6075 10.3825 52.2667 10.1656 51.8949C9.97961 51.5231 9.76266 51.1514 9.5457 50.7486C9.48372 50.6557 9.45272 50.5627 9.39074 50.4388C9.35974 50.3458 9.29776 50.2219 9.23577 50.129C9.14279 49.9121 9.04981 49.7262 8.95683 49.5093C8.213 47.8673 7.59313 46.1943 7.22121 44.8931C7.19022 44.7381 7.12823 44.5832 7.09724 44.4283C7.06625 44.2734 7.00426 44.1495 6.97327 44.0256C6.91128 43.7467 6.8493 43.5299 6.8183 43.344C6.72532 42.9722 6.66334 42.7553 6.66334 42.7553C6.66334 42.7553 6.66334 42.6933 6.63234 42.6004C6.60135 42.5075 6.57036 42.3525 6.53936 42.1667C6.50837 41.9808 6.47738 41.7329 6.41539 41.4851C6.3844 41.2062 6.29142 40.9274 6.26043 40.5866C6.22943 40.2458 6.16745 39.905 6.10546 39.5332C6.10546 39.4403 6.07447 39.3473 6.07447 39.2544C6.07447 39.1614 6.04347 39.0685 6.04347 38.9445C6.04347 38.7587 6.01248 38.5418 5.98149 38.3249C5.88851 37.4884 5.88851 36.5899 5.85751 35.7224C5.88851 34.824 5.88851 33.9255 5.98149 33.12C6.01248 32.9031 6.01248 32.7172 6.04347 32.5003C6.04347 32.4074 6.04347 32.3145 6.07447 32.1905C6.07447 32.0976 6.10546 32.0046 6.10546 31.9117C6.16745 31.5399 6.19844 31.1681 6.26043 30.8583C6.29142 30.5175 6.3534 30.2387 6.41539 29.9598C6.47738 29.681 6.50837 29.4641 6.53936 29.2782C6.57036 29.0923 6.60135 28.9374 6.63234 28.8445C6.66334 28.7515 6.66334 28.6896 6.66334 28.6896C6.66334 28.6896 6.72532 28.4727 6.8183 28.1009C6.8493 27.915 6.91128 27.6672 6.97327 27.4193C7.00426 27.2954 7.03526 27.1405 7.09724 26.9856C7.15923 26.8307 7.19022 26.6758 7.22121 26.5209C7.56214 25.2196 8.213 23.5466 8.95683 21.9046C9.04981 21.7187 9.14279 21.5018 9.23577 21.2849C9.29776 21.192 9.32875 21.099 9.39074 20.9751C9.45272 20.8822 9.48372 20.7892 9.5457 20.6653C9.76266 20.2625 9.94862 19.8908 10.1656 19.519C10.3825 19.1472 10.5995 18.8064 10.7854 18.4656C10.8784 18.3107 10.9714 18.1248 11.0644 17.9699C11.1573 17.815 11.2503 17.6601 11.3433 17.5361C11.5293 17.2573 11.7152 17.0095 11.8702 16.7616C12.0252 16.5447 12.1801 16.3588 12.2731 16.1729C12.521 15.8631 12.645 15.6772 12.645 15.6772C12.645 15.6772 12.676 15.6463 12.738 15.5533C12.8 15.4604 12.893 15.3364 13.0169 15.1815C13.1409 15.0266 13.2959 14.8407 13.4818 14.6239C13.5748 14.5309 13.6678 14.407 13.7608 14.2831C13.8538 14.1591 13.9467 14.0352 14.0707 13.9113C14.9695 12.8889 16.2402 11.5876 17.6039 10.3794C18.9676 9.17106 20.4863 8.11768 21.633 7.37412C22.2219 7.00234 22.6868 6.69252 23.0587 6.50663C23.3997 6.32074 23.6166 6.19681 23.6166 6.19681C23.6166 6.19681 23.8026 6.07289 24.1745 5.88699C24.2675 5.82503 24.3604 5.79405 24.4534 5.73209C24.5464 5.67012 24.6704 5.60816 24.7944 5.54619C24.8873 5.51521 24.9803 5.45325 25.0423 5.42227C25.0423 5.42227 25.0423 5.42227 25.0733 5.42227C25.2902 5.45325 25.6002 5.45325 25.9721 5.42227C26.7159 5.39129 27.6767 5.23638 28.5445 4.77165C28.9784 4.55478 29.4123 4.24496 29.7533 3.90416C29.9392 3.74925 30.1252 3.56336 30.2801 3.40845C30.4351 3.25354 30.5901 3.06765 30.745 2.91274C31.024 2.57194 31.2719 2.29311 31.4269 2.10722C31.5819 1.89035 31.6748 1.76642 31.6748 1.76642C31.6748 1.76642 31.4579 1.76642 31.117 1.76642C30.776 1.76642 30.3111 1.76642 29.7533 1.82838C29.6293 1.82838 29.4743 1.85936 29.3503 1.85936C29.2264 1.89035 29.0714 1.89035 28.9164 1.92133C28.6375 1.95231 28.3276 2.01427 28.0486 2.07624C27.4908 2.20016 26.9019 2.38605 26.437 2.63391C25.9721 2.88176 25.6312 3.19158 25.3522 3.5014C25.1043 3.81122 24.9493 4.12103 24.8253 4.43085C24.7324 4.70969 24.6704 4.95754 24.6394 5.14343C24.6394 5.17441 24.6394 5.2054 24.6394 5.23638C24.6084 5.26736 24.5774 5.26736 24.5464 5.29834C24.4224 5.3603 24.2985 5.42227 24.2055 5.48423C24.1125 5.5462 23.9885 5.60816 23.8955 5.63914C23.5546 5.82503 23.3377 5.94896 23.3377 5.94896C23.3377 5.94896 23.1207 6.07289 22.7798 6.25878C22.4389 6.44467 21.943 6.78547 21.3541 7.12627C20.2074 7.90081 18.6887 8.95419 17.294 10.1625C15.8993 11.3708 14.6286 12.703 13.7298 13.7254C13.6058 13.8493 13.5128 13.9732 13.4199 14.0972C13.3269 14.2211 13.2339 14.345 13.1409 14.438C12.955 14.6548 12.8 14.8407 12.676 14.9956C12.552 15.1505 12.4591 15.2745 12.3971 15.3674C12.3971 15.5223 12.3661 15.5533 12.3661 15.5533C12.3661 15.5533 12.2421 15.7392 11.9942 16.049C11.8702 16.2039 11.7152 16.3898 11.5603 16.6377C11.4053 16.8545 11.2193 17.1334 11.0334 17.4122C10.9404 17.5671 10.8474 17.6911 10.7234 17.846C10.6305 18.0009 10.5375 18.1558 10.4135 18.3417C10.2276 18.6825 10.0106 19.0233 9.79365 19.3951C9.60769 19.7668 9.39074 20.1696 9.17379 20.5414C9.1118 20.6343 9.08081 20.7273 9.01882 20.8512C8.98783 20.9441 8.92584 21.0681 8.86385 21.161C8.77087 21.3779 8.67789 21.5638 8.58491 21.7806C7.81008 23.4227 7.19022 25.1267 6.8493 26.4279C6.78731 26.5828 6.75632 26.7377 6.72532 26.8926C6.66334 27.0475 6.63234 27.1715 6.60135 27.3264C6.53936 27.6052 6.47738 27.8221 6.44638 28.008C6.35341 28.3798 6.29142 28.5966 6.29142 28.5966C6.29142 28.5966 6.29142 28.6586 6.26043 28.7515C6.22943 28.8445 6.19844 28.9994 6.16745 29.2163C6.13645 29.4022 6.07447 29.65 6.04347 29.9289C6.01248 30.2077 5.9195 30.5175 5.88851 30.8273C5.85751 31.1681 5.79553 31.5399 5.73354 31.9117C5.73354 32.0046 5.70255 32.0976 5.70255 32.1905C5.70255 32.2835 5.67155 32.3764 5.67155 32.5003C5.64056 32.6862 5.64056 32.9031 5.60957 33.12C5.51659 33.9565 5.51659 34.855 5.4856 35.7534C5.51659 36.6519 5.51659 37.5504 5.60957 38.3869C5.64056 38.6038 5.64056 38.7896 5.67155 39.0065C5.67155 39.0995 5.70255 39.2234 5.70255 39.3163C5.70255 39.4093 5.73354 39.5022 5.73354 39.5952C5.79553 39.9669 5.82652 40.3387 5.88851 40.6795C5.9195 41.0203 5.98149 41.3301 6.04347 41.578C6.10546 41.8568 6.13645 42.0737 6.16745 42.2906C6.19844 42.4765 6.22943 42.6314 6.26043 42.7553C6.29142 42.8483 6.29142 42.9102 6.29142 42.9102C6.29142 42.9102 6.35341 43.1271 6.44638 43.4989C6.50837 43.6848 6.53936 43.9326 6.60135 44.1805C6.63234 44.3044 6.66334 44.4593 6.72532 44.6142C6.75632 44.7691 6.8183 44.924 6.8493 45.0789C7.19022 46.3802 7.84108 48.0842 8.58491 49.7262C8.67789 49.9431 8.77087 50.129 8.86385 50.3458C8.92584 50.4388 8.95683 50.5627 9.01882 50.6557C9.08081 50.7486 9.1118 50.8415 9.17379 50.9655C9.39074 51.3682 9.5767 51.74 9.79365 52.1118C10.0106 52.4836 10.2276 52.8244 10.4135 53.1652C10.5065 53.3201 10.5995 53.506 10.7234 53.6609C10.8164 53.8158 10.9094 53.9707 11.0334 54.0946C11.2193 54.3735 11.4053 54.6523 11.5603 54.8692C11.7152 55.0861 11.8702 55.3029 11.9942 55.4578C12.2421 55.7677 12.3661 55.9535 12.3661 55.9535C12.3661 55.9535 12.3971 56.0155 12.4591 56.0775C12.521 56.1704 12.614 56.2943 12.738 56.4493C12.862 56.6042 13.0169 56.7901 13.2029 57.0069C13.2959 57.0999 13.3889 57.2238 13.4818 57.3477C13.5748 57.4716 13.6678 57.5956 13.7918 57.7195C14.6906 58.7419 15.9613 60.0741 17.356 61.2824C18.7507 62.4907 20.2693 63.5751 21.4161 64.3186C22.005 64.6904 22.5009 65.0002 22.8418 65.1861C23.1827 65.372 23.3997 65.4959 23.3997 65.4959C23.3997 65.4959 23.6166 65.6199 23.9575 65.8057C24.0505 65.8677 24.1435 65.8987 24.2675 65.9607C24.3914 66.0226 24.4844 66.0846 24.6084 66.1465C24.8563 66.2705 25.1353 66.4254 25.4762 66.5803C26.7469 67.1689 28.4515 67.9125 30.2492 68.4392C30.6831 68.5941 31.148 68.687 31.5819 68.811C31.7988 68.8729 32.0158 68.9349 32.2327 68.9969C32.4497 69.0588 32.6666 69.0898 32.8836 69.1518C33.3175 69.2447 33.7204 69.3377 34.1233 69.4306C34.5262 69.4926 34.8981 69.5545 35.2391 69.6165C35.425 69.6475 35.58 69.6785 35.7349 69.7094C35.8899 69.7404 36.0449 69.7404 36.1998 69.7714C36.4788 69.8024 36.7267 69.8334 36.9437 69.8644C37.3466 69.9263 37.5945 69.9573 37.5945 69.9573L37.6255 69.6165C37.5635 69.6475 37.3466 69.6165 36.9437 69.5545Z" fill="#5D69BE"/>
<path d="M54.5177 68.78C54.7346 68.78 54.9516 68.78 55.1995 68.811C55.2615 68.811 55.3235 68.842 55.3855 68.842C55.4475 68.842 55.5095 68.8729 55.5715 68.8729C55.6954 68.9039 55.8194 68.9349 55.9434 68.9659C56.4703 69.1208 57.0591 69.3377 57.648 69.6165C58.2059 69.8644 58.7948 70.1432 59.3216 70.422C59.8485 70.7009 60.2824 70.9487 60.6234 71.1036C60.9333 71.2585 61.1502 71.3825 61.1502 71.3825C61.1502 71.3825 61.0882 71.4135 60.9953 71.4444C60.9023 71.4754 60.7473 71.5374 60.5924 71.5684C60.2204 71.6613 59.7245 71.8162 59.1357 71.9092C58.9807 71.9401 58.8567 71.9711 58.7018 72.0021C58.5468 72.0331 58.3918 72.0331 58.2369 72.0641C57.9269 72.0951 57.586 72.126 57.2761 72.126C56.6252 72.157 55.9744 72.0641 55.4165 71.9092C54.3007 71.5993 53.5569 70.9177 53.092 70.3601C52.6271 69.8024 52.4102 69.3067 52.4102 69.3067C52.4102 69.3067 52.7821 69.0588 53.4329 68.9039C53.7119 68.8729 54.1148 68.78 54.5177 68.78Z" fill="#5D69BE"/>
<path d="M52.8132 64.3806C53.0612 63.9778 53.4331 63.606 53.774 63.2652C53.96 63.0793 54.1459 62.9244 54.3319 62.7695C54.4249 62.6766 54.5179 62.6146 54.6108 62.5527C54.7038 62.4907 54.7968 62.3977 54.8588 62.3358C55.1997 62.0569 55.5097 61.8711 55.7576 61.7161C55.9745 61.5612 56.1295 61.4683 56.1295 61.4683C56.1295 61.4683 56.1295 61.6542 56.1295 61.995C56.1295 62.3358 56.0985 62.7695 56.0055 63.2962C55.9436 63.8229 55.8196 64.3806 55.6646 64.9383C55.5096 65.4649 55.2617 65.9916 55.0138 66.4254C54.9518 66.5493 54.8898 66.6422 54.7968 66.7352C54.7658 66.7972 54.7348 66.8281 54.6728 66.8591C54.6418 66.8901 54.6109 66.9521 54.5489 66.983C54.3939 67.138 54.2389 67.2929 54.053 67.3858C53.898 67.5097 53.712 67.6027 53.5571 67.6646C53.4021 67.7576 53.2471 67.8196 53.0922 67.8505C52.4723 68.0364 52.0384 68.0054 52.0384 68.0054C52.0384 68.0054 51.9764 67.4788 52.0384 66.7662C52.0694 66.3944 52.1314 65.9916 52.2864 65.5889C52.3174 65.4959 52.3483 65.372 52.3793 65.2791C52.4103 65.1861 52.4723 65.0622 52.5033 64.9692C52.5963 64.7833 52.6893 64.5665 52.8132 64.3806Z" fill="#5D69BE"/>
<path d="M61.4292 65.5889C61.4602 65.5579 61.5222 65.496 61.6152 65.434C61.7702 65.3101 61.9561 65.1552 62.2661 65.0003C62.39 64.9073 62.576 64.8454 62.731 64.7834C62.8859 64.7214 63.1029 64.6595 63.2888 64.5975C63.6917 64.4736 64.1876 64.4116 64.7455 64.4116C65.0244 64.4116 65.3034 64.4426 65.6133 64.4736C65.9233 64.5046 66.2332 64.5355 66.5431 64.5975C66.853 64.6595 67.163 64.7214 67.4729 64.7524C67.7828 64.8144 68.0618 64.8763 68.3717 64.9383C68.9296 65.0622 69.4255 65.1862 69.7974 65.2481C70.1693 65.3411 70.3863 65.403 70.3863 65.403C70.3863 65.403 70.2003 65.527 69.8904 65.7438C69.7354 65.8368 69.5495 65.9607 69.3325 66.0846C69.2085 66.1466 69.1156 66.2086 68.9916 66.2705C68.8676 66.3325 68.7436 66.3945 68.6197 66.4564C68.3407 66.5803 68.0618 66.7043 67.7828 66.8282C67.6279 66.8902 67.4729 66.9521 67.3489 66.9831C67.287 67.0141 67.194 67.0451 67.132 67.0761C67.07 67.107 66.977 67.107 66.884 67.138C66.2642 67.3239 65.6133 67.4169 65.0554 67.4169C63.8777 67.3859 62.9789 66.9521 62.359 66.5184C62.0491 66.3015 61.8322 66.0846 61.6772 65.9297C61.5222 65.7748 61.4292 65.6819 61.4292 65.6819C61.4292 65.6819 61.3982 65.6199 61.4292 65.5889Z" fill="#5D69BE"/>
<path d="M63.0409 62.1809C62.8859 62.6457 62.669 63.0484 62.421 63.3582C62.2971 63.5131 62.1731 63.6681 62.0181 63.761C61.8941 63.8849 61.7392 63.9779 61.6152 64.0708C61.3673 64.2257 61.1193 64.3497 60.9334 64.4116C60.8404 64.4426 60.7784 64.4736 60.7164 64.4736C60.6544 64.4736 60.6234 64.5046 60.6234 64.5046C60.6234 64.5046 60.5614 64.3806 60.4995 64.1638C60.4375 63.9469 60.3445 63.6681 60.2825 63.2963C60.1585 62.5837 60.0965 61.6542 60.3755 60.7248C60.4995 60.2601 60.7164 59.7953 60.9953 59.3926C61.2433 58.9588 61.5222 58.5561 61.8012 58.2462C61.9251 58.0913 62.0491 57.9054 62.1731 57.7815C62.2971 57.6266 62.39 57.5337 62.483 57.4097C62.669 57.2238 62.762 57.0999 62.762 57.0999C62.762 57.0999 62.8239 57.2858 62.8859 57.5956C62.9479 57.9054 63.0409 58.3702 63.1339 58.8659C63.1649 59.1137 63.1959 59.3926 63.2269 59.6714C63.2578 59.9502 63.2578 60.2291 63.2578 60.5079C63.2578 60.7867 63.2269 61.0656 63.1959 61.3444C63.1649 61.6852 63.1339 61.9331 63.0409 62.1809Z" fill="#5D69BE"/>
<path d="M69.4872 59.2063C69.5801 59.0514 69.7351 58.8345 69.983 58.6177C70.2 58.4008 70.5099 58.1529 70.8509 57.9361C71.1918 57.7192 71.6567 57.5023 72.1836 57.3784C72.3695 57.3164 72.5555 57.2854 72.7414 57.2545C72.9274 57.2235 73.1443 57.1925 73.3303 57.1615C74.3531 57.0066 75.4998 56.9446 76.3676 56.8827C77.2355 56.8207 77.8863 56.8207 77.8863 56.8207C77.8863 56.8207 77.6694 57.0995 77.2974 57.5023C76.9565 57.9051 76.3986 58.4008 75.7788 58.8655C75.6858 58.9275 75.5928 59.0204 75.4998 59.0824C75.4378 59.1134 75.4069 59.1443 75.3449 59.1753C75.2829 59.2063 75.2519 59.2373 75.1899 59.2683C74.9729 59.3922 74.787 59.5161 74.57 59.64C74.3531 59.764 74.1361 59.8569 73.9192 59.9499C73.7022 60.0428 73.4853 60.1358 73.2683 60.1667C72.1216 60.4456 71.1298 60.2597 70.4169 60.0428C69.7041 59.795 69.2702 59.4851 69.2702 59.4851C69.2702 59.4851 69.3632 59.3612 69.4872 59.2063Z" fill="#5D69BE"/>
<path d="M69.0845 57.8746C68.8676 58.0915 68.6816 58.2774 68.5267 58.3703C68.3717 58.4632 68.2787 58.5252 68.2787 58.5252C68.2787 58.5252 67.9378 58.1224 67.6279 57.5028C67.2869 56.8522 66.946 55.9847 66.977 55.0243C66.977 54.6835 67.008 54.3117 67.07 53.9709C67.101 53.785 67.163 53.6301 67.194 53.4442C67.2559 53.2893 67.2869 53.1034 67.3489 52.9485C67.4419 52.6696 67.5349 52.3908 67.6279 52.143C67.6589 52.081 67.6898 52.019 67.6898 51.9571C67.7208 51.8951 67.7208 51.8331 67.7518 51.8022C67.7828 51.6782 67.8448 51.5853 67.8758 51.4923C68.0308 51.1206 68.1547 50.9037 68.1547 50.9037C68.1547 50.9037 68.4647 51.3684 68.8366 52.081C68.9296 52.2669 69.0226 52.4528 69.1155 52.6696C69.1465 52.7626 69.2085 52.8865 69.2395 52.9795C69.2705 53.0724 69.3325 53.1963 69.3635 53.2893C69.5184 53.723 69.6734 54.1878 69.7664 54.6525C69.7974 54.8384 69.8284 55.0243 69.8594 55.1792C69.8904 55.3651 69.8904 55.52 69.8904 55.6749C69.8904 56.1706 69.7974 56.6043 69.6424 56.9761C69.5184 57.3479 69.3015 57.6577 69.0845 57.8746Z" fill="#5D69BE"/>
<path d="M77.0188 51.6159C76.8018 51.6159 76.5849 51.6159 76.3989 51.6159C75.6241 51.5539 75.1282 51.399 75.1282 51.399C75.1282 51.399 75.1282 51.2751 75.1902 51.1202C75.2212 51.0272 75.2521 50.9343 75.3141 50.8104C75.3761 50.6864 75.4071 50.5625 75.5001 50.4076C75.6551 50.1288 75.841 49.8189 76.151 49.5091C76.2129 49.4472 76.3059 49.3542 76.3679 49.2613C76.4609 49.1683 76.5229 49.1064 76.6158 49.0444C76.8018 48.8895 77.0188 48.7346 77.2357 48.6107C77.4837 48.4558 77.7316 48.3318 78.0105 48.2079C78.2895 48.084 78.5684 47.96 78.8474 47.8361C79.4362 47.5883 80.0251 47.3714 80.583 47.1855C81.1409 46.9996 81.6058 46.8447 81.9777 46.7208C82.3186 46.5968 82.5355 46.5349 82.5355 46.5349C82.5355 46.5349 82.4426 46.7518 82.2876 47.0616C82.2256 47.2165 82.1326 47.4334 82.0087 47.6502C81.8847 47.8671 81.7607 48.084 81.6057 48.3318C81.4508 48.5797 81.2958 48.8275 81.1099 49.0754C81.0789 49.1373 81.0169 49.1993 80.9859 49.2613C80.9549 49.3232 80.8929 49.3852 80.8309 49.4472C80.7379 49.5711 80.614 49.695 80.521 49.8189C80.304 50.0668 80.0871 50.2837 79.8391 50.4696C79.7152 50.5625 79.6222 50.6555 79.4982 50.7484C79.3742 50.8413 79.2503 50.9033 79.1263 50.9963C78.6304 51.2751 78.1345 51.461 77.6696 51.5539C77.4527 51.5849 77.2357 51.6159 77.0188 51.6159Z" fill="#5D69BE"/>
<path d="M74.7559 48.9203C74.6939 49.3231 74.6009 49.6639 74.477 49.9427C74.415 50.0667 74.353 50.1906 74.291 50.3145C74.229 50.4075 74.167 50.5004 74.105 50.5624C73.9811 50.7173 73.9191 50.7792 73.9191 50.7792C73.9191 50.7792 73.4852 50.5004 72.9893 49.9427C72.8653 49.8188 72.7413 49.6639 72.6174 49.509C72.4934 49.3541 72.3694 49.1682 72.2455 48.9823C71.9975 48.6105 71.7806 48.2078 71.6566 47.743C71.6256 47.6191 71.5946 47.5262 71.5636 47.4022C71.5326 47.2783 71.5016 47.1544 71.5016 47.0304C71.4706 46.7826 71.4396 46.5347 71.4396 46.2869C71.4396 45.7912 71.4396 45.3264 71.4706 44.8927C71.5016 44.6758 71.5016 44.4899 71.5326 44.304C71.5326 44.1182 71.5636 43.9632 71.5946 43.8393C71.6256 43.5605 71.6566 43.4056 71.6566 43.4056C71.6566 43.4056 71.8116 43.5295 72.0595 43.7774C72.3074 43.9942 72.6484 44.335 72.9893 44.7378C73.3302 45.1406 73.7021 45.5743 74.0121 46.07C74.167 46.3179 74.322 46.5657 74.446 46.8136C74.5699 47.0614 74.6629 47.3093 74.7249 47.5571C74.7869 47.805 74.8489 48.0219 74.8799 48.2387C74.8799 48.3627 74.9109 48.4556 74.9109 48.5795C74.9109 48.6415 74.9109 48.6725 74.9109 48.7344C74.7869 48.8274 74.7869 48.8584 74.7559 48.9203Z" fill="#5D69BE"/>
<path d="M81.451 41.6091C81.234 41.764 81.0171 41.888 80.8001 41.9809C80.3662 42.1978 79.9323 42.3217 79.5604 42.3837C78.8165 42.5386 78.2897 42.4766 78.2897 42.4766C78.2897 42.4766 78.2277 42.0429 78.3517 41.4232C78.3826 41.2683 78.4446 41.1134 78.4756 40.9275C78.5376 40.7416 78.5996 40.5867 78.6926 40.3699C78.7856 40.184 78.9095 39.9981 79.0335 39.8122C79.0955 39.7192 79.1885 39.6263 79.2505 39.5334C79.2815 39.4714 79.3434 39.4404 79.3744 39.3784C79.4054 39.3165 79.4674 39.2855 79.4984 39.2235C80.2112 38.449 81.389 37.6435 82.3188 36.9928C82.7837 36.683 83.2176 36.4042 83.5275 36.1873C83.8375 36.0014 84.0234 35.8775 84.0234 35.8775C84.0234 35.8775 83.9924 36.0944 83.9304 36.4662C83.8684 36.8379 83.7755 37.3027 83.6205 37.8603C83.4655 38.418 83.2486 39.0067 82.9696 39.5643C82.9076 39.7192 82.8457 39.8432 82.7527 39.9671C82.6597 40.091 82.5977 40.2459 82.5047 40.3699C82.3188 40.6177 82.1638 40.8656 81.9469 41.0515C81.8849 41.2683 81.6679 41.4542 81.451 41.6091Z" fill="#5D69BE"/>
<path d="M76.9252 42.2287C76.9252 42.2287 76.3983 42.0738 75.7785 41.671C75.4685 41.4851 75.1276 41.2373 74.7867 40.9584C74.6317 40.8035 74.4457 40.6486 74.3218 40.4627C74.1668 40.2768 74.0118 40.091 73.8879 39.9051C73.7639 39.6882 73.6399 39.4713 73.5469 39.2544C73.454 39.0376 73.361 38.7897 73.268 38.5729C73.113 38.1081 72.9891 37.6434 72.8961 37.2406C72.8031 36.8379 72.7411 36.4661 72.7101 36.1873C72.6791 35.9394 72.6791 35.7535 72.6791 35.7535C72.6791 35.7535 72.8651 35.8465 73.144 36.0014C73.454 36.1563 73.8569 36.4041 74.2908 36.683C74.7247 36.9618 75.2206 37.3336 75.6545 37.7054C76.0884 38.0771 76.4913 38.5109 76.7702 38.9446C76.9252 39.1615 77.0182 39.3784 77.1112 39.5643C77.2041 39.7811 77.2351 39.967 77.2661 40.1839C77.2971 40.3698 77.3281 40.5557 77.3281 40.7416C77.3281 40.9275 77.2971 41.0824 77.2971 41.2373C77.1422 41.8569 76.9252 42.2287 76.9252 42.2287Z" fill="#5D69BE"/>
<path d="M82.6288 28.3488C82.5978 28.5967 82.5668 28.8136 82.5049 29.0304C82.4119 29.4952 82.2569 29.9289 82.0709 30.3007C81.792 30.7964 81.4511 31.1992 81.1102 31.509C80.7692 31.8188 80.3973 32.0666 80.0564 32.2216C79.3745 32.5624 78.8477 32.6553 78.8477 32.6553C78.8477 32.6553 78.8167 32.5624 78.7547 32.3765C78.7237 32.1906 78.6307 31.9427 78.5997 31.6329C78.5687 31.3231 78.5687 30.9513 78.6617 30.5485C78.7237 30.1458 78.8477 29.681 79.1266 29.2163C79.2196 29.0614 79.3126 28.9065 79.4055 28.7206C79.4675 28.6277 79.4985 28.5657 79.5605 28.4728C79.6225 28.3798 79.6845 28.3178 79.7155 28.2249C79.9944 27.8221 80.3043 27.3884 80.6453 26.9856C80.9552 26.5829 81.2961 26.2111 81.5441 25.8703C82.1019 25.2197 82.5049 24.7549 82.5049 24.7549C82.5049 24.7549 82.5668 25.0957 82.6288 25.6224C82.6598 25.8703 82.6908 26.2111 82.6908 26.5519C82.6908 26.8927 82.6908 27.2645 82.6908 27.6362C82.6908 27.8531 82.6598 28.101 82.6288 28.3488Z" fill="#5D69BE"/>
<path d="M73.8263 31.3854C73.7643 31.3234 73.7023 31.2615 73.6403 31.1995C73.5784 31.1375 73.5164 31.0756 73.4544 31.0136C73.3304 30.8897 73.2064 30.7348 73.0825 30.6108C72.9585 30.4559 72.8655 30.332 72.7725 30.1771C72.6796 30.0222 72.5866 29.8673 72.4936 29.7434C72.3386 29.4955 72.1837 29.2476 72.0597 28.9998C71.9977 28.8759 71.9357 28.7829 71.9047 28.659C71.8427 28.566 71.8118 28.4421 71.7498 28.3802C71.5638 28.0084 71.4708 27.7915 71.4708 27.7915C71.4708 27.7915 72.0287 27.8844 72.8345 28.1013C73.0205 28.1633 73.2374 28.2252 73.4544 28.2872C73.6713 28.3492 73.8883 28.4421 74.1052 28.5351C74.5701 28.721 75.004 28.9068 75.438 29.1547C75.7789 29.3406 76.0578 29.5575 76.3058 29.7743C76.6777 30.1151 76.9876 30.4869 77.1426 30.8277C77.2975 31.1995 77.3905 31.5403 77.4525 31.8191C77.4835 32.129 77.4835 32.3768 77.4525 32.5627C77.4215 32.7486 77.3905 32.8415 77.3905 32.8415C77.3905 32.8415 76.8636 32.8106 76.1508 32.6247C75.4689 32.3768 74.5701 32.005 73.8263 31.3854Z" fill="#5D69BE"/>
<path d="M78.3204 21.3777C78.0724 21.7804 77.7935 22.0903 77.5146 22.3691C76.9567 22.8648 76.4918 23.1127 76.4918 23.1127C76.4918 23.1127 76.4298 23.0197 76.3058 22.8648C76.2128 22.7099 76.0889 22.462 75.9649 22.1832C75.8409 21.9044 75.7479 21.5326 75.686 21.1298C75.655 20.9129 75.655 20.6961 75.655 20.4792C75.655 20.2623 75.686 20.0145 75.717 19.7356C75.7479 19.4878 75.8409 19.209 75.9339 18.8991C75.9649 18.7442 76.0269 18.6203 76.0579 18.4654C76.1199 18.3105 76.1509 18.1866 76.2128 18.0316C76.3988 17.443 76.6468 16.8853 76.8637 16.3586C76.9877 16.1108 77.0807 15.8629 77.1736 15.646C77.2666 15.4292 77.3596 15.2433 77.4216 15.0574C77.5765 14.7166 77.6695 14.5307 77.6695 14.5307C77.6695 14.5307 77.7625 14.7166 77.9175 15.0574C78.0105 15.2123 78.0724 15.4292 78.1654 15.646C78.2584 15.8629 78.3514 16.1418 78.4444 16.3896C78.4753 16.5135 78.5373 16.6684 78.5683 16.7924C78.5993 16.9473 78.6613 17.0712 78.6923 17.2261C78.7543 17.5359 78.8163 17.8458 78.8473 18.1556C78.8783 18.4654 78.9093 18.7752 78.9093 19.085C78.9093 19.3948 78.8783 19.6737 78.8163 19.9525C78.7853 20.5102 78.5683 20.9749 78.3204 21.3777Z" fill="#5D69BE"/>
<path d="M70.6653 22.8651C70.4483 22.7412 70.2314 22.5863 70.0454 22.4313C69.8595 22.2764 69.6735 22.1215 69.4876 21.9666C69.3016 21.8117 69.1466 21.6568 68.9917 21.5019C68.8367 21.347 68.7127 21.1921 68.5887 21.0681C68.5268 21.0062 68.4648 20.9442 68.4338 20.8823C68.3718 20.8203 68.3408 20.7583 68.2788 20.7273C68.0929 20.5415 67.9999 20.4175 67.9999 20.4175C67.9999 20.4175 68.2168 20.3865 68.5578 20.3556C68.8987 20.3246 69.3946 20.3246 69.9215 20.3246C70.4483 20.3556 71.0372 20.3865 71.6571 20.4795C71.812 20.5105 71.967 20.5415 72.091 20.5724C72.215 20.6034 72.3699 20.6344 72.4939 20.6964C72.7728 20.7893 73.0208 20.8823 73.2687 20.9752C73.5167 21.0681 73.7026 21.1921 73.9196 21.347C74.1055 21.4709 74.2605 21.6258 74.3845 21.7807C74.6634 22.0905 74.8494 22.3694 74.9733 22.6482C75.0973 22.9271 75.1593 23.1749 75.1903 23.3608C75.2213 23.5467 75.2213 23.6396 75.2213 23.6396C75.2213 23.6396 74.6944 23.7636 73.9506 23.7636C73.5787 23.7636 73.1447 23.7326 72.7108 23.6706C72.2459 23.6087 71.781 23.4847 71.3471 23.2679C71.0992 23.1129 70.8822 22.989 70.6653 22.8651Z" fill="#5D69BE"/>
<path d="M73.0204 12.7651C72.8964 13.1988 72.7104 13.6016 72.5245 13.9114C72.1526 14.5311 71.7496 14.9028 71.7496 14.9028C71.7496 14.9028 71.3777 14.655 70.9748 14.1593C70.8818 14.0353 70.7889 13.8804 70.6959 13.7255C70.6029 13.5706 70.5099 13.3847 70.4169 13.1988C70.262 12.8271 70.138 12.3623 70.076 11.8356C70.014 11.309 70.045 10.7203 70.076 10.1007C70.107 9.48103 70.169 8.86139 70.231 8.30372C70.293 7.74605 70.355 7.25034 70.4169 6.90954C70.4789 6.56874 70.5099 6.35187 70.5099 6.35187C70.5099 6.35187 70.5409 6.38285 70.6339 6.47579C70.6959 6.53776 70.7889 6.66169 70.9128 6.81659C71.1608 7.09543 71.4707 7.49819 71.7806 7.96292C72.0906 8.45863 72.4005 8.98532 72.6794 9.57397C72.9274 10.1626 73.0824 10.7513 73.1443 11.309C73.1753 11.4329 73.1753 11.5878 73.1753 11.7117C73.1753 11.8356 73.1753 11.9906 73.1443 12.1145C73.1133 12.3004 73.0823 12.5482 73.0204 12.7651Z" fill="#5D69BE"/>
<path d="M66.0469 16.1729C65.923 16.1419 65.799 16.08 65.706 16.049C65.644 16.018 65.5821 15.987 65.5201 15.987C65.4581 15.9561 65.3961 15.9251 65.3341 15.9251C64.8692 15.7392 64.4353 15.4913 64.0634 15.2745C63.6605 15.0576 63.3505 14.8717 63.1336 14.7168C63.0096 14.6548 62.9476 14.5619 62.8856 14.5309C62.8237 14.4999 62.7927 14.4689 62.7927 14.4689C62.7927 14.4689 62.8547 14.4379 62.9166 14.407C63.0096 14.376 63.1336 14.314 63.2886 14.283C63.5985 14.1901 64.0634 14.0352 64.5903 13.9113C64.8382 13.8493 65.1172 13.7873 65.4271 13.7254C65.5821 13.6944 65.706 13.6634 65.861 13.6634C66.016 13.6324 66.1399 13.6324 66.2949 13.6324C66.8838 13.5705 67.4726 13.5705 67.9995 13.6634C68.5264 13.7563 68.9293 13.9422 69.3012 14.1281C69.4872 14.2211 69.6422 14.345 69.7661 14.4689C69.8901 14.5929 70.0141 14.7168 70.1071 14.8407C70.51 15.3054 70.6339 15.7082 70.6339 15.7082C70.6339 15.7082 70.169 15.9561 69.4562 16.1729C69.0843 16.2659 68.6814 16.3588 68.2165 16.3898C67.7516 16.4208 67.2867 16.4208 66.7908 16.3278C66.5428 16.2969 66.2949 16.2349 66.0469 16.1729Z" fill="#5D69BE"/>
<path d="M64.6833 7.62201C64.5903 7.8079 64.5284 7.93182 64.5284 7.93182C64.5284 7.93182 64.4974 7.93182 64.4664 7.90084C64.4044 7.86986 64.3424 7.83888 64.2494 7.8079C64.0635 7.71495 63.8465 7.59102 63.5676 7.40513C63.0717 7.00237 62.4208 6.41372 62.0489 5.4223C61.9249 5.0815 61.801 4.7407 61.677 4.33794C61.553 3.84223 61.429 3.34652 61.3361 2.85081C61.2431 2.3551 61.1501 1.89038 61.0881 1.45663C60.9641 0.620124 60.8712 0.0314701 60.8712 0.000488281C60.8712 0.000488281 61.1811 0.186379 61.615 0.496197C61.8319 0.651106 62.0799 0.836996 62.3588 1.05387C62.6378 1.27074 62.9167 1.5186 63.1956 1.79743C63.3506 1.95234 63.5366 2.13823 63.6915 2.32412C63.7225 2.3551 63.7845 2.41707 63.8155 2.44805C63.8465 2.47903 63.8775 2.54099 63.9395 2.60296C64.0015 2.6959 64.0944 2.78885 64.1564 2.88179C64.4354 3.25357 64.6833 3.65634 64.8383 4.0591C64.9623 4.30696 65.0242 4.58579 65.0552 4.83365C65.1172 5.0815 65.1172 5.32935 65.1172 5.54623C65.1172 6.01095 65.0552 6.41372 64.9623 6.7855C64.8693 7.15728 64.7763 7.43611 64.6833 7.62201Z" fill="#5D69BE"/>
<path d="M57.9572 10.5032C57.6473 10.4412 57.3684 10.3792 57.1204 10.3173C56.8415 10.2553 56.6245 10.1933 56.4076 10.1314C56.0047 10.0074 55.7567 9.9145 55.7567 9.9145C55.7567 9.9145 56.2216 9.5737 56.9035 9.13995C57.2444 8.92308 57.6473 8.70621 58.1122 8.48934C58.5461 8.27246 59.011 8.08657 59.4759 7.96265C59.8478 7.8697 60.1887 7.77676 60.5297 7.74577C61.5524 7.65283 62.3893 7.96265 62.8851 8.30345C63.1331 8.48934 63.319 8.64425 63.474 8.79915C63.536 8.86112 63.598 8.92308 63.629 8.95406C63.66 8.98504 63.66 9.01603 63.66 9.01603C63.66 9.01603 63.567 9.10897 63.381 9.2329C63.1951 9.35683 62.9471 9.5737 62.6372 9.75959C62.3273 9.94548 61.9244 10.1624 61.5214 10.3173C61.3045 10.4102 61.0875 10.4722 60.8706 10.5341C60.6536 10.5961 60.4057 10.6271 60.1577 10.6581C59.4449 10.751 58.6701 10.6271 57.9572 10.5032Z" fill="#5D69BE"/>
<path d="M47.1408 69.5548C47.3268 69.5239 47.5747 69.4929 47.8537 69.4619C47.9777 69.4309 48.1326 69.4309 48.2876 69.3999C48.4425 69.369 48.5975 69.338 48.7835 69.307C49.1244 69.245 49.4963 69.1831 49.8992 69.1211C50.2711 69.0282 50.7051 68.9352 51.108 68.8423C51.3249 68.7803 51.5419 68.7493 51.7588 68.6874C51.9758 68.6254 52.1927 68.5634 52.4097 68.5015C52.8436 68.3775 53.3085 68.2846 53.7424 68.1297C55.509 67.603 57.2136 66.8594 58.4533 66.2708C58.7633 66.1159 59.0422 65.9919 59.2902 65.868C59.4141 65.8061 59.5381 65.7441 59.6311 65.6821C59.7241 65.6202 59.848 65.5582 59.91 65.5272C60.251 65.3413 60.4679 65.2174 60.4679 65.2174C60.4679 65.2174 60.6849 65.0935 61.0258 64.9076C61.3667 64.7217 61.8626 64.3809 62.4515 64.0401C63.5982 63.2965 65.0859 62.2431 66.4806 61.0349C67.8443 59.8266 69.115 58.5253 70.0138 57.5029C70.1378 57.379 70.2308 57.2551 70.3237 57.1312C70.4167 57.0072 70.5097 56.9143 70.6027 56.7904C70.7886 56.5735 70.9436 56.3876 71.0676 56.2327C71.1915 56.0778 71.2845 55.9538 71.3465 55.8609C71.4085 55.768 71.4395 55.737 71.4395 55.737C71.4395 55.737 71.5635 55.5511 71.8114 55.2413C71.9354 55.0864 72.0903 54.9005 72.2453 54.6526C72.4003 54.4357 72.5862 54.1569 72.7412 53.8781C72.8342 53.7541 72.9272 53.5992 73.0511 53.4443C73.1441 53.2894 73.2371 53.1345 73.3301 52.9486C73.516 52.6078 73.733 52.267 73.9499 51.8952C74.1359 51.5235 74.3529 51.1517 74.5698 50.7489C74.6318 50.656 74.6628 50.563 74.7248 50.4391C74.7558 50.3461 74.8177 50.2222 74.8797 50.1293C74.9727 49.9124 75.0657 49.7265 75.1587 49.5096C75.9025 47.8676 76.5224 46.1946 76.8943 44.8934C76.9563 44.7384 76.9873 44.5835 77.0183 44.4286C77.0493 44.2737 77.1112 44.1498 77.1422 44.0259C77.2042 43.747 77.2662 43.5302 77.2972 43.3443C77.3902 42.9725 77.4522 42.7556 77.4522 42.7556C77.4522 42.7556 77.4522 42.6936 77.4832 42.6007C77.5142 42.5078 77.5451 42.3528 77.5761 42.167C77.6071 41.9811 77.6691 41.7332 77.7001 41.4854C77.7621 41.2065 77.8241 40.9277 77.8551 40.5869C77.8861 40.2461 77.9481 39.9053 78.01 39.5335C78.01 39.4406 78.041 39.3476 78.041 39.2547C78.041 39.1617 78.072 39.0688 78.072 38.9449C78.072 38.759 78.103 38.5421 78.103 38.3252C78.196 37.4887 78.196 36.5902 78.227 35.7228C78.196 34.8243 78.196 33.9258 78.103 33.1203C78.072 32.9034 78.072 32.7175 78.072 32.5006C78.072 32.4077 78.041 32.3148 78.041 32.1908C78.041 32.0979 78.01 32.0049 78.01 31.912C77.9481 31.5402 77.9171 31.1684 77.8551 30.8586C77.8241 30.5178 77.7621 30.239 77.7001 29.9601C77.6381 29.6813 77.6071 29.4644 77.5761 29.2785C77.5451 29.0927 77.5142 28.9377 77.4832 28.8448C77.4522 28.7519 77.4522 28.6899 77.4522 28.6899C77.4522 28.6899 77.3902 28.473 77.2972 28.1012C77.2662 27.9153 77.2042 27.6675 77.1422 27.4196C77.1112 27.2957 77.0803 27.1408 77.0183 26.9859C76.9873 26.831 76.9253 26.6761 76.8943 26.5212C76.5534 25.2199 75.9025 23.5469 75.1587 21.9049C75.0657 21.719 74.9727 21.5021 74.8797 21.2852C74.8177 21.1923 74.7868 21.0994 74.7248 20.9754C74.6628 20.8825 74.6318 20.7895 74.5698 20.6656C74.3529 20.2628 74.1669 19.8911 73.9499 19.5193C73.733 19.1475 73.516 18.8067 73.3301 18.4659C73.2371 18.311 73.1441 18.1251 73.0511 17.9702C72.9582 17.8153 72.8652 17.6604 72.7412 17.5364C72.5552 17.2576 72.3693 17.0098 72.2453 16.7619C72.0903 16.545 71.9354 16.3591 71.8114 16.1732C71.5635 15.8634 71.4395 15.6775 71.4395 15.6775C71.4395 15.6775 71.4085 15.6466 71.3465 15.5536C71.2845 15.4607 71.1915 15.3367 71.0676 15.1818C70.9436 15.0269 70.7886 14.841 70.6027 14.6242C70.5097 14.5312 70.4167 14.4073 70.3237 14.2834C70.2308 14.1594 70.1378 14.0355 70.0138 13.9116C69.115 12.8892 67.8443 11.5879 66.4806 10.3797C65.1169 9.17137 63.5982 8.11799 62.4515 7.37443C61.8626 7.00264 61.3977 6.69283 61.0258 6.50694C60.6849 6.32104 60.4679 6.19712 60.4679 6.19712C60.4679 6.19712 60.251 6.07319 59.91 5.8873C59.817 5.82534 59.7241 5.79435 59.6311 5.73239C59.5071 5.67043 59.4141 5.60846 59.2902 5.5465C59.1972 5.51552 59.1042 5.45355 59.0112 5.42257C59.0112 5.42257 59.0112 5.42257 58.9802 5.42257C58.7633 5.45355 58.4533 5.45355 58.0814 5.42257C57.3376 5.39159 56.3768 5.23668 55.509 4.77196C55.0751 4.55508 54.6412 4.24527 54.3003 3.90447C54.1143 3.74956 53.9283 3.56367 53.7734 3.40876C53.6184 3.25385 53.4325 3.06796 53.3085 2.91305C53.0295 2.57225 52.7816 2.29341 52.6266 2.10752C52.4717 1.89065 52.3787 1.76672 52.3787 1.76672C52.3787 1.76672 52.5956 1.76672 52.9366 1.76672C53.2775 1.76672 53.7424 1.76672 54.3003 1.82869C54.4242 1.82869 54.5792 1.85967 54.7032 1.85967C54.8271 1.89065 54.9821 1.89065 55.1371 1.92163C55.416 1.95261 55.7259 2.01458 56.0049 2.07654C56.5938 2.20047 57.1516 2.38636 57.6165 2.63421C58.0814 2.88207 58.4224 3.19189 58.6703 3.5017C58.9182 3.81152 59.0732 4.12134 59.1972 4.43116C59.3212 4.70999 59.3521 4.95785 59.3831 5.14374C59.3831 5.17472 59.3831 5.2057 59.3831 5.23668C59.4141 5.26766 59.4451 5.26766 59.4761 5.29865C59.6001 5.36061 59.7241 5.42257 59.817 5.48454C59.941 5.5465 60.034 5.60846 60.127 5.63945C60.4679 5.82534 60.6849 5.94926 60.6849 5.94926C60.6849 5.94926 60.9018 6.07319 61.2427 6.25908C61.5837 6.44497 62.0796 6.78577 62.6684 7.12657C63.8152 7.90111 65.3338 8.9545 66.7285 10.1628C68.1232 11.3711 69.3939 12.7033 70.2927 13.7257C70.4167 13.8496 70.5097 13.9735 70.6027 14.0975C70.6957 14.2214 70.7886 14.3453 70.8816 14.4383C71.0676 14.6551 71.2225 14.841 71.3465 14.9959C71.4705 15.1509 71.5635 15.2748 71.6255 15.3677C71.6874 15.4607 71.7184 15.4917 71.7184 15.4917C71.7184 15.4917 71.8424 15.6775 72.0903 15.9874C72.2143 16.1423 72.3693 16.3282 72.5243 16.576C72.6792 16.7929 72.8342 17.0717 73.0511 17.3506C73.1441 17.5055 73.2371 17.6294 73.3611 17.7843C73.4541 17.9392 73.547 18.0941 73.671 18.28C73.888 18.6208 74.0739 18.9616 74.2909 19.3334C74.5078 19.7052 74.6938 20.1079 74.9107 20.4797C74.9727 20.5727 75.0037 20.6656 75.0657 20.7895C75.0967 20.8825 75.1587 21.0064 75.2207 21.0994C75.3136 21.3162 75.4066 21.5021 75.4996 21.719C76.2744 23.361 76.8943 25.065 77.2352 26.3663C77.2662 26.5212 77.3282 26.6761 77.3592 26.831C77.3902 26.9859 77.4522 27.1098 77.4832 27.2647C77.5452 27.5436 77.6071 27.7604 77.6381 27.9463C77.7311 28.3181 77.7931 28.535 77.7931 28.535C77.7931 28.535 77.8241 28.5969 77.8241 28.6899C77.8551 28.7828 77.8861 28.9377 77.9171 29.1546C77.9481 29.3405 78.01 29.5884 78.041 29.8672C78.072 30.146 78.165 30.4558 78.196 30.7657C78.227 31.1065 78.289 31.4782 78.351 31.85C78.351 31.943 78.382 32.0359 78.382 32.1289C78.382 32.2218 78.413 32.3148 78.413 32.4387C78.444 32.6246 78.444 32.8414 78.4749 33.0583C78.5679 33.8948 78.5679 34.7933 78.5989 35.6918C78.5679 36.5902 78.5679 37.4887 78.4749 38.3252C78.444 38.5421 78.444 38.728 78.413 38.9449C78.413 39.0378 78.413 39.1617 78.382 39.2547C78.382 39.3476 78.351 39.4406 78.351 39.5335C78.289 39.9053 78.258 40.2771 78.196 40.6179C78.165 40.9587 78.072 41.2685 78.041 41.5163C77.9791 41.7952 77.9481 42.012 77.9171 42.2289C77.8861 42.4148 77.8551 42.5697 77.8241 42.6936C77.7931 42.7866 77.7931 42.8486 77.7931 42.8486C77.7931 42.8486 77.7311 43.0654 77.6381 43.4372C77.6071 43.6231 77.5452 43.871 77.4832 44.1188C77.4522 44.2427 77.4212 44.3976 77.3592 44.5526C77.3282 44.7075 77.2662 44.8624 77.2352 45.0173C76.8633 46.3185 76.2434 48.0225 75.4996 49.6645C75.4066 49.8814 75.3136 50.0673 75.2207 50.2842C75.1897 50.3771 75.1277 50.5011 75.0657 50.594C75.0037 50.6869 74.9727 50.7799 74.9107 50.9038C74.6938 51.3066 74.5078 51.6784 74.2909 52.0501C74.0739 52.4219 73.857 52.7627 73.671 53.1035C73.578 53.2584 73.485 53.4443 73.3611 53.5992C73.2681 53.7541 73.1751 53.909 73.0511 54.033C72.8652 54.3118 72.6792 54.5907 72.5243 54.8075C72.3693 55.0244 72.2143 55.2413 72.0903 55.3962C71.8424 55.706 71.7184 55.8919 71.7184 55.8919C71.7184 55.8919 71.6874 55.9538 71.6255 56.0158C71.5635 56.1088 71.4705 56.2327 71.3465 56.3876C71.2225 56.5425 71.0676 56.7284 70.8816 56.9453C70.7886 57.0382 70.6957 57.1621 70.6027 57.2861C70.5097 57.41 70.4167 57.5339 70.2927 57.6578C69.3939 58.6802 68.1232 60.0125 66.7285 61.2207C65.3338 62.429 63.8152 63.5134 62.6684 64.257C62.0796 64.6287 61.5837 64.9386 61.2427 65.1245C60.9018 65.3103 60.6849 65.4343 60.6849 65.4343C60.6849 65.4343 60.4679 65.5582 60.127 65.7441C60.034 65.8061 59.941 65.837 59.817 65.899C59.7241 65.961 59.6001 66.0229 59.4761 66.0849C59.2282 66.2088 58.9492 66.3637 58.6083 66.5186C57.3376 67.1073 55.633 67.8509 53.8354 68.3775C53.4015 68.5324 52.9366 68.6254 52.5027 68.7493C52.2857 68.8113 52.0687 68.8732 51.8518 68.9352C51.6348 68.9972 51.4179 69.0282 51.2009 69.0901C50.767 69.1831 50.3641 69.276 49.9612 69.369C49.5583 69.4309 49.1864 69.4929 48.8455 69.5548C48.6595 69.5858 48.5045 69.6168 48.3496 69.6478C48.1946 69.6788 48.0396 69.6788 47.8847 69.7098C47.6057 69.7407 47.3578 69.7717 47.1408 69.8027C46.7379 69.8647 46.49 69.8956 46.49 69.8956L46.459 69.5548C46.521 69.6478 46.7379 69.6168 47.1408 69.5548Z" fill="#5D69BE"/>
<path fill-rule="evenodd" clip-rule="evenodd" d="M60.2041 22.35C60.439 22.8623 60.4978 23.4883 60.2629 24.0574C59.9979 24.8279 59.6442 25.7986 59.2909 26.7687C58.9393 27.7336 58.588 28.698 58.3244 29.4642C58.1483 30.0333 57.6785 30.4887 57.1496 30.7164C56.6211 30.944 55.9749 31.001 55.3875 30.7732C55.3875 30.7732 54.9177 30.6025 54.2128 30.3749V28.2691C54.2128 27.4722 53.8606 26.6755 53.2732 26.1064C52.6859 25.5372 51.8633 25.1957 51.041 25.1957H48.7504L50.4537 20.5858C50.6301 20.0166 51.0998 19.5613 51.6284 19.3337C52.157 19.106 52.8032 19.0491 53.3905 19.2767C54.1824 19.5609 55.1647 19.9019 56.1473 20.2429C57.1324 20.5848 58.1179 20.9268 58.9118 21.2117C59.4991 21.3825 59.9692 21.8378 60.2041 22.35ZM52.2746 22.1794C52.157 22.5777 52.3922 23.0331 52.8032 23.2037C53.2732 23.3745 53.743 23.1469 53.8606 22.6915C53.9779 22.2932 53.743 21.8378 53.3317 21.6671C52.9207 21.5533 52.4507 21.7809 52.2746 22.1794ZM53.5669 24.7405C53.4493 25.1389 53.6842 25.5942 54.0955 25.7648C54.5065 25.9356 55.0353 25.651 55.1526 25.2527C55.2702 24.8543 55.0353 24.399 54.6241 24.2282C54.2128 24.1144 53.743 24.342 53.5669 24.7405ZM55.3875 28.3829C55.7988 28.4967 56.2686 28.2691 56.445 27.8707C56.5623 27.4722 56.3274 27.017 55.9164 26.8463C55.5051 26.7325 55.0353 26.9601 54.859 27.3584C54.7838 27.6138 54.8532 27.8925 55.021 28.1047C55.1151 28.2235 55.2401 28.3216 55.3875 28.3829Z" fill="white"/>
<path fill-rule="evenodd" clip-rule="evenodd" d="M53.3317 28.269C53.3317 27.6998 53.0968 27.1307 52.6859 26.6755C52.2746 26.277 51.6872 26.0494 51.041 26.0494H45.1673C44.58 26.0494 43.9926 26.277 43.5228 26.6755C43.1115 27.1307 42.8766 27.6998 42.8766 28.269V33.9603C42.8766 34.5294 43.1115 35.0986 43.5228 35.5539C43.9338 35.9523 44.5212 36.18 45.1673 36.18H51.041C51.6284 36.18 52.2158 35.9523 52.6859 35.5539C53.0968 35.1555 53.3317 34.5864 53.3317 33.9603V28.269ZM45.9896 33.9603C45.5198 33.9603 45.1673 33.6189 45.1673 33.1636C45.1673 32.7082 45.5198 32.3668 45.9896 32.3668C46.4597 32.3668 46.8121 32.7082 46.8121 33.1636C46.8121 33.5619 46.4597 33.9603 45.9896 33.9603ZM45.9896 29.9195C45.5198 29.9195 45.1673 29.578 45.1673 29.1227C45.1673 28.6675 45.5198 28.3259 45.9896 28.3259C46.4597 28.3259 46.8121 28.6675 46.8121 29.1227C46.8121 29.5212 46.4597 29.9195 45.9896 29.9195ZM47.2819 31.1146C47.2819 30.6594 47.6344 30.3179 48.1042 30.3179C48.5743 30.3179 48.9265 30.6594 48.9265 31.1146C48.9265 31.57 48.5743 31.9115 48.1042 31.9115C47.6344 31.9115 47.2819 31.57 47.2819 31.1146ZM49.5133 33.6681C49.4023 33.5328 49.3377 33.3587 49.3377 33.1636C49.3377 32.7082 49.6902 32.3668 50.16 32.3668C50.6301 32.3668 50.9823 32.7082 50.9823 33.1636C51.041 33.5619 50.6301 33.9603 50.16 33.9603C49.8915 33.9603 49.6612 33.8487 49.5133 33.6681ZM50.16 29.9195C49.6902 29.9195 49.3377 29.578 49.3377 29.1227C49.3377 28.6675 49.6902 28.3259 50.16 28.3259C50.6301 28.3259 50.9823 28.6675 50.9823 29.1227C51.041 29.5212 50.6301 29.9195 50.16 29.9195Z" fill="white"/>
<path fill-rule="evenodd" clip-rule="evenodd" d="M22.1426 26.2771H25.4907C25.9017 26.2771 26.313 26.6755 26.313 27.0739V29.9195C26.313 30.3749 25.9605 30.7164 25.4907 30.7164C25.9605 30.7164 26.313 31.0578 26.313 31.5131V35.0417C26.313 35.4971 25.9605 35.8386 25.4907 35.8386H22.1426V26.2771ZM23.4934 34.5296H24.9033V31.3993H23.4934V34.5296ZM23.4934 30.0903H24.9033V27.643H23.4934V30.0903Z" fill="white"/>
<path d="M35.8282 32.2529V35.0417C35.8282 35.4971 35.4757 35.8385 35.0059 35.8385V35.8954H32.5389C32.0691 35.8954 31.7166 35.5539 31.7166 35.0986V33.2205H33.0674V34.5294H34.4774V32.5375L31.9515 30.0903C31.8801 29.9864 31.8084 29.8824 31.7636 29.7656C31.7347 29.6905 31.7166 29.6102 31.7166 29.5212V27.1307C31.7166 26.6755 32.0691 26.334 32.5389 26.334H35.0059C35.4757 26.334 35.8282 26.6755 35.8282 27.1307V28.8381H34.4774V27.586H33.0674V29.2366L35.5933 31.6838C35.7106 31.8545 35.8282 32.0253 35.8282 32.2529Z" fill="white"/>
<path d="M35.1235 43.1804L33.7724 38.5703H32.3628V48.1318H33.7724V43.1234L34.4186 45.4569H35.8282L36.5332 43.1234V48.1318H37.884V38.5703H36.5332L35.1235 43.1804Z" fill="white"/>
<path fill-rule="evenodd" clip-rule="evenodd" d="M27.0176 48.1318L28.4861 38.5703H30.5419L32.0103 48.1318H30.6007L30.3658 46.8228H28.6622L28.4273 48.1318H27.0176ZM29.4259 41.2453L28.7798 45.4569H30.0721L29.4259 41.2453Z" fill="white"/>
<path d="M25.4319 38.5703H22.9648C22.4951 38.5703 22.1426 38.9119 22.1426 39.3671V47.335C22.1426 47.7903 22.4951 48.1318 22.9648 48.1318H25.4319C25.9017 48.1318 26.2542 47.7903 26.2542 47.335V42.6113H24.1984V43.9202H24.9033V46.8228H23.4934V39.8794H24.9033V41.2453H26.2542V39.3671C26.2542 38.9119 25.9017 38.5703 25.4319 38.5703Z" fill="white"/>
<path d="M31.1292 35.8386H27.0176V26.2771H31.1292V27.643H28.3685V30.0903H30.307V31.3993H28.3685V34.5296H31.1292V35.8386Z" fill="white"/>
<path d="M39.2939 35.8386V27.643H40.7036V26.2771H36.5332V27.643H37.9428V35.8386H39.2939Z" fill="white"/>
<path d="M48.2806 48.1318V38.5703H52.451V39.8794H49.6902V42.3267H51.6287V43.6926H49.6902V46.7658H52.451V48.1318H48.2806Z" fill="white"/>
<path d="M62.1426 41.0177V39.3102C62.1426 38.8551 61.7901 38.5135 61.3203 38.5135H58.8532C58.3835 38.5135 58.031 38.8551 58.031 39.3102V41.7007C58.031 41.9283 58.1483 42.0991 58.2659 42.2699L60.7915 44.717V46.709H59.3818V45.4001H57.9722V47.2781C57.9722 47.7335 58.3247 48.075 58.7945 48.075H61.2615C61.7313 48.075 62.0838 47.7335 62.0838 47.2781V44.4894C62.0838 44.2618 61.9662 44.0911 61.8489 43.9203L59.323 41.473V39.8226H60.7329V41.0177H62.1426Z" fill="white"/>
<path fill-rule="evenodd" clip-rule="evenodd" d="M53.0971 38.5703H56.4453C56.915 38.5703 57.2675 38.9119 57.2675 39.3671V42.8958C57.2675 42.9485 57.2626 42.9996 57.2535 43.0488C57.2463 43.0879 57.2365 43.1258 57.2242 43.1623C57.2096 43.205 57.1915 43.2457 57.1703 43.2845C57.1617 43.2999 57.1528 43.3149 57.1433 43.3296C57.0923 43.4091 57.0269 43.4783 56.95 43.5343C56.8126 43.6345 56.6388 43.6926 56.4453 43.6926H56.1516L57.2675 48.1318H55.8579L54.8004 43.6926H54.448V48.1318H53.0971V38.5703ZM54.5068 42.3267H55.9164V39.8794H54.5068V42.3267Z" fill="white"/>
<path d="M44.8149 38.5703H43.464V48.1318H47.5756V46.7658H44.8149V38.5703Z" fill="white"/>
<path fill-rule="evenodd" clip-rule="evenodd" d="M38.589 38.5703H41.9371C42.3481 38.5703 42.7593 38.9119 42.7593 39.3671V42.2128C42.7593 42.6681 42.4069 43.0096 41.9371 43.0096C42.4069 43.0096 42.7593 43.351 42.7593 43.8064V47.335C42.7593 47.7903 42.4069 48.1318 41.9371 48.1318H38.589V38.5703ZM39.9398 46.7658H41.3497V43.6356H39.9398V46.7658ZM39.9398 42.3267H41.3497V39.8794H39.9398V42.3267Z" fill="white"/>
<path d="M36.6006 11.7387C36.6622 12.0465 36.7945 12.2804 36.9977 12.4405C37.2008 12.6005 37.4747 12.6805 37.8195 12.6805C38.2565 12.6805 38.5766 12.5082 38.7797 12.1635C38.9829 11.8188 39.0844 11.2309 39.0844 10.3999C38.9367 10.6092 38.7274 10.7723 38.4566 10.8892C38.1919 11 37.9026 11.0555 37.5886 11.0555C37.1885 11.0555 36.8253 10.9754 36.4991 10.8154C36.1728 10.6492 35.9143 10.406 35.7235 10.0859C35.5388 9.75969 35.4465 9.36572 35.4465 8.90405C35.4465 8.22693 35.6434 7.68831 36.0374 7.28819C36.4375 6.88192 36.9854 6.67878 37.681 6.67878C38.5181 6.67878 39.1121 6.95887 39.463 7.51903C39.82 8.07304 39.9986 8.9256 39.9986 10.0767C39.9986 10.8708 39.9308 11.5202 39.7954 12.025C39.6661 12.5297 39.4384 12.9114 39.1121 13.1699C38.7859 13.4285 38.3335 13.5577 37.7548 13.5577C37.0962 13.5577 36.5883 13.3854 36.2313 13.0406C35.8743 12.6959 35.6742 12.262 35.6311 11.7387H36.6006ZM37.7733 10.169C38.1426 10.169 38.4319 10.0552 38.6412 9.8274C38.8567 9.59348 38.9644 9.2857 38.9644 8.90405C38.9644 8.47931 38.8505 8.14998 38.6228 7.91607C38.4012 7.676 38.0965 7.55596 37.7087 7.55596C37.3208 7.55596 37.0131 7.67908 36.7853 7.9253C36.5637 8.16537 36.4529 8.48239 36.4529 8.87635C36.4529 9.25185 36.5606 9.56271 36.7761 9.80893C36.9977 10.049 37.3301 10.169 37.7733 10.169ZM41.7138 13.6316C41.523 13.6316 41.3629 13.567 41.2337 13.4377C41.1044 13.3084 41.0398 13.1484 41.0398 12.9575C41.0398 12.7667 41.1044 12.6067 41.2337 12.4774C41.3629 12.3481 41.523 12.2835 41.7138 12.2835C41.8985 12.2835 42.0555 12.3481 42.1847 12.4774C42.314 12.6067 42.3786 12.7667 42.3786 12.9575C42.3786 13.1484 42.314 13.3084 42.1847 13.4377C42.0555 13.567 41.8985 13.6316 41.7138 13.6316ZM43.9595 12.1358C44.5504 11.6248 45.0152 11.2063 45.3538 10.88C45.6985 10.5476 45.9847 10.2029 46.2125 9.84587C46.4402 9.48884 46.5541 9.13181 46.5541 8.77478C46.5541 8.40544 46.4648 8.11613 46.2863 7.90684C46.114 7.69754 45.84 7.5929 45.4646 7.5929C45.1014 7.5929 44.8182 7.70986 44.6151 7.94377C44.4181 8.17153 44.3134 8.47931 44.3011 8.86712H43.2855C43.3039 8.16537 43.5132 7.62983 43.9133 7.26049C44.3196 6.885 44.8336 6.69725 45.4553 6.69725C46.1263 6.69725 46.6495 6.88192 47.025 7.25126C47.4067 7.6206 47.5975 8.11305 47.5975 8.72861C47.5975 9.17182 47.4836 9.59964 47.2558 10.0121C47.0342 10.4183 46.7665 10.7846 46.4525 11.1109C46.1448 11.4309 45.7508 11.8034 45.2707 12.2281L44.8551 12.5974H47.7822V13.4746H43.2947V12.7082L43.9595 12.1358Z" fill="url(#paint0_linear_1_551)"/>
<path d="M31.3676 55.8291C31.3676 55.5753 31.4261 55.3476 31.5431 55.146C31.6625 54.9445 31.823 54.7877 32.0246 54.6757C32.2287 54.5613 32.4514 54.504 32.6927 54.504C32.969 54.504 33.2141 54.5725 33.4281 54.7093C33.6446 54.8437 33.8014 55.0353 33.8984 55.2842H33.387C33.3198 55.1473 33.2265 55.0453 33.1071 54.9781C32.9876 54.9109 32.8495 54.8773 32.6927 54.8773C32.521 54.8773 32.368 54.9159 32.2336 54.993C32.0993 55.0702 31.9935 55.1809 31.9164 55.3252C31.8417 55.4695 31.8044 55.6375 31.8044 55.8291C31.8044 56.0207 31.8417 56.1887 31.9164 56.333C31.9935 56.4774 32.0993 56.5894 32.2336 56.669C32.368 56.7461 32.521 56.7847 32.6927 56.7847C32.8495 56.7847 32.9876 56.7511 33.1071 56.6839C33.2265 56.6167 33.3198 56.5147 33.387 56.3778H33.8984C33.8014 56.6267 33.6446 56.8183 33.4281 56.9527C33.2141 57.087 32.969 57.1542 32.6927 57.1542C32.4489 57.1542 32.2262 57.0982 32.0246 56.9863C31.823 56.8718 31.6625 56.7138 31.5431 56.5122C31.4261 56.3106 31.3676 56.083 31.3676 55.8291ZM34.822 54.881V55.6425H35.7179V55.9896H34.822V56.7847H35.8298V57.1318H34.3965V54.5339H35.8298V54.881H34.822ZM37.7015 57.1318L37.1042 56.0942H36.7795V57.1318H36.354V54.5376H37.2498C37.4489 54.5376 37.6168 54.5725 37.7537 54.6421C37.8931 54.7118 37.9963 54.8051 38.0635 54.9221C38.1332 55.039 38.168 55.1697 38.168 55.314C38.168 55.4832 38.1183 55.6375 38.0187 55.7769C37.9217 55.9137 37.7711 56.0071 37.5671 56.0568L38.2091 57.1318H37.7015ZM36.7795 55.7545H37.2498C37.4091 55.7545 37.5285 55.7147 37.6081 55.635C37.6903 55.5554 37.7313 55.4484 37.7313 55.314C37.7313 55.1796 37.6915 55.0751 37.6119 55.0005C37.5322 54.9233 37.4115 54.8848 37.2498 54.8848H36.7795V55.7545ZM39.1379 54.5376V57.1318H38.7124V54.5376H39.1379ZM41.2233 54.5376V54.8848H40.1221V55.65H40.9806V55.9971H40.1221V57.1318H39.6966V54.5376H41.2233ZM42.0431 54.5376V57.1318H41.6176V54.5376H42.0431ZM42.46 55.8291C42.46 55.5753 42.5185 55.3476 42.6354 55.146C42.7549 54.9445 42.9154 54.7877 43.1169 54.6757C43.321 54.5613 43.5437 54.504 43.7851 54.504C44.0613 54.504 44.3064 54.5725 44.5204 54.7093C44.7369 54.8437 44.8937 55.0353 44.9907 55.2842H44.4794C44.4122 55.1473 44.3189 55.0453 44.1994 54.9781C44.08 54.9109 43.9419 54.8773 43.7851 54.8773C43.6134 54.8773 43.4603 54.9159 43.326 54.993C43.1916 55.0702 43.0858 55.1809 43.0087 55.3252C42.934 55.4695 42.8967 55.6375 42.8967 55.8291C42.8967 56.0207 42.934 56.1887 43.0087 56.333C43.0858 56.4774 43.1916 56.5894 43.326 56.669C43.4603 56.7461 43.6134 56.7847 43.7851 56.7847C43.9419 56.7847 44.08 56.7511 44.1994 56.6839C44.3189 56.6167 44.4122 56.5147 44.4794 56.3778H44.9907C44.8937 56.6267 44.7369 56.8183 44.5204 56.9527C44.3064 57.087 44.0613 57.1542 43.7851 57.1542C43.5412 57.1542 43.3185 57.0982 43.1169 56.9863C42.9154 56.8718 42.7549 56.7138 42.6354 56.5122C42.5185 56.3106 42.46 56.083 42.46 55.8291ZM47.0528 56.6018H45.9666L45.78 57.1318H45.3358L46.2652 54.5339H46.7579L47.6874 57.1318H47.2394L47.0528 56.6018ZM46.9334 56.2547L46.5116 55.049L46.086 56.2547H46.9334ZM49.7675 54.5376V54.8848H49.0769V57.1318H48.6514V54.8848H47.9571V54.5376H49.7675ZM50.6239 54.881V55.6425H51.5198V55.9896H50.6239V56.7847H51.6318V57.1318H50.1984V54.5339H51.6318V54.881H50.6239ZM34.406 61.158C34.1646 61.158 33.9419 61.102 33.7378 60.99C33.5363 60.8755 33.3758 60.7175 33.2563 60.5159C33.1394 60.3119 33.0809 60.083 33.0809 59.8291C33.0809 59.5753 33.1394 59.3476 33.2563 59.146C33.3758 58.9445 33.5363 58.7877 33.7378 58.6757C33.9419 58.5613 34.1646 58.504 34.406 58.504C34.6499 58.504 34.8726 58.5613 35.0741 58.6757C35.2782 58.7877 35.4387 58.9445 35.5557 59.146C35.6726 59.3476 35.7311 59.5753 35.7311 59.8291C35.7311 60.083 35.6726 60.3119 35.5557 60.5159C35.4387 60.7175 35.2782 60.8755 35.0741 60.99C34.8726 61.102 34.6499 61.158 34.406 61.158ZM34.406 60.7884C34.5777 60.7884 34.7307 60.7499 34.8651 60.6727C34.9995 60.5931 35.104 60.4811 35.1787 60.3368C35.2558 60.19 35.2944 60.0207 35.2944 59.8291C35.2944 59.6375 35.2558 59.4695 35.1787 59.3252C35.104 59.1809 34.9995 59.0702 34.8651 58.993C34.7307 58.9159 34.5777 58.8773 34.406 58.8773C34.2343 58.8773 34.0812 58.9159 33.9469 58.993C33.8125 59.0702 33.7067 59.1809 33.6296 59.3252C33.5549 59.4695 33.5176 59.6375 33.5176 59.8291C33.5176 60.0207 33.5549 60.19 33.6296 60.3368C33.7067 60.4811 33.8125 60.5931 33.9469 60.6727C34.0812 60.7499 34.2343 60.7884 34.406 60.7884ZM37.6765 58.5376V58.8848H36.5754V59.65H37.4339V59.9971H36.5754V61.1318H36.1498V58.5376H37.6765ZM40.7164 58.5376V58.8848H40.0259V61.1318H39.6004V58.8848H38.9061V58.5376H40.7164ZM42.4949 61.1318L41.8977 60.0942H41.5729V61.1318H41.1474V58.5376H42.0432C42.2423 58.5376 42.4103 58.5725 42.5471 58.6421C42.6865 58.7118 42.7898 58.8051 42.857 58.9221C42.9266 59.039 42.9615 59.1697 42.9615 59.314C42.9615 59.4832 42.9117 59.6375 42.8122 59.7769C42.7151 59.9137 42.5646 60.0071 42.3605 60.0568L43.0025 61.1318H42.4949ZM41.5729 59.7545H42.0432C42.2025 59.7545 42.3219 59.7147 42.4016 59.635C42.4837 59.5554 42.5247 59.4484 42.5247 59.314C42.5247 59.1796 42.4849 59.0751 42.4053 59.0005C42.3257 58.9233 42.205 58.8848 42.0432 58.8848H41.5729V59.7545ZM43.9276 58.5376V60.1912C43.9276 60.3878 43.9786 60.5359 44.0807 60.6354C44.1852 60.7349 44.3295 60.7847 44.5137 60.7847C44.7003 60.7847 44.8446 60.7349 44.9466 60.6354C45.0512 60.5359 45.1034 60.3878 45.1034 60.1912V58.5376H45.5289V60.1837C45.5289 60.3953 45.4829 60.5744 45.3908 60.7212C45.2988 60.8681 45.1756 60.9776 45.0213 61.0497C44.867 61.1219 44.6966 61.158 44.5099 61.158C44.3233 61.158 44.1528 61.1219 43.9985 61.0497C43.8467 60.9776 43.7261 60.8681 43.6365 60.7212C43.5469 60.5744 43.5021 60.3953 43.5021 60.1837V58.5376H43.9276ZM46.9378 61.158C46.7636 61.158 46.6068 61.1281 46.4675 61.0684C46.3281 61.0062 46.2186 60.9191 46.139 60.8071C46.0593 60.6951 46.0195 60.5645 46.0195 60.4152H46.4749C46.4849 60.5271 46.5284 60.6192 46.6056 60.6914C46.6852 60.7635 46.7959 60.7996 46.9378 60.7996C47.0846 60.7996 47.1991 60.7648 47.2812 60.6951C47.3633 60.6229 47.4044 60.5309 47.4044 60.4189C47.4044 60.3318 47.3782 60.2609 47.326 60.2061C47.2762 60.1514 47.2127 60.1091 47.1356 60.0792C47.0609 60.0494 46.9564 60.017 46.8221 59.9822C46.6528 59.9374 46.5147 59.8926 46.4077 59.8478C46.3032 59.8005 46.2136 59.7283 46.139 59.6313C46.0643 59.5342 46.027 59.4048 46.027 59.2431C46.027 59.0938 46.0643 58.9631 46.139 58.8512C46.2136 58.7392 46.3181 58.6533 46.4525 58.5936C46.5869 58.5339 46.7424 58.504 46.9191 58.504C47.1704 58.504 47.3757 58.5675 47.535 58.6944C47.6967 58.8188 47.7863 58.9905 47.8038 59.2095H47.3334C47.326 59.1149 47.2812 59.0341 47.1991 58.9669C47.1169 58.8997 47.0087 58.8661 46.8743 58.8661C46.7524 58.8661 46.6528 58.8972 46.5757 58.9594C46.4986 59.0216 46.46 59.1112 46.46 59.2282C46.46 59.3078 46.4836 59.3737 46.5309 59.426C46.5807 59.4758 46.6429 59.5156 46.7175 59.5454C46.7922 59.5753 46.8942 59.6077 47.0236 59.6425C47.1953 59.6898 47.3347 59.7371 47.4417 59.7843C47.5512 59.8316 47.6432 59.905 47.7179 60.0046C47.795 60.1016 47.8336 60.2323 47.8336 60.3965C47.8336 60.5284 47.7975 60.6528 47.7254 60.7698C47.6557 60.8867 47.5524 60.9813 47.4156 61.0534C47.2812 61.1231 47.1219 61.158 46.9378 61.158ZM50.0117 58.5376V58.8848H49.3211V61.1318H48.8956V58.8848H48.2013V58.5376H50.0117Z" fill="url(#paint1_linear_1_551)"/>
<defs>
<linearGradient id="paint0_linear_1_551" x1="34.7506" y1="4.22655" x2="51.1636" y2="10.2542" gradientUnits="userSpaceOnUse">
<stop stop-color="#42E8FF"/>
<stop offset="0.197917" stop-color="#5BBFD6"/>
<stop offset="0.357891" stop-color="#2CA0E1"/>
<stop offset="0.859375" stop-color="#76D6FF"/>
<stop offset="1" stop-color="#0185FF"/>
</linearGradient>
<linearGradient id="paint1_linear_1_551" x1="31.0754" y1="54.5087" x2="45.557" y2="68.4694" gradientUnits="userSpaceOnUse">
<stop stop-color="#42E8FF"/>
<stop offset="0.197917" stop-color="#5BBFD6"/>
<stop offset="0.357891" stop-color="#2CA0E1"/>
<stop offset="0.859375" stop-color="#76D6FF"/>
<stop offset="1" stop-color="#0185FF"/>
</linearGradient>
</defs>
</svg>
