<svg width="639" height="83" viewBox="0 0 639 83" fill="none" xmlns="http://www.w3.org/2000/svg">
<g clip-path="url(#clip0_1_479)">
<path d="M42.7543 40.282L22.3682 53.0476V78.5785L42.7543 65.8131V40.282Z" fill="#FFF200"/>
<path d="M22.3682 27.5166L1.98203 40.2819V14.751L22.3682 1.98553V27.5166Z" fill="#21DFF3"/>
<path d="M42.7543 40.2821L22.3682 53.0476L1.98203 40.2821L22.3682 27.5165L42.7543 40.2821Z" fill="#FF0078"/>
<path d="M1.98203 40.2821L22.3682 27.5165" stroke="#0A0A0A" stroke-width="1.12639" stroke-miterlimit="10"/>
<path d="M22.3682 53.0476L42.7543 40.282" stroke="#0A0A0A" stroke-width="1.12639" stroke-miterlimit="10"/>
<path d="M1.98203 65.8133L22.3682 53.0478V78.5788L1.98203 65.8133Z" fill="#A42EFF"/>
<path d="M40.0927 38.6139L23.6989 28.3506C22.8722 27.8314 22.3682 26.9237 22.3682 25.9449V1.98553L1.98203 14.751V37.1388C1.98203 39.0962 2.98717 40.9146 4.64354 41.95L21.0375 52.2164C21.8642 52.7354 22.3682 53.6433 22.3682 54.622V78.5813L42.7543 65.8158V43.428C42.7543 41.4706 41.7492 39.6522 40.0927 38.6139Z" stroke="#0A0A0A" stroke-width="3.51996" stroke-miterlimit="10" stroke-linecap="round" stroke-linejoin="round"/>
<path d="M22.3682 78.5785L1.98203 65.813L21.094 53.7567" stroke="#0A0A0A" stroke-width="3.51996" stroke-miterlimit="10" stroke-linecap="round" stroke-linejoin="round"/>
<path d="M84.1047 39.431C84.4132 39.1502 84.685 38.841 84.9257 38.5005C85.2231 38.0751 85.4269 37.6041 85.5544 37.0992C85.6932 36.5574 85.761 35.9929 85.761 35.4256C85.761 34.5064 85.6109 33.6611 85.3165 32.9121C85.0163 32.1575 84.5746 31.4824 84.0056 30.9121C83.2808 30.186 82.4114 29.6356 81.4261 29.2726C80.4606 28.9179 79.4328 28.7364 78.3711 28.7364H66.7198C66.3064 28.7364 65.9694 29.074 65.9694 29.4882V52.0773C65.9694 52.4916 66.3064 52.8291 66.7198 52.8291H78.8212C79.9878 52.8291 81.0835 52.6277 82.0831 52.2306C83.0768 51.8363 83.9715 51.2718 84.736 50.5596C85.458 49.8903 86.03 49.0846 86.4349 48.1654C86.8369 47.2463 87.0409 46.2336 87.0409 45.1584C87.0409 43.5784 86.6161 42.1798 85.7667 40.9855C85.2967 40.3643 84.7389 39.8424 84.1047 39.431ZM78.8694 47.8705H71.4482V42.4522H79.0591C79.4554 42.4522 79.8293 42.5345 80.2001 42.7075C80.5795 42.8834 80.8938 43.1075 81.1374 43.3713C81.4998 43.7912 81.6753 44.3642 81.6753 45.1245C81.6753 45.5131 81.613 45.8819 81.4941 46.2166C81.3781 46.5344 81.2251 46.7868 81.0439 46.9711C80.7552 47.2406 80.4154 47.4619 80.0302 47.6294C79.6509 47.791 79.2742 47.8705 78.8694 47.8705ZM79.9001 36.9432C79.7584 37.1049 79.5857 37.2353 79.3761 37.3461C79.1921 37.4424 78.9883 37.4878 78.7534 37.4878H71.4482V33.6951H78.1559C78.8779 33.6951 79.43 33.8794 79.8462 34.2624C80.1917 34.5745 80.3587 35.0142 80.3587 35.6099C80.3559 36.1433 80.203 36.583 79.9001 36.9432Z" fill="white"/>
<path d="M97.0181 28.7364H93.0399C92.6238 28.7364 92.2897 29.074 92.2897 29.4882V52.0773C92.2897 52.4916 92.6266 52.8291 93.0399 52.8291H110.051C110.467 52.8291 110.801 52.4916 110.801 52.0773V48.5088C110.801 48.0946 110.465 47.757 110.051 47.757H97.7684V29.491C97.7684 29.074 97.4315 28.7364 97.0181 28.7364Z" fill="white"/>
<path d="M134.11 31.6185C132.991 30.4979 131.649 29.6185 130.118 29.0031C128.594 28.3932 126.887 28.0839 125.047 28.0839C123.147 28.0839 121.383 28.4272 119.808 29.1051C118.229 29.7832 116.861 30.7363 115.745 31.9334C114.681 33.0511 113.846 34.3617 113.262 35.8254C112.679 37.2892 112.382 38.8778 112.382 40.5488C112.382 42.1459 112.685 43.6976 113.282 45.1641C113.879 46.6251 114.692 47.9159 115.703 49.0051C116.818 50.2023 118.189 51.1781 119.772 51.9072C121.366 52.639 123.141 53.0107 125.047 53.0107C126.941 53.0107 128.682 52.6816 130.225 52.0291C131.763 51.3766 133.122 50.4518 134.266 49.2831C135.359 48.1626 136.208 46.8435 136.794 45.3627C137.377 43.8876 137.675 42.2678 137.675 40.5488C137.675 38.8268 137.366 37.1871 136.754 35.6723C136.143 34.1546 135.257 32.7929 134.11 31.6185ZM132.196 40.5458C132.196 41.6039 132.023 42.5826 131.681 43.4479C131.338 44.316 130.868 45.0762 130.282 45.7088C129.625 46.4123 128.838 46.9655 127.943 47.3485C126.131 48.1285 123.886 48.1172 122.119 47.3315C121.227 46.9372 120.454 46.3812 119.814 45.672C119.225 45.0365 118.747 44.2734 118.39 43.4026C118.039 42.5402 117.86 41.5784 117.86 40.543C117.86 39.4849 118.039 38.509 118.39 37.6467C118.744 36.7758 119.225 36.0099 119.811 35.3772C120.468 34.6738 121.252 34.1233 122.147 33.7375C123.045 33.3517 124.019 33.1561 125.044 33.1561C126.043 33.1561 127.006 33.3517 127.904 33.7375C128.801 34.1263 129.591 34.668 130.248 35.3489C130.834 35.9588 131.31 36.7106 131.661 37.5872C132.018 38.4694 132.196 39.4651 132.196 40.5458Z" fill="white"/>
<path d="M148.306 35.4508C148.963 34.7898 149.731 34.2791 150.591 33.9274C152.505 33.1417 154.943 33.2608 156.735 34.0324C157.506 34.3643 159.139 35.6125 159.856 36.1742C160.057 36.3302 160.337 36.3018 160.506 36.1118L163.237 33.0367C163.421 32.8296 163.398 32.5148 163.179 32.3416C162.245 31.6041 159.884 29.7858 158.697 29.2837C157.182 28.6453 155.404 28.3219 153.406 28.3219C151.565 28.3219 149.849 28.6397 148.312 29.2609C146.772 29.8879 145.424 30.773 144.3 31.8991C143.184 33.0452 142.304 34.3784 141.683 35.8621C141.058 37.3542 140.741 38.9967 140.741 40.747C140.741 42.5228 141.058 44.1851 141.681 45.6859C142.304 47.1923 143.215 48.5367 144.385 49.6801C145.526 50.7977 146.871 51.68 148.383 52.304C149.895 52.9282 151.585 53.2458 153.403 53.2458C155.394 53.2458 157.172 52.9339 158.686 52.3155C159.887 51.8247 162.253 49.9325 163.176 49.1752C163.388 49.002 163.409 48.6901 163.224 48.4829L160.505 45.4561C160.337 45.2688 160.06 45.2405 159.859 45.3937C159.142 45.9441 157.503 47.1752 156.727 47.5156C154.937 48.3071 152.533 48.446 150.546 47.5894C149.645 47.2008 148.858 46.6561 148.19 45.9639C147.607 45.3796 147.128 44.6391 146.766 43.7597C146.404 42.8831 146.219 41.8761 146.219 40.764C146.219 39.7059 146.409 38.7046 146.786 37.7884C147.162 36.8719 147.675 36.0863 148.306 35.4508Z" fill="white"/>
<path d="M189.655 28.7364H184.427C184.073 28.7364 183.741 28.9094 183.535 29.1959L177.686 37.4539H174.113V29.4882C174.113 29.074 173.775 28.7364 173.361 28.7364H169.384C168.971 28.7364 168.633 29.074 168.633 29.4882V52.0773C168.633 52.4916 168.971 52.8291 169.384 52.8291H173.361C173.775 52.8291 174.113 52.4916 174.113 52.0773V42.526H177.744L184.161 52.3327C184.362 52.6418 184.708 52.8263 185.075 52.8263H190.183C190.469 52.8263 190.643 52.5085 190.486 52.2675L182.405 39.8537L189.949 29.3037C190.118 29.0711 189.949 28.7364 189.655 28.7364Z" fill="white"/>
<path d="M200.299 35.4508C200.956 34.7898 201.727 34.2763 202.585 33.9274C204.498 33.1445 206.936 33.2608 208.729 34.0324C209.499 34.3643 211.133 35.6125 211.848 36.1742C212.05 36.3302 212.33 36.3018 212.501 36.1118L215.229 33.0367C215.414 32.8296 215.391 32.5148 215.172 32.3416C214.238 31.6041 211.878 29.7829 210.692 29.2837C209.175 28.6453 207.397 28.3219 205.399 28.3219C203.558 28.3219 201.843 28.6397 200.305 29.2609C198.764 29.8879 197.417 30.773 196.293 31.8991C195.177 33.0424 194.298 34.3756 193.677 35.8621C193.051 37.3542 192.733 38.9997 192.733 40.747C192.733 42.52 193.051 44.1824 193.674 45.6859C194.299 47.1923 195.208 48.5367 196.378 49.6801C197.519 50.7977 198.862 51.68 200.374 52.304C201.888 52.9282 203.578 53.2458 205.396 53.2458C207.386 53.2458 209.164 52.9339 210.679 52.3155C211.879 51.8247 214.248 49.9325 215.172 49.1752C215.386 49.002 215.405 48.6901 215.222 48.4829L212.501 45.4561C212.333 45.2688 212.053 45.2405 211.855 45.3937C211.138 45.9441 209.496 47.1752 208.723 47.5156C206.931 48.3071 204.527 48.4432 202.542 47.5894C201.645 47.2008 200.855 46.6561 200.186 45.9639C199.605 45.3823 199.125 44.6391 198.763 43.7597C198.4 42.8803 198.216 41.8733 198.216 40.764C198.216 39.7031 198.405 38.7017 198.781 37.7884C199.158 36.8719 199.669 36.0863 200.299 35.4508Z" fill="white"/>
<path d="M236.154 37.2158H225.736V29.2501C225.736 28.8359 225.4 28.4983 224.987 28.4983H221.008C220.594 28.4983 220.258 28.8359 220.258 29.2501V51.8392C220.258 52.2535 220.594 52.591 221.008 52.591H224.987C225.4 52.591 225.736 52.2535 225.736 51.8392V42.2879H236.154V51.8392C236.154 52.2535 236.491 52.591 236.905 52.591H240.879C241.295 52.591 241.63 52.2535 241.63 51.8392V29.2501C241.63 28.8359 241.292 28.4983 240.879 28.4983H236.905C236.491 28.4983 236.154 28.8359 236.154 29.2501V37.2158Z" fill="white"/>
<path d="M255.959 29.3888L245.812 52.324C245.706 52.5624 245.88 52.8319 246.143 52.8319H250.718C251.149 52.8319 251.539 52.5794 251.716 52.1822L253.272 48.6788H264.388L265.983 52.1907C266.161 52.5822 266.548 52.8319 266.976 52.8319H271.628C271.889 52.8319 272.065 52.5624 271.96 52.324L261.812 29.3888C261.636 28.9944 261.245 28.739 260.812 28.739H256.958C256.526 28.7362 256.134 28.9916 255.959 29.3888ZM262.274 43.6038H255.408L258.794 34.9658L262.274 43.6038Z" fill="white"/>
<path d="M276.9 52.8319H280.801C281.218 52.8319 281.552 52.4942 281.552 52.0801V29.4908C281.552 29.0766 281.215 28.739 280.801 28.739H276.9C276.486 28.739 276.15 29.0766 276.15 29.4908V52.0801C276.15 52.4942 276.486 52.8319 276.9 52.8319Z" fill="white"/>
<path d="M305.366 45.4278C305.781 45.2036 306.167 44.9484 306.515 44.6704C307.059 44.2335 307.554 43.7371 307.99 43.1924C309.162 41.6833 309.757 39.8593 309.757 37.7656C309.757 36.4636 309.514 35.258 309.035 34.1856C308.56 33.1275 307.908 32.1773 307.087 31.3574C306.218 30.5148 305.207 29.8596 304.084 29.4113C302.962 28.9661 301.75 28.739 300.481 28.739H289.359C288.943 28.739 288.61 29.0766 288.61 29.4908V52.0801C288.61 52.4942 288.946 52.8319 289.359 52.8319H293.335C293.749 52.8319 294.085 52.4942 294.085 52.0801V46.6816H299.899L303.244 52.3012C303.442 52.6332 303.797 52.8346 304.183 52.8346H309.394C309.599 52.8346 309.723 52.6105 309.619 52.4346L305.366 45.4278ZM294.088 33.8878H300.379C300.98 33.8878 301.551 34.0069 302.073 34.2395C302.588 34.4721 302.99 34.7757 303.339 35.2126C303.972 35.8877 304.279 36.7275 304.279 37.7856C304.279 38.2792 304.191 38.7699 304.02 39.2408C303.851 39.7089 303.602 40.1117 303.233 40.506C302.953 40.8465 302.588 41.1074 302.126 41.306C301.65 41.5073 301.127 41.6066 300.569 41.6066H294.088V33.8878Z" fill="white"/>
</g>
<g clip-path="url(#clip1_1_479)">
<path d="M497.535 14.477L352.82 2.54243C351.008 2.41746 349.446 3.85461 349.446 5.66666V76.8993C349.446 78.6488 350.82 80.0235 352.57 80.0235H457.544L460.856 70.5258L446.297 33.2224H457.482L465.917 58.5288L474.04 33.2224H484.975L470.729 71.2756L467.667 80.0235H473.978C475.29 80.0235 476.415 79.2112 476.915 78.024L500.221 18.726C500.971 16.7889 499.597 14.6645 497.535 14.477ZM362.88 70.4009V21.8502H373.565V41.033H393.248V21.8502H403.932V70.4009H393.248V50.9056H373.565V70.4009H362.88V70.4009ZM429.301 71.2132C423.678 71.2132 418.991 69.4636 415.367 65.902C411.743 62.2778 409.869 57.654 409.869 51.9054C409.869 46.4692 411.618 41.9078 415.055 38.1587C418.491 34.4096 422.928 32.5351 428.239 32.5351C434.113 32.5351 438.612 34.4721 441.673 38.3462C444.798 42.2202 446.297 47.0316 446.297 52.7177C446.297 53.28 446.235 54.2173 446.172 55.467H420.304C420.803 57.8414 421.866 59.6535 423.428 60.9032C424.99 62.1529 426.989 62.7777 429.364 62.7777C432.675 62.7777 435.675 61.528 438.362 58.9662L444.423 64.2774C440.736 68.9012 435.675 71.2132 429.301 71.2132ZM420.179 48.9061H436.05C435.737 46.5317 434.862 44.5947 433.488 43.1575C432.176 41.7204 430.364 41.033 428.239 41.033C426.115 41.033 424.303 41.7204 422.928 43.1575C421.491 44.5322 420.616 46.4692 420.179 48.9061Z" fill="url(#paint0_linear_1_479)"/>
<path d="M502.908 63.652C505.095 68.4633 508.969 70.9002 514.593 70.9002C520.029 70.9002 524.903 68.7757 529.402 64.4643C533.9 60.1528 536.462 54.8416 537.025 48.5306C537.462 43.7818 536.462 40.0327 534.025 37.2209C531.589 34.3466 528.339 32.9719 524.153 32.9719C520.091 32.9719 516.03 34.8465 511.906 38.5331L519.841 16.6634L511.406 16.0386L492.161 70.1504H500.534L502.908 63.652ZM523.528 59.528C520.779 62.4023 517.654 63.7769 514.28 63.7769C511.531 63.7769 509.406 62.9021 507.844 61.1526C506.282 59.403 505.657 57.216 505.907 54.5292C506.282 50.7176 507.907 47.3434 510.844 44.4691C513.78 41.5948 516.967 40.0952 520.404 40.0952C523.028 40.0952 525.09 40.9075 526.465 42.5946C527.902 44.2192 528.464 46.4062 528.214 49.1555C527.839 53.1545 526.277 56.6537 523.528 59.528ZM549.647 61.6524C548.209 59.9654 547.522 57.7784 547.772 54.9666H574.391C575.703 52.0923 576.515 49.4679 576.703 47.0935C577.077 42.9695 576.078 39.5953 573.703 36.971C571.329 34.2841 567.892 32.9719 563.393 32.9719C559.332 32.9719 555.52 34.0967 551.959 36.2836C548.397 38.4706 545.523 41.2199 543.461 44.5941C541.399 47.9683 540.211 51.4674 539.899 55.0915C539.462 59.9654 540.586 63.8394 543.336 66.7762C546.085 69.6505 550.022 71.0876 555.083 71.0876C560.456 71.0876 565.33 69.4005 569.767 66.0264L566.205 60.7152C562.893 63.0896 559.644 64.2143 556.52 64.2143C553.458 64.1518 551.146 63.3395 549.647 61.6524ZM568.205 49.218H549.209C550.459 46.4062 552.208 44.1567 554.458 42.4071C556.77 40.6576 559.332 39.7828 562.144 39.7828C564.518 39.7828 566.268 40.4701 567.392 41.7823C568.517 43.0945 569.017 44.7191 568.829 46.7811C568.642 47.8433 568.455 48.6556 568.205 49.218ZM615.943 70.9627C613.006 70.9627 610.194 70.4003 607.383 69.2756C604.571 68.1509 602.259 66.4638 600.384 64.4018L605.82 59.278C608.945 62.7147 612.694 64.4018 617.13 64.4018C618.817 64.4018 620.254 64.0269 621.442 63.2146C622.629 62.4023 623.254 61.4025 623.379 60.0278C623.441 59.1531 623.129 58.3407 622.316 57.6534C621.567 56.9661 620.254 56.2163 618.442 55.4664C614.943 53.9668 612.444 52.5297 610.882 51.0925C609.32 49.5929 608.632 47.5934 608.882 45.0315C609.195 41.5324 610.757 38.6581 613.569 36.4086C616.443 34.0967 620.004 32.9719 624.378 32.9719C627.065 32.9719 629.627 33.4718 632.002 34.4716C634.438 35.4088 636.438 36.6585 638 38.0332L632.876 43.4069C629.752 40.7201 626.503 39.4079 623.191 39.4079C621.442 39.4079 620.004 39.7828 618.942 40.5951C617.88 41.4074 617.318 42.3447 617.193 43.5943C617.13 44.5316 617.505 45.3439 618.317 46.0313C619.13 46.7186 620.567 47.5309 622.629 48.4057C625.753 49.7803 628.127 51.2175 629.69 52.7796C631.252 54.2792 631.939 56.2163 631.689 58.6532C631.377 62.3398 629.69 65.339 626.69 67.651C623.816 69.8379 620.192 70.9627 615.943 70.9627ZM581.076 68.8382C582.576 70.1504 584.763 70.7752 587.7 70.7752C590.324 70.7752 592.636 70.3378 594.698 69.463L597.322 62.2148C595.385 63.0271 593.573 63.402 591.886 63.402C589.449 63.402 588.325 62.4647 588.45 60.5902C588.512 59.7779 588.7 59.0906 588.887 58.5282L595.198 40.9075L595.51 40.0327H603.696L605.133 34.2216L597.947 33.2844L601.384 23.7242L592.949 22.9744L590.012 31.9722L589.949 32.2221L582.889 31.2849L580.764 40.0327H587.137L586.825 40.9075L580.202 59.403C579.639 61.0901 579.327 62.4647 579.202 63.5895C579.014 65.8389 579.639 67.5885 581.076 68.8382Z" fill="white"/>
<mask id="mask0_1_479" style="mask-type:alpha" maskUnits="userSpaceOnUse" x="490" y="14" width="149" height="58">
<path d="M639 14.7886H490.911V71.6497H639V14.7886Z" fill="white"/>
<path d="M502.908 63.6518C505.095 68.4632 508.969 70.9001 514.593 70.9001C520.029 70.9001 524.903 68.7756 529.401 64.4641C533.9 60.1527 536.462 54.8415 537.025 48.5305C537.462 43.7817 536.462 40.0326 534.025 37.2208C531.588 34.3465 528.339 32.9718 524.153 32.9718C520.091 32.9718 516.03 34.8464 511.906 38.533L519.841 16.6633L511.406 16.0385L492.161 70.1502H500.533L502.908 63.6518ZM523.528 59.5278C520.779 62.4021 517.654 63.7768 514.28 63.7768C511.531 63.7768 509.406 62.902 507.844 61.1524C506.282 59.4029 505.657 57.2159 505.907 54.5291C506.282 50.7175 507.907 47.3433 510.843 44.469C513.78 41.5947 516.967 40.0951 520.404 40.0951C523.028 40.0951 525.09 40.9074 526.465 42.5945C527.902 44.2191 528.464 46.406 528.214 49.1554C527.839 53.1544 526.277 56.6535 523.528 59.5278ZM549.647 61.6523C548.209 59.9652 547.522 57.7783 547.772 54.9665H574.39C575.703 52.0922 576.515 49.4678 576.702 47.0934C577.077 42.9694 576.078 39.5952 573.703 36.9708C571.329 34.284 567.892 32.9718 563.393 32.9718C559.332 32.9718 555.52 34.0965 551.958 36.2835C548.397 38.4705 545.523 41.2198 543.461 44.594C541.399 47.9682 540.211 51.4673 539.899 55.0914C539.461 59.9652 540.586 63.8393 543.336 66.7761C546.085 69.6504 550.021 71.0875 555.083 71.0875C560.456 71.0875 565.33 69.4004 569.767 66.0262L566.205 60.715C562.893 63.0895 559.644 64.2142 556.52 64.2142C553.458 64.1517 551.146 63.3394 549.647 61.6523ZM568.204 49.2179H549.209C550.459 46.406 552.208 44.1566 554.458 42.407C556.77 40.6574 559.332 39.7827 562.143 39.7827C564.518 39.7827 566.267 40.47 567.392 41.7822C568.517 43.0943 569.017 44.719 568.829 46.781C568.642 47.8432 568.454 48.6555 568.204 49.2179ZM615.943 70.9625C613.006 70.9625 610.194 70.4002 607.382 69.2755C604.571 68.1507 602.259 66.4636 600.384 64.4016L605.82 59.2779C608.945 62.7146 612.694 64.4016 617.13 64.4016C618.817 64.4016 620.254 64.0267 621.441 63.2144C622.629 62.4021 623.254 61.4024 623.379 60.0277C623.441 59.1529 623.129 58.3406 622.316 57.6533C621.566 56.966 620.254 56.2161 618.442 55.4663C614.943 53.9667 612.444 52.5295 610.882 51.0924C609.319 49.5928 608.632 47.5933 608.882 45.0314C609.194 41.5322 610.757 38.6579 613.568 36.4085C616.443 34.0965 620.004 32.9718 624.378 32.9718C627.065 32.9718 629.627 33.4717 632.001 34.4715C634.438 35.4087 636.438 36.6584 638 38.0331L632.876 43.4068C629.752 40.7199 626.503 39.4077 623.191 39.4077C621.441 39.4077 620.004 39.7827 618.942 40.595C617.88 41.4073 617.317 42.3445 617.193 43.5942C617.13 44.5315 617.505 45.3438 618.317 46.0311C619.13 46.7185 620.567 47.5308 622.629 48.4056C625.753 49.7802 628.127 51.2174 629.689 52.7795C631.252 54.2791 631.939 56.2161 631.689 58.6531C631.377 62.3397 629.689 65.3389 626.69 67.6509C623.816 69.8378 620.192 70.9625 615.943 70.9625ZM581.076 68.8381C582.576 70.1502 584.763 70.7751 587.7 70.7751C590.324 70.7751 592.636 70.3377 594.698 69.4629L597.322 62.2147C595.385 63.027 593.573 63.4019 591.886 63.4019C589.449 63.4019 588.325 62.4646 588.45 60.5901C588.512 59.7778 588.699 59.0904 588.887 58.5281L595.198 40.9074L595.51 40.0326H603.696L605.133 34.2215L597.947 33.2842L601.384 23.7241L592.948 22.9743L590.012 31.9721L589.949 32.222L582.888 31.2847L580.764 40.0326H587.137L586.825 40.9074L580.202 59.4029C579.639 61.09 579.327 62.4646 579.202 63.5893C579.014 65.8388 579.639 67.5884 581.076 68.8381Z" fill="black"/>
</mask>
<g mask="url(#mask0_1_479)">
<path d="M502.908 63.6517L503.47 63.4018L502.846 62.0271L502.346 63.4643L502.908 63.6517ZM529.402 64.5265L528.964 64.0891L529.402 64.5265ZM537.025 48.5304L537.65 48.5929L537.025 48.5304ZM534.025 37.2207L533.526 37.5956L534.025 37.2207ZM511.906 38.5329L511.344 38.3454L512.343 39.0327L511.906 38.5329ZM519.841 16.6632L520.404 16.8506L520.654 16.1008L519.841 16.0383V16.6632ZM511.406 16.0383L511.468 15.4135L510.969 15.351L510.781 15.7884L511.406 16.0383ZM492.161 70.1501L491.598 69.9627L491.286 70.775H492.161V70.1501ZM500.596 70.1501V70.775H501.034L501.159 70.3376L500.596 70.1501ZM523.528 59.5277L523.965 59.9651L523.528 59.5277ZM505.907 54.5914L506.532 54.6539L505.907 54.5914ZM510.844 44.4689L511.281 44.9063L510.844 44.4689ZM526.465 42.5944L525.965 43.0318L526.465 42.5944ZM528.214 49.1553L528.839 49.2177L528.214 49.1553ZM547.772 54.9663V54.3415H547.21L547.147 54.9039L547.772 54.9663ZM549.647 61.6522L549.209 62.0896L549.647 61.6522ZM574.391 54.9663V55.5912H574.766L574.953 55.2163L574.391 54.9663ZM576.703 47.0933L577.327 47.1557L576.703 47.0933ZM573.703 36.9707L573.203 37.4081L573.703 36.9707ZM551.896 36.2834L552.209 36.8458L551.896 36.2834ZM543.398 44.5314L542.898 44.219L543.398 44.5314ZM539.774 55.0288L540.399 55.0913L539.774 55.0288ZM543.211 66.7135L542.773 67.1509L543.211 66.7135ZM569.642 65.9637L570.017 66.4635L570.454 66.0886L570.142 65.5887L569.642 65.9637ZM566.143 60.6525L566.643 60.2775L566.268 59.7152L565.768 60.0901L566.143 60.6525ZM549.209 49.2177L548.647 48.9678L548.272 49.8426H549.209V49.2177ZM568.205 49.2177V49.8426H568.58L568.767 49.4677L568.205 49.2177ZM554.458 42.4069L554.083 41.907L554.458 42.4069ZM567.33 41.7821L566.83 42.157L567.33 41.7821ZM568.767 46.7808L569.392 46.8433L568.767 46.7808ZM607.383 69.3378L607.133 69.9002L607.383 69.3378ZM600.384 64.464L599.947 64.0266L599.51 64.464L599.884 64.9014L600.384 64.464ZM605.883 59.3403L606.32 58.9029L605.883 58.4655L605.446 58.9029L605.883 59.3403ZM623.504 60.0901L624.129 60.1526L623.504 60.0901ZM618.567 55.5287L618.817 54.9663L618.567 55.5287ZM611.007 51.1548L610.569 51.5922L611.007 51.1548ZM608.945 45.0937L608.32 45.0313L608.945 45.0937ZM613.631 36.4709L614.006 36.9707L613.631 36.4709ZM632.064 34.5338L631.814 35.0962L632.064 34.5338ZM638 38.1579L638.438 38.5953L638.875 38.1579L638.438 37.7206L638 38.1579ZM632.876 43.5316L632.501 44.0315L632.939 44.4064L633.376 43.969L632.876 43.5316ZM618.942 40.6573L618.567 40.1575L618.942 40.6573ZM617.193 43.6566L617.818 43.7191L617.193 43.6566ZM618.317 46.0935L617.943 46.5934L618.317 46.0935ZM622.629 48.4054L622.879 47.8431L622.629 48.4054ZM629.69 52.7794L629.252 53.2168L629.69 52.7794ZM631.689 58.6529L631.064 58.5905L631.689 58.6529ZM626.753 67.5883L627.128 68.0881L626.753 67.5883ZM581.077 68.838L580.639 69.2753L581.077 68.838ZM594.698 69.4628L594.948 70.0252L595.198 69.9002L595.261 69.6503L594.698 69.4628ZM597.26 62.2146L597.822 62.402L598.322 61.0898L597.01 61.5897L597.26 62.2146ZM588.387 60.59L589.012 60.6525L588.387 60.59ZM588.887 58.528L589.449 58.7779L588.887 58.528ZM595.198 40.9073L594.636 40.7198L595.198 40.9073ZM595.51 40.0325V39.4076H595.073L594.948 39.845L595.51 40.0325ZM603.696 40.0325V40.6573H604.196L604.321 40.1575L603.696 40.0325ZM605.133 34.2214L605.758 34.3464L605.945 33.659L605.258 33.5966L605.133 34.2214ZM597.947 33.2841L597.385 33.0967L597.135 33.8465L597.885 33.9715L597.947 33.2841ZM601.384 23.724L601.946 23.9114L602.196 23.1616L601.384 23.0991V23.724ZM592.949 22.9117L593.011 22.2868L592.511 22.2243L592.386 22.7242L592.949 22.9117ZM590.012 31.972L590.574 32.1594L590.012 31.972ZM589.949 32.2219L589.887 32.8467L590.387 32.9092L590.574 32.4093L589.949 32.2219ZM582.889 31.2846L582.951 30.6598L582.389 30.5973L582.264 31.1597L582.889 31.2846ZM580.764 40.0325L580.139 39.9075L579.952 40.6573H580.764V40.0325ZM587.138 40.0325L587.7 40.2199L588.012 39.4076H587.138V40.0325ZM586.825 40.9073L586.263 40.7198L586.825 40.9073ZM580.202 59.4028L579.639 59.2153L580.202 59.4028ZM579.202 63.5892L579.827 63.6517L579.202 63.5892ZM514.593 70.2751C511.906 70.2751 509.656 69.7127 507.782 68.5255C505.97 67.4008 504.533 65.7137 503.47 63.3393L502.346 63.8392C503.47 66.3386 505.095 68.2756 507.157 69.5253C509.219 70.8375 511.718 71.4623 514.593 71.4623V70.2751V70.2751ZM528.964 64.0266C524.59 68.2131 519.841 70.2751 514.593 70.2751V71.5248C520.154 71.5248 525.278 69.2753 529.839 64.9014L528.964 64.0266ZM536.4 48.5304C535.838 54.7164 533.338 59.8401 528.964 64.0891L529.839 64.9639C534.463 60.5275 537.087 55.0913 537.65 48.5929L536.4 48.5304ZM533.526 37.6581C535.838 40.2824 536.775 43.9065 536.337 48.5304L537.587 48.6554C538.025 43.7816 537.025 39.845 534.463 36.8458L533.526 37.6581ZM524.153 33.5966C528.152 33.5966 531.276 34.9712 533.526 37.6581L534.463 36.8458C531.901 33.8465 528.464 32.3469 524.09 32.3469V33.5966H524.153ZM512.343 39.0327C516.342 35.3461 520.279 33.5966 524.153 33.5966V32.3469C519.904 32.3469 515.655 34.2839 511.531 38.0955L512.343 39.0327ZM519.279 16.4757L511.344 38.3454L512.531 38.7828L520.466 16.9131L519.279 16.4757ZM511.344 16.6632L519.779 17.288L519.841 16.0383L511.406 15.4135L511.344 16.6632ZM492.786 70.4001L511.968 16.2883L510.781 15.8509L491.536 69.9627L492.786 70.4001ZM500.596 69.5253H492.223V70.775H500.596V69.5253ZM502.283 63.4643L499.971 69.9627L501.159 70.4001L503.47 63.9017L502.283 63.4643ZM514.28 64.464C517.904 64.464 521.154 62.9644 523.965 59.9651L523.091 59.0903C520.404 61.8397 517.53 63.1518 514.28 63.1518V64.464ZM507.344 61.5897C509.032 63.4643 511.344 64.4015 514.218 64.4015V63.1518C511.656 63.1518 509.656 62.3395 508.282 60.7149L507.344 61.5897ZM505.283 54.5289C505.033 57.3408 505.72 59.7152 507.407 61.6522L508.344 60.8399C506.907 59.2153 506.282 57.2158 506.532 54.6539L505.283 54.5289ZM510.406 44.0315C507.345 47.0308 505.657 50.5299 505.283 54.5289L506.532 54.6539C506.845 50.9673 508.469 47.7806 511.281 44.9688L510.406 44.0315ZM520.341 39.5326C516.717 39.5326 513.406 41.0947 510.344 44.0315L511.219 44.9063C514.093 42.0945 517.092 40.7198 520.341 40.7198V39.5326ZM526.902 42.2195C525.34 40.4074 523.091 39.5326 520.341 39.5326V40.7823C522.841 40.7823 524.653 41.5321 525.965 43.0318L526.902 42.2195ZM528.839 49.2177C529.089 46.3434 528.464 43.969 526.902 42.2195L525.965 43.0318C527.215 44.4689 527.84 46.4684 527.59 49.0928L528.839 49.2177ZM523.965 59.9651C526.84 56.9659 528.464 53.4042 528.839 49.2177L527.59 49.0928C527.215 52.9668 525.715 56.2785 523.091 59.0903L523.965 59.9651ZM547.147 54.9039C546.897 57.8406 547.585 60.2151 549.209 62.0896L550.147 61.2773C548.834 59.7777 548.21 57.7157 548.397 55.0288L547.147 54.9039ZM574.391 54.3415H547.772V55.5912H574.391V54.3415ZM576.078 47.0308C575.89 49.3427 575.14 51.9046 573.828 54.7164L574.953 55.2163C576.328 52.342 577.077 49.5927 577.327 47.1557L576.078 47.0308ZM573.203 37.3456C575.453 39.845 576.453 43.0942 576.078 47.0308L577.327 47.1557C577.702 42.9068 576.64 39.3452 574.141 36.5333L573.203 37.3456ZM563.393 33.5966C567.767 33.5966 571.016 34.9087 573.203 37.4081L574.141 36.5958C571.641 33.784 568.017 32.4093 563.331 32.4093V33.5966H563.393ZM552.209 36.7833C555.708 34.6588 559.394 33.5341 563.331 33.5341V32.2844C559.144 32.2844 555.208 33.4091 551.521 35.721L552.209 36.7833ZM543.898 44.9063C545.96 41.6571 548.709 38.9702 552.209 36.8458L551.584 35.7835C547.96 37.9705 545.023 40.8448 542.836 44.2815L543.898 44.9063ZM540.399 55.0913C540.711 51.5297 541.899 48.1555 543.898 44.8438L542.836 44.219C540.711 47.6556 539.524 51.2173 539.149 54.9663L540.399 55.0913ZM543.711 66.2761C541.149 63.5267 540.024 59.8401 540.461 55.0913L539.212 54.9663C538.774 59.9651 539.962 64.0891 542.836 67.0884L543.711 66.2761ZM554.958 70.3376C550.022 70.3376 546.272 68.9629 543.648 66.2761L542.773 67.1509C545.648 70.1501 549.772 71.6498 554.958 71.6498V70.3376ZM569.267 65.4638C564.955 68.713 560.207 70.4001 554.958 70.4001V71.6498C560.457 71.6498 565.455 69.9002 570.017 66.4635L569.267 65.4638ZM565.58 60.9649L569.142 66.2761L570.204 65.5887L566.643 60.2775L565.58 60.9649ZM556.458 64.7764C559.769 64.7764 563.143 63.5268 566.518 61.1523L565.768 60.1526C562.519 62.4645 559.457 63.5892 556.458 63.5892V64.7764V64.7764ZM549.209 62.0896C550.896 63.9017 553.333 64.7764 556.458 64.7764V63.5267C553.583 63.5267 551.521 62.7144 550.147 61.2148L549.209 62.0896ZM549.209 49.8426H568.205V48.5929H549.209V49.8426ZM554.083 41.907C551.709 43.7191 549.897 46.0935 548.647 48.9678L549.772 49.4677C550.959 46.7808 552.646 44.5314 554.833 42.9068L554.083 41.907ZM562.144 39.1577C559.207 39.1577 556.52 40.095 554.083 41.907L554.833 42.9068C557.082 41.2197 559.457 40.4074 562.144 40.4074V39.1577ZM567.83 41.4072C566.58 39.845 564.643 39.1577 562.144 39.1577V40.4074C564.456 40.4074 565.955 41.0322 566.892 42.157L567.83 41.4072ZM569.392 46.8433C569.579 44.6564 569.079 42.8443 567.83 41.4072L566.892 42.2195C567.892 43.3442 568.33 44.8438 568.142 46.7184L569.392 46.8433ZM568.767 49.5302C569.079 48.8428 569.329 47.9056 569.392 46.8433L568.142 46.7184C568.08 47.7181 567.892 48.4679 567.642 48.9678L568.767 49.5302ZM607.133 69.9002C610.007 71.0249 612.944 71.5873 615.943 71.5873V70.3376C613.131 70.3376 610.319 69.7752 607.57 68.713L607.133 69.9002ZM599.947 64.8389C601.884 67.0259 604.258 68.713 607.133 69.9002L607.633 68.7755C604.883 67.6507 602.696 66.0886 600.884 64.0266L599.947 64.8389ZM605.446 58.8404L600.009 63.9641L600.884 64.9014L606.32 59.7777L605.446 58.8404ZM617.193 63.8392C612.944 63.8392 609.32 62.2146 606.32 58.9654L605.383 59.7777C608.632 63.2768 612.569 65.0889 617.193 65.0889V63.8392ZM621.192 62.7144C620.129 63.4018 618.817 63.7767 617.193 63.7767V65.0264C619.005 65.0264 620.567 64.589 621.879 63.7767L621.192 62.7144ZM622.879 60.0276C622.754 61.1523 622.254 62.0271 621.192 62.7144L621.879 63.7767C623.191 62.9019 623.941 61.6522 624.129 60.1526L622.879 60.0276ZM622.004 58.2155C622.629 58.7779 622.879 59.4028 622.816 60.0276L624.066 60.1526C624.191 59.0278 623.691 58.0906 622.816 57.2783L622.004 58.2155ZM618.317 56.0911C620.129 56.8409 621.317 57.5907 622.004 58.2155L622.816 57.2783C621.942 56.5285 620.567 55.7786 618.755 54.9663L618.317 56.0911ZM610.569 51.6546C612.256 53.1543 614.818 54.6539 618.317 56.0911L618.817 54.9663C615.381 53.5292 612.944 52.092 611.444 50.7174L610.569 51.6546ZM608.32 45.0313C608.07 47.7806 608.757 49.9676 610.507 51.5922L611.382 50.6549C609.944 49.3427 609.32 47.5307 609.57 45.0937L608.32 45.0313ZM613.256 35.971C610.319 38.3454 608.695 41.3447 608.382 45.0313L609.632 45.1562C609.944 41.8445 611.382 39.0952 614.068 36.9707L613.256 35.971ZM624.441 32.4093C620.005 32.4093 616.255 33.5966 613.256 35.971L614.068 36.9707C616.755 34.7838 620.254 33.659 624.441 33.659V32.4093V32.4093ZM632.314 33.9715C629.815 32.9092 627.19 32.4093 624.441 32.4093V33.659C627.065 33.659 629.502 34.1589 631.814 35.1587L632.314 33.9715ZM638.438 37.6581C636.813 36.1584 634.751 34.9087 632.252 33.9715L631.814 35.1587C634.189 36.0959 636.126 37.2832 637.625 38.5953L638.438 37.6581ZM633.314 43.969L638.438 38.5953L637.563 37.7206L632.439 43.0942L633.314 43.969ZM623.191 40.1575C626.315 40.1575 629.44 41.4072 632.501 44.0315L633.314 43.0942C630.127 40.3449 626.753 38.9702 623.254 38.9702V40.1575H623.191ZM619.317 41.2197C620.254 40.5324 621.567 40.1575 623.191 40.1575V38.9078C621.317 38.9078 619.755 39.3452 618.567 40.2199L619.317 41.2197ZM617.818 43.7191C617.88 42.7193 618.38 41.907 619.317 41.2197L618.567 40.2199C617.38 41.0947 616.693 42.2195 616.568 43.6566L617.818 43.7191ZM618.692 45.5936C618.005 45.0313 617.755 44.4064 617.818 43.7191L616.568 43.5941C616.443 44.7813 616.943 45.7186 617.88 46.5309L618.692 45.5936ZM622.816 47.8431C620.754 46.9683 619.442 46.2185 618.692 45.5936L617.88 46.5309C618.755 47.2807 620.254 48.093 622.316 48.9678L622.816 47.8431ZM630.127 52.342C628.502 50.7799 626.066 49.2802 622.879 47.8431L622.379 48.9678C625.503 50.3425 627.815 51.7171 629.315 53.2168L630.127 52.342ZM632.314 58.7154C632.564 56.0911 631.814 53.9666 630.065 52.342L629.19 53.2792C630.627 54.5914 631.252 56.341 631.002 58.6529L632.314 58.7154ZM627.128 68.0881C630.252 65.7137 632.002 62.527 632.314 58.6529L631.064 58.528C630.752 62.0271 629.19 64.8389 626.315 67.0884L627.128 68.0881ZM615.943 71.5873C620.317 71.5873 624.066 70.4001 627.128 68.0881L626.378 67.0884C623.566 69.2753 620.129 70.3376 616.005 70.3376V71.5873H615.943ZM587.7 70.1501C584.888 70.1501 582.826 69.5253 581.514 68.3381L580.702 69.2753C582.389 70.7125 584.763 71.3373 587.7 71.3373V70.1501ZM594.448 68.9004C592.511 69.7127 590.262 70.1501 587.7 70.1501V71.3998C590.387 71.3998 592.824 70.9624 594.948 70.0252L594.448 68.9004ZM596.698 62.0271L594.073 69.2753L595.261 69.7127L597.885 62.4645L596.698 62.0271ZM591.824 64.0266C593.636 64.0266 595.51 63.5892 597.51 62.7769L597.01 61.5897C595.136 62.3395 593.386 62.7144 591.824 62.7144V64.0266ZM587.762 60.5275C587.637 61.5897 587.95 62.527 588.7 63.2143C589.449 63.8392 590.512 64.0891 591.761 64.0891V62.8394C590.574 62.8394 589.887 62.5895 589.449 62.2771C589.075 61.9646 588.887 61.4648 588.95 60.7149L587.762 60.5275ZM588.325 58.278C588.075 58.9654 587.887 59.7152 587.825 60.5275L589.075 60.6525C589.137 59.9026 589.262 59.2778 589.512 58.7779L588.325 58.278ZM594.636 40.6573L588.325 58.278L589.512 58.7154L595.823 41.0947L594.636 40.6573ZM594.948 39.7825L594.636 40.6573L595.823 41.0947L596.135 40.2199L594.948 39.7825ZM603.696 39.4076H595.51V40.6573H603.696V39.4076ZM604.508 34.034L603.071 39.845L604.258 40.1575L605.696 34.3464L604.508 34.034ZM597.885 33.909L605.071 34.8463L605.258 33.5966L598.072 32.6593L597.885 33.909ZM600.822 23.474L597.385 33.0342L598.572 33.4716L602.009 23.9114L600.822 23.474ZM592.886 23.5365L601.322 24.2863L601.447 23.0366L593.011 22.2868L592.886 23.5365ZM590.637 32.1594L593.573 23.1616L592.386 22.7867L589.387 31.7845L590.637 32.1594ZM590.512 32.4093L590.574 32.1594L589.387 31.722L589.324 31.972L590.512 32.4093ZM582.826 31.9095L589.887 32.8467L590.074 31.597L582.951 30.6598L582.826 31.9095ZM581.389 40.1575L583.513 31.4096L582.326 31.0972L580.202 39.845L581.389 40.1575ZM587.138 39.4076H580.764V40.6573H587.138V39.4076ZM587.387 41.0947L587.7 40.2199L586.513 39.7825L586.2 40.6573L587.387 41.0947ZM580.764 59.5902L587.387 41.0947L586.2 40.6573L579.577 59.1528L580.764 59.5902ZM579.827 63.6517C579.952 62.5895 580.264 61.2148 580.827 59.5902L579.639 59.2153C579.077 60.9024 578.702 62.3395 578.577 63.5892L579.827 63.6517ZM581.514 68.4006C580.202 67.2758 579.639 65.7137 579.827 63.6517L578.577 63.5267C578.39 65.9012 579.015 67.8382 580.639 69.2753L581.514 68.4006Z" fill="white"/>
</g>
</g>
<defs>
<linearGradient id="paint0_linear_1_479" x1="349.446" y1="62.976" x2="500.429" y2="62.976" gradientUnits="userSpaceOnUse">
<stop stop-color="#184EFF"/>
<stop offset="1" stop-color="#0AA7FF"/>
</linearGradient>
<clipPath id="clip0_1_479">
<rect width="309.756" height="82.0854" fill="white"/>
</clipPath>
<clipPath id="clip1_1_479">
<rect width="289.554" height="78.7215" fill="white" transform="translate(349.446 1.68201)"/>
</clipPath>
</defs>
</svg>
