<svg width="165" height="45" viewBox="0 0 165 45" fill="none" xmlns="http://www.w3.org/2000/svg">
<g clip-path="url(#clip0_1_658)">
<path d="M84.3807 7.26661L2.19318 0.488617C1.16406 0.417643 0.276886 1.23384 0.276886 2.26296V42.718C0.276886 43.7116 1.0576 44.4923 2.05123 44.4923H61.6691L63.5499 39.0983L55.2815 17.9127H61.6337L66.4244 32.2848L71.0377 17.9127H77.2479L69.1569 39.5242L67.418 44.4923H71.0022C71.7474 44.4923 72.3862 44.031 72.6701 43.3567L85.9067 9.67971C86.3325 8.57962 85.5518 7.37307 84.3807 7.26661ZM7.90656 39.0273V11.4541H13.9748V22.3485H25.1532V11.4541H31.2214V39.0273H25.1532V27.9554H13.9748V39.0273H7.90656ZM45.6291 39.4887C42.4353 39.4887 39.7738 38.495 37.7155 36.4723C35.6573 34.4141 34.5927 31.788 34.5927 28.5232C34.5927 25.4359 35.5863 22.8453 37.5381 20.7161C39.4899 18.5869 42.0094 17.5223 45.0258 17.5223C48.3616 17.5223 50.9166 18.6224 52.6555 20.8226C54.4298 23.0228 55.2815 25.7553 55.2815 28.9846C55.2815 29.3039 55.246 29.8362 55.2105 30.546H40.519C40.8029 31.8945 41.4062 32.9236 42.2933 33.6333C43.1805 34.3431 44.3161 34.6979 45.6646 34.6979C47.5454 34.6979 49.2487 33.9882 50.7747 32.5333L54.2169 35.5496C52.1232 38.1757 49.2487 39.4887 45.6291 39.4887ZM40.448 26.8199H49.4617C49.2842 25.4714 48.7874 24.3713 48.0067 23.5551C47.2615 22.7389 46.2324 22.3485 45.0258 22.3485C43.8193 22.3485 42.7901 22.7389 42.0094 23.5551C41.1932 24.3358 40.6964 25.4359 40.448 26.8199Z" fill="url(#paint0_linear_1_658)"/>
<path d="M87.4324 35.1944C88.6745 37.9269 90.8747 39.3109 94.0685 39.3109C97.1558 39.3109 99.9238 38.1044 102.479 35.6558C105.034 33.2072 106.489 30.1908 106.808 26.6066C107.057 23.9096 106.489 21.7804 105.105 20.1835C103.721 18.5511 101.876 17.7704 99.498 17.7704C97.1913 17.7704 94.8847 18.835 92.5425 20.9287L97.0494 8.50831L92.2586 8.15344L81.3287 38.8851H86.0839L87.4324 35.1944ZM99.1431 32.8523C97.5817 34.4847 95.8073 35.2654 93.891 35.2654C92.3296 35.2654 91.1231 34.7686 90.2359 33.775C89.3487 32.7813 88.9939 31.5393 89.1358 30.0133C89.3487 27.8486 90.2714 25.9324 91.9393 24.3C93.6071 22.6676 95.417 21.8159 97.3688 21.8159C98.8592 21.8159 100.03 22.2772 100.811 23.2354C101.627 24.158 101.947 25.4001 101.805 26.9615C101.592 29.2326 100.705 31.2199 99.1431 32.8523ZM113.977 34.0588C113.16 33.1007 112.77 31.8587 112.912 30.2618H128.029C128.775 28.6294 129.236 27.1389 129.342 25.7904C129.555 23.4483 128.988 21.532 127.639 20.0415C126.291 18.5156 124.339 17.7704 121.784 17.7704C119.477 17.7704 117.312 18.4091 115.29 19.6512C113.267 20.8932 111.634 22.4546 110.463 24.3709C109.292 26.2872 108.618 28.2745 108.441 30.3327C108.192 33.1007 108.831 35.3009 110.392 36.9688C111.954 38.6012 114.19 39.4174 117.064 39.4174C120.116 39.4174 122.884 38.4592 125.403 36.5429L123.381 33.5265C121.5 34.875 119.654 35.5138 117.88 35.5138C116.141 35.4783 114.828 35.017 113.977 34.0588ZM124.516 26.997H113.728C114.438 25.4001 115.432 24.1225 116.709 23.1289C118.022 22.1353 119.477 21.6384 121.074 21.6384C122.422 21.6384 123.416 22.0288 124.055 22.774C124.694 23.5193 124.978 24.4419 124.871 25.613C124.765 26.2163 124.658 26.6776 124.516 26.997ZM151.628 39.3464C149.96 39.3464 148.363 39.027 146.766 38.3882C145.17 37.7495 143.857 36.7913 142.792 35.6203L145.879 32.7104C147.654 34.6621 149.783 35.6203 152.302 35.6203C153.261 35.6203 154.077 35.4074 154.751 34.946C155.425 34.4847 155.78 33.9169 155.851 33.1362C155.887 32.6394 155.709 32.178 155.248 31.7877C154.822 31.3973 154.077 30.9715 153.048 30.5457C151.06 29.694 149.641 28.8778 148.754 28.0616C147.867 27.2099 147.476 26.0743 147.618 24.6193C147.796 22.6321 148.683 20.9997 150.28 19.7222C151.912 18.4091 153.935 17.7704 156.419 17.7704C157.945 17.7704 159.4 18.0543 160.748 18.6221C162.132 19.1544 163.268 19.8641 164.155 20.6448L161.245 23.6967C159.471 22.1708 157.625 21.4255 155.745 21.4255C154.751 21.4255 153.935 21.6384 153.332 22.0998C152.728 22.5611 152.409 23.0934 152.338 23.8031C152.302 24.3354 152.515 24.7968 152.977 25.1871C153.438 25.5775 154.254 26.0388 155.425 26.5356C157.2 27.3163 158.548 28.1325 159.435 29.0197C160.322 29.8714 160.713 30.9715 160.571 32.3555C160.393 34.4492 159.435 36.1526 157.732 37.4656C156.1 38.7076 154.041 39.3464 151.628 39.3464ZM131.826 38.1398C132.678 38.8851 133.92 39.2399 135.588 39.2399C137.079 39.2399 138.392 38.9915 139.563 38.4947L141.053 34.3782C139.953 34.8396 138.924 35.0525 137.966 35.0525C136.582 35.0525 135.943 34.5202 136.014 33.4556C136.049 32.9942 136.156 32.6039 136.262 32.2845L139.847 22.2772L140.024 21.7804H144.673L145.489 18.4801L141.408 17.9478L143.36 12.5183L138.569 12.0925L136.901 17.2026L136.866 17.3445L132.856 16.8122L131.649 21.7804H135.269L135.091 22.2772L131.33 32.7813C131.01 33.7395 130.833 34.5202 130.762 35.1589C130.655 36.4365 131.01 37.4301 131.826 38.1398Z" fill="white"/>
<mask id="mask0_1_658" style="mask-type:alpha" maskUnits="userSpaceOnUse" x="80" y="7" width="85" height="33">
<path d="M164.723 7.44354H80.6188V39.7366H164.723V7.44354Z" fill="white"/>
<path d="M87.4324 35.1944C88.6744 37.9269 90.8746 39.3109 94.0684 39.3109C97.1558 39.3109 99.9238 38.1044 102.479 35.6558C105.034 33.2072 106.489 30.1908 106.808 26.6066C107.057 23.9096 106.489 21.7804 105.105 20.1835C103.721 18.5511 101.876 17.7704 99.4979 17.7704C97.1913 17.7704 94.8846 18.835 92.5425 20.9287L97.0493 8.50831L92.2586 8.15344L81.3286 38.8851H86.0839L87.4324 35.1944ZM99.143 32.8523C97.5816 34.4847 95.8073 35.2654 93.891 35.2654C92.3296 35.2654 91.123 34.7686 90.2358 33.775C89.3487 32.7813 88.9938 31.5393 89.1357 30.0133C89.3487 27.8486 90.2713 25.9324 91.9392 24.3C93.6071 22.6676 95.4169 21.8159 97.3687 21.8159C98.8592 21.8159 100.03 22.2772 100.811 23.2354C101.627 24.158 101.947 25.4001 101.805 26.9615C101.592 29.2326 100.704 31.2199 99.143 32.8523ZM113.977 34.0588C113.16 33.1007 112.77 31.8587 112.912 30.2618H128.029C128.775 28.6294 129.236 27.1389 129.342 25.7904C129.555 23.4483 128.987 21.532 127.639 20.0415C126.29 18.5156 124.339 17.7704 121.784 17.7704C119.477 17.7704 117.312 18.4091 115.29 19.6512C113.267 20.8932 111.634 22.4546 110.463 24.3709C109.292 26.2872 108.618 28.2745 108.441 30.3327C108.192 33.1007 108.831 35.3009 110.392 36.9688C111.954 38.6012 114.189 39.4174 117.064 39.4174C120.116 39.4174 122.884 38.4592 125.403 36.5429L123.381 33.5265C121.5 34.875 119.654 35.5138 117.88 35.5138C116.141 35.4783 114.828 35.017 113.977 34.0588ZM124.516 26.997H113.728C114.438 25.4001 115.432 24.1225 116.709 23.1289C118.022 22.1353 119.477 21.6384 121.074 21.6384C122.422 21.6384 123.416 22.0288 124.055 22.774C124.694 23.5193 124.977 24.4419 124.871 25.613C124.765 26.2163 124.658 26.6776 124.516 26.997ZM151.628 39.3464C149.96 39.3464 148.363 39.027 146.766 38.3882C145.17 37.7495 143.856 36.7913 142.792 35.6203L145.879 32.7104C147.654 34.6621 149.783 35.6203 152.302 35.6203C153.261 35.6203 154.077 35.4074 154.751 34.946C155.425 34.4847 155.78 33.9169 155.851 33.1362C155.887 32.6394 155.709 32.178 155.248 31.7877C154.822 31.3973 154.077 30.9715 153.048 30.5457C151.06 29.694 149.641 28.8778 148.754 28.0616C147.867 27.2099 147.476 26.0743 147.618 24.6193C147.796 22.6321 148.683 20.9997 150.28 19.7222C151.912 18.4091 153.935 17.7704 156.419 17.7704C157.945 17.7704 159.4 18.0543 160.748 18.6221C162.132 19.1544 163.268 19.8641 164.155 20.6448L161.245 23.6967C159.471 22.1708 157.625 21.4255 155.745 21.4255C154.751 21.4255 153.935 21.6384 153.331 22.0998C152.728 22.5611 152.409 23.0934 152.338 23.8031C152.302 24.3354 152.515 24.7968 152.977 25.1871C153.438 25.5775 154.254 26.0388 155.425 26.5356C157.2 27.3163 158.548 28.1325 159.435 29.0197C160.322 29.8714 160.713 30.9715 160.571 32.3555C160.393 34.4492 159.435 36.1526 157.732 37.4656C156.099 38.7076 154.041 39.3464 151.628 39.3464ZM131.826 38.1398C132.678 38.8851 133.92 39.2399 135.588 39.2399C137.078 39.2399 138.392 38.9915 139.563 38.4947L141.053 34.3782C139.953 34.8396 138.924 35.0525 137.966 35.0525C136.582 35.0525 135.943 34.5202 136.014 33.4556C136.049 32.9942 136.156 32.6039 136.262 32.2845L139.846 22.2772L140.024 21.7804H144.673L145.489 18.4801L141.408 17.9478L143.36 12.5183L138.569 12.0925L136.901 17.2026L136.866 17.3445L132.856 16.8122L131.649 21.7804H135.269L135.091 22.2772L131.33 32.7813C131.01 33.7395 130.833 34.5202 130.762 35.1589C130.655 36.4365 131.01 37.4301 131.826 38.1398Z" fill="black"/>
</mask>
<g mask="url(#mask0_1_658)">
<path d="M87.4323 35.1943L87.7517 35.0524L87.3968 34.2717L87.1129 35.0879L87.4323 35.1943ZM102.479 35.6912L102.23 35.4427L102.479 35.6912ZM106.808 26.6065L107.163 26.642L106.808 26.6065ZM105.105 20.1834L104.821 20.3963L105.105 20.1834ZM92.5424 20.9286L92.223 20.8222L92.7908 21.2125L92.5424 20.9286ZM97.0493 8.50822L97.3686 8.61468L97.5106 8.18884L97.0493 8.15336V8.50822ZM92.2585 8.15336L92.294 7.79849L92.0101 7.763L91.9037 8.01141L92.2585 8.15336ZM81.3286 38.885L81.0092 38.7785L80.8318 39.2398H81.3286V38.885ZM86.1193 38.885V39.2398H86.3677L86.4387 38.9914L86.1193 38.885ZM99.143 32.8522L99.3914 33.1006L99.143 32.8522ZM89.1357 30.0487L89.4905 30.0842L89.1357 30.0487ZM91.9391 24.2999L92.1876 24.5483L91.9391 24.2999ZM100.811 23.2353L100.527 23.4837L100.811 23.2353ZM101.804 26.9614L102.159 26.9969L101.804 26.9614ZM112.912 30.2617V29.9068H112.592L112.557 30.2262L112.912 30.2617ZM113.976 34.0588L113.728 34.3072L113.976 34.0588ZM128.029 30.2617V30.6165H128.242L128.349 30.4036L128.029 30.2617ZM129.342 25.7903L129.697 25.8258L129.342 25.7903ZM127.639 20.0415L127.355 20.2899L127.639 20.0415ZM115.254 19.6511L115.431 19.9705L115.254 19.6511ZM110.428 24.3354L110.144 24.1579L110.428 24.3354ZM108.37 30.2972L108.724 30.3326L108.37 30.2972ZM110.321 36.9332L110.073 37.1816L110.321 36.9332ZM125.332 36.5074L125.545 36.7913L125.794 36.5783L125.616 36.2944L125.332 36.5074ZM123.345 33.491L123.629 33.2781L123.416 32.9587L123.132 33.1716L123.345 33.491ZM113.728 26.9969L113.409 26.8549L113.196 27.3517H113.728V26.9969ZM124.516 26.9969V27.3517H124.729L124.835 27.1388L124.516 26.9969ZM116.709 23.1288L116.496 22.8449L116.709 23.1288ZM124.019 22.7739L123.735 22.9869L124.019 22.7739ZM124.835 25.6129L125.19 25.6484L124.835 25.6129ZM146.766 38.4236L146.624 38.743L146.766 38.4236ZM142.792 35.6557L142.543 35.4073L142.295 35.6557L142.508 35.9041L142.792 35.6557ZM145.915 32.7457L146.163 32.4973L145.915 32.2489L145.666 32.4973L145.915 32.7457ZM155.922 33.1716L156.277 33.2071L155.922 33.1716ZM153.118 30.5811L153.26 30.2617L153.118 30.5811ZM148.825 28.097L148.576 28.3454L148.825 28.097ZM147.654 24.6547L147.299 24.6193L147.654 24.6547ZM150.315 19.7576L150.528 20.0415L150.315 19.7576ZM160.784 18.6575L160.642 18.9768L160.784 18.6575ZM164.155 20.7157L164.403 20.9641L164.652 20.7157L164.403 20.4673L164.155 20.7157ZM161.245 23.7676L161.032 24.0515L161.28 24.2644L161.529 24.016L161.245 23.7676ZM153.331 22.1352L153.118 21.8513L153.331 22.1352ZM152.338 23.8385L152.693 23.874L152.338 23.8385ZM152.977 25.2225L152.764 25.5064L152.977 25.2225ZM155.425 26.5355L155.567 26.2162L155.425 26.5355ZM159.435 29.0196L159.187 29.268L159.435 29.0196ZM160.571 32.3554L160.216 32.3199L160.571 32.3554ZM157.767 37.43L157.98 37.7139L157.767 37.43ZM131.826 38.1397L131.578 38.3882L131.826 38.1397ZM139.563 38.4946L139.704 38.814L139.846 38.743L139.882 38.6011L139.563 38.4946ZM141.017 34.3781L141.337 34.4846L141.621 33.7394L140.876 34.0233L141.017 34.3781ZM135.978 33.4555L136.333 33.491L135.978 33.4555ZM136.262 32.2844L136.582 32.4264L136.262 32.2844ZM139.846 22.2771L139.527 22.1707L139.846 22.2771ZM140.024 21.7803V21.4254H139.775L139.704 21.6738L140.024 21.7803ZM144.673 21.7803V22.1352H144.957L145.027 21.8513L144.673 21.7803ZM145.489 18.48L145.844 18.551L145.95 18.1606L145.56 18.1252L145.489 18.48ZM141.408 17.9477L141.088 17.8413L140.946 18.2671L141.372 18.3381L141.408 17.9477ZM143.36 12.5182L143.679 12.6247L143.821 12.1989L143.36 12.1634V12.5182ZM138.569 12.0569L138.604 11.702L138.32 11.6666L138.249 11.9504L138.569 12.0569ZM136.901 17.2025L137.22 17.309L136.901 17.2025ZM136.866 17.3445L136.83 17.6993L137.114 17.7348L137.22 17.4509L136.866 17.3445ZM132.855 16.8121L132.891 16.4573L132.572 16.4218L132.501 16.7412L132.855 16.8121ZM131.649 21.7803L131.294 21.7093L131.188 22.1352H131.649V21.7803ZM135.269 21.7803L135.588 21.8868L135.765 21.4254H135.269V21.7803ZM135.091 22.2771L134.772 22.1707L135.091 22.2771ZM131.33 32.7812L131.01 32.6748L131.33 32.7812ZM130.762 35.1589L131.117 35.1943L130.762 35.1589ZM94.0684 38.9559C92.5424 38.9559 91.2649 38.6366 90.2003 37.9623C89.1712 37.3236 88.355 36.3654 87.7517 35.0169L87.1129 35.3008C87.7517 36.7203 88.6744 37.8204 89.8454 38.5301C91.0165 39.2753 92.436 39.6302 94.0684 39.6302V38.9559ZM102.23 35.4073C99.7463 37.7849 97.0492 38.9559 94.0684 38.9559V39.6657C97.2267 39.6657 100.137 38.3882 102.727 35.9041L102.23 35.4073ZM106.453 26.6065C106.134 30.1197 104.714 33.0296 102.23 35.4427L102.727 35.9396C105.353 33.42 106.844 30.3326 107.163 26.642L106.453 26.6065ZM104.821 20.4318C106.134 21.9223 106.666 23.9805 106.418 26.6065L107.128 26.6775C107.376 23.9095 106.808 21.6738 105.353 19.9705L104.821 20.4318ZM99.4978 18.1252C101.769 18.1252 103.543 18.9059 104.821 20.4318L105.353 19.9705C103.898 18.2671 101.946 17.4154 99.4624 17.4154V18.1252H99.4978ZM92.7908 21.2125C95.062 19.1188 97.2977 18.1252 99.4978 18.1252V17.4154C97.0847 17.4154 94.6716 18.5155 92.3295 20.6802L92.7908 21.2125ZM96.7299 8.40176L92.223 20.8222L92.8973 21.0706L97.4041 8.65017L96.7299 8.40176ZM92.223 8.50822L97.0138 8.86309L97.0493 8.15336L92.2585 7.79849L92.223 8.50822ZM81.6834 39.0269L92.5779 8.2953L91.9037 8.0469L80.9737 38.7785L81.6834 39.0269ZM86.1193 38.5301H81.3641V39.2398H86.1193V38.5301ZM87.0774 35.0879L85.7644 38.7785L86.4387 39.0269L87.7517 35.3363L87.0774 35.0879ZM93.8909 35.6557C95.9492 35.6557 97.7945 34.804 99.3914 33.1006L98.8946 32.6038C97.3686 34.1652 95.7362 34.9104 93.8909 34.9104V35.6557ZM89.9519 34.0233C90.91 35.0879 92.223 35.6202 93.8554 35.6202V34.9104C92.4005 34.9104 91.2649 34.4491 90.4842 33.5265L89.9519 34.0233ZM88.7808 30.0133C88.6389 31.6102 89.0292 32.9587 89.9874 34.0588L90.5197 33.5974C89.7035 32.6748 89.3486 31.5392 89.4905 30.0842L88.7808 30.0133ZM91.6907 24.0515C89.9519 25.7548 88.9937 27.7421 88.7808 30.0133L89.4905 30.0842C89.668 27.9905 90.5906 26.1807 92.1876 24.5838L91.6907 24.0515ZM97.3331 21.4964C95.2749 21.4964 93.3941 22.3836 91.6552 24.0515L92.1521 24.5483C93.7845 22.9514 95.4878 22.1707 97.3331 22.1707V21.4964ZM101.059 23.0223C100.172 21.9932 98.8946 21.4964 97.3331 21.4964V22.2062C98.7526 22.2062 99.7817 22.632 100.527 23.4837L101.059 23.0223ZM102.159 26.9969C102.301 25.3645 101.946 24.016 101.059 23.0223L100.527 23.4837C101.237 24.2999 101.592 25.4355 101.45 26.9259L102.159 26.9969ZM99.3914 33.1006C101.024 31.3972 101.946 29.3745 102.159 26.9969L101.45 26.9259C101.237 29.1261 100.385 31.0069 98.8946 32.6038L99.3914 33.1006ZM112.557 30.2262C112.415 31.8941 112.805 33.2426 113.728 34.3072L114.26 33.8458C113.515 32.9942 113.16 31.8231 113.267 30.2972L112.557 30.2262ZM128.029 29.9068H112.912V30.6165H128.029V29.9068ZM128.987 25.7548C128.881 27.0678 128.455 28.5228 127.71 30.1197L128.349 30.4036C129.129 28.7712 129.555 27.2098 129.697 25.8258L128.987 25.7548ZM127.355 20.2544C128.633 21.6738 129.2 23.5192 128.987 25.7548L129.697 25.8258C129.91 23.4127 129.307 21.39 127.887 19.793L127.355 20.2544ZM121.784 18.1252C124.268 18.1252 126.113 18.8704 127.355 20.2899L127.887 19.8285C126.468 18.2316 124.41 17.4509 121.748 17.4509V18.1252H121.784ZM115.431 19.935C117.419 18.7284 119.512 18.0897 121.748 18.0897V17.3799C119.37 17.3799 117.135 18.0187 115.041 19.3317L115.431 19.935ZM110.712 24.5483C111.883 22.703 113.444 21.177 115.431 19.9705L115.077 19.3672C113.018 20.6092 111.35 22.2416 110.108 24.1934L110.712 24.5483ZM108.724 30.3326C108.902 28.3099 109.576 26.3936 110.712 24.5128L110.108 24.1579C108.902 26.1097 108.228 28.1325 108.015 30.2617L108.724 30.3326ZM110.605 36.6848C109.15 35.1234 108.512 33.0296 108.76 30.3326L108.05 30.2617C107.802 33.1006 108.476 35.4427 110.108 37.1461L110.605 36.6848ZM116.993 38.9914C114.189 38.9914 112.06 38.2107 110.57 36.6848L110.073 37.1816C111.705 38.885 114.047 39.7367 116.993 39.7367V38.9914ZM125.119 36.2235C122.671 38.0688 119.974 39.0269 116.993 39.0269V39.7367C120.116 39.7367 122.955 38.743 125.545 36.7913L125.119 36.2235ZM123.026 33.6684L125.048 36.6848L125.652 36.2944L123.629 33.2781L123.026 33.6684ZM117.845 35.8331C119.725 35.8331 121.642 35.1234 123.558 33.7749L123.132 33.2071C121.287 34.5201 119.548 35.1589 117.845 35.1589V35.8331ZM113.728 34.3072C114.686 35.3363 116.07 35.8331 117.845 35.8331V35.1234C116.212 35.1234 115.041 34.662 114.26 33.8104L113.728 34.3072ZM113.728 27.3517H124.516V26.642H113.728V27.3517ZM116.496 22.8449C115.148 23.874 114.118 25.2225 113.409 26.8549L114.047 27.1388C114.722 25.6129 115.68 24.3354 116.922 23.4127L116.496 22.8449ZM121.074 21.2835C119.406 21.2835 117.88 21.8158 116.496 22.8449L116.922 23.4127C118.199 22.4546 119.548 21.9932 121.074 21.9932V21.2835ZM124.303 22.561C123.593 21.6738 122.493 21.2835 121.074 21.2835V21.9932C122.387 21.9932 123.239 22.3481 123.771 22.9869L124.303 22.561ZM125.19 25.6484C125.297 24.4063 125.013 23.3772 124.303 22.561L123.771 23.0223C124.339 23.6611 124.587 24.5128 124.481 25.5774L125.19 25.6484ZM124.835 27.1743C125.013 26.784 125.155 26.2517 125.19 25.6484L124.481 25.5774C124.445 26.1452 124.339 26.571 124.197 26.8549L124.835 27.1743ZM146.624 38.743C148.257 39.3818 149.925 39.7012 151.628 39.7012V38.9914C150.031 38.9914 148.434 38.6721 146.873 38.0688L146.624 38.743ZM142.543 35.8686C143.644 37.1106 144.992 38.0688 146.624 38.743L146.908 38.1043C145.347 37.4655 144.105 36.5783 143.076 35.4073L142.543 35.8686ZM145.666 32.4619L142.579 35.3718L143.076 35.9041L146.163 32.9942L145.666 32.4619ZM152.338 35.3008C149.925 35.3008 147.866 34.3781 146.163 32.5328L145.631 32.9942C147.476 34.9814 149.712 36.0105 152.338 36.0105V35.3008ZM154.609 34.662C154.006 35.0524 153.26 35.2653 152.338 35.2653V35.9751C153.367 35.9751 154.254 35.7266 154.999 35.2653L154.609 34.662ZM155.567 33.1361C155.496 33.7749 155.212 34.2717 154.609 34.662L154.999 35.2653C155.745 34.7685 156.17 34.0588 156.277 33.2071L155.567 33.1361ZM155.07 32.107C155.425 32.4264 155.567 32.7812 155.532 33.1361L156.241 33.2071C156.312 32.5683 156.028 32.036 155.532 31.5747L155.07 32.107ZM152.977 30.9004C154.006 31.3263 154.68 31.7521 155.07 32.107L155.532 31.5747C155.035 31.1488 154.254 30.723 153.225 30.2617L152.977 30.9004ZM148.576 28.3809C149.534 29.2325 150.989 30.0842 152.977 30.9004L153.26 30.2617C151.309 29.4455 149.925 28.6293 149.073 27.8486L148.576 28.3809ZM147.299 24.6193C147.157 26.1807 147.547 27.4227 148.541 28.3454L149.038 27.8131C148.221 27.0679 147.866 26.0387 148.008 24.6547L147.299 24.6193ZM150.102 19.4737C148.434 20.8222 147.512 22.5255 147.334 24.6193L148.044 24.6902C148.221 22.8094 149.038 21.248 150.563 20.0415L150.102 19.4737ZM156.454 17.4509C153.935 17.4509 151.805 18.1252 150.102 19.4737L150.563 20.0415C152.089 18.7994 154.077 18.1606 156.454 18.1606V17.4509ZM160.926 18.3381C159.506 17.7348 158.016 17.4509 156.454 17.4509V18.1606C157.945 18.1606 159.329 18.4445 160.642 19.0123L160.926 18.3381ZM164.403 20.4318C163.481 19.5801 162.31 18.8704 160.89 18.3381L160.642 19.0123C161.99 19.5446 163.09 20.2189 163.942 20.9641L164.403 20.4318ZM161.493 24.016L164.403 20.9641L163.907 20.4673L160.997 23.5192L161.493 24.016ZM155.745 21.8513C157.519 21.8513 159.293 22.561 161.032 24.0515L161.493 23.5192C159.684 21.9577 157.767 21.177 155.78 21.177V21.8513H155.745ZM153.544 22.4546C154.077 22.0642 154.822 21.8513 155.745 21.8513V21.1415C154.68 21.1415 153.793 21.39 153.118 21.8868L153.544 22.4546ZM152.693 23.874C152.728 23.3062 153.012 22.8449 153.544 22.4546L153.118 21.8868C152.444 22.3836 152.054 23.0223 151.983 23.8385L152.693 23.874ZM153.189 24.9386C152.799 24.6193 152.657 24.2644 152.693 23.874L151.983 23.8031C151.912 24.4773 152.196 25.0096 152.728 25.4709L153.189 24.9386ZM155.532 26.2162C154.361 25.7193 153.615 25.2935 153.189 24.9386L152.728 25.4709C153.225 25.8968 154.077 26.3581 155.248 26.8549L155.532 26.2162ZM159.684 28.7712C158.761 27.884 157.377 27.0324 155.567 26.2162L155.283 26.8549C157.058 27.6356 158.371 28.4163 159.222 29.268L159.684 28.7712ZM160.926 32.3909C161.068 30.9004 160.642 29.6939 159.648 28.7712L159.151 29.3035C159.967 30.0487 160.322 31.0424 160.18 32.3554L160.926 32.3909ZM157.98 37.7139C159.755 36.3654 160.748 34.5556 160.926 32.3554L160.216 32.2844C160.038 34.2717 159.151 35.8686 157.519 37.1461L157.98 37.7139ZM151.628 39.7012C154.112 39.7012 156.241 39.0269 157.98 37.7139L157.554 37.1461C155.957 38.3882 154.006 38.9914 151.664 38.9914V39.7012H151.628ZM135.588 38.885C133.991 38.885 132.82 38.5301 132.075 37.8559L131.613 38.3882C132.572 39.2044 133.92 39.5592 135.588 39.5592V38.885ZM139.421 38.1752C138.32 38.6366 137.043 38.885 135.588 38.885V39.5947C137.114 39.5947 138.498 39.3463 139.704 38.814L139.421 38.1752ZM140.698 34.2717L139.208 38.3882L139.882 38.6366L141.372 34.5201L140.698 34.2717ZM137.93 35.4073C138.959 35.4073 140.024 35.1589 141.159 34.6975L140.876 34.0233C139.811 34.4491 138.817 34.662 137.93 34.662V35.4073ZM135.623 33.42C135.552 34.0233 135.73 34.5556 136.156 34.9459C136.582 35.3008 137.185 35.4427 137.895 35.4427V34.733C137.22 34.733 136.83 34.5911 136.582 34.4136C136.369 34.2362 136.262 33.9523 136.298 33.5265L135.623 33.42ZM135.943 32.1425C135.801 32.5328 135.694 32.9587 135.659 33.42L136.369 33.491C136.404 33.0651 136.475 32.7103 136.617 32.4264L135.943 32.1425ZM139.527 22.1352L135.943 32.1425L136.617 32.3909L140.201 22.3836L139.527 22.1352ZM139.704 21.6384L139.527 22.1352L140.201 22.3836L140.379 21.8868L139.704 21.6384ZM144.673 21.4254H140.024V22.1352H144.673V21.4254ZM145.134 18.3736L144.318 21.6738L144.992 21.8513L145.808 18.551L145.134 18.3736ZM141.372 18.3026L145.453 18.8349L145.56 18.1252L141.479 17.5929L141.372 18.3026ZM143.04 12.3763L141.088 17.8058L141.763 18.0542L143.714 12.6247L143.04 12.3763ZM138.533 12.4118L143.324 12.8376L143.395 12.1279L138.604 11.702L138.533 12.4118ZM137.256 17.309L138.924 12.1989L138.249 11.9859L136.546 17.096L137.256 17.309ZM137.185 17.4509L137.22 17.309L136.546 17.0606L136.511 17.2025L137.185 17.4509ZM132.82 17.167L136.83 17.6993L136.936 16.9896L132.891 16.4573L132.82 17.167ZM132.004 21.8513L133.21 16.8831L132.536 16.7057L131.33 21.6738L132.004 21.8513ZM135.269 21.4254H131.649V22.1352H135.269V21.4254ZM135.411 22.3836L135.588 21.8868L134.914 21.6384L134.736 22.1352L135.411 22.3836ZM131.649 32.8877L135.411 22.3836L134.736 22.1352L130.975 32.6393L131.649 32.8877ZM131.117 35.1943C131.188 34.5911 131.365 33.8104 131.684 32.8877L131.01 32.6748C130.691 33.6329 130.478 34.4491 130.407 35.1589L131.117 35.1943ZM132.075 37.8913C131.33 37.2526 131.01 36.3654 131.117 35.1943L130.407 35.1234C130.3 36.4719 130.655 37.572 131.578 38.3882L132.075 37.8913Z" fill="white"/>
</g>
</g>
<defs>
<linearGradient id="paint0_linear_1_658" x1="0.276886" y1="34.8106" x2="86.0243" y2="34.8106" gradientUnits="userSpaceOnUse">
<stop stop-color="#184EFF"/>
<stop offset="1" stop-color="#0AA7FF"/>
</linearGradient>
<clipPath id="clip0_1_658">
<rect width="164.446" height="44.7081" fill="white" transform="translate(0.277039)"/>
</clipPath>
</defs>
</svg>
